<svg width="605" height="605" viewBox="0 0 605 605" fill="none" xmlns="http://www.w3.org/2000/svg">
<path d="M82.5039 412.498H522.504V549.998H82.5039V412.498Z" fill="#1A565F"/>
<path fill-rule="evenodd" clip-rule="evenodd" d="M329.996 63.635V0H274.996V63.635C223.666 70.3199 176.523 95.4551 142.366 134.349C108.209 173.242 89.3717 223.237 89.3711 275V323.125H515.621V275C515.615 223.238 496.776 173.247 462.62 134.355C428.463 95.4623 381.323 70.3255 329.996 63.635Z" fill="#1A565F"/>
<path fill-rule="evenodd" clip-rule="evenodd" d="M0 412.502V343.752L302.5 192.502L605 343.752V412.502H570.625V550.002H605V605.002H0V550.002H34.375V412.502H0ZM103.125 412.502V550.002H151.25V412.502H103.125ZM453.75 412.502H501.875V550.002H453.75V412.502ZM220 412.502V550.002H268.125V412.502H220ZM336.875 412.502V550.002H385V412.502H336.875Z" fill="#78E183"/>
</svg>
