<svg width="2568" height="679" viewBox="0 0 2568 679" fill="none" xmlns="http://www.w3.org/2000/svg">
<path d="M1628.83 1H1612.28V667.923H1628.83V1Z" fill="#1D1D1D"/>
<path d="M1640.89 1H1600.21V211.679H1640.89V1Z" fill="#1D1D1D" stroke="#1D1D1D"/>
<path d="M1604.09 4.83685L674.937 671.76" stroke="#1D1D1D" stroke-miterlimit="10"/>
<path d="M1604.09 4.83685L811.079 671.76" stroke="#1D1D1D" stroke-miterlimit="10"/>
<path d="M1604.09 4.83685L928.655 671.76" stroke="#1D1D1D" stroke-miterlimit="10"/>
<path d="M1604.09 4.83685L1032.71 671.76" stroke="#1D1D1D" stroke-miterlimit="10"/>
<path d="M1604.09 4.83685L1126.79 671.76" stroke="#1D1D1D" stroke-miterlimit="10"/>
<path d="M1604.09 4.83685L1213.54 671.76" stroke="#1D1D1D" stroke-miterlimit="10"/>
<path d="M1604.09 4.83685L1294.96 671.76" stroke="#1D1D1D" stroke-miterlimit="10"/>
<path d="M1604.09 4.83685L1372.68 671.76" stroke="#1D1D1D" stroke-miterlimit="10"/>
<path d="M1604.09 4.83685L1448.06 671.76" stroke="#1D1D1D" stroke-miterlimit="10"/>
<path d="M1604.09 4.83685L1522.31 671.76" stroke="#1D1D1D" stroke-miterlimit="10"/>
<path d="M1637.91 4.16531L2567.06 671.088" stroke="#1D1D1D" stroke-miterlimit="10"/>
<path d="M1637.91 4.16531L2430.93 671.088" stroke="#1D1D1D" stroke-miterlimit="10"/>
<path d="M1637.91 4.16531L2313.34 671.088" stroke="#1D1D1D" stroke-miterlimit="10"/>
<path d="M1637.91 4.16531L2209.29 671.088" stroke="#1D1D1D" stroke-miterlimit="10"/>
<path d="M1637.91 4.16531L2115.2 671.088" stroke="#1D1D1D" stroke-miterlimit="10"/>
<path d="M1637.91 4.16531L2028.46 671.088" stroke="#1D1D1D" stroke-miterlimit="10"/>
<path d="M1637.91 4.16531L1947.04 671.088" stroke="#1D1D1D" stroke-miterlimit="10"/>
<path d="M1637.91 4.16531L1869.33 671.088" stroke="#1D1D1D" stroke-miterlimit="10"/>
<path d="M1637.91 4.16531L1793.94 671.088" stroke="#1D1D1D" stroke-miterlimit="10"/>
<path d="M1637.91 4.16531L1719.69 671.088" stroke="#1D1D1D" stroke-miterlimit="10"/>
<path d="M1476.54 649.043L1460.58 645.33L1608.76 183.6L1624.73 187.313L1476.54 649.043Z" fill="#1D1D1D"/>
<path d="M1764.79 649.043L1780.75 645.33L1632.57 183.6L1616.6 187.313L1764.79 649.043Z" fill="#1D1D1D"/>
<path d="M2562 638H0V679H2562V638Z" fill="#1D1D1D"/>
</svg>
