<svg width="45" height="44" viewBox="0 0 45 44" fill="none" xmlns="http://www.w3.org/2000/svg">
<path d="M0.5 26.9993H44.5V43.9993H0.5V26.9993Z" fill="#78E183"/>
<path fill-rule="evenodd" clip-rule="evenodd" d="M20.5 0V6H24.5V0H20.5ZM10.086 12.414L6.086 8.414L8.914 5.586L12.914 9.586L10.086 12.414ZM38.914 8.414L34.914 12.414L32.086 9.586L36.086 5.586L38.914 8.414ZM6.5 24H0.5V20H6.5V24ZM38.5 24H44.5V20H38.5V24ZM22.5 10C19.3174 10 16.2652 11.2643 14.0147 13.5147C11.7643 15.7652 10.5 18.8174 10.5 22V24H34.5V22C34.5 18.8174 33.2357 15.7652 30.9853 13.5147C28.7348 11.2643 25.6826 10 22.5 10ZM44.5 43.12V38.88L32.62 27H28.38L44.5 43.12ZM24 27H21V44H24V27ZM0.5 43.12L16.62 27H12.38L0.5 38.88V43.12Z" fill="#1A565F"/>
</svg>
