<svg width="45" height="44" viewBox="0 0 45 44" fill="none" xmlns="http://www.w3.org/2000/svg">
<path fill-rule="evenodd" clip-rule="evenodd" d="M16.4884 14.9527L17.1062 13.2275L13.6541 11.9882L13.0362 13.7152L3.74674 39.6055L3.12891 41.3307L6.57924 42.57L7.19891 40.8448L11.2047 29.6743H20.6684V42.0585H24.3351V29.6743H33.7987L37.8046 40.8448L38.4242 42.5682L41.8746 41.3307L41.2567 39.6073L31.9672 13.7133L31.3494 11.9863L27.8972 13.2257L28.5169 14.949L32.4824 26.0058H24.3351V12.4997H20.6684V26.0077H12.5211L16.4866 14.9527H16.4884Z" fill="#1A565F"/>
<path d="M2.79297 8.24935C2.79297 6.6691 3.42072 5.15358 4.53812 4.03617C5.65553 2.91877 7.17105 2.29102 8.7513 2.29102H36.2513C37.8316 2.29102 39.3471 2.91877 40.4645 4.03617C41.5819 5.15358 42.2096 6.6691 42.2096 8.24935C42.2096 9.8296 41.5819 11.3451 40.4645 12.4625C39.3471 13.5799 37.8316 14.2077 36.2513 14.2077H8.7513C7.17105 14.2077 5.65553 13.5799 4.53812 12.4625C3.42072 11.3451 2.79297 9.8296 2.79297 8.24935Z" fill="#78E183"/>
</svg>
