<svg width="45" height="45" viewBox="0 0 45 45" fill="none" xmlns="http://www.w3.org/2000/svg">
<g clip-path="url(#clip0_4_1790)">
<path fill-rule="evenodd" clip-rule="evenodd" d="M20.5702 2C10.0547 2 1.53077 10.5239 1.53077 21.0394C1.53077 25.1329 2.82545 28.9312 5.0264 32.0366L0 40.0788H20.5702C31.0856 40.0788 39.6096 31.5549 39.6096 21.0394C39.6096 10.5239 31.0856 2 20.5702 2Z" fill="#1A565F"/>
<path d="M29.135 15.3262C25.3478 15.3262 21.7158 16.8306 19.0379 19.5086C16.3599 22.1865 14.8555 25.8186 14.8555 29.6057C14.8555 33.3929 16.3599 37.025 19.0379 39.7029C21.7158 42.3808 25.3478 43.8853 29.135 43.8853H44.9453L40.9947 37.5623C42.4369 35.4129 43.2679 32.9119 43.3986 30.3268C43.5293 27.7417 42.9549 25.1697 41.7367 22.8858C40.5186 20.6019 38.7026 18.692 36.483 17.3605C34.2633 16.0289 31.7234 15.3258 29.135 15.3262Z" fill="#78E183"/>
</g>
<defs>
<clipPath id="clip0_4_1790">
<rect width="45" height="45" fill="white"/>
</clipPath>
</defs>
</svg>
