<svg width="35" height="44" viewBox="0 0 35 44" fill="none" xmlns="http://www.w3.org/2000/svg">
<path fill-rule="evenodd" clip-rule="evenodd" d="M17.0388 11.0005C18.4976 11.0005 19.8966 10.421 20.9281 9.38949C21.9596 8.358 22.539 6.95899 22.539 5.50024C22.539 4.04148 21.9596 2.64248 20.9281 1.61098C19.8966 0.579488 18.4976 0 17.0388 0C15.5801 0 14.1811 0.579488 13.1496 1.61098C12.1181 2.64248 11.5386 4.04148 11.5386 5.50024C11.5386 6.95899 12.1181 8.358 13.1496 9.38949C14.1811 10.421 15.5801 11.0005 17.0388 11.0005ZM16.5388 14.0006H14.5387V30.0013H27.0312L30.6174 42.5518L34.4616 41.4518L30.4614 27.4512L30.0474 26.0011H22.233L20.513 15.6727L20.2329 14.0006H16.5388Z" fill="#78E183"/>
<path fill-rule="evenodd" clip-rule="evenodd" d="M11.5367 20.04C9.25654 20.2311 7.07856 21.07 5.25944 22.4579C3.44033 23.8458 2.05591 25.7248 1.26937 27.8735C0.482841 30.0222 0.326982 32.3509 0.820166 34.5853C1.31335 36.8196 2.43502 38.8664 4.05296 40.4843C5.6709 42.1022 7.71766 43.2239 9.95199 43.7171C12.1863 44.2103 14.5151 44.0544 16.6638 43.2679C18.8124 42.4813 20.6915 41.0969 22.0794 39.2778C23.4673 37.4587 24.3062 35.2807 24.4972 33.0006H20.477C20.2894 34.4855 19.6889 35.888 18.7439 37.0487C17.7988 38.2094 16.5471 39.0817 15.1311 39.5665C13.715 40.0513 12.1913 40.1291 10.7332 39.7911C9.27515 39.4531 7.94112 38.7129 6.88275 37.6545C5.82439 36.5961 5.08414 35.2621 4.74615 33.804C4.40816 32.3459 4.48598 30.8223 4.97076 29.4062C5.45554 27.9901 6.32785 26.7384 7.48853 25.7934C8.64921 24.8484 10.0517 24.2479 11.5367 24.0602V20.04Z" fill="#1A565F"/>
</svg>
