<svg width="47" height="46" viewBox="0 0 47 46" fill="none" xmlns="http://www.w3.org/2000/svg">
<path fill-rule="evenodd" clip-rule="evenodd" d="M19.668 37.3763H30.2096V33.543H19.668V37.3763Z" fill="#78E183"/>
<path fill-rule="evenodd" clip-rule="evenodd" d="M2.41797 3.83398H29.2513V11.5007H39.1106L44.5846 23.5431V37.3757H2.41797V3.83398ZM29.2513 23.959H40.5616L36.642 15.334H29.2513V23.959Z" fill="#78E183"/>
<path d="M27.3359 37.3757C27.3359 38.6465 27.8408 39.8653 28.7394 40.7639C29.638 41.6625 30.8568 42.1673 32.1276 42.1673C33.3984 42.1673 34.6172 41.6625 35.5158 40.7639C36.4144 39.8653 36.9193 38.6465 36.9193 37.3757C36.9193 36.1048 36.4144 34.886 35.5158 33.9874C34.6172 33.0888 33.3984 32.584 32.1276 32.584C30.8568 32.584 29.638 33.0888 28.7394 33.9874C27.8408 34.886 27.3359 36.1048 27.3359 37.3757Z" fill="#1A565F"/>
<path d="M8.16797 37.3757C8.16797 38.6465 8.6728 39.8653 9.57142 40.7639C10.47 41.6625 11.6888 42.1673 12.9596 42.1673C14.2305 42.1673 15.4492 41.6625 16.3479 40.7639C17.2465 39.8653 17.7513 38.6465 17.7513 37.3757C17.7513 36.1048 17.2465 34.886 16.3479 33.9874C15.4492 33.0888 14.2305 32.584 12.9596 32.584C11.6888 32.584 10.47 33.0888 9.57142 33.9874C8.6728 34.886 8.16797 36.1048 8.16797 37.3757Z" fill="#1A565F"/>
<path fill-rule="evenodd" clip-rule="evenodd" d="M8.98828 16.4297H22.679V20.263H8.98828V16.4297Z" fill="#1A565F"/>
<path fill-rule="evenodd" clip-rule="evenodd" d="M17.7513 11.5V25.1908H13.918V11.5H17.7513Z" fill="#1A565F"/>
</svg>
