<svg width="45" height="46" viewBox="0 0 45 46" fill="none" xmlns="http://www.w3.org/2000/svg">
<path d="M45 20.824H0V22.8607C0 35.287 10.0738 45.3607 22.5 45.3607C34.9262 45.3607 45 35.287 45 22.8607V20.824Z" fill="#78E183"/>
<path fill-rule="evenodd" clip-rule="evenodd" d="M43.2056 15.127L35.6432 0L28.0787 15.127H33.6064V17.6729H37.6799V15.127H43.2056ZM44.4155 27.9768C43.6327 31.3163 42.0983 34.4333 39.929 37.0903C37.7598 39.7473 35.013 41.8743 31.8976 43.3095L25.0582 35.6513V27.9768H44.4155ZM12.2694 20.8238V33.0911H2.45634C0.837087 29.9242 -0.0049028 26.4173 2.14754e-05 22.8605V20.8238H12.2694ZM1.0184 17.6729L12.2205 6.47076L23.4227 17.6729H1.0184Z" fill="#1A565F"/>
</svg>
