<svg width="45" height="45" viewBox="0 0 45 45" fill="none" xmlns="http://www.w3.org/2000/svg">
<path fill-rule="evenodd" clip-rule="evenodd" d="M3.75 1.875H1.875V15H5.625V5.625H15V1.875H3.75ZM30 5.625H39.375V15H43.125V1.875H30V5.625ZM39.375 39.375V30H43.125V43.125H30V39.375H39.375ZM5.625 30V39.375H15V43.125H1.875V30H5.625Z" fill="#78E183"/>
<path fill-rule="evenodd" clip-rule="evenodd" d="M13.125 11.25V18.75H16.875V11.25H13.125ZM24.375 14.0625H20.625V23.4375H16.875V27.1875H24.375V14.0625ZM28.125 18.75V11.25H31.875V18.75H28.125ZM31.7813 31.7812L29.13 29.13C28.2594 30.0008 27.2258 30.6916 26.0882 31.1629C24.9506 31.6342 23.7314 31.8767 22.5 31.8767C21.2686 31.8767 20.0494 31.6342 18.9118 31.1629C17.7742 30.6916 16.7406 30.0008 15.87 29.13L13.2188 31.7812C14.4375 33.0002 15.8845 33.9671 17.477 34.6267C19.0695 35.2864 20.7763 35.6259 22.5 35.6259C24.2237 35.6259 25.9305 35.2864 27.523 34.6267C29.1155 33.9671 30.5625 33.0002 31.7813 31.7812Z" fill="#1A565F"/>
</svg>
