<svg width="45" height="44" viewBox="0 0 45 44" fill="none" xmlns="http://www.w3.org/2000/svg">
<path fill-rule="evenodd" clip-rule="evenodd" d="M26.25 9.16602V3.66602H18.75V9.16602H13.125V16.4993H18.75V21.9993H26.25V16.4993H31.875V9.16602H26.25Z" fill="#1A565F"/>
<path fill-rule="evenodd" clip-rule="evenodd" d="M26.3059 33.806L33.8472 26.4323C34.8334 27.3948 35.3359 28.372 35.4334 29.2227C35.5234 30.022 35.2778 30.8672 34.4153 31.7105L34.4134 31.7124L34.4041 31.7234L34.3666 31.76L34.2259 31.8957L33.7534 32.3577L32.5216 33.5622L34.5091 35.5055L35.7409 34.3029L36.2153 33.839L36.3541 33.7034L36.3916 33.6667L36.4009 33.6575L36.4047 33.6557C37.8166 32.277 38.4222 30.6197 38.2291 28.9183C38.0828 27.6295 37.4884 26.4158 36.6222 25.347V22.916V20.166C36.6222 16.4993 39.4347 14.666 43.1847 14.666V34.8327L35.6847 42.166H26.3059V33.806ZM11.2497 26.4342L18.7928 33.8097V42.1678H9.41406L1.91406 34.8345V14.666C5.66406 14.666 8.47656 16.4993 8.47656 20.166V22.916V25.347C7.60844 26.4158 7.01594 27.6295 6.86969 28.9183C6.67656 30.6197 7.28219 32.2733 8.69406 33.6539L8.69594 33.6575L8.70531 33.6667L8.74281 33.7034L8.88344 33.839L9.35594 34.3029L10.5878 35.5073L12.5753 33.5622L11.3453 32.3577L10.8709 31.8957L10.7322 31.7582L10.6947 31.7215L10.6853 31.7124L10.6834 31.7105C9.82094 30.8672 9.57344 30.022 9.66531 29.2227C9.76094 28.372 10.2653 27.3967 11.2497 26.4342Z" fill="#78E183"/>
</svg>
