<svg width="45" height="45" viewBox="0 0 45 45" fill="none" xmlns="http://www.w3.org/2000/svg">
<path fill-rule="evenodd" clip-rule="evenodd" d="M10.2273 11.8636C10.2273 8.7172 11.4772 5.69964 13.7021 3.47478C15.9269 1.24992 18.9445 0 22.0909 0H22.9091C26.0555 0 29.0731 1.24992 31.298 3.47478C33.5228 5.69964 34.7727 8.7172 34.7727 11.8636V12.2727H30.6818V11.8636C30.6818 9.80218 29.8629 7.82516 28.4053 6.36749C26.9476 4.90982 24.9706 4.09091 22.9091 4.09091H22.0909C20.0295 4.09091 18.0525 4.90982 16.5948 6.36749C15.1371 7.82516 14.3182 9.80218 14.3182 11.8636V12.2727H10.2273V11.8636Z" fill="#1A565F"/>
<path fill-rule="evenodd" clip-rule="evenodd" d="M45 10.2273H0V45H45V10.2273Z" fill="#78E183"/>
<path fill-rule="evenodd" clip-rule="evenodd" d="M45 22.0347L44.3455 22.227L22.5123 28.6558L0.679091 22.227L0 22.0286V25.2277L22.0786 31.7281L22.5123 31.857L22.9459 31.7281L45 25.2338V22.0347Z" fill="#1A565F"/>
</svg>
