<svg width="45" height="42" viewBox="0 0 45 42" fill="none" xmlns="http://www.w3.org/2000/svg">
<path fill-rule="evenodd" clip-rule="evenodd" d="M20.5702 0C10.0547 0 1.53077 8.52394 1.53077 19.0394C1.53077 23.1329 2.82545 26.9312 5.0264 30.0366L0 38.0788H20.5702C31.0856 38.0788 39.6096 29.5549 39.6096 19.0394C39.6096 8.52394 31.0856 0 20.5702 0Z" fill="#1A565F"/>
<path d="M29.135 13.3262C25.3478 13.3262 21.7158 14.8306 19.0379 17.5086C16.3599 20.1865 14.8555 23.8186 14.8555 27.6057C14.8555 31.3929 16.3599 35.025 19.0379 37.7029C21.7158 40.3808 25.3478 41.8853 29.135 41.8853H44.9453L40.9947 35.5623C42.4369 33.4129 43.2679 30.9119 43.3986 28.3268C43.5293 25.7417 42.9549 23.1697 41.7367 20.8858C40.5186 18.6019 38.7026 16.692 36.483 15.3605C34.2633 14.0289 31.7234 13.3258 29.135 13.3262Z" fill="#78E183"/>
</svg>
