<svg width="45" height="45" viewBox="0 0 45 45" fill="none" xmlns="http://www.w3.org/2000/svg">
<path fill-rule="evenodd" clip-rule="evenodd" d="M22.5 23.5714C25.6258 23.5714 28.6235 22.3297 30.8338 20.1195C33.044 17.9092 34.2857 14.9115 34.2857 11.7857C34.2857 8.65995 33.044 5.66221 30.8338 3.45196C28.6235 1.24171 25.6258 0 22.5 0C19.3742 0 16.3765 1.24171 14.1662 3.45196C11.956 5.66221 10.7143 8.65995 10.7143 11.7857C10.7143 14.9115 11.956 17.9092 14.1662 20.1195C16.3765 22.3297 19.3742 23.5714 22.5 23.5714ZM1.12286 33.2486C7.68837 29.6992 15.0365 27.8459 22.5 27.8571C30.2314 27.8571 37.515 29.8093 43.8771 33.2486L45 33.8571V45H0V33.8571L1.12286 33.2486Z" fill="#78E183"/>
<path fill-rule="evenodd" clip-rule="evenodd" d="M10.7143 45L27.5743 28.14C32.595 28.7036 37.3693 30.0943 41.7557 32.1729L28.9286 45H10.7143Z" fill="#1A565F"/>
</svg>
