<svg width="45" height="46" viewBox="0 0 45 46" fill="none" xmlns="http://www.w3.org/2000/svg">
<path d="M29.0735 35.0582C31.2939 35.0582 33.4234 34.1761 34.9935 32.606C36.5635 31.0359 37.4456 28.9065 37.4456 26.6861C37.4456 24.4656 36.5635 22.3362 34.9935 20.7661C33.4234 19.196 31.2939 18.314 29.0735 18.314C26.8531 18.314 24.7236 19.196 23.1535 20.7661C21.5835 22.3362 20.7014 24.4656 20.7014 26.6861C20.7014 28.9065 21.5835 31.0359 23.1535 32.606C24.7236 34.1761 26.8531 35.0582 29.0735 35.0582Z" fill="#1A565F"/>
<path fill-rule="evenodd" clip-rule="evenodd" d="M45 0H0V36.2616H21.127V35.0163C19.4626 33.4289 18.3119 31.3793 17.8233 29.1318C17.3346 26.8843 17.5304 24.542 18.3854 22.4069C19.2403 20.2717 20.7153 18.4416 22.6201 17.1525C24.5249 15.8634 26.7721 15.1744 29.0721 15.1744C31.3721 15.1744 33.6193 15.8634 35.5241 17.1525C37.4289 18.4416 38.9038 20.2717 39.7588 22.4069C40.6138 24.542 40.8096 26.8843 40.3209 29.1318C39.8322 31.3793 38.6816 33.4289 37.0172 35.0163V36.2616H45V0Z" fill="#78E183"/>
<path fill-rule="evenodd" clip-rule="evenodd" d="M10.0073 6.42212H8.4375V9.56165H31.4922V6.42212H10.0073ZM10.0073 15.1563H8.4375V18.2958H15.1749V15.1563H10.0073Z" fill="#1A565F"/>
<path d="M24.2659 45.4479V32.6135H33.877V45.4479L29.0715 42.1661L24.2659 45.4479Z" fill="#78E183"/>
<path d="M29.0735 35.0582C31.2939 35.0582 33.4234 34.1761 34.9935 32.606C36.5635 31.0359 37.4456 28.9065 37.4456 26.6861C37.4456 24.4656 36.5635 22.3362 34.9935 20.7661C33.4234 19.196 31.2939 18.314 29.0735 18.314C26.8531 18.314 24.7236 19.196 23.1535 20.7661C21.5835 22.3362 20.7014 24.4656 20.7014 26.6861C20.7014 28.9065 21.5835 31.0359 23.1535 32.606C24.7236 34.1761 26.8531 35.0582 29.0735 35.0582Z" fill="#1A565F"/>
<path fill-rule="evenodd" clip-rule="evenodd" d="M26.457 24.0698H31.6896V29.3023H26.457V24.0698Z" fill="#78E183"/>
</svg>
