<svg width="45" height="44" viewBox="0 0 45 44" fill="none" xmlns="http://www.w3.org/2000/svg">
<path d="M5.625 22C5.625 24.1668 6.06148 26.3124 6.90953 28.3143C7.75758 30.3161 9.00058 32.1351 10.5676 33.6673C12.1346 35.1994 13.9948 36.4148 16.0422 37.244C18.0896 38.0732 20.2839 38.5 22.5 38.5C24.7161 38.5 26.9104 38.0732 28.9578 37.244C31.0052 36.4148 32.8654 35.1994 34.4324 33.6673C35.9994 32.1351 37.2424 30.3161 38.0905 28.3143C38.9385 26.3124 39.375 24.1668 39.375 22C39.375 19.8332 38.9385 17.6876 38.0905 15.6857C37.2424 13.6839 35.9994 11.8649 34.4324 10.3327C32.8654 8.80057 31.0052 7.58519 28.9578 6.75599C26.9104 5.92679 24.7161 5.5 22.5 5.5C20.2839 5.5 18.0896 5.92679 16.0422 6.75599C13.9948 7.58519 12.1346 8.80057 10.5676 10.3327C9.00058 11.8649 7.75758 13.6839 6.90953 15.6857C6.06148 17.6876 5.625 19.8332 5.625 22Z" fill="#78E183"/>
<path fill-rule="evenodd" clip-rule="evenodd" d="M31.6644 8.14371C30.4203 7.3547 29.0749 6.73022 27.6631 6.28654C30.4006 4.49354 32.9806 3.15154 35.195 2.43471C36.4063 2.04054 37.6025 1.80404 38.7069 1.83704C39.8225 1.87004 40.9831 2.19087 41.8719 3.05804C43.2556 4.41104 43.2838 6.36537 42.9406 8.03371C42.5788 9.78454 41.7013 11.8012 40.4806 13.926C38.0263 18.1995 33.965 23.298 28.895 28.2535C23.8269 33.2109 18.6125 37.1819 14.2419 39.5817C12.0669 40.7734 10.0063 41.6332 8.21563 41.9852C6.50938 42.3225 4.51063 42.295 3.12688 40.9402C2.24 40.073 1.91188 38.9382 1.87813 37.8474C1.84438 36.7675 2.08625 35.5979 2.48938 34.4135C3.2225 32.2484 4.595 29.7239 6.42875 27.049C6.88251 28.4294 7.52119 29.7449 8.32813 30.9614C7.25375 32.7122 6.48688 34.2724 6.04813 35.5667C5.72375 36.5237 5.60938 37.2405 5.62625 37.7355C5.64125 38.214 5.76688 38.3387 5.77813 38.3497C5.79688 38.3662 6.14 38.654 7.475 38.3919C8.72375 38.1444 10.3963 37.488 12.4063 36.3844C16.4 34.1917 21.3463 30.4499 26.2437 25.6612C31.1413 20.8725 34.9681 16.0362 37.2106 12.1312C38.3394 10.1659 39.0106 8.53054 39.2638 7.30954C39.5319 6.00421 39.2375 5.66687 39.2206 5.65037C39.2094 5.63937 39.0819 5.51654 38.5925 5.50187C38.0863 5.48537 37.3531 5.59721 36.3744 5.91437C35.0506 6.34337 33.455 7.09321 31.6644 8.14371Z" fill="#1A565F"/>
</svg>
