<svg width="45" height="45" viewBox="0 0 45 45" fill="none" xmlns="http://www.w3.org/2000/svg">
<path fill-rule="evenodd" clip-rule="evenodd" d="M34.6875 5.625H39.375V1.875H5.625V5.625H10.3125V30.9375C10.3125 34.1698 11.5965 37.2698 13.8821 39.5554C16.1677 41.841 19.2677 43.125 22.5 43.125C25.7323 43.125 28.8323 41.841 31.1179 39.5554C33.4035 37.2698 34.6875 34.1698 34.6875 30.9375V5.625Z" fill="#78E183"/>
<path d="M30.9375 17.8125H14.0625V30.9375C14.0625 33.1753 14.9514 35.3214 16.5338 36.9037C18.1161 38.4861 20.2622 39.375 22.5 39.375C24.7378 39.375 26.8839 38.4861 28.4662 36.9037C30.0486 35.3214 30.9375 33.1753 30.9375 30.9375V17.8125Z" fill="#1A565F"/>
</svg>
