<svg width="37" height="45" viewBox="0 0 37 45" fill="none" xmlns="http://www.w3.org/2000/svg">
<path d="M0.5 18.5H36.5V44.5H0.5V18.5Z" fill="#78E183"/>
<path fill-rule="evenodd" clip-rule="evenodd" d="M10.5 12.5C10.5 10.3783 11.3429 8.34344 12.8431 6.84315C14.3434 5.34285 16.3783 4.5 18.5 4.5C20.6217 4.5 22.6566 5.34285 24.1569 6.84315C25.6571 8.34344 26.5 10.3783 26.5 12.5V18.5H30.5V12.5C30.5 9.3174 29.2357 6.26515 26.9853 4.01472C24.7348 1.76428 21.6826 0.5 18.5 0.5C15.3174 0.5 12.2652 1.76428 10.0147 4.01472C7.76428 6.26515 6.5 9.3174 6.5 12.5V18.5H10.5V12.5ZM16.5 27.5V35.5H20.5V27.5H16.5Z" fill="#1A565F"/>
</svg>
