<svg width="61" height="44" viewBox="0 0 61 44" fill="none" xmlns="http://www.w3.org/2000/svg">
<path fill-rule="evenodd" clip-rule="evenodd" d="M33.2078 9.01665V0H27.7924V9.01665C24.0552 9.62385 20.6294 11.4662 18.0623 14.2492C15.4953 17.0322 13.9351 20.5954 13.6311 24.3693H0.715332V29.7847H14.067C14.9775 33.4546 17.0902 36.7141 20.0684 39.0437C23.0467 41.3733 26.719 42.6389 30.5001 42.6389C34.2812 42.6389 37.9535 41.3733 40.9317 39.0437C43.9099 36.7141 46.0226 33.4546 46.9331 29.7847H60.2848V24.3693H47.3691C47.0651 20.5954 45.5049 17.0322 42.9378 14.2492C40.3708 11.4662 36.9449 9.62385 33.2078 9.01665Z" fill="#78E183"/>
<path fill-rule="evenodd" clip-rule="evenodd" d="M23.7314 25.7218H37.2699V20.3064H23.7314V25.7218ZM7.48516 31.8141C5.86937 31.8141 4.31976 32.456 3.17723 33.5985C2.03469 34.7411 1.39282 36.2907 1.39282 37.9065C1.39282 39.5223 2.03469 41.0719 3.17723 42.2144C4.31976 43.3569 5.86937 43.9988 7.48516 43.9988C9.10094 43.9988 10.6506 43.3569 11.7931 42.2144C12.9356 41.0719 13.5775 39.5223 13.5775 37.9065C13.5775 36.2907 12.9356 34.7411 11.7931 33.5985C10.6506 32.456 9.10094 31.8141 7.48516 31.8141ZM53.5161 31.8141C51.9003 31.8141 50.3507 32.456 49.2082 33.5985C48.0657 34.7411 47.4238 36.2907 47.4238 37.9065C47.4238 39.5223 48.0657 41.0719 49.2082 42.2144C50.3507 43.3569 51.9003 43.9988 53.5161 43.9988C55.1319 43.9988 56.6815 43.3569 57.824 42.2144C58.9666 41.0719 59.6084 39.5223 59.6084 37.9065C59.6084 36.2907 58.9666 34.7411 57.824 33.5985C56.6815 32.456 55.1319 31.8141 53.5161 31.8141Z" fill="#1A565F"/>
</svg>
