<svg width="37" height="43" viewBox="0 0 37 43" fill="none" xmlns="http://www.w3.org/2000/svg">
<path d="M31.0945 12.5946L18.4999 0L5.90533 12.5946C3.41444 15.0855 1.71814 18.2592 1.03093 21.7142C0.343721 25.1692 0.696471 28.7504 2.04457 32.005C3.39267 35.2595 5.67558 38.0412 8.6046 39.9983C11.5336 41.9554 14.9772 43 18.4999 43C22.0226 43 25.4662 41.9554 28.3952 39.9983C31.3242 38.0412 33.6072 35.2595 34.9552 32.005C36.3034 28.7504 36.6561 25.1692 35.9689 21.7142C35.2817 18.2592 33.5854 15.0855 31.0945 12.5946Z" fill="#78E183"/>
<path fill-rule="evenodd" clip-rule="evenodd" d="M10.9873 25.1893C10.9873 27.1814 11.7787 29.0919 13.1874 30.5006C14.596 31.9092 16.5065 32.7006 18.4986 32.7006V36.4562C15.5105 36.4562 12.6447 35.2692 10.5317 33.1562C8.41874 31.0432 7.23169 28.1775 7.23169 25.1893H10.9873Z" fill="#1A565F"/>
</svg>
