<svg width="599" height="447" viewBox="0 0 599 447" fill="none" xmlns="http://www.w3.org/2000/svg">
<g clip-path="url(#clip0_234_1028)">
<path d="M569.992 263.676L569.15 270.666L564.149 264.448C539.488 234.819 532.919 231.526 499.628 210.547C466.336 189.559 405.516 172.69 405.516 172.69C305.651 149.639 225.509 161.986 225.509 161.986C65.2539 184.086 31.1381 256.228 25.2595 273.196L24.5247 269.598C24.5247 269.598 43.7915 179.887 225.841 154.789C225.841 154.789 305.982 142.442 405.847 165.485C405.847 165.485 466.668 182.354 499.959 203.342C533.251 224.33 539.819 227.623 564.481 257.251L569.992 263.676Z" fill="#02C27F"/>
<path d="M569.141 270.666L562.617 322.054C509.216 319.371 357.994 311.86 290.497 309.509C210.768 306.737 35.7531 321.542 23.1625 322.619L22.4456 319.523H34.7495L25.2594 273.196C31.1381 256.228 65.2538 184.086 225.5 161.985C225.5 161.985 305.642 149.639 405.507 172.69C405.507 172.69 466.327 189.559 499.619 210.547C532.91 231.526 539.479 234.819 564.14 264.447L569.141 270.666Z" fill="#FFFBEE"/>
<path d="M34.7226 319.542C34.4986 319.587 25.3759 319.524 22.4904 319.542C22.0603 318.277 13.6097 281.263 13.2513 279.926C13.2244 277.719 13.4484 275.287 13.4753 274.381C13.5291 274.247 13.5111 269.643 13.5918 269.545C13.7531 267.885 13.4394 263.811 13.6456 263.452C14.1115 263.694 21.2179 267.723 23.6643 269.096C24.677 269.715 24.4529 269.276 24.7307 270.577C24.9548 271.734 34.5434 318.42 34.7405 319.542H34.7316H34.7226Z" fill="#FFFDEE"/>
<path d="M580.495 262.169L579.536 267.436L570.306 324.531L562.294 324.567L568.997 271.6L569.616 267.589L569.822 264.655L571.874 252.729L581.741 255.197L580.495 262.169Z" fill="#FFFDEE"/>
<path d="M59.6352 282.295C57.144 282.851 49.6613 284.727 42.761 288.343L40.2698 277.333L41.5333 282.107C52.7081 282.259 58.3179 276.14 58.3179 276.14L59.6352 282.295Z" stroke="#FFFBEE" stroke-width="0.853429" stroke-miterlimit="10"/>
<path d="M39.5259 274.498L40.2697 277.333L41.5332 282.107C52.708 282.26 58.3178 276.14 58.3178 276.14L53.5952 254.183C54.1418 253.555 54.7153 252.927 55.2978 252.29C56.4001 251.079 57.565 249.849 58.8017 248.593C60.2445 247.122 61.7769 245.614 63.3989 244.089L69.0624 268.98C69.0624 268.98 86.4026 276.032 102.085 265.92L94.1004 220.472C95.1758 219.79 96.269 219.108 97.3803 218.426C98.59 217.681 99.8267 216.937 101.081 216.201C102.515 215.357 103.976 214.514 105.472 213.67C108.053 225.838 115.948 260.662 121.872 262.187C121.872 262.187 144.499 267.777 162.26 254.183L154.536 191.911C155.495 191.57 156.471 191.238 157.448 190.924C157.824 190.798 158.21 190.664 158.595 190.538C159.545 190.224 160.504 189.91 161.472 189.596L170.191 249.114V249.131C170.191 249.131 194.019 268.172 233.36 249.131L229.784 174.064C230.689 173.929 231.612 173.804 232.535 173.669C232.885 173.624 233.234 173.57 233.584 173.525C233.584 173.525 234.094 173.445 235.089 173.31C235.923 173.202 237.087 173.059 238.575 172.888L243.101 246.269C249.92 250.307 275.155 262.34 311.189 245.085L312.936 243.371L314.603 171.614C315.418 171.668 316.234 171.722 317.058 171.776L318.107 171.857C318.887 171.91 319.666 171.964 320.455 172.027L319.783 246.628C326.226 250.352 350.968 262.026 389.296 248.602L394.959 183.494C396.008 183.755 397.433 184.105 399.18 184.553C399.288 184.58 399.404 184.607 399.521 184.643C400.327 184.849 401.205 185.074 402.128 185.325L397.316 250.352C403.258 254.587 421.082 263.542 457.877 254.892L465.772 207.632C466.65 208.062 467.51 208.493 468.362 208.933C468.568 209.031 468.765 209.139 468.971 209.247C469.706 209.615 470.432 210 471.149 210.386L464.876 256.803C469.437 261.469 483.21 272.327 504.682 261.568L511.43 235.376C513.114 236.533 514.772 237.727 516.439 238.965C517.595 239.818 518.751 240.706 519.916 241.63C520.499 242.088 521.09 242.563 521.682 243.048L516.358 268.316C519.665 270.631 527.417 275.332 533.251 273.197L537.525 257.422C538.798 258.67 540.106 259.989 541.468 261.371L536.737 288.325" stroke="#FFFBEE" stroke-width="0.853429" stroke-miterlimit="10"/>
<path d="M533.331 307.732L531.638 317.405L505.999 317.522L498.086 317.558L456.631 317.746L447.365 317.782L392.316 318.033L383.247 318.078L319.138 318.365L311.189 318.401L247.572 318.688L236.747 318.742L180.434 318.993L170.299 319.038L121.872 319.254L111.459 319.299L76.3839 319.46L69.3135 319.496L55.4234 319.559L54.1509 314.085" stroke="#FFFBEE" stroke-width="0.853429" stroke-miterlimit="10"/>
<path d="M76.3928 319.497H67.6286L65.5765 309.931V309.923L61.7858 292.291L60.9793 288.549L59.6351 282.295L59.4559 281.442L58.3178 276.139L57.5381 272.514L53.5952 254.183L52.6094 249.571L44.6069 212.342H49.8135L58.8017 248.592L66.7594 280.662L75.2278 314.804L76.3838 319.461L76.3928 319.497Z" fill="#FFFDEE"/>
<path d="M121.872 319.254L111.459 319.299L108.51 302.52L104.603 280.231L103.366 273.196L102.085 265.919L101.547 262.868L94.1004 220.471L93.2849 215.841L87.3525 182.085L94.4768 183.458L101.081 216.2L112.749 274.04L119.551 307.733L121.872 319.254Z" fill="#FFFDEE"/>
<path d="M180.506 319.497L170.361 319.559L170.299 319.039L167.18 293.861L164.752 274.282L163.578 264.842V264.824L162.26 254.183L162.072 252.639L154.536 191.91L153.666 184.831L150.091 156.019L156.937 158.684L160.54 183.26L161.472 189.595L169.465 244.142L170.191 249.113L170.2 249.131L172.431 264.376L172.655 265.919L177.746 300.626L180.434 318.994L180.506 319.497Z" fill="#FFFDEE"/>
<path d="M247.626 319.497L236.747 318.744L236.666 318.735L235.385 291.888L235.197 287.895L234.417 271.375L233.969 262.026L233.915 260.823L233.36 249.132L233.163 244.905L229.784 174.064L229.551 169.138L228.171 140.11L236.666 142.031L238.235 167.325L238.575 172.889L242.563 237.583L243.101 246.269L243.97 260.294L244.024 261.191L246.165 295.925L247.572 318.69L247.626 319.497Z" fill="#FFFDEE"/>
<path d="M320.778 136L320.5 166.723L320.455 172.026L319.837 240.903L319.783 246.627L319.684 257.404L319.675 258.579L319.326 297.163L319.138 318.366V318.402H311.189L311.673 297.63L312.569 259.297L312.587 258.651L312.936 243.37L313.062 237.96L314.603 171.614L314.827 161.986L315.428 136H320.778Z" fill="#FFFDEE"/>
<path d="M404.888 148.069L402.594 179.071L402.128 185.325L397.908 242.357L397.316 250.352L396.474 261.685L395.712 272.03L394.377 290.102L392.316 318.035L392.289 318.403L383.247 318.08L384.681 301.578L388.274 260.348L389.296 248.602L389.618 244.923L394.959 183.494L395.631 175.778L398.042 148.069H404.888Z" fill="#FFFDEE"/>
<path d="M476.122 173.579L472.135 203.091L471.149 210.386L465.557 251.751L464.876 256.803L463.469 267.194L462.313 275.763L459.463 296.795L456.631 317.747L456.398 319.497H447.079L447.365 317.783L449.462 305.221L455.941 266.458L456.004 266.081L457.877 254.892L458.37 251.94L465.772 207.631L466.919 200.776L471.462 173.579H476.122Z" fill="#FFFDEE"/>
<path d="M529.55 205.675L522.399 239.619L521.682 243.047L517.013 265.228L516.359 268.315L514.952 274.991L513.294 282.851L508.715 304.637V304.646L505.999 317.522L505.99 317.558H496.671L498.696 309.509L507.478 274.596L507.729 273.591L508.177 271.814L516.439 238.964L525.437 203.207L529.55 205.675Z" fill="#FFFDEE"/>
<path d="M562.294 233.23L543.52 324.683H535.572L537.525 316.006L545.402 280.958L556.129 233.23H562.294Z" fill="#FFFDEE"/>
<path d="M58.3178 276.139C58.3178 276.139 52.708 282.259 41.5332 282.106L40.2697 277.333L39.5259 274.497C41.4615 270.092 45.9153 262.859 53.5952 254.183L57.5382 272.514L58.3178 276.139Z" fill="#231F20"/>
<path d="M102.085 265.92C86.4027 276.032 69.0625 268.979 69.0625 268.979L63.3989 244.088C71.3656 236.578 81.4829 228.476 94.1005 220.472L101.547 262.869L102.085 265.92Z" fill="#231F20"/>
<path d="M162.26 254.183C144.499 267.777 121.872 262.187 121.872 262.187C121.011 261.963 120.115 261.048 119.201 259.603C113.771 251.061 107.677 224.079 105.472 213.671C119.228 205.936 135.484 198.47 154.536 191.911L162.072 252.64L162.26 254.183Z" fill="#231F20"/>
<path d="M233.36 249.131C194.019 268.172 170.2 249.131 170.2 249.131V249.113L169.465 244.142L161.472 189.596C181.267 183.225 203.939 177.832 229.784 174.063L233.162 244.905L233.36 249.131Z" fill="#231F20"/>
<path d="M314.603 171.614L313.062 237.96L312.936 243.371L311.189 245.085C275.155 262.34 249.92 250.307 243.101 246.269L242.563 237.583L238.575 172.889C249.445 171.65 277.315 169.228 314.603 171.614Z" fill="#231F20"/>
<path d="M394.959 183.494L389.618 244.923L389.296 248.601C350.968 262.025 326.226 250.351 319.783 246.627L319.836 240.903L320.455 172.026C342.15 173.668 366.758 176.961 392.889 183C392.889 183 393.615 183.171 394.959 183.494Z" fill="#231F20"/>
<path d="M465.772 207.631L458.37 251.939L457.877 254.891C421.082 263.541 403.258 254.586 397.316 250.351L397.908 242.356L402.128 185.324C416.323 189.057 444.112 197.07 465.772 207.631Z" fill="#231F20"/>
<path d="M511.43 235.375L504.987 260.383L504.682 261.567C483.211 272.326 469.437 261.469 464.876 256.803L465.557 251.751L471.149 210.386C473.613 211.705 475.97 213.069 478.174 214.459C492.719 223.621 502.415 229.157 511.43 235.375Z" fill="#231F20"/>
<path d="M537.525 257.422L533.564 272.038L533.251 273.196C527.417 275.332 519.665 270.63 516.359 268.315L517.013 265.228L521.682 243.047C526.503 246.959 531.575 251.535 537.525 257.422Z" fill="#231F20"/>
<path d="M45.8436 319.559L38.8537 319.299L20.1604 241.001H23.9959L38.101 291.716L45.3955 317.944L45.8436 319.559Z" fill="#FFFDEE"/>
<path d="M65.5765 309.923C63.7035 314.131 58.3895 314.526 54.1508 314.086C51.0412 313.763 48.5051 313 48.3169 312.938H48.308L45.4672 300.34L44.6069 296.535C44.7503 296.356 44.8847 296.185 45.0281 296.024C50.9695 288.989 57.5381 288.316 60.9793 288.549L61.7858 292.291L65.5765 309.923Z" fill="#231F20"/>
<path d="M108.51 302.52C96.2961 310.514 83.5531 306.809 79.8162 305.427C79.1083 305.167 78.7229 304.987 78.7229 304.987L75.228 288.342C78.7767 280.733 97.954 280.186 104.603 280.231L108.51 302.52Z" fill="#231F20"/>
<path d="M167.18 293.861C167.18 293.861 149.831 303.579 123.216 298.482C122.436 298.33 121.639 298.168 120.841 297.989L119.201 280.276C119.201 280.276 119.506 279.953 120.187 279.442C123.485 276.983 135.591 270.155 164.752 274.282L167.18 293.861Z" fill="#231F20"/>
<path d="M307.219 268.773V288.729C307.219 288.729 306.224 289.097 304.432 289.644C296.295 292.148 271.75 298.375 250.377 290.389C250.001 290.254 249.633 290.111 249.266 289.967L247.626 270.011C247.626 270.011 248.477 269.59 250.09 268.988C256.856 266.449 277.1 260.59 304.925 268.127C305.686 268.333 306.448 268.549 307.219 268.773Z" fill="#231F20"/>
<path d="M382.216 270.218L380.783 288.317C379.851 288.747 378.919 289.16 378.005 289.546C348.369 302.072 328.861 290.982 324.416 287.985C323.78 287.554 323.448 287.294 323.448 287.294V268.155C324.057 267.975 324.667 267.805 325.276 267.643C351.569 260.599 374.169 267.338 380.469 269.563C381.607 269.967 382.216 270.218 382.216 270.218Z" fill="#231F20"/>
<path d="M446.12 291.815C446.12 291.815 445.143 292.426 443.342 293.242C436.415 296.41 417.264 302.762 394.377 290.102L395.712 272.03C402.845 269.392 419.693 265.471 444.256 274.121C445.188 274.444 446.129 274.785 447.079 275.153C447.079 275.153 448.79 287.706 446.12 291.815Z" fill="#231F20"/>
<path d="M499.135 281.945L496.671 299.64C496.671 299.64 496.016 299.972 494.825 300.43C489.573 302.466 473.927 307.079 459.463 296.796L462.313 275.763C469.07 274.686 485.128 273.277 497.97 281.201C498.364 281.434 498.75 281.685 499.135 281.945Z" fill="#231F20"/>
<path d="M536.737 288.325L533.331 307.733C533.331 307.733 533.313 307.742 533.305 307.742C528.931 308.873 518.85 310.425 508.715 304.647L513.294 282.851C517.685 282.107 528.896 281.093 536.737 288.325Z" fill="#231F20"/>
<path d="M59.456 281.443L37.8054 290.649L41.5333 282.107C52.7081 282.259 58.3179 276.14 58.3179 276.14L59.456 281.443Z" fill="#231F20"/>
<path d="M103.366 273.197L66.6519 280.232L69.0625 268.98C69.0625 268.98 86.4026 276.032 102.085 265.92L103.366 273.197Z" fill="#231F20"/>
<path d="M163.578 264.825V264.842L112.211 271.375L119.201 259.602C120.115 261.047 121.011 261.962 121.872 262.186C121.872 262.186 144.499 267.777 162.26 254.183L163.578 264.825Z" fill="#DBDAD6"/>
<path d="M233.915 260.823L172.432 264.376L170.2 249.131C170.2 249.131 194.019 268.171 233.36 249.131L233.915 260.823Z" fill="#DBDAD6"/>
<path d="M312.936 243.37L312.569 259.297L243.97 260.293L243.101 246.268C249.92 250.306 275.155 262.339 311.189 245.084L312.936 243.37Z" fill="#DBDAD6"/>
<path d="M389.296 248.602L388.274 260.348L319.675 258.58L319.783 246.628C326.226 250.352 350.968 262.025 389.296 248.602Z" fill="#DBDAD6"/>
<path d="M457.877 254.892L456.004 266.081L396.474 261.684L397.316 250.352C403.258 254.587 421.082 263.542 457.877 254.892Z" fill="#DBDAD6"/>
<path d="M508.177 271.814L507.729 273.591L463.469 267.193L464.876 256.803C469.437 261.469 483.211 272.326 504.682 261.567L504.987 260.383L508.177 271.814Z" fill="#DBDAD6"/>
<path d="M508.714 273.735L507.729 273.591L508.177 271.814L508.714 273.735Z" fill="#231F20"/>
<path d="M534.478 279.943C528.725 276.148 518.984 275.215 514.952 274.99L516.359 268.314C519.665 270.629 527.417 275.331 533.251 273.196L533.564 272.038L534.478 279.943Z" fill="#DBDAD6"/>
<path d="M48.317 312.938L45.3956 317.945L38.1011 291.717L45.0282 296.024C44.8848 296.185 44.7504 296.356 44.607 296.535L45.4673 300.34L48.308 312.938H48.317Z" fill="#231F20"/>
<path d="M79.8162 305.427L75.228 314.804L66.7595 280.662L75.228 288.343L78.7229 304.988C78.7229 304.988 79.1082 305.167 79.8162 305.427Z" fill="#DBDAD6"/>
<path d="M123.216 298.482L120.635 307.5L119.551 307.733L112.749 274.04L120.187 279.442C119.506 279.953 119.201 280.276 119.201 280.276L120.841 297.989C121.639 298.168 122.436 298.33 123.216 298.482Z" fill="#DBDAD6"/>
<path d="M181.823 291.286L177.746 300.627L172.656 265.92L180.801 272.982C178.964 273.78 177.97 274.328 177.97 274.328L178.785 290.174C179.798 290.578 180.81 290.945 181.823 291.286Z" fill="#DBDAD6"/>
<path d="M234.417 271.375C233.485 271.061 232.562 270.765 231.639 270.487L233.969 262.025L234.417 271.375Z" fill="#FFFBEE"/>
<path d="M235.197 287.894C235.197 287.894 234.811 288.091 234.086 288.414C228.915 290.72 206.386 299.585 181.823 291.285C180.81 290.944 179.798 290.577 178.785 290.173L177.97 274.327C177.97 274.327 178.964 273.779 180.802 272.99C187.89 269.93 207.533 263.263 231.639 270.486C232.562 270.764 233.485 271.06 234.417 271.374L235.197 287.894Z" fill="#231F20"/>
<path d="M250.377 290.388L246.165 295.925L244.024 261.19L250.09 268.988C248.477 269.589 247.626 270.011 247.626 270.011L249.266 289.967C249.633 290.11 250.001 290.254 250.377 290.388Z" fill="#DBDAD6"/>
<path d="M312.587 258.651L312.569 259.297L311.673 297.63L304.432 289.644C306.224 289.097 307.219 288.729 307.219 288.729V268.773C306.448 268.549 305.686 268.333 304.925 268.127L312.587 258.651Z" fill="#DBDAD6"/>
<path d="M323.448 287.293C323.448 287.293 323.779 287.553 324.416 287.984L319.783 297.163H319.326L319.675 258.58V257.404L325.276 267.642C324.667 267.804 324.057 267.974 323.448 268.154V287.293Z" fill="#DBDAD6"/>
<path d="M388.274 260.348L384.681 301.578L378.004 289.546C378.918 289.16 379.85 288.747 380.782 288.316L382.216 270.218C382.216 270.218 381.607 269.967 380.469 269.563L388.274 260.348Z" fill="#DBDAD6"/>
<path d="M455.941 266.458L449.462 305.221L443.342 293.242C445.143 292.426 446.12 291.816 446.12 291.816C448.79 287.706 447.079 275.153 447.079 275.153C446.129 274.785 445.188 274.444 444.256 274.121L455.941 266.458Z" fill="#DBDAD6"/>
<path d="M507.478 274.596L498.696 309.509L494.824 300.429C496.016 299.971 496.671 299.639 496.671 299.639L499.135 281.945C498.75 281.684 498.364 281.433 497.97 281.2L507.478 274.596Z" fill="#DBDAD6"/>
<path d="M545.402 280.958L537.525 316.006L533.304 307.742C533.304 307.742 533.322 307.733 533.331 307.733L536.737 288.325L537.194 287.939L545.402 280.958Z" fill="#DBDAD6"/>
<path d="M599 336.877H0.633789V446.544H599V336.877Z" fill="#FFFDEE"/>
<path d="M599 335.02V336.878H0.633789L22.4457 322.683H575.011C579.366 322.898 581.741 323.024 581.741 323.024L599 335.02Z" fill="#00484D"/>
<path d="M562.617 322.054L562.536 322.683H23.1805L23.1626 322.62C35.7533 321.543 210.768 306.738 290.497 309.51C357.994 311.861 509.216 319.372 562.617 322.054Z" fill="#EF84BA"/>
<path d="M23.1625 322.619L23.1804 322.682H22.4456C22.4456 322.682 22.6875 322.664 23.1625 322.619Z" fill="#FFFDEE"/>
<path d="M575.011 322.683H562.536L562.617 322.055C567.68 322.315 571.865 322.521 575.011 322.683Z" fill="#FFFDEE"/>
<mask id="mask0_234_1028" style="mask-type:luminance" maskUnits="userSpaceOnUse" x="24" y="344" width="544" height="72">
<path d="M567.151 344.28H24.5247V415.3H567.151V344.28Z" fill="white"/>
</mask>
<g mask="url(#mask0_234_1028)">
<path d="M43.1732 344.28H24.5247V360.935H43.1732V344.28Z" fill="#231F20"/>
<path d="M70.7831 344.28H52.1345V360.935H70.7831V344.28Z" fill="#231F20"/>
<path d="M98.3839 344.28H79.7354V360.935H98.3839V344.28Z" fill="#231F20"/>
<path d="M125.994 344.28H107.345V360.935H125.994V344.28Z" fill="#231F20"/>
<path d="M153.604 344.28H134.955V360.935H153.604V344.28Z" fill="#231F20"/>
<path d="M181.214 344.28H162.565V360.935H181.214V344.28Z" fill="#231F20"/>
<path d="M208.815 344.28H190.166V360.935H208.815V344.28Z" fill="#231F20"/>
<path d="M236.424 344.28H217.776V360.935H236.424V344.28Z" fill="#231F20"/>
<path d="M264.034 344.28H245.386V360.935H264.034V344.28Z" fill="#231F20"/>
<path d="M291.644 344.28H272.996V360.935H291.644V344.28Z" fill="#231F20"/>
<path d="M319.245 344.28H300.596V360.935H319.245V344.28Z" fill="#231F20"/>
<path d="M346.855 344.28H328.207V360.935H346.855V344.28Z" fill="#231F20"/>
<path d="M374.465 344.28H355.816V360.935H374.465V344.28Z" fill="#231F20"/>
<path d="M402.075 344.28H383.426V360.935H402.075V344.28Z" fill="#231F20"/>
<path d="M429.676 344.28H411.027V360.935H429.676V344.28Z" fill="#231F20"/>
<path d="M457.285 344.28H438.637V360.935H457.285V344.28Z" fill="#231F20"/>
<path d="M484.895 344.28H466.247V360.935H484.895V344.28Z" fill="#231F20"/>
<path d="M512.505 344.28H493.857V360.935H512.505V344.28Z" fill="#231F20"/>
<path d="M540.106 344.28H521.458V360.935H540.106V344.28Z" fill="#231F20"/>
<path d="M567.716 344.28H549.067V360.935H567.716V344.28Z" fill="#231F20"/>
<path d="M43.1732 368.938H24.5247V385.592H43.1732V368.938Z" fill="#231F20"/>
<path d="M70.7831 368.938H52.1345V385.592H70.7831V368.938Z" fill="#231F20"/>
<path d="M98.3839 368.938H79.7354V385.592H98.3839V368.938Z" fill="#231F20"/>
<path d="M125.994 368.938H107.345V385.592H125.994V368.938Z" fill="#231F20"/>
<path d="M153.604 368.938H134.955V385.592H153.604V368.938Z" fill="#231F20"/>
<path d="M181.214 368.938H162.565V385.592H181.214V368.938Z" fill="#231F20"/>
<path d="M208.815 368.938H190.166V385.592H208.815V368.938Z" fill="#231F20"/>
<path d="M236.424 368.938H217.776V385.592H236.424V368.938Z" fill="#231F20"/>
<path d="M264.034 368.938H245.386V385.592H264.034V368.938Z" fill="#231F20"/>
<path d="M291.644 368.938H272.996V385.592H291.644V368.938Z" fill="#231F20"/>
<path d="M319.245 368.938H300.596V385.592H319.245V368.938Z" fill="#231F20"/>
<path d="M346.855 368.938H328.207V385.592H346.855V368.938Z" fill="#231F20"/>
<path d="M374.465 368.938H355.816V385.592H374.465V368.938Z" fill="#231F20"/>
<path d="M402.075 368.938H383.426V385.592H402.075V368.938Z" fill="#231F20"/>
<path d="M429.676 368.938H411.027V385.592H429.676V368.938Z" fill="#231F20"/>
<path d="M457.285 368.938H438.637V385.592H457.285V368.938Z" fill="#231F20"/>
<path d="M484.895 368.938H466.247V385.592H484.895V368.938Z" fill="#231F20"/>
<path d="M512.505 368.938H493.857V385.592H512.505V368.938Z" fill="#231F20"/>
<path d="M540.106 368.938H521.458V385.592H540.106V368.938Z" fill="#231F20"/>
<path d="M567.716 368.938H549.067V385.592H567.716V368.938Z" fill="#231F20"/>
<path d="M43.1732 393.596H24.5247V410.25H43.1732V393.596Z" fill="#231F20"/>
<path d="M70.7831 393.596H52.1345V410.25H70.7831V393.596Z" fill="#231F20"/>
<path d="M98.3839 393.596H79.7354V410.25H98.3839V393.596Z" fill="#231F20"/>
<path d="M125.994 393.596H107.345V410.25H125.994V393.596Z" fill="#231F20"/>
<path d="M153.604 393.596H134.955V410.25H153.604V393.596Z" fill="#231F20"/>
<path d="M181.214 393.596H162.565V410.25H181.214V393.596Z" fill="#231F20"/>
<path d="M208.815 393.596H190.166V410.25H208.815V393.596Z" fill="#231F20"/>
<path d="M236.424 393.596H217.776V410.25H236.424V393.596Z" fill="#231F20"/>
<path d="M264.034 393.596H245.386V410.25H264.034V393.596Z" fill="#231F20"/>
<path d="M291.644 393.596H272.996V410.25H291.644V393.596Z" fill="#231F20"/>
<path d="M319.245 393.596H300.596V410.25H319.245V393.596Z" fill="#231F20"/>
<path d="M346.855 393.596H328.207V410.25H346.855V393.596Z" fill="#231F20"/>
<path d="M374.465 393.596H355.816V410.25H374.465V393.596Z" fill="#231F20"/>
<path d="M402.075 393.596H383.426V410.25H402.075V393.596Z" fill="#231F20"/>
<path d="M429.676 393.596H411.027V410.25H429.676V393.596Z" fill="#231F20"/>
<path d="M457.285 393.596H438.637V410.25H457.285V393.596Z" fill="#231F20"/>
<path d="M484.895 393.596H466.247V410.25H484.895V393.596Z" fill="#231F20"/>
<path d="M512.505 393.596H493.857V410.25H512.505V393.596Z" fill="#231F20"/>
<path d="M540.106 393.596H521.458V410.25H540.106V393.596Z" fill="#231F20"/>
<path d="M567.716 393.596H549.067V410.25H567.716V393.596Z" fill="#231F20"/>
</g>
</g>
<path d="M534.653 408.276C534.653 408.276 538.194 413.894 545.677 412.241C553.161 410.588 554.169 406.429 554.169 406.429C554.169 406.429 561.768 407.449 566.072 400.539C570.389 393.63 560.243 391.227 560.243 391.227C560.243 391.227 562.518 385.015 559.235 383.491C555.939 381.967 553.91 387.211 553.91 387.211C553.91 387.211 555.655 379.733 549.787 377.124C545.561 375.238 542.757 381.024 542.757 381.024C542.757 381.024 543.674 370.757 536.579 372.126C529.483 373.495 523.254 383.362 523.254 383.362C523.254 383.362 518.278 380.262 512.772 383.013C509.063 384.86 512.475 391.06 512.475 391.06C512.475 391.06 506.013 393.191 506.013 397.84C506.013 400.41 517.412 399.842 517.412 399.842C517.412 399.842 518.394 404.672 523.267 407.255C528.139 409.826 534.64 408.276 534.64 408.276H534.653Z" fill="#5E8F74"/>
<path d="M567.132 396.911C567.132 396.911 567.222 403.807 562.906 405.99C558.589 408.173 554.156 406.442 554.156 406.442C554.156 406.442 553.161 412.332 543.416 412.577C536.527 412.758 534.64 408.289 534.64 408.289C534.64 408.289 529.716 410.64 523.267 409.116C516.818 407.592 517.412 399.868 517.412 399.868C517.412 399.868 513.238 401.534 510.045 400.579C506.853 399.623 506 397.866 506 397.866C506 397.866 512.643 400.204 516.339 398.189C520.036 396.174 521.173 393.333 521.173 393.333C521.173 393.333 520.798 396.846 522.698 397.608C524.598 398.37 526.123 396.781 526.123 396.781C526.123 396.781 524.314 399.959 526.033 401.534C527.739 403.11 530.595 401.366 530.595 401.366C530.595 401.366 530.97 405.396 535.351 405.008C539.719 404.634 538.673 398.189 538.673 398.189C538.673 398.189 539.435 399.933 543.519 399.287C547.603 398.641 546.75 394.754 546.75 394.754C546.75 394.754 547.125 399.687 549.697 400.359C552.269 401.031 553.781 398.189 553.781 398.189C553.781 398.189 552.734 401.018 553.497 402.968C554.259 404.918 559.106 401.534 559.106 401.534C559.106 401.534 556.844 404.35 558.253 404.44C566.149 404.983 567.145 396.923 567.145 396.923L567.132 396.911Z" fill="#546E64"/>
<path d="M544.342 409.253H539.82L541.021 319.592H543.142L544.342 409.253Z" fill="#393755"/>
<path d="M546.047 329.221C546.047 329.285 545.983 329.341 545.911 329.341H537.932C537.852 329.341 537.796 329.293 537.796 329.221V292.12C537.796 292.056 537.86 292 537.932 292H545.911C545.991 292 546.047 292.056 546.047 292.12V329.221Z" fill="#102029"/>
<path d="M531.937 299.302C531.937 299.302 531.737 300.062 532.401 300.957C533.074 301.861 535.835 302.733 535.835 302.733V300.43L531.929 299.294L531.937 299.302Z" fill="#102029"/>
<path d="M535.835 294.703H530.473C530.473 294.703 530.529 298.67 531.577 299.494C532.625 300.317 535.835 301.293 535.835 301.293V294.703Z" fill="#3E4C59"/>
<path d="M535.835 295.871V294.703H530.473C530.473 294.703 530.473 295.191 530.537 295.871H535.835Z" fill="#536574"/>
<path d="M535.835 298.974C533.554 298.998 531.889 298.334 530.769 297.599C530.929 298.422 531.185 299.182 531.585 299.494C532.634 300.318 535.843 301.294 535.843 301.294V298.974H535.835Z" fill="#2C3B47"/>
<path d="M531.937 311.059C531.937 311.059 531.737 311.819 532.401 312.714C533.074 313.618 535.835 314.49 535.835 314.49V312.186L531.929 311.051L531.937 311.059Z" fill="#102029"/>
<path d="M535.835 306.46H530.473C530.473 306.46 530.529 310.427 531.577 311.251C532.625 312.074 535.835 313.05 535.835 313.05V306.46Z" fill="#3E4C59"/>
<path d="M535.835 307.628V306.46H530.473C530.473 306.46 530.473 306.956 530.537 307.628H535.835Z" fill="#536574"/>
<path d="M535.835 310.731C533.554 310.755 531.889 310.091 530.769 309.355C530.929 310.179 531.185 310.939 531.585 311.251C532.634 312.075 535.843 313.05 535.843 313.05V310.731H535.835Z" fill="#2C3B47"/>
<path d="M531.937 323.286C531.937 323.286 531.737 324.046 532.401 324.942C533.074 325.846 535.835 326.717 535.835 326.717V324.414L531.929 323.278L531.937 323.286Z" fill="#102029"/>
<path d="M535.835 318.688H530.473C530.473 318.688 530.529 322.654 531.577 323.478C532.625 324.302 535.835 325.278 535.835 325.278V318.688Z" fill="#3E4C59"/>
<path d="M535.835 319.847V318.68H530.473C530.473 318.68 530.473 319.168 530.537 319.847H535.835Z" fill="#536574"/>
<path d="M535.835 322.959C533.554 322.983 531.889 322.319 530.769 321.583C530.929 322.407 531.185 323.167 531.585 323.478C532.634 324.302 535.843 325.278 535.843 325.278V322.959H535.835Z" fill="#2C3B47"/>
<path d="M551.857 299.302C551.857 299.302 552.057 300.062 551.393 300.957C550.721 301.861 547.959 302.733 547.959 302.733V300.43L551.865 299.294L551.857 299.302Z" fill="#102029"/>
<path d="M547.951 294.703H553.314C553.314 294.703 553.257 298.67 552.209 299.494C551.161 300.317 547.951 301.293 547.951 301.293V294.703Z" fill="#3E4C59"/>
<path d="M547.951 295.871V294.703H553.314C553.314 294.703 553.313 295.191 553.249 295.871H547.951Z" fill="#536574"/>
<path d="M547.951 298.974C550.232 298.998 551.897 298.334 553.017 297.599C552.857 298.422 552.601 299.182 552.201 299.494C551.153 300.318 547.943 301.294 547.943 301.294V298.974H547.951Z" fill="#2C3B47"/>
<path d="M551.857 311.059C551.857 311.059 552.057 311.819 551.393 312.714C550.721 313.618 547.959 314.49 547.959 314.49V312.186L551.865 311.051L551.857 311.059Z" fill="#102029"/>
<path d="M547.951 306.46H553.314C553.314 306.46 553.257 310.427 552.209 311.251C551.161 312.074 547.951 313.05 547.951 313.05V306.46Z" fill="#3E4C59"/>
<path d="M547.951 307.628V306.46H553.314C553.314 306.46 553.313 306.956 553.249 307.628H547.951Z" fill="#536574"/>
<path d="M547.951 310.731C550.232 310.755 551.897 310.091 553.017 309.355C552.857 310.179 552.601 310.939 552.201 311.251C551.153 312.075 547.943 313.05 547.943 313.05V310.731H547.951Z" fill="#2C3B47"/>
<path d="M551.857 323.286C551.857 323.286 552.057 324.046 551.393 324.942C550.721 325.846 547.959 326.717 547.959 326.717V324.414L551.865 323.278L551.857 323.286Z" fill="#102029"/>
<path d="M547.951 318.688H553.314C553.314 318.688 553.257 322.654 552.209 323.478C551.161 324.302 547.951 325.278 547.951 325.278V318.688Z" fill="#3E4C59"/>
<path d="M547.951 319.847V318.68H553.314C553.314 318.68 553.313 319.168 553.249 319.847H547.951Z" fill="#536574"/>
<path d="M547.951 322.959C550.232 322.983 551.897 322.319 553.017 321.583C552.857 322.407 552.601 323.167 552.201 323.478C551.153 324.302 547.943 325.278 547.943 325.278V322.959H547.951Z" fill="#2C3B47"/>
<path d="M548.007 304.164C548.007 304.228 547.951 304.284 547.879 304.284H535.963C535.891 304.284 535.835 304.228 535.835 304.164V293.048C535.835 292.984 535.891 292.928 535.963 292.928H547.879C547.951 292.928 548.007 292.976 548.007 293.048V304.164Z" fill="#202C37"/>
<path d="M548.007 293.392V293.04C548.007 292.976 547.951 292.92 547.879 292.92H535.963C535.891 292.92 535.835 292.968 535.835 293.04V293.392H548.007Z" fill="#3B4854"/>
<path d="M545.887 299.302C545.887 301.485 544.11 303.26 541.925 303.26C539.74 303.26 537.964 301.485 537.964 299.302C537.964 297.118 539.74 295.343 541.925 295.343C544.11 295.343 545.887 297.118 545.887 299.302Z" fill="#141F29"/>
<path d="M545.887 297.902C545.887 300.086 544.11 301.861 541.925 301.861C539.74 301.861 537.964 300.086 537.964 297.902C537.964 295.719 539.74 293.943 541.925 293.943C544.11 293.943 545.887 295.719 545.887 297.902Z" fill="#7B8A96"/>
<path d="M545.887 298.047C545.887 300.23 544.11 302.005 541.925 302.005C539.74 302.005 537.964 300.23 537.964 298.047C537.964 295.863 539.74 294.088 541.925 294.088C544.11 294.088 545.887 295.863 545.887 298.047Z" fill="#3D4851"/>
<path d="M545.887 298.95C545.887 301.133 544.11 302.909 541.925 302.909C539.74 302.909 537.964 301.133 537.964 298.95C537.964 296.767 539.74 294.991 541.925 294.991C544.11 294.991 545.887 296.767 545.887 298.95Z" fill="#2F3C47"/>
<path d="M545.422 298.95C545.422 300.877 543.862 302.445 541.925 302.445C539.988 302.445 538.428 300.877 538.428 298.95C538.428 297.023 539.996 295.455 541.925 295.455C543.854 295.455 545.422 297.023 545.422 298.95Z" fill="#ED2A27"/>
<path d="M541.925 301.397C540.172 301.397 538.724 300.109 538.468 298.43C538.444 298.598 538.428 298.774 538.428 298.958C538.428 300.885 539.996 302.452 541.925 302.452C543.854 302.452 545.422 300.885 545.422 298.958C545.422 298.782 545.406 298.606 545.382 298.43C545.126 300.109 543.678 301.397 541.925 301.397Z" fill="#C02126"/>
<path opacity="0.4" d="M544.774 297.902C544.774 299.07 543.494 300.014 541.917 300.014C540.341 300.014 539.06 299.07 539.06 297.902C539.06 296.735 540.341 295.791 541.917 295.791C543.494 295.791 544.774 296.735 544.774 297.902Z" fill="#E37129"/>
<path opacity="0.4" d="M543.702 297.014C543.702 297.582 542.909 298.046 541.925 298.046C540.941 298.046 540.148 297.582 540.148 297.014C540.148 296.446 540.941 295.982 541.925 295.982C542.909 295.982 543.702 296.446 543.702 297.014Z" fill="#F08C50"/>
<path d="M548.007 315.92C548.007 315.984 547.951 316.04 547.879 316.04H535.963C535.891 316.04 535.835 315.984 535.835 315.92V304.804C535.835 304.74 535.891 304.684 535.963 304.684H547.879C547.951 304.684 548.007 304.74 548.007 304.804V315.92Z" fill="#202C37"/>
<path d="M548.007 305.148V304.796C548.007 304.732 547.951 304.676 547.879 304.676H535.963C535.891 304.676 535.835 304.732 535.835 304.796V305.148H548.007Z" fill="#3B4854"/>
<path d="M545.887 311.057C545.887 313.241 544.11 315.016 541.925 315.016C539.74 315.016 537.964 313.241 537.964 311.057C537.964 308.874 539.74 307.099 541.925 307.099C544.11 307.099 545.887 308.874 545.887 311.057Z" fill="#141F29"/>
<path d="M545.887 309.666C545.887 311.849 544.11 313.625 541.925 313.625C539.74 313.625 537.964 311.849 537.964 309.666C537.964 307.482 539.74 305.707 541.925 305.707C544.11 305.707 545.887 307.482 545.887 309.666Z" fill="#7B8A96"/>
<path d="M545.887 309.81C545.887 311.994 544.11 313.769 541.925 313.769C539.74 313.769 537.964 311.994 537.964 309.81C537.964 307.627 539.74 305.852 541.925 305.852C544.11 305.852 545.887 307.627 545.887 309.81Z" fill="#3D4851"/>
<path d="M545.887 310.714C545.887 312.897 544.11 314.672 541.925 314.672C539.74 314.672 537.964 312.897 537.964 310.714C537.964 308.53 539.74 306.755 541.925 306.755C544.11 306.755 545.887 308.53 545.887 310.714Z" fill="#2F3C47"/>
<path d="M545.422 310.714C545.422 312.641 543.862 314.209 541.925 314.209C539.988 314.209 538.428 312.641 538.428 310.714C538.428 308.786 539.996 307.219 541.925 307.219C543.854 307.219 545.422 308.778 545.422 310.714Z" fill="#FCB62E"/>
<path d="M541.925 313.153C540.172 313.153 538.724 311.865 538.468 310.186C538.444 310.353 538.428 310.529 538.428 310.705C538.428 312.633 539.996 314.2 541.925 314.2C543.854 314.2 545.422 312.633 545.422 310.705C545.422 310.529 545.406 310.353 545.382 310.186C545.126 311.865 543.678 313.153 541.925 313.153Z" fill="#CC9027"/>
<path d="M544.774 309.666C544.774 310.834 543.494 311.777 541.917 311.777C540.341 311.777 539.06 310.834 539.06 309.666C539.06 308.498 540.341 307.555 541.917 307.555C543.494 307.555 544.774 308.498 544.774 309.666Z" fill="#FCED48"/>
<path d="M543.702 308.77C543.702 309.338 542.909 309.802 541.925 309.802C540.941 309.802 540.148 309.338 540.148 308.77C540.148 308.202 540.941 307.738 541.925 307.738C542.909 307.738 543.702 308.202 543.702 308.77Z" fill="#FBEC69"/>
<path d="M548.007 327.853C548.007 327.917 547.951 327.973 547.879 327.973H535.963C535.891 327.973 535.835 327.917 535.835 327.853V316.736C535.835 316.672 535.891 316.616 535.963 316.616H547.879C547.951 316.616 548.007 316.672 548.007 316.736V327.853Z" fill="#202C37"/>
<path d="M548.007 317.08V316.728C548.007 316.664 547.951 316.608 547.879 316.608H535.963C535.891 316.608 535.835 316.664 535.835 316.728V317.08H548.007Z" fill="#3B4854"/>
<path d="M545.887 322.991C545.887 325.174 544.11 326.95 541.925 326.95C539.74 326.95 537.964 325.174 537.964 322.991C537.964 320.808 539.74 319.032 541.925 319.032C544.11 319.032 545.887 320.808 545.887 322.991Z" fill="#141F29"/>
<path d="M545.887 321.599C545.887 323.783 544.11 325.558 541.925 325.558C539.74 325.558 537.964 323.783 537.964 321.599C537.964 319.416 539.74 317.641 541.925 317.641C544.11 317.641 545.887 319.416 545.887 321.599Z" fill="#7B8A96"/>
<path d="M545.887 321.743C545.887 323.926 544.11 325.702 541.925 325.702C539.74 325.702 537.964 323.926 537.964 321.743C537.964 319.56 539.74 317.784 541.925 317.784C544.11 317.784 545.887 319.56 545.887 321.743Z" fill="#3D4851"/>
<path d="M545.887 322.646C545.887 324.83 544.11 326.605 541.925 326.605C539.74 326.605 537.964 324.83 537.964 322.646C537.964 320.463 539.74 318.688 541.925 318.688C544.11 318.688 545.887 320.463 545.887 322.646Z" fill="#2F3C47"/>
<path d="M545.422 322.647C545.422 324.575 543.862 326.142 541.925 326.142C539.988 326.142 538.428 324.575 538.428 322.647C538.428 320.72 539.996 319.152 541.925 319.152C543.854 319.152 545.422 320.712 545.422 322.647Z" fill="#67BC45"/>
<path d="M541.925 325.086C540.172 325.086 538.724 323.799 538.468 322.119C538.444 322.287 538.428 322.463 538.428 322.647C538.428 324.574 539.996 326.142 541.925 326.142C543.854 326.142 545.422 324.574 545.422 322.647C545.422 322.471 545.406 322.295 545.382 322.119C545.126 323.799 543.678 325.086 541.925 325.086Z" fill="#549A43"/>
<path d="M544.774 321.599C544.774 322.766 543.494 323.71 541.917 323.71C540.341 323.71 539.06 322.766 539.06 321.599C539.06 320.431 540.341 319.487 541.917 319.487C543.494 319.487 544.774 320.431 544.774 321.599Z" fill="#ACD048"/>
<path d="M543.702 320.703C543.702 321.27 542.909 321.734 541.925 321.734C540.941 321.734 540.148 321.27 540.148 320.703C540.148 320.135 540.941 319.671 541.925 319.671C542.909 319.671 543.702 320.135 543.702 320.703Z" fill="#FCED48"/>
<path d="M545.318 379.661H538.54V409.244H545.318V379.661Z" fill="#191734"/>
<path d="M509.657 411.988L508 404.622L509.937 409.252L510.553 403.35L511.361 408.277L511.882 405.662L512.442 408.277L513.674 401.551L515.187 407.645L515.563 404.958L516.411 407.317L518.116 400.639L519.484 405.47L519.861 403.726L520.621 405.334L521.709 398.768L521.893 404.574L522.694 402.454L523.126 405.382L523.878 404.054L524.414 408.837L525.391 404.766L525.063 411.708L509.657 411.988Z" fill="#5E8F74"/>
<path d="M543.862 408.629C543.862 408.629 536.491 399.808 526.663 407.357C526.663 407.357 520.613 405.302 519.1 406.518L515.507 409.813C515.507 409.813 509.08 411.092 508.512 412.244H545.935C545.935 412.244 545.182 406.87 543.854 408.621L543.862 408.629Z" fill="#E3E1C4"/>
<path d="M543.862 408.629C543.862 408.629 536.491 399.808 526.663 407.357C526.663 407.357 520.941 405.406 519.236 406.43C521.237 407.238 525.631 409.125 526.287 410.293C526.287 410.293 529.408 407.965 530.729 408.277C532.049 408.589 533.938 410.852 533.938 410.852L545.791 411.372C545.511 409.933 544.838 407.325 543.862 408.621V408.629Z" fill="#D3C6A0"/>
<path d="M537.155 412.531L535.691 406.493L537.627 411.115L538.244 405.213L539.044 410.148L539.564 407.533L540.132 410.148L541.357 403.422L542.869 409.508L543.254 406.821L544.102 409.18L545.799 402.502L547.175 407.341L547.551 405.589L548.304 407.197L549.392 400.639L549.584 406.445L550.384 404.318L550.809 407.245L551.569 405.925L552.105 410.708L553.081 406.629L552.561 412.251L537.155 412.531Z" fill="#5E8F74"/>
<defs>
<clipPath id="clip0_234_1028">
<rect width="598.366" height="310.544" fill="white" transform="translate(0.633789 136)"/>
</clipPath>
</defs>
</svg>
