<svg width="675" height="216" viewBox="0 0 675 216" fill="none" xmlns="http://www.w3.org/2000/svg">
<g clip-path="url(#clip0_120_2)">
<path d="M490.28 65.7098C490.28 65.7098 435.42 34.4898 417.84 25.9198C400.26 17.3498 380.36 11.5098 380.36 11.5098L371.17 15.5098L419.55 41.8398L471.3 71.8498L490.28 65.7098Z" fill="#455A64"/>
<path d="M495.93 61.4102L483.95 62.1302L466.29 66.2802L481.11 69.7002L494.45 64.7502L495.93 61.4102Z" fill="#263238"/>
<path d="M161.05 14.3001C161.05 14.3001 93.8401 44.5001 74.0201 48.5401L79.79 60.9901L113.35 52.1501L140.39 34.0201L167.74 22.6101C167.74 22.6101 174.81 14.5501 173.89 14.3001C172.97 14.0501 161.06 14.3001 161.06 14.3001H161.05Z" fill="#455A64"/>
<path d="M614.34 173.38C609.09 175.07 220.27 173.38 220.27 173.38L54.4798 162.85L59.4098 98.0698L581.14 97.2798L618.59 122.13V170.32" fill="#FF884D"/>
<path opacity="0.3" d="M614.34 173.38C609.09 175.07 220.27 173.38 220.27 173.38L54.4798 162.85L59.4098 98.0698L581.14 97.2798L618.59 122.13V170.32" fill="black"/>
<path d="M11.7298 97.2802C11.7298 97.2802 12.5598 83.1902 12.5598 79.0602C12.5598 74.9302 16.9098 65.4602 16.9098 65.4602L15.2998 55.7702C15.2998 52.6502 22.6498 53.9602 25.7698 53.9002C51.5298 53.4202 74.0198 48.5402 74.0198 48.5402L79.7898 53.9002C91.3398 51.4302 166 17.1902 166 17.1902C166 17.1902 162.29 14.7202 161.05 14.3002C159.81 13.8902 184.15 4.81023 264.58 0.690228C345.02 -3.42977 382.55 12.2402 382.55 12.2402L373.89 15.1302C407.71 23.3802 466.29 66.2802 466.29 66.2802C493.93 66.2802 496.81 60.5102 496.81 60.5102C567.76 64.2202 631.69 84.0202 645.31 90.2102C652.12 93.3002 660.63 97.3902 663.57 101.61C666.51 105.84 665.6 109.99 665.93 115.37C666.09 118.04 670.68 126.35 670.93 131.57C671.73 148 667.38 166.36 667.38 166.36C667.35 167.27 677.56 171.37 673.47 172.6C660.83 176.41 622.36 179.82 615.19 180.13C613.93 180.18 611.36 180.23 607.81 180.27C609.36 175.03 610.2 169.49 610.2 163.75C610.2 131.59 584.13 105.52 551.97 105.52C519.81 105.52 493.74 131.59 493.74 163.75C493.74 169.44 494.57 174.94 496.09 180.14C495.91 180.14 495.73 180.14 495.55 180.14C468.33 179.73 238.98 179.32 192.78 177.66C192.21 177.64 191.63 177.62 191.05 177.6C192.13 173.16 192.72 168.53 192.72 163.76C192.72 131.6 166.65 105.53 134.49 105.53C102.33 105.53 76.2598 131.6 76.2598 163.76C76.2598 166.8 76.4898 169.79 76.9398 172.7C76.7698 172.7 76.6198 172.7 76.4498 172.72C63.2498 173.13 18.6998 164.88 18.6998 164.88L3.84979 149.21L-0.0501709 114.58L11.6798 97.3102L11.7298 97.2802Z" fill="#FF884D"/>
<path d="M461.58 81.4602C461.58 81.4602 461.71 81.4802 461.96 81.4902C462.24 81.4902 462.6 81.5102 463.07 81.5202C464.07 81.5402 465.5 81.5602 467.33 81.5902C471.03 81.6702 476.38 81.6302 482.99 81.8602C496.21 82.1402 514.47 82.9302 534.58 84.6102C554.69 86.3202 572.83 88.5802 585.89 90.6102C592.43 91.5902 597.7 92.5402 601.34 93.1802C603.13 93.5102 604.54 93.7802 605.53 93.9602C605.99 94.0402 606.35 94.1102 606.62 94.1602C606.87 94.2002 606.99 94.2202 606.99 94.2102C606.99 94.2102 606.87 94.1702 606.63 94.1002C606.36 94.0402 606 93.9502 605.55 93.8502C604.6 93.6302 603.19 93.3402 601.38 92.9702C597.75 92.2602 592.49 91.2602 585.95 90.2302C572.89 88.1002 554.75 85.7802 534.62 84.0702C514.5 82.3802 496.23 81.6502 483 81.4702C476.39 81.2902 471.03 81.3802 467.33 81.3602C465.5 81.3702 464.07 81.3802 463.07 81.3802C462.6 81.3802 462.24 81.3902 461.96 81.4002C461.71 81.4002 461.58 81.4202 461.58 81.4202V81.4602Z" fill="#263238"/>
<path d="M630.58 170.32C630.58 170.32 638.37 144.34 642.27 144.01C646.17 143.69 659.81 142.39 661.11 144.01C662.41 145.63 661.11 163.82 661.11 163.82L630.58 170.32Z" fill="#263238"/>
<path d="M598.1 127.45C598.1 127.45 598.66 127.52 599.67 127.55C600.77 127.57 602.22 127.6 603.95 127.63C607.57 127.68 612.56 127.71 618.08 127.71C619.46 127.71 620.81 127.71 622.11 127.71C622.76 127.71 623.4 127.71 624.05 127.66C624.69 127.57 625.32 127.45 625.89 127.21C628.24 126.34 629.72 124.41 630.31 122.68C630.61 121.8 630.73 120.96 630.72 120.23C630.72 119.51 630.69 118.89 630.68 118.39C630.65 117.38 630.61 116.82 630.58 116.82C630.55 116.82 630.51 117.38 630.48 118.39C630.4 119.39 630.6 120.9 629.96 122.56C629.36 124.19 627.92 125.98 625.72 126.77C625.18 126.99 624.6 127.09 624 127.17C623.41 127.22 622.77 127.21 622.11 127.21C620.81 127.21 619.46 127.21 618.08 127.21C612.56 127.21 607.57 127.24 603.95 127.29C602.21 127.32 600.77 127.35 599.67 127.37C598.66 127.4 598.1 127.44 598.1 127.47V127.45Z" fill="#263238"/>
<path d="M446.6 66.7502C446.6 66.7502 399.05 36.2002 378.7 27.5402C358.35 18.8802 339.08 15.2002 326.74 13.9002C314.4 12.6002 295.78 12.7302 284.52 12.5602C273.26 12.3902 236.24 14.9902 223.25 16.7202C210.26 18.4502 195.26 20.1802 177.11 28.6302C158.95 37.0702 129.08 56.9902 129.08 58.9402C129.08 60.8902 130.6 60.0202 130.6 60.0202L446.61 66.7602L446.6 66.7502Z" fill="#455A64"/>
<path d="M294.23 12.5601L309.64 63.8301L284.76 63.3001L278.55 12.5601H294.23Z" fill="#263238"/>
<path opacity="0.3" d="M318.47 90.8702C318.47 94.8102 321.66 98.0002 325.6 98.0002C329.54 98.0002 332.73 94.8102 332.73 90.8702C332.73 86.9302 329.54 83.7402 325.6 83.7402C321.66 83.7402 318.47 86.9302 318.47 90.8702Z" fill="black"/>
<path d="M313.13 87.6704H338.56C340.3 87.6704 341.71 89.0807 341.71 90.8204V91.1204C341.71 92.8601 340.3 94.2704 338.56 94.2704H313.13C311.39 94.2704 309.98 92.8601 309.98 91.1204V90.8204C309.98 89.0807 311.39 87.6704 313.13 87.6704Z" fill="#FF884D"/>
<path d="M313.14 94.2702C313.14 94.2702 312.89 94.2502 312.44 94.1302C312 94.0102 311.32 93.7302 310.78 93.0402C310.51 92.7002 310.29 92.2502 310.18 91.7402C310.1 91.2302 310.08 90.6102 310.25 90.0302C310.55 88.8502 311.8 87.7302 313.39 87.8502C319.89 87.8702 328.76 87.9002 338.57 87.9302C339.71 87.9202 340.78 88.6402 341.22 89.6502C341.45 90.1602 341.5 90.6902 341.46 91.2802C341.44 91.8202 341.24 92.3502 340.94 92.7802C340.32 93.6802 339.26 94.1002 338.18 94.0202C337.07 94.0202 335.97 94.0202 334.91 94.0202C330.66 94.0402 326.83 94.0602 323.59 94.0802C320.41 94.1102 317.82 94.1402 315.96 94.1602C315.1 94.1802 314.41 94.2002 313.88 94.2102C313.41 94.2302 313.16 94.2402 313.16 94.2602C313.16 94.2802 313.41 94.3002 313.88 94.3102C314.41 94.3202 315.1 94.3402 315.96 94.3602C317.82 94.3802 320.41 94.4102 323.59 94.4402C326.83 94.4602 330.66 94.4702 334.91 94.5002C335.98 94.5002 337.07 94.5002 338.18 94.5002C338.72 94.5202 339.38 94.4702 339.93 94.2202C340.49 93.9702 340.99 93.5702 341.36 93.0602C341.72 92.5502 341.95 91.9302 341.98 91.2902C342.02 90.7002 341.97 90.0102 341.7 89.4302C341.19 88.2302 339.92 87.3802 338.58 87.3902C328.77 87.4202 319.89 87.4502 313.4 87.4702C312.57 87.4302 311.74 87.7002 311.15 88.1802C310.55 88.6502 310.15 89.3002 309.99 89.9402C309.83 90.6002 309.86 91.2102 309.96 91.7702C310.09 92.3302 310.35 92.7902 310.64 93.1502C311.25 93.8702 311.97 94.1202 312.44 94.2202C312.92 94.3102 313.17 94.2502 313.17 94.2502L313.14 94.2702Z" fill="#263238"/>
<path opacity="0.3" d="M179.73 90.9401C179.73 94.8801 182.92 98.0701 186.86 98.0701C190.8 98.0701 193.99 94.8801 193.99 90.9401C193.99 87.0001 190.8 83.8101 186.86 83.8101C182.92 83.8101 179.73 87.0001 179.73 90.9401Z" fill="black"/>
<path d="M174.39 87.7402H199.82C201.56 87.7402 202.97 89.1505 202.97 90.8902V91.1902C202.97 92.9299 201.56 94.3402 199.82 94.3402H174.39C172.65 94.3402 171.24 92.9299 171.24 91.1902V90.8902C171.24 89.1505 172.65 87.7402 174.39 87.7402Z" fill="#FF884D"/>
<path d="M174.4 94.34C174.4 94.34 174.15 94.32 173.7 94.2C173.26 94.08 172.58 93.8 172.04 93.11C171.77 92.77 171.55 92.32 171.44 91.81C171.36 91.3 171.34 90.69 171.51 90.1C171.81 88.92 173.06 87.8 174.65 87.92C181.15 87.94 190.02 87.97 199.83 88C200.97 87.99 202.04 88.7101 202.48 89.7201C202.71 90.2301 202.76 90.76 202.72 91.35C202.7 91.89 202.5 92.42 202.2 92.85C201.58 93.75 200.52 94.17 199.44 94.09C198.33 94.09 197.23 94.09 196.17 94.09C191.92 94.11 188.09 94.1301 184.85 94.1501C181.67 94.1801 179.08 94.2101 177.22 94.2301C176.36 94.2501 175.67 94.27 175.14 94.28C174.67 94.3 174.42 94.3101 174.42 94.3301C174.42 94.3501 174.67 94.37 175.14 94.38C175.67 94.39 176.36 94.41 177.22 94.43C179.08 94.45 181.67 94.4801 184.85 94.5101C188.09 94.5301 191.92 94.54 196.17 94.57C197.24 94.57 198.33 94.57 199.44 94.57C199.98 94.59 200.64 94.5401 201.19 94.2901C201.75 94.0401 202.25 93.64 202.62 93.13C202.98 92.62 203.21 92 203.24 91.36C203.28 90.77 203.23 90.08 202.96 89.5C202.45 88.3 201.18 87.45 199.84 87.46C190.03 87.49 181.15 87.5201 174.66 87.5401C173.83 87.5001 173 87.77 172.41 88.25C171.81 88.72 171.41 89.3701 171.25 90.0101C171.09 90.6701 171.12 91.28 171.22 91.84C171.35 92.4 171.61 92.8601 171.9 93.2201C172.51 93.9401 173.23 94.1901 173.7 94.2901C174.18 94.3801 174.43 94.32 174.43 94.32L174.4 94.34Z" fill="#263238"/>
<path d="M48.0599 78.3102C48.0599 78.3102 48.4199 78.3302 49.1299 78.3402C49.8499 78.3402 50.8899 78.3602 52.2599 78.3702C55.0299 78.3902 59.0899 78.4102 64.3099 78.4402C74.7899 78.5102 89.9299 78.6002 108.63 78.7202C146.06 79.0502 197.76 79.5102 254.86 80.0202C311.98 80.5602 363.69 81.0002 401.11 81.1702C419.82 81.2202 434.96 81.2602 445.43 81.2802C450.65 81.2702 454.71 81.2602 457.48 81.2502C458.85 81.2502 459.9 81.2302 460.61 81.2302C461.32 81.2302 461.68 81.2102 461.68 81.2102C461.68 81.2102 461.32 81.1902 460.61 81.1802C459.89 81.1802 458.85 81.1602 457.48 81.1502C454.71 81.1302 450.65 81.1102 445.43 81.0802C434.95 81.0102 419.82 80.9202 401.11 80.8002C363.68 80.4702 311.97 80.0102 254.86 79.5002C197.76 78.9602 146.06 78.5202 108.63 78.3502C89.9199 78.3002 74.7799 78.2602 64.3099 78.2402C59.0799 78.2502 55.0299 78.2602 52.2599 78.2702C50.8899 78.2702 49.8399 78.2902 49.1299 78.2902C48.4199 78.2902 48.0599 78.3102 48.0599 78.3102Z" fill="#263238"/>
<path d="M29.17 77.0302C29.17 77.0302 29.29 76.8602 29.48 76.5302C29.67 76.2002 29.96 75.7102 30.35 75.0902C31.13 73.8602 32.34 72.1102 34.1 70.1802C35.86 68.2602 38.1801 66.1502 41.1201 64.3502C41.8501 63.8902 42.6501 63.5102 43.4301 63.0702C44.2501 62.7102 45.0901 62.3202 45.9601 61.9802C47.7201 61.3502 49.5901 60.8202 51.5301 60.3102C59.2601 58.2602 66.3601 56.7502 71.4901 55.6702C74.0101 55.1502 76.0701 54.7202 77.5701 54.4102C78.2401 54.2702 78.7901 54.1502 79.2201 54.0602C79.6001 53.9702 79.79 53.9202 79.79 53.9002C79.79 53.8802 79.5801 53.9002 79.2001 53.9502C78.7601 54.0202 78.2101 54.1002 77.5301 54.2102C76.0801 54.4502 73.99 54.8102 71.41 55.3102C66.26 56.3002 59.1401 57.7502 51.3901 59.8102C49.4501 60.3202 47.5701 60.8602 45.7701 61.5102C44.8801 61.8602 44.0401 62.2502 43.2001 62.6302C42.4001 63.0802 41.59 63.4702 40.86 63.9502C37.89 65.8002 35.5601 67.9702 33.8201 69.9402C32.0801 71.9202 30.9 73.7202 30.17 74.9902C29.81 75.6302 29.5501 76.1402 29.3801 76.4902C29.2201 76.8402 29.15 77.0302 29.17 77.0402V77.0302Z" fill="#263238"/>
<path d="M185.26 21.1799C185.26 21.1799 185.04 21.5099 184.64 22.1699C184.23 22.8399 183.63 23.8099 182.85 25.0899C181.28 27.6699 178.98 31.4699 176.02 36.3499C173.06 41.2499 169.45 47.2299 165.25 54.1799C163.16 57.6599 160.88 61.3599 158.56 65.3299C157.39 67.3099 156.18 69.3799 155.38 71.6999C154.58 74.0199 154.1 76.5099 154.14 79.1099L154.2 79.6099C154.24 79.7699 154.29 79.9299 154.34 80.0799C154.43 80.3899 154.52 80.7099 154.66 81.0099C154.89 81.6199 155.16 82.2199 155.45 82.8099C156.02 83.9999 156.65 85.1599 157.31 86.3299C158.63 88.6599 160.07 90.9899 161.56 93.3499C164.56 98.0599 167.81 102.87 171.23 107.81C178.08 117.69 185.61 128.1 193.66 138.95C195.69 141.65 197.74 144.39 199.82 147.16C201.92 149.9 203.9 152.81 206.36 155.39C208.82 157.98 211.95 159.98 215.33 161.29C216.17 161.64 217.02 161.95 217.89 162.23C218.75 162.54 219.63 162.78 220.51 163.04C221.38 163.31 222.28 163.52 223.16 163.74C224.04 163.99 224.96 164.13 225.88 164.28C229.55 164.75 233.24 165.02 236.98 165.27C240.71 165.53 244.48 165.73 248.27 165.94C255.85 166.34 263.55 166.69 271.34 167.02C302.51 168.32 332.22 169.24 359.23 170.05C386.25 170.79 410.58 171.45 431.01 172.01C451.44 172.48 467.97 172.86 479.41 173.13C485.12 173.23 489.55 173.32 492.57 173.37C494.07 173.39 495.21 173.4 495.99 173.41C496.76 173.41 497.16 173.39 497.16 173.39C495.73 173.35 471.76 172.72 431.02 171.64C410.59 171.05 386.26 170.35 359.24 169.57C332.23 168.73 302.52 167.8 271.35 166.5C263.56 166.17 255.87 165.82 248.28 165.42C244.49 165.21 240.73 165.01 237 164.75C233.27 164.5 229.57 164.23 225.94 163.77C225.04 163.62 224.15 163.5 223.27 163.24C222.39 163.01 221.5 162.81 220.63 162.54C219.76 162.29 218.89 162.04 218.04 161.74C217.18 161.47 216.34 161.15 215.51 160.81C212.17 159.51 209.13 157.58 206.71 155.03C204.29 152.49 202.3 149.6 200.2 146.85C198.12 144.09 196.07 141.35 194.04 138.65C185.98 127.81 178.44 117.42 171.58 107.55C168.15 102.62 164.9 97.8099 161.9 93.1199C160.41 90.7699 158.97 88.4499 157.65 86.1299C156.99 84.9699 156.36 83.8099 155.8 82.6399C155.23 81.4799 154.69 80.2699 154.52 79.0699C154.48 76.5599 154.94 74.0699 155.72 71.7999C156.5 69.5099 157.69 67.4699 158.86 65.4799C161.18 61.4999 163.45 57.7999 165.52 54.3099C169.69 47.3499 173.28 41.3499 176.21 36.4399C179.13 31.5399 181.4 27.7299 182.95 25.1299C183.71 23.8399 184.29 22.8599 184.69 22.1799C185.08 21.5099 185.27 21.1699 185.27 21.1699L185.26 21.1799Z" fill="#263238"/>
<path d="M122.87 58.4301C122.87 58.4301 122.91 58.3401 122.98 58.1501C123.05 57.9701 123.22 57.7101 123.46 57.4001C123.94 56.7701 124.78 55.9401 125.95 54.9301C128.29 52.9101 131.95 50.1701 136.84 46.9101C141.73 43.6501 147.84 39.8501 155.12 35.7601C162.4 31.6901 170.85 27.2901 180.53 23.2201C181.73 22.6801 182.99 22.2801 184.25 21.8001C185.52 21.3601 186.76 20.8101 188.09 20.4701C190.72 19.6901 193.4 18.8601 196.2 18.2401C201.76 16.8301 207.64 15.8201 213.73 14.8301C225.94 12.9701 239.1 11.7501 252.96 10.8801C266.83 10.0301 281.41 9.57007 296.53 9.42007C311.63 9.23007 327.32 10.1601 343.06 13.2001C358.79 16.2601 373.72 21.3201 387.32 27.9001C400.9 34.5401 413.34 42.2101 425.07 49.6501C430.93 53.3801 436.6 57.1001 442.1 60.7101C444.86 62.5101 447.57 64.2901 450.28 65.9901C450.95 66.4201 451.65 66.8201 452.3 67.2601C452.94 67.7101 453.57 68.1701 454.21 68.6201C454.78 69.1501 455.35 69.6701 455.91 70.2001C456.44 70.7601 456.91 71.3701 457.41 71.9501C459.28 74.3801 460.64 77.1101 461.67 79.8801C462.72 82.6601 463.39 85.5101 463.91 88.3201C464.44 91.1301 464.76 93.9201 464.98 96.6601C465.21 99.4001 465.33 102.08 465.4 104.71C465.52 109.95 465.23 114.96 465.02 119.68C464.79 124.41 464.53 128.86 464.27 133.03C463.72 141.36 463.25 148.53 462.86 154.4C462.45 160.26 462.13 164.81 461.91 167.9C461.8 169.44 461.72 170.61 461.67 171.41C461.62 172.2 461.6 172.61 461.6 172.61C461.6 172.61 461.65 172.21 461.72 171.42C461.79 170.62 461.89 169.45 462.02 167.91C462.26 164.81 462.61 160.27 463.07 154.41C463.51 148.55 464.03 141.37 464.57 133.04C464.84 128.87 465.11 124.42 465.36 119.69C465.58 114.96 465.89 109.96 465.78 104.69C465.72 102.06 465.61 99.3701 465.38 96.6201C465.17 93.8701 464.85 91.0701 464.32 88.2401C463.8 85.4101 463.13 82.5401 462.08 79.7301C461.04 76.9301 459.67 74.1501 457.77 71.6801C457.26 71.0901 456.78 70.4701 456.24 69.8901C455.66 69.3501 455.08 68.8101 454.5 68.2701C453.85 67.8101 453.2 67.3401 452.55 66.8801C451.89 66.4301 451.21 66.0301 450.54 65.6001C447.84 63.9001 445.13 62.1201 442.38 60.3101C436.88 56.7001 431.21 52.9701 425.35 49.2301C413.62 41.7801 401.18 34.0901 387.57 27.4301C373.94 20.8301 358.96 15.7501 343.19 12.6801C327.41 9.64007 311.68 8.71007 296.55 8.90007C281.42 9.06007 266.84 9.53007 252.96 10.3901C239.09 11.2801 225.92 12.5101 213.69 14.3901C207.59 15.4001 201.7 16.4201 196.13 17.8401C193.32 18.4601 190.64 19.3101 188 20.0901C186.67 20.4401 185.41 21.0001 184.14 21.4401C182.88 21.9201 181.61 22.3301 180.41 22.8701C170.72 26.9701 162.28 31.4001 155 35.5001C147.73 39.6101 141.63 43.4401 136.75 46.7301C131.88 50.0201 128.23 52.7901 125.91 54.8401C124.75 55.8601 123.92 56.7101 123.45 57.3601C122.96 58.0001 122.9 58.4201 122.9 58.4201L122.87 58.4301Z" fill="#263238"/>
<path d="M305.39 168.06C305.39 168.06 305.41 167.92 305.44 167.65C305.46 167.35 305.49 166.95 305.52 166.43C305.59 165.36 305.66 163.78 305.75 161.75C305.9 157.68 306.09 151.79 306.12 144.52C306.12 129.98 305.94 109.79 302.73 87.7799C302.52 86.4099 302.35 85.0299 302.11 83.6799C301.85 82.3299 301.59 80.9899 301.33 79.6599C301.06 78.3299 300.84 77.0099 300.55 75.7099C300.22 74.4199 299.9 73.1299 299.57 71.8599C299.23 70.5899 298.96 69.3199 298.57 68.0899C298.16 66.8699 297.75 65.6599 297.35 64.4599C296.94 63.2699 296.55 62.0699 296.14 60.9199C295.74 59.7599 295.3 58.6299 294.99 57.4699C293.59 52.8799 292.62 48.4099 291.81 44.2199C290.99 40.0299 290.35 36.0899 289.81 32.4999C288.74 25.3099 288.06 19.4599 287.61 15.4099C287.39 13.4099 287.23 11.8399 287.11 10.7499C287.05 10.2399 287.01 9.83988 286.98 9.53988C286.95 9.26988 286.93 9.12988 286.92 9.12988C286.92 9.12988 286.92 9.26988 286.92 9.54988C286.94 9.84988 286.97 10.2499 287 10.7699C287.08 11.8399 287.21 13.4099 287.4 15.4399C287.79 19.4899 288.41 25.3499 289.44 32.5599C289.96 36.1599 290.57 40.0999 291.38 44.3099C292.17 48.5199 293.13 52.9999 294.52 57.6199C294.83 58.7899 295.27 59.9299 295.67 61.0999C296.09 62.2699 296.46 63.4399 296.87 64.6299C297.27 65.8199 297.67 67.0199 298.08 68.2399C298.47 69.4599 298.73 70.7299 299.07 71.9899C299.39 73.2599 299.71 74.5299 300.04 75.8199C300.33 77.1199 300.55 78.4399 300.82 79.7599C301.08 81.0899 301.33 82.4199 301.59 83.7599C301.83 85.1099 302 86.4799 302.21 87.8499C305.41 109.81 305.65 129.98 305.74 144.51C305.76 151.78 305.62 157.67 305.53 161.74C305.47 163.75 305.43 165.33 305.4 166.42C305.39 166.94 305.38 167.34 305.37 167.64C305.37 167.91 305.37 168.06 305.37 168.06H305.39Z" fill="#263238"/>
<path d="M192.76 22.6099C192.76 22.6099 180.76 41.7399 181.21 44.2299C181.66 46.7199 182.12 60.9899 182.12 60.9899H161.47L182.09 26.4399" fill="#263238"/>
<path d="M286.91 14.1902C286.77 14.2202 288.88 25.2902 291.62 38.9202C294.36 52.5602 296.7 63.5802 296.84 63.5502C296.98 63.5202 294.87 52.4502 292.13 38.8102C289.39 25.1802 287.05 14.1502 286.91 14.1802V14.1902Z" fill="#455A64"/>
<path opacity="0.3" d="M410.58 50.57C410.58 50.57 392.43 35.24 349.42 23.59C325.6 17.13 301.12 18.25 301.12 18.25L303.24 26.53C303.24 26.53 314.06 24.81 317.5 31.34C320.93 37.87 312.69 53.32 312.69 53.32C312.69 53.32 314.41 61.56 315.78 61.56C317.15 61.56 391.42 63.47 391.42 63.47C391.42 63.47 394.5 54.01 400.6 50.95C404.22 49.14 410.58 50.56 410.58 50.56V50.57Z" fill="white"/>
<path opacity="0.3" d="M280.69 59.93C280.69 59.71 275.08 19.15 274.61 19.37C274.14 19.59 226.41 18.29 196.47 26.27L187.11 41.8C187.11 41.8 190.39 60.57 191.09 59.92C191.79 59.27 280.7 59.92 280.7 59.92L280.69 59.93Z" fill="white"/>
<path d="M601.52 162.34C601.92 190.14 579.71 213.01 551.91 213.41C524.11 213.81 501.24 191.6 500.84 163.8C500.44 136 522.65 113.13 550.46 112.73C578.26 112.33 601.13 134.54 601.53 162.34H601.52Z" fill="#263238"/>
<path d="M601.51 162.21C601.51 162.21 601.51 162.3 601.51 162.34C601.91 190.14 579.7 213.01 551.9 213.41C524.1 213.81 501.23 191.6 500.83 163.8C500.83 163.76 500.83 163.71 500.83 163.67L601.5 162.22L601.51 162.21Z" fill="#263238"/>
<path d="M586.52 162.55C586.8 182.07 571.21 198.12 551.69 198.4C532.17 198.68 516.12 183.09 515.84 163.57C515.56 144.05 531.15 128 550.67 127.72C570.19 127.44 586.24 143.03 586.52 162.55Z" fill="#FAFAFA"/>
<path d="M550.67 127.72C570.19 127.44 586.24 143.03 586.52 162.55L515.83 163.57C515.55 144.05 531.14 128 550.66 127.72H550.67Z" fill="#E0E0E0"/>
<path d="M572.71 162.75C572.88 174.64 563.38 184.42 551.49 184.59C539.6 184.76 529.82 175.26 529.65 163.37C529.48 151.48 538.98 141.7 550.87 141.53C562.76 141.36 572.54 150.86 572.71 162.75Z" fill="#263238"/>
<path d="M186.85 162.9C187.27 191.73 164.24 215.43 135.41 215.85C106.58 216.27 82.8798 193.24 82.4598 164.41C82.0398 135.58 105.07 111.88 133.9 111.46C162.73 111.04 186.43 134.07 186.85 162.9Z" fill="#263238"/>
<path d="M186.84 162.76C186.84 162.76 186.84 162.85 186.84 162.89C187.26 191.72 164.23 215.42 135.4 215.84C106.57 216.26 82.8698 193.23 82.4498 164.4C82.4498 164.35 82.4498 164.31 82.4498 164.27L186.82 162.76H186.84Z" fill="#263238"/>
<path d="M171.3 163.12C171.59 183.36 155.42 200 135.19 200.29C114.95 200.58 98.3099 184.41 98.0199 164.18C97.7299 143.94 113.9 127.3 134.13 127.01C154.37 126.72 171.01 142.89 171.3 163.12Z" fill="#FAFAFA"/>
<path d="M134.13 127.01C154.37 126.72 171.01 142.89 171.3 163.12L98.0098 164.18C97.7198 143.94 113.89 127.3 134.12 127.01H134.13Z" fill="#E0E0E0"/>
<path d="M156.98 163.33C157.16 175.66 147.31 185.8 134.98 185.97C122.65 186.15 112.51 176.3 112.34 163.97C112.16 151.64 122.01 141.5 134.34 141.33C146.67 141.15 156.8 151 156.98 163.33Z" fill="#263238"/>
<path d="M50.47 77.03C50.47 77.03 51.78 79.12 50.47 80.42C49.16 81.73 39.37 95.82 33.11 96.21C26.84 96.6 11.73 96.21 11.73 96.21L12.93 77.02H50.47V77.03Z" fill="white"/>
<path opacity="0.3" d="M3.88992 149.19L49.5599 155.47C49.5599 155.47 50.2299 158.8 45.0699 159.46C39.9099 160.13 9.1799 154.77 9.1799 154.77L3.88992 149.19Z" fill="black"/>
<path opacity="0.3" d="M484.62 168.06C483.49 167.82 469.41 159.66 452.5 159.52C435.6 159.38 205.93 147.15 207.62 148.88C209.31 150.61 215.4 157.18 227.67 159.52C244.03 162.64 484.61 168.06 484.61 168.06H484.62Z" fill="black"/>
<path d="M417.78 48.8901L406.94 66.7501H446.6L417.78 48.8901Z" fill="#263238"/>
<path d="M430.99 60.2997C433.67 62.8297 434.46 67.0897 430.99 69.7797C427.52 72.4597 403.98 72.6197 401.14 69.7797C398.3 66.9397 398.76 61.4097 402.88 56.8297C405.5 53.9097 413.62 50.6697 417.09 50.9897C420.56 51.3097 428.29 57.7697 430.99 60.3097V60.2997Z" fill="#FF884D"/>
<path d="M430.99 60.2998C430.99 60.2998 430.95 60.2298 430.84 60.1298C430.71 59.9998 430.55 59.8498 430.36 59.6598C429.93 59.2598 429.3 58.6598 428.45 57.9298C426.74 56.4898 424.29 54.3598 420.84 52.2898C419.97 51.7898 419.04 51.2798 417.96 50.9598C416.85 50.5998 415.66 50.7798 414.5 50.9798C412.17 51.4298 409.78 52.2998 407.38 53.4598C406.19 54.0498 404.99 54.7198 403.88 55.5798C402.75 56.4398 401.85 57.5998 401.05 58.8098C400.27 60.0398 399.65 61.4198 399.31 62.8998C398.98 64.3798 398.95 65.9798 399.45 67.4898C399.68 68.2498 400.09 68.9398 400.58 69.5498C400.71 69.6998 400.83 69.8498 400.97 69.9898C401.14 70.1198 401.3 70.2698 401.48 70.3498C401.83 70.5498 402.19 70.6898 402.55 70.8098C404 71.2798 405.46 71.4798 406.89 71.6598C409.76 71.9898 412.54 72.0898 415.19 72.0898C417.84 72.0898 420.35 71.9898 422.7 71.7898C425.04 71.5798 427.23 71.2998 429.18 70.7598C429.67 70.6198 430.14 70.4498 430.58 70.2298C431.04 70.0098 431.38 69.6698 431.72 69.3598C432.37 68.7098 432.85 67.9498 433.12 67.1798C433.68 65.6198 433.4 64.1598 433 63.1198C432.58 62.0598 432.04 61.3498 431.64 60.9198C431.45 60.6898 431.27 60.5498 431.17 60.4398C431.06 60.3398 431 60.2898 430.99 60.2998C430.97 60.3198 431.19 60.5298 431.56 60.9898C431.93 61.4398 432.43 62.1498 432.81 63.1898C433.17 64.2098 433.4 65.6198 432.84 67.0798C432.29 68.4998 431.04 69.9998 429.08 70.3998C427.18 70.9098 425 71.1698 422.67 71.3598C420.34 71.5398 417.83 71.6298 415.2 71.6098C412.57 71.5898 409.8 71.4798 406.96 71.1498C405.55 70.9698 404.1 70.7598 402.72 70.3098C402.38 70.1998 402.04 70.0698 401.74 69.8898C401.58 69.8198 401.47 69.6998 401.33 69.5998C401.21 69.4798 401.09 69.3298 400.97 69.1998C400.52 68.6398 400.14 68.0098 399.93 67.3098C399.47 65.9198 399.49 64.3998 399.81 62.9998C400.13 61.5898 400.73 60.2598 401.48 59.0698C402.25 57.8898 403.11 56.7798 404.18 55.9598C405.25 55.1298 406.42 54.4598 407.59 53.8798C409.94 52.7298 412.3 51.8498 414.57 51.3998C415.7 51.1998 416.84 51.0298 417.84 51.3398C418.86 51.6298 419.79 52.1198 420.65 52.5998C424.08 54.5998 426.57 56.6898 428.31 58.0698C429.14 58.7598 429.79 59.3098 430.28 59.7198C430.73 60.0998 430.96 60.2998 430.98 60.2898L430.99 60.2998Z" fill="#263238"/>
<path opacity="0.3" d="M665.82 110.12C665.82 110.12 659.06 101.42 648.96 97.28C638.87 93.14 579.5 79.76 535.99 75.48C494.4 71.39 468.02 69.96 468.02 69.96L459.91 71.85C459.91 71.85 578.3 88.8 605.17 93.79C625.26 97.52 667.23 119.5 667.23 119.5L666.23 116.81L665.81 110.11L665.82 110.12Z" fill="black"/>
<path d="M647.31 98.14C651.77 100.59 655.33 104.47 656.97 108.45C658.8 112.89 658.41 116.02 657.1 116.28C655.79 116.54 631.91 117.72 627.73 115.37C623.55 113.02 606.98 94.22 606.98 94.22C606.98 94.22 639.49 93.84 647.31 98.14Z" fill="white"/>
<path d="M86.0601 129.4C86.0601 129.4 85.7701 129.3 85.2001 129.16C84.5901 129.01 83.7601 128.82 82.7201 128.57C80.5701 128.07 77.4501 127.36 73.5801 126.52C65.8501 124.83 55.1601 122.61 43.2801 120.48C31.4001 118.36 20.5801 116.79 12.7201 115.85C8.79009 115.38 5.61003 115.03 3.41003 114.83C2.34003 114.74 1.50006 114.66 0.870056 114.61C0.290056 114.56 -0.0199585 114.55 -0.0199585 114.57C-0.0199585 114.59 0.280046 114.64 0.860046 114.72C1.48005 114.8 2.32008 114.91 3.39008 115.04C5.58008 115.3 8.76005 115.7 12.6801 116.22C20.5201 117.26 31.3201 118.88 43.1901 121C55.0601 123.13 65.7601 125.3 73.5101 126.89C77.3501 127.68 80.4701 128.32 82.6801 128.78C83.7301 128.99 84.5601 129.15 85.1801 129.28C85.7501 129.39 86.0501 129.44 86.0601 129.42V129.4Z" fill="#263238"/>
<path d="M11.73 97.2799C11.8 97.2799 11.86 96.1399 11.95 94.3099C12.05 92.3099 12.17 89.8599 12.3 87.1499C12.46 84.4399 12.6 81.9899 12.71 79.9899C12.78 79.0799 12.83 78.3399 12.88 77.8299C12.92 77.3199 12.98 77.0499 12.93 77.0299C12.85 76.9999 12.54 78.1299 12.34 79.9599C12.12 81.7899 11.92 84.3199 11.78 87.1299C11.64 89.9299 11.58 92.4699 11.58 94.3099C11.58 96.1499 11.66 97.2899 11.72 97.2899L11.73 97.2799Z" fill="#263238"/>
</g>
<defs>
<clipPath id="clip0_120_2">
<rect width="674.44" height="215.85" fill="white" transform="matrix(-1 0 0 1 674.44 0)"/>
</clipPath>
</defs>
</svg>
