<svg width="638" height="176" viewBox="0 0 638 176" fill="none" xmlns="http://www.w3.org/2000/svg">
<g clip-path="url(#clip0_120_110)">
<path d="M50.4399 36.7301C50.4399 36.7301 40.01 36.0501 36.66 37.0901C33.31 38.1301 24.0699 53.8001 24.0699 53.8001L50.4399 36.7301Z" fill="#444444"/>
<path opacity="0.3" d="M50.4399 36.7301C50.4399 36.7301 40.01 36.0501 36.66 37.0901C33.31 38.1301 24.0699 53.8001 24.0699 53.8001L50.4399 36.7301Z" fill="black"/>
<path d="M221.99 9.66992C221.99 9.66992 115.9 31.7799 117.36 34.0499C118.83 36.3199 192.09 34.0499 192.09 34.0499L225.42 16.8999L221.98 9.66992H221.99Z" fill="#455A64"/>
<path d="M468.66 55.26C468.66 55.26 400.27 11.93 356.61 6.02002L348.36 13.66C348.36 13.66 434.95 60.12 436.42 60.49C437.89 60.86 468.66 55.26 468.66 55.26Z" fill="#455A64"/>
<path d="M360.38 141.93H597.24V76.8099L503.11 62.6299L360.38 76.8099V141.93Z" fill="#444444"/>
<path opacity="0.6" d="M360.38 141.93H597.24V76.8099L503.11 62.6299L360.38 76.8099V141.93Z" fill="black"/>
<path d="M247.66 137.75H10.7999V72.6299L87.9099 46.6099L247.66 72.6299V137.75Z" fill="#444444"/>
<path opacity="0.6" d="M247.66 137.75H10.7999V72.6299L87.9099 46.6099L247.66 72.6299V137.75Z" fill="black"/>
<path d="M632.77 111.97C632.77 112.31 629.12 121.65 629.92 124.05C630.72 126.44 637.51 130.2 637.51 130.2V132.48H623.2C623.2 132.48 616.36 121.32 616.71 121.32C617.06 121.32 628.44 110.04 628.79 110.04C629.14 110.04 632.78 111.98 632.78 111.98L632.77 111.97Z" fill="#263238"/>
<path d="M-6.10352e-05 75.37C-0.250061 72.07 40.8399 39.85 47.6899 37.3C54.5399 34.75 122.53 34.02 122.53 34.02C171.24 27.68 208.03 15.75 215.13 14.23C222.23 12.71 221.98 9.65996 221.98 9.65996C221.98 9.65996 259.02 0.52996 300.63 0.0199602C342.24 -0.49004 358.98 6.86996 358.98 6.86996L352.89 10.17C385.87 20.32 431.79 53.81 431.79 53.81L462.74 51.78C489.89 50 527.18 55.08 527.18 55.08C601.77 66.75 637.29 103.79 637.29 103.79L636.29 113.43C636.29 113.43 628.09 115.05 627.28 123.96C626.59 131.56 627.91 137.53 627.91 137.53L637.3 140.32C640.6 146.92 606.1 149.45 606.1 149.45C592.64 150.84 573.08 151.66 552.06 152.12C556.31 143.44 558.54 133.58 558.12 123.17C556.85 92.01 531.4 66.68 500.24 65.54C465.97 64.28 437.79 91.7 437.79 125.69C437.79 131.29 437.51 143.86 438.47 152.24H156.56L154.43 152.09C154.79 142.4 155.37 122 154.21 113.94C149.51 81.03 125.73 59.56 92.4799 59.56C59.2299 59.56 32.29 86.51 32.29 119.75C32.29 124.7 32.0699 135.08 32.6799 143.21C27.2199 142.04 11.3799 138.56 9.91992 137.52C8.13992 136.25 4.58997 106.32 4.58997 106.32L0.0199585 102.77C0.0199585 102.77 0.269958 78.67 0.0199585 75.37H-6.10352e-05Z" fill="#444444"/>
<g opacity="0.3">
<path d="M627.28 123.96C626.59 131.56 627.91 137.53 627.91 137.53L637.3 140.32C640.6 146.92 606.1 149.45 606.1 149.45C592.64 150.84 573.08 151.66 552.06 152.12C555.97 144.14 558.17 135.17 558.17 125.69C558.17 106.58 549.26 89.5696 535.38 78.5396C540.76 82.3896 556.67 92.1396 583.23 94.9696C616.57 98.5296 637.29 103.79 637.29 103.79L636.29 113.43C636.29 113.43 628.09 115.05 627.28 123.96Z" fill="black"/>
<path d="M533.28 76.9697C533.28 76.9697 533.32 76.9897 533.37 77.0397C533.34 77.0197 533.31 76.9997 533.28 76.9697Z" fill="black"/>
<path d="M26.7699 115.23C25.7099 99.6598 35.2599 54.3698 87.6299 52.5998C110.54 51.8298 126.48 58.1598 137.15 65.5398C155.3 78.0698 177.05 84.2898 199.02 82.3798C246.29 78.2598 319.83 72.1598 353.01 71.0098C403.96 69.2398 454.87 83.6698 455.39 83.1498C444.5 94.0398 437.77 109.09 437.77 125.7C437.77 131.3 437.49 143.87 438.45 152.25H156.54L154.41 152.1C154.77 142.41 155.35 122.01 154.19 113.95C149.49 81.0398 125.71 59.5698 92.4599 59.5698C59.2099 59.5698 32.2699 86.5198 32.2699 119.76C32.2699 124.71 32.0499 135.09 32.6599 143.22C27.1999 142.05 11.3599 138.57 9.8999 137.53C8.7599 136.72 6.8999 124.17 5.7099 115.23H26.7699Z" fill="black"/>
</g>
<path opacity="0.3" d="M601.86 88.2898C601.86 88.2898 592.24 84.8798 585.41 81.5898C580.93 79.4298 566.01 71.9998 556.26 67.1298C555.23 66.6198 555.84 65.0598 556.95 65.3798C569.84 69.0898 592.09 75.9498 599.21 80.9398L601.87 88.2898H601.86Z" fill="black"/>
<path d="M618.23 91.9001C619.27 92.6801 604.32 89.5501 601.32 88.0501C598.32 86.5501 571.99 71.1401 571.99 71.1401C571.99 71.1401 599.61 78.0001 618.23 91.9101V91.9001Z" fill="white"/>
<path d="M422.57 54.6801C422.57 54.6801 372.92 16.3501 332.77 9.78006C322.73 8.14006 306.13 4.79006 291.52 6.49006C247.71 11.6001 196.61 27.3001 196.61 27.3001C196.61 27.3001 251 42.2701 297.73 48.8401C342.25 55.1001 404.28 56.1401 422.58 54.6801H422.57Z" fill="#455A64"/>
<path opacity="0.3" d="M348.75 17.2401C349.45 17.5901 350.13 40.6501 338.22 41.6601C326.31 42.6701 229.57 25.2301 232.06 22.3601C237.12 16.5101 285.75 10.3101 294.63 9.67012C302.74 9.08012 337.5 11.5901 348.75 17.2401Z" fill="white"/>
<path d="M280.96 7.90012C280.96 7.90012 280.78 8.08012 280.45 8.44012C280.11 8.81012 279.62 9.36012 278.97 10.0701C277.67 11.5201 275.75 13.6601 273.26 16.4301C268.27 22.0101 260.99 30.1601 251.78 40.4701L251.74 40.5101V40.5801C251.71 41.6601 251.25 42.7801 250.63 43.7501C250.03 44.7601 249.15 45.5701 248.23 46.3801C246.39 48.0101 244.54 49.7801 242.9 51.8301C239.6 55.8901 237.19 61.2301 236.95 67.1201C236.87 67.8501 236.95 68.5901 236.95 69.3301L236.97 70.4401L237.06 71.5501C237.2 73.0401 237.39 74.5301 237.63 76.0401C238.11 79.0501 238.72 82.1101 239.42 85.2101C240.83 91.4001 242.57 97.7801 244.62 104.29C246.71 110.78 248.97 117.49 252.21 124.01C253.05 125.62 253.92 127.25 255.19 128.66C255.87 129.37 256.59 129.85 257.21 130.55C257.86 131.19 258.42 131.91 258.95 132.66C259.48 133.41 259.94 134.22 260.5 134.99C261.05 135.77 261.75 136.48 262.58 136.99C264.25 138.01 266.17 138.41 268.05 138.72C269.95 138.92 271.87 139.08 273.79 139.17C275.71 139.27 277.64 139.39 279.58 139.47C283.46 139.63 287.38 139.8 291.33 139.96C299.24 140.24 307.29 140.52 315.45 140.81C357.07 142.16 395.77 143.18 427.95 144H428.16L428.18 143.8C429.22 130.07 430.01 117.5 430.55 106.36C430.81 100.79 431 95.5801 431.08 90.7701C431.12 88.3601 431.11 86.0501 431.06 83.8501C430.97 81.6401 430.81 79.5401 430.63 77.5601C430.29 73.5901 429.91 70.0401 429.31 67.0001C428.74 63.9601 427.88 61.4301 426.85 59.5601C425.83 57.6801 424.69 56.4601 423.89 55.7201C423.06 55.0001 422.59 54.6801 422.59 54.6801C422.59 54.6801 422.69 54.7801 422.91 54.9601C423.12 55.1501 423.46 55.3901 423.85 55.7701C424.64 56.5201 425.75 57.7501 426.74 59.6201C428.84 63.3701 429.79 69.6601 430.39 77.5801C430.56 79.5701 430.72 81.6601 430.8 83.8601C430.84 86.0601 430.84 88.3701 430.8 90.7701C430.71 95.5801 430.5 100.79 430.22 106.35C429.65 117.48 428.83 130.05 427.77 143.77L427.99 143.57C395.82 142.69 357.11 141.64 315.5 140.29C307.34 140 299.29 139.72 291.39 139.44C287.44 139.28 283.52 139.11 279.64 138.95C277.7 138.87 275.77 138.76 273.86 138.65C271.94 138.57 270.05 138.41 268.17 138.21C266.32 137.91 264.44 137.51 262.89 136.56C261.3 135.63 260.48 133.9 259.41 132.36C258.87 131.59 258.28 130.85 257.62 130.19C257.01 129.5 256.19 128.93 255.61 128.31C254.42 126.98 253.54 125.36 252.71 123.78C249.5 117.32 247.23 110.62 245.13 104.15C243.07 97.6501 241.33 91.2901 239.91 85.1101C239.21 82.0201 238.59 78.9701 238.11 75.9801C237.87 74.4801 237.67 72.9901 237.53 71.5201L237.44 70.4201L237.42 69.3201C237.42 68.5901 237.34 67.8601 237.42 67.1401C237.64 61.3401 240 56.0901 243.25 52.0601C244.86 50.0201 246.69 48.2701 248.52 46.6301C250.39 45.0701 251.99 42.9801 252.11 40.5501L252.07 40.6601C261.23 30.3101 268.47 22.1301 273.44 16.5201C275.91 13.7201 277.8 11.5701 279.09 10.1001C279.72 9.37012 280.2 8.82012 280.54 8.44012C280.86 8.07012 281.02 7.87012 281.02 7.87012L280.96 7.90012Z" fill="#263238"/>
<path opacity="0.3" d="M437.74 137.42C437.74 137.42 271.58 127.89 248.87 129.36C226.16 130.83 194.29 152.25 194.29 152.25H438.45L437.75 137.42H437.74Z" fill="black"/>
<path opacity="0.3" d="M304.92 64.15C306.4 64.43 255.1 62.12 230.56 55.26C206.02 48.4 157.65 36.17 120.66 34.04C120.66 34.04 163.89 37.14 180.74 40.57C197.59 44 285.61 60.5 304.92 64.15Z" fill="black"/>
<path opacity="0.2" d="M571.83 143.83C586.33 146.48 626.05 146.36 625.45 146.87C616.59 148.67 606.08 149.45 606.08 149.45C592.8 150.82 572.73 151.66 552.04 152.12L553.4 149.13C554.59 146.33 555.55 143.42 556.3 140.42C558.17 141 562.45 142.12 571.82 143.83H571.83Z" fill="black"/>
<path opacity="0.2" d="M635.24 143.83C630.93 143.79 563.9 121.45 561.5 119.6C559.09 117.75 559.28 116.08 559.28 116.08L627.88 137.39C627.9 137.47 627.91 137.52 627.91 137.52L637.3 140.31C637.97 141.64 637.07 142.81 635.25 143.82L635.24 143.83Z" fill="black"/>
<path d="M562.68 116.85C562.64 116.99 579.31 122.41 599.93 128.96C620.54 135.5 637.29 140.7 637.33 140.56C637.37 140.42 620.7 135 600.08 128.45C579.47 121.9 562.72 116.7 562.68 116.84V116.85Z" fill="#263238"/>
<path d="M553.37 87.9502C553.37 87.9502 553.6 88.0702 554.05 88.2402C554.55 88.4302 555.22 88.6702 556.05 88.9802C556.92 89.3102 557.98 89.6902 559.24 90.0702C560.5 90.4602 561.92 90.9402 563.52 91.3502C566.7 92.2602 570.54 93.1602 574.83 94.0402C579.13 94.8802 583.87 95.6702 588.87 96.3802C598.87 97.7602 607.95 98.7802 614.5 99.7002C617.77 100.16 620.42 100.54 622.25 100.84C623.12 100.97 623.82 101.08 624.36 101.16C624.84 101.23 625.1 101.25 625.1 101.24C625.1 101.22 624.85 101.16 624.38 101.06C623.85 100.96 623.16 100.82 622.29 100.65C620.47 100.29 617.83 99.8502 614.56 99.3502C608.02 98.3302 598.94 97.2602 588.95 95.8802C583.96 95.1702 579.22 94.4002 574.93 93.5802C570.65 92.7402 566.81 91.8802 563.62 91.0102C562.01 90.6202 560.59 90.1602 559.33 89.8002C558.07 89.4502 556.99 89.1002 556.12 88.8002C555.28 88.5302 554.6 88.3102 554.09 88.1502C553.62 88.0102 553.38 87.9402 553.37 87.9602V87.9502Z" fill="#263238"/>
<path d="M248.11 72.4598C248.13 72.3798 247.38 72.5798 246.43 71.8998C245.98 71.5598 245.53 70.9598 245.45 70.1598C245.42 69.7698 245.45 69.2998 245.45 68.8298C245.44 68.3498 245.52 67.8998 245.76 67.4598C246.01 67.0398 246.39 66.6498 246.88 66.4398C247.37 66.1998 247.93 66.2198 248.57 66.2298C249.82 66.2298 251.15 66.2498 252.55 66.2498C255.36 66.2498 258.44 66.2598 261.67 66.2698C262.07 66.2698 262.5 66.2498 262.84 66.2998C263.2 66.3498 263.54 66.4798 263.83 66.6798C264.41 67.0798 264.8 67.7498 264.84 68.4398C264.89 69.1298 264.63 69.8198 264.15 70.2798C263.67 70.7698 263.05 70.9598 262.35 70.9898C259.58 71.2498 257.07 71.4898 254.93 71.6898C252.88 71.8998 251.2 72.0798 249.93 72.2098C249.39 72.2798 248.94 72.3298 248.57 72.3798C248.26 72.4198 248.1 72.4598 248.1 72.4698C248.1 72.4898 248.27 72.4898 248.58 72.4798C248.95 72.4598 249.4 72.4398 249.94 72.4098C251.21 72.3198 252.9 72.1998 254.95 72.0598C257.09 71.8898 259.6 71.6898 262.38 71.4698C263.07 71.4698 263.93 71.2198 264.49 70.6398C265.07 70.0798 265.4 69.2498 265.34 68.4098C265.29 67.5698 264.83 66.7498 264.12 66.2598C263.76 66.0098 263.35 65.8498 262.91 65.7898C262.46 65.7298 262.08 65.7698 261.67 65.7598C258.44 65.7598 255.36 65.7698 252.55 65.7798C251.15 65.7798 249.82 65.7998 248.57 65.7998C248.25 65.7998 247.97 65.7998 247.63 65.8198C247.31 65.8498 247 65.9398 246.71 66.0698C246.14 66.3298 245.71 66.7798 245.44 67.2798C245.17 67.7798 245.09 68.3498 245.12 68.8298C245.13 69.3098 245.12 69.7398 245.16 70.1998C245.28 71.0898 245.81 71.7398 246.31 72.0798C246.82 72.4298 247.31 72.5098 247.63 72.5198C247.95 72.5298 248.11 72.4698 248.11 72.4698V72.4598Z" fill="#263238"/>
<path d="M401.84 40.3301L400.3 55.2601L422.57 54.6801C415.73 49.4601 408.83 44.6501 401.84 40.3301Z" fill="#263238"/>
<path d="M396.25 63.7101C387.861 63.7101 381.06 59.9269 381.06 55.2601C381.06 50.5932 387.861 46.8101 396.25 46.8101C404.639 46.8101 411.44 50.5932 411.44 55.2601C411.44 59.9269 404.639 63.7101 396.25 63.7101Z" fill="#444444"/>
<path d="M381.05 55.2599C381.16 55.2899 380.94 54.1099 382.01 52.5099C383 50.8899 385.34 49.1899 388.58 48.1699C391.81 47.1399 395.94 46.6899 400.39 47.3799C402.6 47.7299 404.89 48.4099 407.01 49.5999C408.06 50.1899 409.05 50.9599 409.84 51.8999C410.62 52.8399 411.17 54.0199 411.18 55.2599C411.18 56.5099 410.63 57.6799 409.84 58.6199C409.05 59.5599 408.06 60.3299 407.01 60.9199C404.89 62.0999 402.6 62.7899 400.39 63.1399C395.95 63.8299 391.81 63.3799 388.58 62.3499C385.35 61.3199 383 59.6299 382.01 58.0099C380.94 56.4099 381.16 55.2299 381.05 55.2599C381.03 55.2599 381.04 55.5199 381.07 56.0299C381.09 56.2799 381.19 56.5899 381.28 56.9499C381.44 57.2799 381.56 57.7199 381.84 58.1099C382.81 59.8199 385.18 61.5999 388.46 62.6899C391.73 63.7899 395.93 64.2799 400.46 63.5999C402.72 63.2599 405.06 62.5699 407.26 61.3499C408.35 60.7399 409.39 59.9399 410.24 58.9299C411.08 57.9299 411.69 56.6299 411.7 55.2399C411.7 53.8499 411.08 52.5499 410.24 51.5499C409.39 50.5399 408.36 49.7499 407.26 49.1399C405.06 47.9199 402.72 47.2299 400.46 46.8899C395.93 46.2099 391.74 46.7099 388.46 47.7999C385.18 48.8899 382.81 50.6799 381.84 52.3799C381.55 52.7799 381.44 53.2099 381.28 53.5399C381.2 53.9099 381.1 54.2099 381.07 54.4599C381.04 54.9699 381.03 55.2399 381.05 55.2299V55.2599Z" fill="#263238"/>
<path d="M496.234 175.538C467.032 174.63 444.095 150.222 445.003 121.02C445.91 91.8185 470.319 68.8815 499.52 69.789C528.722 70.6965 551.659 95.1048 550.752 124.307C549.844 153.508 525.436 176.445 496.234 175.538Z" fill="#263238"/>
<path d="M550.76 121.77C550.76 121.77 550.76 121.86 550.76 121.91C551.18 151.12 527.84 175.14 498.63 175.56C469.42 175.98 445.4 152.64 444.98 123.43C444.98 123.38 444.98 123.34 444.98 123.29L550.75 121.76L550.76 121.77Z" fill="#263238"/>
<path d="M535.01 122.13C535.31 142.64 518.92 159.5 498.41 159.8C477.9 160.1 461.04 143.71 460.74 123.2C460.44 102.69 476.83 85.8299 497.34 85.5299C517.85 85.2299 534.71 101.62 535.01 122.13Z" fill="#FAFAFA"/>
<path d="M497.35 85.5402C517.86 85.2402 534.72 101.63 535.02 122.14L460.76 123.21C460.46 102.7 476.85 85.8402 497.36 85.5402H497.35Z" fill="#E0E0E0"/>
<path d="M520.5 122.34C520.68 134.83 510.7 145.11 498.21 145.29C485.72 145.47 475.44 135.49 475.26 123C475.08 110.51 485.06 100.23 497.55 100.05C510.04 99.8702 520.31 109.85 520.5 122.34Z" fill="#263238"/>
<path d="M89.2235 175.582C60.0272 174.511 37.2269 149.975 38.2974 120.779C39.368 91.5823 63.9041 68.782 93.1004 69.8526C122.297 70.9231 145.097 95.4592 144.026 124.655C142.956 153.852 118.42 176.652 89.2235 175.582Z" fill="#263238"/>
<path d="M144.03 121.77C144.03 121.77 144.03 121.86 144.03 121.91C144.45 151.12 121.11 175.14 91.9001 175.56C62.6901 175.98 38.6701 152.64 38.2501 123.43C38.2501 123.38 38.2501 123.34 38.2501 123.29L144.02 121.76L144.03 121.77Z" fill="#263238"/>
<path d="M128.28 122.13C128.58 142.64 112.19 159.5 91.6801 159.8C71.1701 160.1 54.3101 143.71 54.0101 123.2C53.7101 102.69 70.1001 85.8299 90.6101 85.5299C111.12 85.2299 127.98 101.62 128.28 122.13Z" fill="#FAFAFA"/>
<path d="M90.61 85.5402C111.12 85.2402 127.98 101.63 128.28 122.14L54.0201 123.21C53.7201 102.7 70.11 85.8402 90.62 85.5402H90.61Z" fill="#E0E0E0"/>
<path d="M113.77 122.34C113.95 134.83 103.97 145.11 91.48 145.29C78.99 145.47 68.7101 135.49 68.5301 123C68.3501 110.51 78.3301 100.23 90.8201 100.05C103.31 99.8702 113.58 109.85 113.76 122.34H113.77Z" fill="#263238"/>
<path d="M25.6001 53.7699C25.5501 53.8999 33.66 57.3199 43.72 61.3999C53.79 65.4799 61.9901 68.6799 62.0401 68.5499C62.0901 68.4199 53.98 64.9999 43.91 60.9199C33.85 56.8399 25.64 53.6399 25.59 53.7699H25.6001Z" fill="#263238"/>
<path d="M470.24 54.17C470.24 54.17 470.52 54.19 471.05 54.17C471.63 54.14 472.4 54.1 473.37 54.06C474.37 53.99 475.61 53.96 477.04 53.93C477.76 53.91 478.52 53.89 479.33 53.87C480.14 53.87 481 53.87 481.9 53.87C485.5 53.85 489.79 54.02 494.54 54.29C499.29 54.6 504.51 55.06 509.97 55.69C520.89 56.98 530.71 58.66 537.78 60.04C541.32 60.71 544.17 61.32 546.14 61.73C547.09 61.93 547.85 62.08 548.41 62.2C548.93 62.3 549.21 62.35 549.21 62.33C549.21 62.31 548.95 62.23 548.43 62.1C547.87 61.96 547.12 61.77 546.18 61.53C544.22 61.05 541.38 60.39 537.84 59.67C530.78 58.2 520.96 56.46 510.02 55.17C504.55 54.55 499.32 54.1 494.56 53.81C489.8 53.57 485.5 53.43 481.89 53.5C480.99 53.51 480.13 53.52 479.32 53.53C478.51 53.57 477.74 53.6 477.03 53.63C475.6 53.69 474.36 53.75 473.36 53.85C472.39 53.94 471.62 54.01 471.05 54.06C470.52 54.11 470.25 54.15 470.25 54.17H470.24Z" fill="white"/>
<path d="M392.18 50.29C392.21 50.38 393.15 50.01 394.71 49.68C396.27 49.35 398.49 49.16 400.9 49.5C403.31 49.85 405.39 50.66 406.79 51.41C408.2 52.16 408.99 52.77 409.05 52.7C409.07 52.67 408.89 52.5 408.55 52.2C408.21 51.9 407.67 51.51 406.97 51.09C405.58 50.24 403.45 49.34 400.97 48.98C398.49 48.63 396.2 48.89 394.62 49.32C393.83 49.53 393.21 49.75 392.79 49.95C392.37 50.14 392.15 50.26 392.17 50.29H392.18Z" fill="white"/>
<path d="M298.52 2.02016C298.52 2.02016 298.71 2.05016 299.08 2.06016C299.5 2.06016 300.03 2.06016 300.68 2.06016C302.07 2.05016 304.07 2.04016 306.55 2.06016C311.51 2.09016 318.35 2.29016 325.89 2.90016C333.43 3.52016 340.22 4.43016 345.11 5.21016C347.56 5.60016 349.54 5.92016 350.9 6.16016C351.54 6.26016 352.06 6.35016 352.48 6.42016C352.84 6.47016 353.03 6.49016 353.04 6.47016C353.04 6.45016 352.86 6.40016 352.5 6.31016C352.09 6.22016 351.57 6.10016 350.94 5.96016C349.59 5.66016 347.61 5.27016 345.17 4.84016C340.28 3.97016 333.49 3.00016 325.93 2.38016C318.38 1.77016 311.51 1.62016 306.55 1.69016C304.07 1.72016 302.06 1.78016 300.67 1.86016C300.02 1.90016 299.5 1.93016 299.07 1.95016C298.71 1.98016 298.51 2.00016 298.52 2.02016Z" fill="white"/>
<path d="M201.03 31.1299C201.03 31.1299 201.12 31.1799 201.32 31.2599C201.54 31.3399 201.83 31.4499 202.18 31.5799C202.98 31.8699 204.09 32.2699 205.52 32.7799C206.97 33.2999 208.75 33.9199 210.83 34.5999C212.91 35.2799 215.26 36.0899 217.9 36.8799C223.15 38.5399 229.45 40.3499 236.49 42.1999C243.54 44.0199 251.33 45.8599 259.56 47.5299C267.8 49.1699 275.7 50.4899 282.9 51.5299C290.11 52.5399 296.62 53.2999 302.1 53.7999C304.84 54.0899 307.32 54.2499 309.5 54.4299C311.68 54.6099 313.56 54.7299 315.09 54.7999C316.6 54.8799 317.78 54.9399 318.63 54.9799C319.01 54.9899 319.31 55.0099 319.55 55.0099C319.76 55.0099 319.86 55.0099 319.86 55.0099C319.86 55.0099 319.75 54.9899 319.55 54.9599C319.31 54.9399 319.01 54.9099 318.63 54.8699C317.79 54.7999 316.6 54.7099 315.1 54.5899C313.57 54.4799 311.69 54.3399 309.52 54.1299C307.34 53.9299 304.86 53.7399 302.13 53.4299C296.66 52.8799 290.16 52.0799 282.96 51.0499C275.77 49.9799 267.88 48.6499 259.65 47.0099C251.43 45.3399 243.64 43.5199 236.6 41.7299C229.56 39.8999 223.26 38.1299 218 36.5199C215.36 35.7499 213 34.9699 210.91 34.3199C208.82 33.6699 207.04 33.0799 205.58 32.5899C204.14 32.1199 203.02 31.7499 202.21 31.4899C201.85 31.3799 201.56 31.2899 201.33 31.2199C201.13 31.1599 201.03 31.1299 201.02 31.1399L201.03 31.1299Z" fill="white"/>
<path d="M108.7 34.9402C108.7 34.9402 108.92 34.9902 109.34 35.0402C109.81 35.0802 110.42 35.1402 111.17 35.2102C112.82 35.3602 115.11 35.5702 117.9 35.8302C123.58 36.3802 131.41 37.3002 140.01 38.6802C148.61 40.0702 156.33 41.6602 161.9 42.9102C164.63 43.5402 166.87 44.0602 168.49 44.4302C169.23 44.6002 169.82 44.7302 170.28 44.8402C170.69 44.9302 170.91 44.9702 170.91 44.9502C170.91 44.9302 170.71 44.8602 170.3 44.7402C169.84 44.6102 169.26 44.4402 168.53 44.2302C166.99 43.8002 164.75 43.2202 161.98 42.5402C156.43 41.1902 148.7 39.5402 140.09 38.1502C131.48 36.7702 123.63 35.9102 117.93 35.4502C115.08 35.2202 112.78 35.0702 111.18 34.9902C110.43 34.9602 109.82 34.9302 109.34 34.9102C108.92 34.9002 108.7 34.9102 108.7 34.9102V34.9402Z" fill="white"/>
<path d="M232.01 17.73C231.95 17.74 216.45 24.75 219.26 27.25C222.07 29.75 232.01 36.16 232.01 36.16L196.6 27.3L232.01 17.73Z" fill="#263238"/>
</g>
<defs>
<clipPath id="clip0_120_110">
<rect width="637.51" height="175.57" fill="white" transform="matrix(-1 0 0 1 637.51 0)"/>
</clipPath>
</defs>
</svg>
