<svg width="183" height="75" viewBox="0 0 183 75" fill="none" xmlns="http://www.w3.org/2000/svg">
<path fill-rule="evenodd" clip-rule="evenodd" d="M156.753 27.1355C156.761 26.9111 156.765 26.686 156.765 26.4603C156.765 11.8467 130.423 3.9872 109.795 3.9872C99.742 3.9872 92.9017 5.85405 88.5304 9.45981C80.2777 3.67652 67.896 0 54.0544 0C29.2078 0 0 11.8467 0 26.4604C0 32.4401 4.89049 37.9566 12.3715 42.3877C8.73155 45.5111 6.54738 49.1013 6.54738 52.9205C6.54738 64.7064 20.9728 68.1259 47.1048 74.3205C47.7172 74.4657 48.3361 74.6124 48.9613 74.7608C64.7644 74.7608 78.2752 69.0215 83.7304 60.913C94.0658 66.3192 109.076 69.7208 125.782 69.7208C156.957 69.7208 182.23 57.8741 182.23 43.2605C182.23 34.5594 172.085 30.4246 156.753 27.1355Z" fill="#F2F1EE"/>
</svg>
