<svg width="430" height="189" viewBox="0 0 430 189" fill="none" xmlns="http://www.w3.org/2000/svg">
<path d="M428.293 152.712L406.028 152.243L405.649 152.444L402.414 154.139H142.891L135.194 153.983L54.7246 152.399L23.514 151.797L4.4173 151.418C-1.71774 150.57 0.334707 140.33 0.334707 140.33C0.84782 131.986 12.6048 131.139 12.6048 131.139V76.057C17.5574 52.6992 44.8417 9.21853 44.8417 9.21853L107.932 3.23965C179.032 -3.23003 307.087 3.93124 307.087 3.93124L367.277 10.0663L425.594 77.5964L426.107 118.935L421.444 132.165C434.294 138.434 428.293 152.712 428.293 152.712Z" fill="#F6A722"/>
<path d="M17.1111 130.135C125.735 130.603 292.653 131.094 400.005 132.098V132.143C293.143 131.986 125.066 130.916 17.1111 130.135Z" fill="#7C5D31"/>
<path d="M17.1111 84.1328C125.735 84.6013 292.653 85.0921 400.005 86.096V86.1406C293.143 85.9845 125.066 84.9136 17.1111 84.1328Z" fill="#7C5D31"/>
<path d="M46.0242 14.0143V13.4565C146.974 12.5195 364.578 13.2111 366.764 13.2111V13.7689C364.578 13.7689 146.974 13.0773 46.0242 14.0143Z" fill="#7C5D31"/>
<path d="M25.5664 63.2515C130.621 63.72 292.095 64.2108 395.922 65.2147V65.2593C292.563 65.1031 129.974 64.0323 25.5664 63.2515Z" fill="#7C5D31"/>
<path d="M48.0764 20.73L30.1621 57.2948H44.9978L61.8859 20.73H48.0764Z" fill="#181E1E"/>
<path d="M76.7216 19.436L64.1838 57.2948L161.118 58.8119V19.436H76.7216ZM157.548 55.5101L68.5341 53.9707L79.5326 23.0278H157.548V55.5101Z" fill="#F3F0E8"/>
<path d="M175.195 19.436L173.655 58.8119H275.72V19.436H175.195ZM273.155 57.2948L177.76 54.997V23.0278H273.155V57.2948Z" fill="#F3F0E8"/>
<path d="M273.154 23.0273V57.2943L254.816 56.8482L241.832 56.5358H241.81L222.155 56.0673L208.948 55.755L191.882 55.3311L178.764 55.0188L177.76 54.9965V23.0273H273.154Z" fill="#181E1E"/>
<path d="M157.548 23.0273V55.5096L147.04 55.3311L134.145 55.108L114.246 54.7511L101.083 54.528L83.8827 54.238L70.8095 54.0149L68.5339 53.9703L79.5324 23.0273H157.548Z" fill="#181E1E"/>
<path d="M393.535 57.1613C386.82 57.3397 336.803 58.3883 311.705 58.656C303.049 58.7675 297.36 58.7452 297.449 58.5891C297.382 49.4646 297.538 28.7393 297.449 19.4363H348.27C352.999 19.5479 356.591 19.1017 361.053 19.771C361.789 19.8825 362.57 20.061 363.328 20.3064C364.868 20.7972 366.295 21.5334 367.009 22.5373C367.589 23.4966 368.482 23.7643 369.463 24.7013C378.833 33.4465 387.043 46.7875 393.535 57.1613Z" fill="#181E1E"/>
<g style="mix-blend-mode:screen" opacity="0.25">
<path d="M393.535 57.161C386.82 57.3395 336.802 58.388 311.705 58.6557L363.328 20.3062C364.868 20.797 366.295 21.5332 367.009 22.5371C367.589 23.4964 368.482 23.7641 369.463 24.7011C378.833 33.4463 387.043 46.7872 393.535 57.161Z" fill="#BFCAE2"/>
</g>
<path d="M377.517 51.1596C377.026 54.4837 374.595 56.38 371.784 57.4508C370.802 57.8301 369.754 58.1201 368.75 58.3209C365.069 59.0571 361.655 58.8117 361.655 58.8117L364.221 35.5654C377.517 40.1611 377.517 51.1596 377.517 51.1596Z" fill="#323535"/>
<path d="M374.707 62.4038L372.141 68.5612H366.764L370.735 61.1322L368.75 58.3212C369.754 58.1204 370.802 57.8304 371.784 57.4512L374.707 62.4038Z" fill="#323535"/>
<path d="M31.4561 119.204H15.5942V125.339H31.4561V119.204Z" fill="#F3F0E8"/>
<path d="M47.5636 119.204H34.2673V125.339H47.5636V119.204Z" fill="#D83A1A"/>
<path d="M23.514 138.879V151.797L4.4173 151.417C-1.71774 150.57 0.334707 140.33 0.334707 140.33C0.84782 131.986 12.6048 131.138 12.6048 131.138L13.8095 138.879H23.514Z" fill="#181E1E"/>
<path d="M135.194 153.983L54.7246 152.399C54.8138 151.306 57.424 123.754 77.48 120.988L112.662 122.259C112.662 122.259 125.311 122.259 128.635 136.337C131.111 146.777 132.316 150.748 135.194 153.983Z" fill="#181E1E"/>
<path d="M376.892 154.14H298.408C300.572 144.034 306.529 122.55 318.42 120.988C334.036 118.936 354.739 120.988 354.739 120.988C354.739 120.988 367.277 120.587 373.167 139.706C375.755 148.072 376.178 151.82 376.892 154.14Z" fill="#181E1E"/>
<path d="M428.293 152.711L406.028 152.242L405.649 152.443V139.147H417.406L421.444 132.164C434.294 138.433 428.293 152.711 428.293 152.711Z" fill="#181E1E"/>
<path d="M303.294 112.935H291.872C290.825 112.935 289.976 113.784 289.976 114.831V122.282C289.976 123.329 290.825 124.178 291.872 124.178H303.294C304.341 124.178 305.191 123.329 305.191 122.282V114.831C305.191 113.784 304.341 112.935 303.294 112.935Z" fill="#333535"/>
<path d="M167.119 15.1743L167.074 13.5011C167.967 13.4788 255.776 10.8017 282.458 13.5011L282.279 15.1743C255.709 12.4749 168.011 15.1743 167.119 15.1743Z" fill="black"/>
<path d="M58.7851 80.0503L58.7405 78.9348C59.499 78.9348 133.856 77.1501 156.455 78.9348L156.321 80.0503C133.811 78.2655 59.5436 80.0503 58.8074 80.0503H58.7851Z" fill="black"/>
<path d="M15.5942 70.5243L405.649 68.561" stroke="black" stroke-width="2.23092" stroke-miterlimit="10"/>
<path d="M15.5942 75.1864L405.649 73.2231" stroke="black" stroke-width="2.23092" stroke-miterlimit="10"/>
<path d="M165.378 78.6221H152.93V83.0616H165.378V78.6221Z" fill="black"/>
<path d="M279.379 78.6221H266.93V83.0616H279.379V78.6221Z" fill="black"/>
<path d="M311.415 78.6221H298.966V83.0616H311.415V78.6221Z" fill="black"/>
<path d="M367.366 13.7246H290.556" stroke="black" stroke-width="1.67319" stroke-miterlimit="10"/>
<path d="M406.274 138.946C405.292 58.6104 421.489 79.2687 368.571 15.2858C368.103 14.6389 368.147 14.5942 368.727 15.1743C370.914 17.249 387.311 36.7027 396.19 48.6158C404.043 58.9896 409.955 70.2558 408.192 83.1506C407.501 99.1909 407.3 126.542 406.296 138.924L406.274 138.946Z" fill="#333535"/>
<path d="M380.306 154.183C375.019 114.83 361.432 109.141 323.35 111.996C313.044 111.907 301.644 110.903 294.906 104.121C292.72 101.511 292.631 98.2094 292.497 93.1898C292.497 92.4982 292.452 91.762 292.43 90.9812C292.051 77.4841 291.604 62.3361 291.18 47.612L290.288 16.1113H290.846L291.738 47.5897C292.162 62.3138 292.586 77.4618 292.988 90.9588C293.01 91.7397 293.032 92.4759 293.054 93.1675C293.188 98.0532 293.255 101.288 295.308 103.72C301.889 110.323 313.155 111.327 323.306 111.416C361.789 108.516 375.487 114.294 380.841 154.072L380.284 154.139L380.306 154.183Z" fill="#333535"/>
<path d="M284.153 154.228L283.618 154.095C287.901 138.121 282.056 16.4243 281.989 15.1973H282.547C282.614 16.402 288.459 138.166 284.153 154.228Z" fill="#333535"/>
<path d="M167.342 13.5015H166.784V64.0319H167.342V13.5015Z" fill="#333535"/>
<path d="M165.669 151.819L165.111 151.796L166.784 79.7152L162.635 77.0158V64.2549H163.192V76.7034L167.342 79.4029V79.559L165.669 151.819Z" fill="#333535"/>
<path d="M93.8103 185.975C109.655 185.975 122.5 173.13 122.5 157.285C122.5 141.441 109.655 128.596 93.8103 128.596C77.9654 128.596 65.1206 141.441 65.1206 157.285C65.1206 173.13 77.9654 185.975 93.8103 185.975Z" fill="#010101"/>
<path d="M93.8105 175.601C103.926 175.601 112.126 167.401 112.126 157.285C112.126 147.17 103.926 138.969 93.8105 138.969C83.6949 138.969 75.4946 147.17 75.4946 157.285C75.4946 167.401 83.6949 175.601 93.8105 175.601Z" fill="#B2B2B2"/>
<path d="M337.65 188.54C353.495 188.54 366.34 175.695 366.34 159.85C366.34 144.005 353.495 131.161 337.65 131.161C321.806 131.161 308.961 144.005 308.961 159.85C308.961 175.695 321.806 188.54 337.65 188.54Z" fill="#010101"/>
<path d="M337.651 178.166C347.766 178.166 355.967 169.966 355.967 159.85C355.967 149.734 347.766 141.534 337.651 141.534C327.535 141.534 319.335 149.734 319.335 159.85C319.335 169.966 327.535 178.166 337.651 178.166Z" fill="#B2B2B2"/>
<path d="M86.9393 37.6642C86.1138 37.798 85.3999 37.7311 84.8199 37.5303C84.1729 37.2849 83.6821 36.8387 83.3029 36.2141C82.9905 35.634 82.7675 34.9201 82.6336 34.0054C82.4997 33.0908 82.4997 32.3099 82.6336 31.6853C82.7898 30.9714 83.1467 30.4137 83.6821 29.9898C84.1729 29.6105 84.8422 29.3651 85.6677 29.2313C86.4931 29.0974 87.207 29.1643 87.787 29.3651C88.4117 29.6105 88.9248 30.0344 89.2817 30.6814C89.6164 31.2614 89.8395 31.9753 89.9733 32.9123C90.1072 33.8493 90.1072 34.5855 89.9733 35.2324C89.8172 35.9463 89.4602 36.5264 88.9248 36.9279C88.434 37.3072 87.7647 37.5526 86.917 37.6865L86.9393 37.6642ZM84.753 33.7823C84.753 33.7823 84.8422 33.827 85.1099 33.8493C85.4223 33.8493 85.8461 33.827 86.3592 33.76C86.8723 33.6931 87.2962 33.5816 87.5862 33.4923C87.8316 33.4031 87.8986 33.3362 87.8986 33.3362L87.854 33.1354C87.854 33.1354 87.7424 33.0908 87.5193 33.0908C87.2293 33.0908 86.8054 33.0908 86.27 33.2023C85.7346 33.3139 85.333 33.3585 85.043 33.47C84.7976 33.5593 84.7084 33.6262 84.7084 33.6262L84.753 33.827V33.7823Z" fill="#454CD6"/>
<path d="M85.779 29.9444C86.4929 29.8328 87.0729 29.8774 87.5414 30.0559C88.0099 30.2344 88.3892 30.569 88.6569 31.0375C88.9246 31.5283 89.1254 32.1753 89.2592 33.0007C89.3931 33.8262 89.3708 34.4954 89.2592 35.0532C89.1477 35.5886 88.88 36.0125 88.4784 36.3248C88.0768 36.6371 87.5191 36.8379 86.8052 36.9271C86.0913 37.0164 85.5113 36.9941 85.0428 36.8156C84.5743 36.6371 84.195 36.3025 83.9273 35.834C83.6596 35.3432 83.4588 34.6962 83.325 33.8708C83.1911 33.0453 83.2134 32.3538 83.325 31.8183C83.4588 31.2829 83.7042 30.859 84.1058 30.5467C84.5074 30.2344 85.0651 30.0336 85.7567 29.9444M86.4483 34.4508C87.0283 34.3616 87.4745 34.2723 87.8091 34.1385C88.1438 34.0269 88.3669 33.8708 88.4784 33.7146C88.59 33.5361 88.6346 33.3354 88.6123 33.09C88.59 32.8446 88.4784 32.6438 88.2999 32.5099C88.1438 32.3761 87.8761 32.3091 87.5414 32.3091C87.1845 32.3091 86.7383 32.3091 86.1583 32.4207C85.5782 32.5322 85.132 32.5992 84.7974 32.7107C84.4627 32.8222 84.2397 32.9561 84.1281 33.1346C84.0166 33.313 83.972 33.5138 83.9943 33.7815C84.0166 34.0493 84.1281 34.2277 84.3066 34.3616C84.4851 34.4954 84.7305 34.5624 85.0874 34.5847C85.4444 34.607 85.8905 34.5847 86.4706 34.4731M85.5782 28.4943C84.6189 28.6281 83.8381 28.9404 83.2357 29.3866C82.5665 29.8997 82.1203 30.6136 81.9195 31.4837C81.741 32.2199 81.741 33.0676 81.8972 34.0939C82.0534 35.1201 82.2988 35.9009 82.6557 36.5702C83.1019 37.351 83.7489 37.9311 84.552 38.2211C85.2659 38.4888 86.0913 38.5334 87.0506 38.3996C88.0099 38.2657 88.7907 37.9534 89.3931 37.5072C90.0624 36.9941 90.5309 36.2579 90.7093 35.3878C90.8655 34.6516 90.8878 33.8039 90.7093 32.7999C90.5309 31.796 90.3078 30.9706 89.9285 30.3236C89.4823 29.5428 88.8354 28.9851 88.0545 28.695C87.3406 28.4273 86.5152 28.3604 85.5559 28.5166L85.5782 28.4943Z" fill="white"/>
<path d="M96.2198 36.1688C96.2198 36.1688 96.0413 34.4733 95.9744 34.0495C95.9298 33.6033 95.8629 33.2463 95.8182 32.9117L95.9298 32.8448C95.9298 32.8448 95.7959 32.8448 95.7067 32.8671C95.5952 32.8671 95.4836 32.9117 95.3944 32.934C95.3944 32.934 95.4167 33.0009 95.3944 33.1794C95.3944 33.3802 95.3721 33.6702 95.3721 34.0271C95.3721 34.4287 95.3721 36.2581 95.3721 36.2581L93.1858 36.5927L93.0073 35.9681C92.8288 35.3211 92.6726 34.8303 92.5611 34.451C92.4496 34.0941 92.3603 33.8264 92.2711 33.6479C92.2041 33.4694 92.1595 33.4025 92.1595 33.4025C92.1595 33.4025 91.8249 33.4471 91.7803 33.4471C91.8695 33.871 91.9141 34.2279 91.9811 34.6072C92.048 35.0311 92.3603 36.7043 92.3603 36.7043L90.0625 37.0389L89.3486 31.9078L88.8354 28.7845L97.2237 27.5352L97.9376 32.6663L98.4507 35.7896L96.1529 36.1242L96.2198 36.1688Z" fill="#454CD6"/>
<path d="M96.6882 28.4271C96.7551 28.8956 96.7997 29.2749 96.8443 29.5649C96.889 29.8549 96.9113 30.1226 96.9559 30.3011C96.9782 30.5019 97.0005 30.6803 97.0228 30.8142L97.0897 31.2604L97.179 31.8181L97.2682 32.3758L97.3351 32.822C97.3351 32.9782 97.3798 33.1343 97.4244 33.3351C97.4467 33.5359 97.4913 33.7813 97.5359 34.0713C97.5805 34.3614 97.6475 34.7406 97.7144 35.2091L96.9113 35.3207C96.8666 34.8522 96.7997 34.3837 96.7551 33.9375C96.7105 33.4913 96.6436 33.112 96.5989 32.7997C96.5989 32.7105 96.5766 32.6212 96.5543 32.5543C96.5543 32.4874 96.5097 32.4205 96.5097 32.3758C96.5097 32.3312 96.4651 32.2866 96.4428 32.2643C96.4205 32.242 96.3758 32.1974 96.3312 32.1751C96.2866 32.1304 96.1974 32.1081 96.0858 32.1081C95.9743 32.1081 95.8404 32.1081 95.6843 32.1304C95.5281 32.1527 95.3942 32.1751 95.2827 32.2197C95.1711 32.242 95.0819 32.3089 94.9927 32.3981C94.9257 32.4651 94.8811 32.5543 94.8588 32.6435C94.8142 32.7328 94.7919 32.8889 94.7696 33.112C94.7696 33.3128 94.7473 33.6252 94.7473 34.0267C94.7473 34.4283 94.7473 34.9637 94.7473 35.633L93.8326 35.7668C93.6541 35.1199 93.498 34.6068 93.3864 34.2275C93.2749 33.8482 93.1633 33.5582 93.0964 33.3574C93.0072 33.1567 92.9402 33.0228 92.8956 32.9336C92.8287 32.8443 92.7618 32.7774 92.6725 32.7328C92.5833 32.6659 92.4717 32.6435 92.3602 32.6435C92.2486 32.6435 92.0925 32.6435 91.9363 32.6882C91.7801 32.7328 91.6463 32.7328 91.5347 32.7774C91.4232 32.822 91.3563 32.8666 91.3116 32.9113C91.2893 32.9559 91.2447 32.9782 91.2447 33.0228C91.2447 33.0674 91.2224 33.112 91.2001 33.1567C91.2001 33.2013 91.2001 33.2682 91.2001 33.3351C91.2001 33.4021 91.2001 33.4913 91.2224 33.5805C91.267 33.8929 91.334 34.2944 91.4009 34.7183C91.4678 35.1422 91.5571 35.6107 91.6463 36.0792L90.8432 36.1907C90.7762 35.7222 90.7316 35.343 90.687 35.0529C90.6424 34.7629 90.6201 34.5175 90.5754 34.3167C90.5531 34.116 90.5308 33.9375 90.5085 33.8036L90.4416 33.3574L90.3524 32.7997L90.2631 32.242L90.1962 31.7958C90.1962 31.6396 90.1516 31.4835 90.1069 31.2827C90.0846 31.0819 90.04 30.8365 89.9954 30.5465C89.9508 30.2565 89.8839 29.8772 89.8169 29.4087L92.6725 28.9848C92.7841 29.4979 92.8733 29.9441 92.9402 30.3011C93.0072 30.658 93.0964 30.9704 93.141 31.2158C93.2079 31.4612 93.2526 31.6619 93.2972 31.7958C93.3418 31.9297 93.3864 32.0412 93.431 32.1081C93.4756 32.1751 93.5203 32.2197 93.5649 32.242C93.6095 32.242 93.6764 32.2643 93.7434 32.242C93.8103 32.2197 93.8549 32.2197 93.8995 32.1751C93.9441 32.1527 93.9665 32.0858 93.9888 31.9966C94.0111 31.9073 94.0334 31.7958 94.0334 31.6396C94.0334 31.4835 94.0334 31.2827 94.0334 31.0373C94.0334 30.7919 93.9888 30.4795 93.9664 30.1003C93.9441 29.721 93.8995 29.2748 93.8326 28.7617L96.6882 28.3379M97.9375 26.7539L96.4651 26.977L93.8103 27.3786L92.4271 27.5793L89.5715 28.0032L88.0991 28.2263L88.3445 29.6987L88.4784 30.4572L88.5453 30.8365C88.5899 31.1265 88.6345 31.3942 88.6569 31.595L88.7238 32.0858L88.7907 32.532L88.8799 33.0897L88.9692 33.6475L89.0361 34.0936L89.103 34.5175C89.1476 34.7852 89.17 35.0306 89.2146 35.343L89.2592 35.7222L89.3707 36.4807L89.5715 37.9531L91.0439 37.7301L91.8471 37.6185L93.3641 37.3954L94.0334 37.2839L94.9481 37.15L96.2197 36.9715L97.1344 36.8377L97.9375 36.7261L99.4099 36.503L99.1645 35.0306L99.0976 34.6514L98.986 33.8929L98.9414 33.5805L98.8745 33.1343L98.7852 32.6435L98.7183 32.1974L98.6291 31.6396L98.5398 31.0819L98.4729 30.6357L98.406 30.1449L98.3391 29.6987L98.2944 29.3864L98.1829 28.6279L98.1383 28.2486L97.9375 26.7762V26.7539Z" fill="white"/>
<path d="M101.775 35.4547C100.949 35.5885 100.235 35.5216 99.6553 35.3208C99.0084 35.0754 98.5176 34.6292 98.1383 34.0046C97.826 33.4245 97.6029 32.7106 97.469 31.796C97.3352 30.8813 97.3352 30.1005 97.469 29.4758C97.6252 28.7619 97.9822 28.2042 98.5176 27.7803C99.0084 27.401 99.6777 27.1556 100.503 27.0218C101.329 26.8879 102.042 26.9549 102.622 27.1556C103.247 27.401 103.76 27.8249 104.117 28.4719C104.452 29.0519 104.675 29.7658 104.809 30.7028C104.943 31.6398 104.943 32.376 104.809 33.023C104.653 33.7369 104.296 34.3169 103.76 34.7185C103.269 35.0977 102.6 35.3431 101.752 35.477L101.775 35.4547ZM99.5884 31.5729C99.5884 31.5729 99.6777 31.6175 99.9454 31.6398C100.258 31.6398 100.682 31.6175 101.195 31.5506C101.708 31.4836 102.132 31.3721 102.422 31.2829C102.667 31.1936 102.734 31.1267 102.734 31.1267L102.689 30.9259C102.689 30.9259 102.578 30.8813 102.355 30.8813C102.065 30.8813 101.641 30.8813 101.105 30.9928C100.57 31.1044 100.168 31.149 99.8784 31.2605C99.633 31.3498 99.5438 31.4167 99.5438 31.4167L99.5884 31.6175V31.5729Z" fill="#454CD6"/>
<path d="M100.637 27.7354C101.351 27.6238 101.931 27.6684 102.399 27.8469C102.868 28.0254 103.247 28.36 103.515 28.8285C103.782 29.3193 103.983 29.9663 104.117 30.7917C104.251 31.6172 104.229 32.2865 104.117 32.8442C104.005 33.3796 103.738 33.8035 103.336 34.1158C102.935 34.4281 102.377 34.6289 101.663 34.7182C100.949 34.8074 100.369 34.7851 99.9005 34.6066C99.4321 34.4281 99.0528 34.0935 98.7851 33.625C98.5174 33.1342 98.3166 32.4872 98.1827 31.6618C98.0489 30.8364 98.0712 30.1448 98.1827 29.6093C98.3166 29.0739 98.562 28.65 98.9636 28.3377C99.3651 28.0254 99.9229 27.8246 100.614 27.7354M101.306 32.2418C101.886 32.1526 102.332 32.0634 102.667 31.9295C103.002 31.818 103.225 31.6618 103.336 31.5056C103.448 31.3272 103.492 31.1264 103.47 30.881C103.448 30.6356 103.336 30.4348 103.158 30.3009C103.002 30.1671 102.734 30.1001 102.399 30.1001C102.042 30.1001 101.596 30.1001 101.016 30.2117C100.436 30.3232 99.9898 30.3902 99.6551 30.5017C99.3205 30.6133 99.0974 30.7471 98.9859 30.9256C98.8743 31.1041 98.8297 31.3048 98.852 31.5726C98.8743 31.8403 98.9859 32.0187 99.1643 32.1526C99.3428 32.2865 99.5882 32.3534 99.9452 32.3757C100.302 32.398 100.748 32.3757 101.328 32.2641M100.414 26.2853C99.4544 26.4191 98.6735 26.7315 98.0712 27.1776C97.4019 27.6908 96.9557 28.4046 96.7549 29.2747C96.5765 30.0109 96.5765 30.8587 96.7326 31.8849C96.8888 32.9111 97.1342 33.6919 97.4912 34.3612C97.9373 35.142 98.5843 35.7221 99.3874 36.0121C100.101 36.2798 100.927 36.3244 101.886 36.1906C102.845 36.0567 103.626 35.7444 104.229 35.2982C104.898 34.7851 105.366 34.0489 105.545 33.1788C105.701 32.4426 105.723 31.5949 105.545 30.591C105.366 29.587 105.143 28.7616 104.764 28.1146C104.318 27.3338 103.671 26.7761 102.89 26.4861C102.176 26.2183 101.351 26.1514 100.391 26.3076L100.414 26.2853Z" fill="white"/>
<path d="M89.7056 47.1671C88.8802 47.3009 88.1663 47.234 87.5863 47.0332C86.9393 46.7878 86.4485 46.3416 86.0692 45.717C85.7569 45.1369 85.5338 44.423 85.4 43.5084C85.2661 42.5937 85.2661 41.8129 85.4 41.1882C85.5561 40.4743 85.9131 39.9166 86.4485 39.4927C86.9393 39.1134 87.6086 38.868 88.434 38.7342C89.2595 38.6003 89.9734 38.6673 90.5534 38.868C91.1781 39.1134 91.6912 39.5373 92.0481 40.1843C92.3827 40.7643 92.6058 41.4782 92.7397 42.4152C92.8736 43.3522 92.8736 44.0884 92.7397 44.7354C92.5835 45.4493 92.2266 46.0293 91.6912 46.4309C91.2004 46.8101 90.5311 47.0555 89.6833 47.1894L89.7056 47.1671ZM87.5193 43.2853C87.5193 43.2853 87.6086 43.3299 87.8763 43.3522C88.1886 43.3522 88.6125 43.3299 89.1256 43.263C89.6387 43.196 90.0626 43.0845 90.3526 42.9953C90.598 42.906 90.6649 42.8391 90.6649 42.8391L90.6203 42.6383C90.6203 42.6383 90.5088 42.5937 90.2857 42.5937C89.9957 42.5937 89.5718 42.5937 89.0364 42.7052C88.5009 42.8168 88.0994 42.8614 87.8094 42.9729C87.564 43.0622 87.4747 43.1291 87.4747 43.1291L87.5193 43.3299V43.2853Z" fill="#454CD6"/>
<path d="M88.5677 39.4478C89.2816 39.3362 89.8616 39.3808 90.3301 39.5593C90.7986 39.7378 91.1778 40.0724 91.4456 40.5409C91.7133 41.0317 91.914 41.6787 92.0479 42.5041C92.1818 43.3296 92.1594 43.9989 92.0479 44.5566C91.9364 45.092 91.6686 45.5159 91.2671 45.8282C90.8655 46.1405 90.3078 46.3413 89.5939 46.4306C88.88 46.5198 88.3 46.4975 87.8315 46.319C87.363 46.1405 86.9837 45.8059 86.716 45.3374C86.4483 44.8466 86.2475 44.1996 86.1136 43.3742C85.9798 42.5488 86.0021 41.8572 86.1136 41.3218C86.2475 40.7863 86.4929 40.3625 86.8945 40.0501C87.296 39.7378 87.8538 39.537 88.5454 39.4478M89.2369 43.9542C89.817 43.865 90.2632 43.7758 90.5978 43.6419C90.9324 43.5304 91.1555 43.3742 91.2671 43.218C91.3786 43.0396 91.4233 42.8388 91.4009 42.5934C91.3786 42.348 91.2671 42.1472 91.0886 42.0133C90.9324 41.8795 90.6647 41.8126 90.3301 41.8126C89.9732 41.8126 89.527 41.8126 88.9469 41.9241C88.3669 42.0356 87.9207 42.1026 87.5861 42.2141C87.2514 42.3257 87.0283 42.4595 86.9168 42.638C86.8052 42.8165 86.7606 43.0173 86.7829 43.285C86.8052 43.5527 86.9168 43.7311 87.0953 43.865C87.2737 43.9989 87.5191 44.0658 87.8761 44.0881C88.233 44.1104 88.6792 44.0881 89.2592 43.9765M88.3446 37.9977C87.3853 38.1315 86.6044 38.4439 86.0021 38.89C85.3328 39.4032 84.8866 40.117 84.6859 40.9871C84.5074 41.7233 84.5074 42.5711 84.6635 43.5973C84.8197 44.6235 85.0651 45.4043 85.4221 46.0736C85.8682 46.8544 86.5152 47.4345 87.3183 47.7245C88.0322 47.9922 88.8577 48.0368 89.817 47.903C90.7763 47.7691 91.5571 47.4568 92.1595 47.0106C92.8287 46.4975 93.2972 45.7613 93.4757 44.8912C93.6319 44.155 93.6542 43.3073 93.4757 42.3034C93.2972 41.2994 93.0741 40.474 92.6949 39.827C92.2487 39.0462 91.6017 38.4885 90.8209 38.1985C90.107 37.9307 89.2816 37.8638 88.3223 38.02L88.3446 37.9977Z" fill="white"/>
<path d="M92.9182 46.5873L92.2266 41.6793L91.6912 38.3329L95.8184 37.7083C96.6661 37.5744 97.4023 37.7529 97.9824 38.1768C98.5847 38.6229 98.9417 39.3145 99.0755 40.2292C99.1648 40.8762 99.1201 41.4562 98.9194 41.947C98.6963 42.4601 98.317 42.8617 97.7816 43.1517C97.3131 43.3971 96.7331 43.5756 95.9968 43.6871C95.5507 43.7541 95.1937 43.821 94.9706 43.8656C94.8368 43.8879 94.7475 43.9325 94.7252 43.9325C94.7698 43.9325 94.7698 44.0218 94.7922 44.2002L94.9483 45.048L95.2383 46.2304L92.9182 46.565V46.5873Z" fill="#454CD6"/>
<path d="M95.952 38.4444C96.599 38.3552 97.1344 38.4444 97.5806 38.779C98.0268 39.0914 98.2945 39.6268 98.3837 40.3407C98.4506 40.8538 98.4283 41.3 98.2721 41.6569C98.116 42.0139 97.8483 42.3039 97.469 42.5047C97.0898 42.7055 96.5766 42.8616 95.9297 42.9509C95.4389 43.0178 95.0819 43.0847 94.8365 43.1517C94.5911 43.2186 94.435 43.2632 94.3457 43.3301C94.2565 43.3971 94.1896 43.464 94.1449 43.5532C94.1003 43.6202 94.078 43.7094 94.078 43.8432C94.078 43.9548 94.078 44.1109 94.1003 44.334C94.1003 44.401 94.1226 44.4902 94.1449 44.5794C94.1449 44.6687 94.1896 44.7579 94.1896 44.8695C94.1896 44.981 94.2342 45.0926 94.2565 45.2264C94.2788 45.3603 94.3234 45.4941 94.3457 45.628L93.5426 45.7395C93.4534 45.1149 93.3864 44.6018 93.3418 44.2225C93.2749 43.8209 93.2526 43.5309 93.2079 43.2855C93.1856 43.0624 93.1633 42.8839 93.141 42.7724L93.0964 42.5047V42.3262C93.0964 42.3262 93.0518 42.2147 93.0518 42.1477L93.0072 41.88C93.0072 41.7685 92.9626 41.59 92.9179 41.3669C92.8733 41.1438 92.8287 40.8315 92.7618 40.4522C92.6948 40.0507 92.6279 39.5599 92.5164 38.9352L95.9074 38.4221M95.6397 42.3931C96.0635 42.3262 96.3759 42.2593 96.6213 42.1924C96.8667 42.1254 97.0451 42.0585 97.1567 41.9916C97.2905 41.9246 97.3575 41.8354 97.4021 41.7239C97.4467 41.6123 97.4467 41.5008 97.4467 41.3892C97.4467 41.2777 97.3798 41.1661 97.3128 41.0769C97.2459 40.9877 97.1344 40.9207 97.0005 40.8984C96.8667 40.8761 96.6882 40.8538 96.4205 40.8538C96.1528 40.8538 95.8404 40.8984 95.4166 40.943C95.2381 40.9653 95.0596 41.01 94.9035 41.0323C94.7473 41.0546 94.6134 41.0992 94.5019 41.1215C94.3903 41.1438 94.2788 41.1884 94.1896 41.2331C94.1003 41.2777 94.0334 41.3 93.9665 41.3446C93.8772 41.3892 93.8326 41.4338 93.788 41.5008C93.7434 41.5677 93.7211 41.6346 93.6988 41.7016C93.6764 41.7685 93.6988 41.8577 93.6988 41.9246C93.6988 41.9916 93.7434 42.0808 93.7657 42.1477C93.788 42.2147 93.8326 42.2593 93.8995 42.3262C93.9665 42.3708 94.0334 42.4155 94.1226 42.4378C94.2119 42.4378 94.3234 42.4601 94.4573 42.4824C94.5911 42.4824 94.7473 42.4824 94.9481 42.4824C95.1489 42.4824 95.3496 42.4378 95.595 42.4155M95.7289 36.9943L92.3379 37.5074L90.8655 37.7305L91.0886 39.2029L91.2447 40.2291L91.3117 40.7199C91.3786 41.1215 91.4232 41.4338 91.4678 41.6569V41.8131L91.5348 42.1477L91.5794 42.4155V42.5939L91.624 42.7724L91.6686 43.0401L91.7132 43.3747V43.5309C91.7579 43.754 91.8025 44.0663 91.8694 44.4679L91.9363 44.9587L92.0702 45.9849L92.271 47.4573L93.7434 47.2342L94.5465 47.1227L96.1305 46.8773L95.7512 45.3156L95.662 44.9364C95.662 44.9364 95.6174 44.7579 95.6174 44.6687V44.5348C95.7512 44.5125 95.9074 44.4902 96.1082 44.4456C96.9336 44.334 97.6029 44.111 98.1383 43.8209C98.8076 43.464 99.3207 42.9063 99.6107 42.2593C99.8784 41.6569 99.9453 40.943 99.8338 40.1622C99.6776 39.0468 99.2091 38.199 98.4506 37.6413C97.9375 37.262 97.0451 36.8381 95.7289 37.0389V36.9943Z" fill="white"/>
<path d="M99.142 45.6712L98.4058 40.5401L97.915 37.4168L104.385 36.4575L104.898 40.3393L104.563 40.3839L104.652 40.8747L105.032 40.8078L105.612 44.7119L99.142 45.6712Z" fill="#454CD6"/>
<path d="M103.738 37.2835L104.073 39.6929C103.716 39.7376 103.448 39.7822 103.247 39.8045C103.047 39.8268 102.868 39.8491 102.734 39.8714C102.6 39.8937 102.466 39.916 102.31 39.9383L101.753 40.0276C101.418 40.0722 101.15 40.1168 100.927 40.1614C100.704 40.2061 100.526 40.2284 100.369 40.2507C100.236 40.273 100.124 40.2953 100.035 40.3399C99.9455 40.3622 99.9009 40.4068 99.8786 40.4291C99.8786 40.4291 99.8563 40.4738 99.834 40.4738C99.834 40.4738 99.834 40.5184 99.834 40.5407C99.834 40.5407 99.834 40.5853 99.834 40.6076C99.834 40.6299 99.834 40.6522 99.834 40.6745C99.834 40.6745 99.834 40.7192 99.8563 40.7192C99.8563 40.7192 99.9009 40.7415 99.9009 40.7638C99.9455 40.7861 100.035 40.8084 100.169 40.8084C100.302 40.8084 100.503 40.8084 100.749 40.7638C101.016 40.7415 101.351 40.6745 101.797 40.6076L102.11 40.563C102.11 40.563 102.288 40.5407 102.422 40.5184C102.533 40.5184 102.712 40.4738 102.913 40.4291C103.113 40.3845 103.403 40.3399 103.783 40.2953L103.894 41.0315C103.515 41.0761 103.225 41.1207 103.024 41.143C102.823 41.1654 102.645 41.1877 102.533 41.21C102.422 41.21 102.31 41.2323 102.221 41.2546L101.909 41.2992C101.463 41.3661 101.128 41.4108 100.86 41.4554C100.615 41.5 100.414 41.5446 100.302 41.5669C100.191 41.6115 100.102 41.6562 100.035 41.7008C100.035 41.7231 99.9901 41.7454 99.9901 41.79C99.9901 41.8346 99.9901 41.8569 99.9901 41.8793C99.9901 41.9016 99.9901 41.9239 99.9901 41.9462C99.9901 41.9685 99.9901 41.9908 99.9901 42.0131C99.9901 42.0354 100.012 42.0577 100.035 42.08C100.035 42.1023 100.079 42.1247 100.102 42.147C100.146 42.1693 100.213 42.1916 100.302 42.2139C100.392 42.2139 100.503 42.2139 100.637 42.2139C100.771 42.2139 100.949 42.1916 101.173 42.147C101.396 42.1247 101.663 42.08 101.998 42.0354L102.6 41.9462C102.756 41.9239 102.89 41.9016 103.047 41.8793C103.18 41.8569 103.359 41.8346 103.56 41.79C103.76 41.7454 104.028 41.7008 104.385 41.6562L104.742 44.0656L99.7447 44.8018C99.6778 44.3333 99.6332 43.954 99.5886 43.664C99.544 43.374 99.5216 43.1286 99.477 42.9278C99.4547 42.727 99.4324 42.5485 99.4101 42.4147L99.3432 41.9685L99.2539 41.4108L99.1647 40.853L99.0978 40.4068C99.0978 40.2507 99.0532 40.0945 99.0085 39.8937C98.9862 39.6929 98.9416 39.4475 98.897 39.1575C98.8524 38.8675 98.7854 38.4882 98.7185 38.0197L103.716 37.2835M105.01 35.6104L103.537 35.8334L98.54 36.5696L97.0676 36.7927L97.313 38.2652L97.4246 39.0237L97.4915 39.4029C97.5361 39.6929 97.5807 39.9607 97.6031 40.1614L97.67 40.6522L97.7369 41.0984L97.8261 41.6562L97.9154 42.2139L97.9823 42.6601L98.0492 43.0839C98.0939 43.3517 98.1162 43.6194 98.1608 43.9094L98.2054 44.2886L98.3169 45.0472L98.5177 46.5196L99.9901 46.2965L104.987 45.5603L106.438 45.3372L106.214 43.8871L105.857 41.4777L105.634 39.983H105.59L105.523 39.5145L105.188 37.1051L104.987 35.6327L105.01 35.6104Z" fill="white"/>
<g style="mix-blend-mode:screen" opacity="0.24">
<path d="M101.909 23.0273L83.8828 54.238L70.8096 54.0149L91.3787 23.0273H101.909Z" fill="#BFCAE2"/>
</g>
<g style="mix-blend-mode:screen" opacity="0.24">
<path d="M132.584 23.0273L114.246 54.7511L101.083 54.528L122.054 23.0273H132.584Z" fill="#BFCAE2"/>
</g>
<g style="mix-blend-mode:screen" opacity="0.24">
<path d="M157.548 23.0273V37.1491L147.041 55.3311L134.146 55.108L155.473 23.0273H157.548Z" fill="#BFCAE2"/>
</g>
<g style="mix-blend-mode:screen" opacity="0.24">
<path d="M210.555 23.0273L191.882 55.3311L178.764 55.0188L200.047 23.0273H210.555Z" fill="#BFCAE2"/>
</g>
<g style="mix-blend-mode:screen" opacity="0.24">
<path d="M241.23 23.0273L222.156 56.0673L208.949 55.755L230.7 23.0273H241.23Z" fill="#BFCAE2"/>
</g>
<g style="mix-blend-mode:screen" opacity="0.24">
<path d="M273.155 23.0273V25.1021L254.816 56.8482L241.833 56.5358L264.119 23.0273H273.155Z" fill="#BFCAE2"/>
</g>
<path d="M175.007 111.657V105.018C175.418 105.035 175.775 105.053 176.078 105.071C176.399 105.089 176.676 105.098 176.908 105.098C177.408 105.098 177.782 105.071 178.032 105.018C178.3 104.964 178.505 104.893 178.648 104.803C178.791 104.714 178.898 104.616 178.969 104.509C179.058 104.402 179.121 104.259 179.157 104.081C179.21 103.902 179.246 103.67 179.264 103.384C179.282 103.099 179.29 102.733 179.29 102.287C179.29 101.841 179.282 101.475 179.264 101.189C179.246 100.904 179.21 100.672 179.157 100.493C179.121 100.315 179.058 100.172 178.969 100.065C178.898 99.9578 178.791 99.8596 178.648 99.7704C178.505 99.6811 178.3 99.6097 178.032 99.5562C177.782 99.5027 177.408 99.4759 176.908 99.4759C176.676 99.4759 176.399 99.4848 176.078 99.5027C175.775 99.5027 175.418 99.5205 175.007 99.5562V92.917H185.367V99.5562C184.975 99.5205 184.618 99.5027 184.297 99.5027C183.993 99.4848 183.717 99.4759 183.467 99.4759C182.967 99.4759 182.583 99.5027 182.316 99.5562C182.066 99.6097 181.869 99.6811 181.727 99.7704C181.602 99.8596 181.495 99.9578 181.405 100.065C181.316 100.172 181.245 100.315 181.191 100.493C181.155 100.672 181.129 100.904 181.111 101.189C181.093 101.475 181.084 101.841 181.084 102.287C181.084 102.733 181.093 103.099 181.111 103.384C181.129 103.67 181.155 103.902 181.191 104.081C181.245 104.259 181.316 104.402 181.405 104.509C181.495 104.616 181.602 104.714 181.727 104.803C181.869 104.893 182.066 104.964 182.316 105.018C182.583 105.071 182.967 105.098 183.467 105.098C183.717 105.098 183.993 105.089 184.297 105.071C184.618 105.053 184.975 105.035 185.367 105.018V111.657H175.007ZM188.027 111.657C188.044 110.39 188.053 109.346 188.053 108.525C188.071 107.704 188.08 107.025 188.08 106.49C188.098 105.954 188.107 105.482 188.107 105.071C188.107 104.661 188.107 104.25 188.107 103.84C188.107 103.411 188.107 102.894 188.107 102.287C188.107 101.698 188.107 101.198 188.107 100.788C188.107 100.359 188.107 99.9488 188.107 99.5562C188.107 99.1457 188.098 98.6728 188.08 98.1373C188.08 97.5841 188.071 96.8969 188.053 96.076C188.053 95.255 188.044 94.202 188.027 92.917H195.71C196.602 92.917 197.352 92.9527 197.959 93.0241C198.583 93.0776 199.137 93.1936 199.618 93.3721C200.1 93.5506 200.555 93.8272 200.984 94.202C201.519 94.6482 201.948 95.1657 202.269 95.7547C202.608 96.3437 202.849 97.1468 202.992 98.1641C203.152 99.1814 203.233 100.556 203.233 102.287C203.233 104 203.152 105.374 202.992 106.41C202.849 107.427 202.608 108.23 202.269 108.819C201.948 109.408 201.519 109.926 200.984 110.372C200.555 110.729 200.1 111.005 199.618 111.202C199.137 111.38 198.583 111.505 197.959 111.576C197.352 111.63 196.602 111.657 195.71 111.657H188.027ZM195.549 104.964C196.763 104.964 197.682 104.937 198.307 104.884C198.931 104.83 199.395 104.75 199.699 104.643C200.002 104.518 200.27 104.366 200.502 104.188C200.787 103.973 201.011 103.706 201.171 103.384C201.35 103.063 201.439 102.697 201.439 102.287C201.439 101.841 201.35 101.457 201.171 101.136C201.011 100.814 200.787 100.565 200.502 100.386C200.252 100.208 199.975 100.065 199.672 99.9578C199.369 99.8507 198.905 99.7704 198.28 99.7168C197.673 99.6454 196.763 99.6097 195.549 99.6097C194.389 99.6097 193.488 99.6187 192.845 99.6365C192.203 99.6544 191.712 99.699 191.373 99.7704C191.034 99.8239 190.73 99.9399 190.463 100.118C190.32 100.208 190.204 100.315 190.115 100.44C190.026 100.547 189.954 100.681 189.901 100.841C189.865 101.002 189.838 101.198 189.82 101.43C189.802 101.662 189.793 101.948 189.793 102.287C189.793 102.626 189.802 102.912 189.82 103.144C189.838 103.376 189.865 103.572 189.901 103.732C189.954 103.893 190.026 104.036 190.115 104.161C190.204 104.268 190.32 104.366 190.463 104.455C190.73 104.616 191.034 104.732 191.373 104.803C191.712 104.875 192.203 104.919 192.845 104.937C193.488 104.955 194.389 104.964 195.549 104.964ZM205.238 111.657C205.505 109.729 205.729 107.811 205.907 105.901C206.103 103.973 206.273 101.957 206.416 99.8507C206.558 97.7268 206.683 95.4156 206.79 92.917H219.694C219.801 95.4156 219.926 97.7268 220.069 99.8507C220.212 101.957 220.381 103.973 220.578 105.901C220.774 107.811 220.997 109.729 221.247 111.657H219.078C219.078 111.478 219.078 111.309 219.078 111.148C219.078 110.97 219.078 110.791 219.078 110.613C219.078 110.166 219.043 109.765 218.971 109.408C218.918 109.033 218.757 108.757 218.489 108.578C218.418 108.525 218.311 108.48 218.168 108.444C218.043 108.391 217.802 108.346 217.445 108.31C217.106 108.257 216.598 108.221 215.919 108.203C215.259 108.168 214.367 108.15 213.242 108.15C212.118 108.15 211.217 108.168 210.538 108.203C209.878 108.221 209.369 108.257 209.012 108.31C208.673 108.346 208.432 108.391 208.29 108.444C208.165 108.48 208.067 108.525 207.995 108.578C207.745 108.757 207.585 109.033 207.513 109.408C207.442 109.765 207.406 110.166 207.406 110.613C207.406 110.791 207.406 110.97 207.406 111.148C207.406 111.309 207.406 111.478 207.406 111.657H205.238ZM213.242 102.26C213.885 102.26 214.474 102.251 215.009 102.233C215.545 102.215 216.018 102.189 216.428 102.153C216.856 102.099 217.213 102.028 217.499 101.939C217.784 101.85 218.008 101.725 218.168 101.564C218.257 101.475 218.32 101.386 218.356 101.296C218.391 101.189 218.409 101.046 218.409 100.868C218.409 100.779 218.4 100.698 218.382 100.627C218.382 100.556 218.373 100.493 218.356 100.44C218.338 100.386 218.311 100.341 218.275 100.306C218.24 100.252 218.204 100.208 218.168 100.172C217.972 99.9578 217.642 99.8061 217.178 99.7168C216.731 99.6097 216.169 99.5473 215.491 99.5294C214.831 99.4937 214.081 99.4759 213.242 99.4759C212.403 99.4759 211.645 99.4937 210.967 99.5294C210.306 99.5473 209.753 99.6097 209.307 99.7168C208.861 99.8061 208.531 99.9578 208.316 100.172C208.281 100.208 208.245 100.252 208.209 100.306C208.174 100.341 208.147 100.386 208.129 100.44C208.111 100.493 208.093 100.556 208.075 100.627C208.075 100.698 208.075 100.779 208.075 100.868C208.075 101.046 208.093 101.189 208.129 101.296C208.183 101.386 208.245 101.475 208.316 101.564C208.477 101.725 208.7 101.85 208.986 101.939C209.271 102.028 209.619 102.099 210.03 102.153C210.458 102.189 210.94 102.215 211.475 102.233C212.011 102.251 212.6 102.26 213.242 102.26ZM223.608 111.657C223.626 109.943 223.635 108.551 223.635 107.48C223.653 106.392 223.662 105.535 223.662 104.91C223.68 104.286 223.688 103.813 223.688 103.492C223.688 103.17 223.688 102.929 223.688 102.769C223.688 102.608 223.688 102.447 223.688 102.287C223.688 102.126 223.688 101.966 223.688 101.805C223.688 101.644 223.688 101.403 223.688 101.082C223.688 100.761 223.68 100.288 223.662 99.6633C223.662 99.0386 223.653 98.1909 223.635 97.12C223.635 96.0313 223.626 94.6303 223.608 92.917H230.06C230.274 93.6487 230.462 94.3091 230.622 94.898C230.801 95.487 230.961 96.0224 231.104 96.5043C231.265 96.9683 231.407 97.3877 231.532 97.7625C231.657 98.1195 231.773 98.4497 231.88 98.7531C232.005 99.0386 232.121 99.3063 232.228 99.5562C232.353 99.7882 232.478 100.02 232.603 100.252C232.853 100.716 233.103 101.029 233.353 101.189C233.621 101.332 233.995 101.403 234.477 101.403C234.906 101.403 235.209 101.368 235.387 101.296C235.584 101.225 235.744 101.1 235.869 100.922C235.941 100.814 235.994 100.654 236.03 100.44C236.083 100.225 236.119 99.9667 236.137 99.6633C236.155 99.3599 236.164 99.0297 236.164 98.6728C236.164 98.2266 236.155 97.7536 236.137 97.2539C236.137 96.7542 236.119 96.2544 236.083 95.7547C236.066 95.2371 236.039 94.7374 236.003 94.2555C235.967 93.7736 235.932 93.3275 235.896 92.917H238.198C238.181 94.6303 238.163 96.0313 238.145 97.12C238.145 98.1909 238.136 99.0386 238.118 99.6633C238.118 100.288 238.118 100.761 238.118 101.082C238.118 101.403 238.118 101.644 238.118 101.805C238.118 101.966 238.118 102.126 238.118 102.287C238.118 102.447 238.118 102.608 238.118 102.769C238.118 102.929 238.118 103.17 238.118 103.492C238.118 103.813 238.118 104.286 238.118 104.91C238.136 105.535 238.145 106.392 238.145 107.48C238.163 108.551 238.181 109.943 238.198 111.657H233.728C233.371 110.497 233.058 109.506 232.791 108.685C232.523 107.864 232.291 107.177 232.095 106.624C231.898 106.053 231.729 105.589 231.586 105.232C231.443 104.857 231.309 104.553 231.184 104.321C231.059 104.089 230.934 103.893 230.81 103.732C230.685 103.554 230.551 103.376 230.408 103.197C230.122 102.84 229.81 102.608 229.471 102.501C229.132 102.376 228.632 102.314 227.972 102.314C227.24 102.314 226.731 102.376 226.446 102.501C226.16 102.608 225.973 102.831 225.884 103.17C225.848 103.349 225.812 103.545 225.777 103.759C225.759 103.956 225.741 104.197 225.723 104.482C225.723 104.75 225.723 105.098 225.723 105.526C225.723 105.865 225.723 106.249 225.723 106.677C225.741 107.106 225.75 107.579 225.75 108.096C225.768 108.596 225.785 109.149 225.803 109.756C225.839 110.345 225.875 110.979 225.91 111.657H223.608Z" fill="black"/>
</svg>
