<svg width="194" height="269" viewBox="0 0 194 269" fill="none" xmlns="http://www.w3.org/2000/svg">
<path d="M49.2281 97.2262L48.0825 98.302L46.285 99.9799L45.4652 100.74L43.5196 102.556L42.3443 103.651L40.2208 105.635L39.8356 105.99L38.4036 107.333L37.3962 108.28L37.1887 108.478L36.7937 108.843L34.8875 110.619L34.3838 111.083L32.2308 113.097L31.8653 113.432L29.7221 115.436L29.258 115.87L27.2333 117.765L26.7395 118.229L26.4135 118.535H26.4037L25.3963 119.492L25.0901 119.769C25.0901 119.769 24.8234 120.005 24.3395 120.43C24.0531 120.677 23.6876 121.002 23.2531 121.377L22.7987 121.762L22.4629 122.048C22.2753 122.216 22.0778 122.384 21.8704 122.562L21.6926 122.72L18.7296 125.226C18.6013 125.335 18.463 125.444 18.3247 125.562C17.4753 126.273 16.5766 127.003 15.6581 127.743C15.6186 127.783 15.5692 127.812 15.5198 127.852C15.0556 128.227 14.5914 128.592 14.1173 128.967C13.7124 129.293 13.3075 129.609 12.9025 129.915C12.8828 129.924 12.863 129.944 12.8433 129.954C12.31 130.369 11.7766 130.783 11.2433 131.178C10.8581 131.474 10.4729 131.76 10.0779 132.046C9.90997 132.165 9.75195 132.283 9.58405 132.412C8.52727 133.171 7.50999 133.892 6.55198 134.514C6.43346 134.603 6.30506 134.682 6.18655 134.761C5.01125 135.52 3.94459 136.142 3.03596 136.567C2.69028 136.725 2.36436 136.853 2.06806 136.952C1.65325 137.1 1.28782 137.169 0.99153 137.169H0.971777C0.813754 137.169 0.68536 137.149 0.566842 137.1C0.458201 137.06 0.369313 137.011 0.290301 136.922C0.161907 136.774 0.0730193 136.606 0.0335135 136.409C-0.726974 132.964 11.7075 121.999 11.7075 121.999L1.61375 109.169C7.41123 99.2396 20.142 91.9756 20.142 91.9756L34.374 103.711C36.3591 103.049 38.3542 100.404 44.7146 97.167C51.075 93.9396 49.2775 97.167 49.2775 97.167L49.2281 97.2262Z" fill="#E5DAC3"/>
<path d="M64.6949 190.07C60.8826 195.192 63.4504 195.616 61.3862 195.942C59.9147 196.179 57.5147 196.87 56.0332 196.87C55.4307 196.87 54.9863 196.741 54.8085 196.436C54.1962 195.36 54.532 194.116 50.5518 193.465L48.8234 192.063C48.8234 192.063 45.7617 187.928 39.0358 188.086C35.8556 188.165 32.9618 187.059 30.7989 185.875C29.1594 184.977 27.9347 184.019 27.3322 183.506C27.0458 183.269 26.8878 183.121 26.8878 183.121L26.0779 183.319V183.279C26.0779 183.279 19.7669 181.295 17.6237 173.36C15.4706 165.425 15.036 158.309 13.8509 157.233C12.6558 156.157 11.3422 152.496 11.3422 148.706C11.3422 144.916 10.3447 142.113 10.3447 139.626V133.832L11.2139 131.197C12.162 130.487 13.1299 129.736 14.0879 128.986C13.8212 130.704 11.7373 132.411 13.8607 138.659C15.9842 144.916 18.9669 155.003 22.4335 162.109C25.91 169.215 30.5618 169.718 35.2729 175.009C39.9741 180.299 43.1148 175.522 46.4234 175.759C49.732 175.995 55.9937 176.222 57.8208 176.943C59.0752 177.436 60.3295 176.183 60.9912 175.354C61.2974 174.969 61.485 174.673 61.485 174.673L64.6652 171.396L62.8085 173.933C62.8085 173.933 66.364 175.828 66.6208 178.641C66.68 179.282 66.8084 179.963 66.9269 180.684C66.9763 181.019 67.0356 181.365 67.0751 181.72C67.3516 183.96 67.243 186.635 64.7047 190.05L64.6949 190.07Z" fill="#B3C9AF"/>
<path d="M103.598 126.135C103.509 126.214 103.391 126.312 103.243 126.401C102.235 127.102 100.053 128.178 98.3834 129.599C97.6229 130.25 96.9711 130.971 96.5661 131.751C95.4896 133.863 89.8106 138.709 87.2329 140.841C87.5983 139.419 88.0526 138.186 88.6057 137.505C88.7242 137.357 88.8625 137.199 89.0008 137.021C89.0896 136.903 89.1983 136.794 89.297 136.666C90.0575 135.738 91.0353 134.603 91.9736 133.458C93.2476 131.889 94.4624 130.319 95.0155 129.254C95.055 129.175 95.0945 129.096 95.134 129.027C95.1735 128.957 95.2032 128.888 95.2229 128.819C95.2526 128.75 95.2723 128.691 95.2921 128.632C95.3414 128.474 95.3612 128.336 95.3414 128.227C95.1242 126.905 97.8106 125.582 97.8106 125.582C97.8106 125.582 97.376 124.092 95.3414 123.766C93.3069 123.43 94.0674 123.598 94.1069 125.918C94.1464 128.237 91.7563 128.395 88.7736 128.997C85.7909 129.599 87.6181 119.463 85.465 118.594C83.3119 117.726 84.1909 114.617 84.1909 114.617C84.1909 114.617 81.9786 118.14 79.1243 117.519C76.27 116.897 78.8379 114.183 76.8527 114.617C74.8675 115.061 73.9688 116.018 73.9688 116.018L73.8404 116.245C73.3466 113.551 71.717 110.531 71.717 110.531C71.717 110.531 67.4207 111.024 68.2503 112.682C69.0701 114.34 55.1739 117.647 50.8875 117.509C46.5912 117.39 44.5863 114.656 41.1098 112.021C40.0925 111.241 39.4407 110.393 39.0259 109.573C39.4506 109.643 39.9246 109.682 40.4382 109.682C44.2505 109.702 45.4159 105.231 49.9591 104.579C54.5122 103.918 58.9763 103.237 64.9318 107.136C64.9318 107.136 65.5936 109.021 68.5762 106.879C68.5762 106.879 69.712 107.718 69.633 108.044C69.5639 108.379 75.5589 109.366 81.4058 108.537C87.2625 107.708 89.0798 107.54 91.7267 110.521C94.3735 113.502 96.6353 115.298 96.8328 117.459C97.0303 119.621 96.418 120.173 97.3562 120.391C98.2945 120.618 100.398 121.713 102.107 119.571C102.107 119.571 102.897 118.94 103.322 119.404C103.47 119.581 103.578 119.877 103.588 120.391C103.648 122.374 104.635 125.187 103.588 126.125L103.598 126.135Z" fill="#B3CAAF"/>
<path d="M61.4648 174.693C61.4648 174.693 59.6377 177.674 57.8105 176.953C55.9735 176.243 49.7217 176.006 46.4131 175.769C43.1045 175.532 39.9638 180.309 35.2626 175.019C30.5614 169.729 25.8997 169.225 22.4232 162.119C18.9565 155.013 15.9739 144.926 13.8504 138.669C11.727 132.421 13.8109 130.714 14.0776 128.997C19.7862 124.486 25.0701 119.788 25.0701 119.788L25.3762 119.512C25.9688 119.443 26.591 119.423 27.2231 119.453C29.2873 119.542 31.4898 120.193 33.3465 122.039C38.5317 127.161 44.26 143.604 46.4131 151.381C48.418 158.635 52.8822 161.991 55.7463 166.176C55.9537 166.472 56.1513 166.778 56.3389 167.084C59.1537 171.713 61.4648 174.693 61.4648 174.693Z" fill="#5A7A77"/>
<path d="M73.8699 118.604C73.218 121.456 70.4032 125.473 70.7292 129.006C71.065 132.54 67.5786 146.93 64.1119 151.055C60.6354 155.19 61.6626 162.01 58.6503 164.024C57.2675 164.952 56.3293 165.672 55.7466 166.185C52.8725 162 48.4182 158.645 46.4133 151.391C44.2603 143.613 38.522 127.18 33.3468 122.048C31.49 120.212 29.2875 119.551 27.2234 119.462C26.5913 119.433 25.9691 119.462 25.3765 119.522L27.2234 117.794L36.7936 108.862C37.3566 109.168 38.0973 109.445 39.0356 109.603C39.4504 110.422 40.1023 111.27 41.1195 112.05C44.5961 114.685 46.601 117.419 50.8972 117.538C55.1836 117.666 69.0798 114.37 68.26 112.711C67.4304 111.063 71.7267 110.56 71.7267 110.56C71.7267 110.56 74.5415 115.761 73.8797 118.623L73.8699 118.604Z" fill="#8CAE98"/>
<path d="M39.0256 109.593C38.0874 109.445 37.3466 109.169 36.7837 108.853L38.4034 107.343C38.4528 107.974 38.6207 108.764 39.0355 109.583L39.0256 109.593Z" stroke="#D3D0CD" stroke-width="0.924551" stroke-miterlimit="10"/>
<path d="M45.5738 221.209C50.8676 226.282 44.5862 235.54 44.5862 235.54C44.5862 235.54 40.2899 247.275 28.5369 249.762C16.7938 252.239 27.7073 253.404 27.7073 253.404C27.7073 253.404 30.8579 255.22 26.8777 255.052C26.3839 255.032 25.9098 254.943 25.4357 254.815C22.0481 253.868 18.9666 250.482 15.6284 250.917C11.826 251.41 17.9494 243.475 17.9494 243.475C17.9494 243.475 24.932 236.369 26.0777 234.385C27.2135 232.401 25.1789 229.44 24.7147 225.048C24.2505 220.735 26.0184 184.632 26.0777 183.329L26.8876 183.132C26.8876 183.132 29.8406 185.925 34.0776 187.317C35.5887 187.81 37.2578 188.136 39.0257 188.096C45.7417 187.928 48.8133 192.074 48.8133 192.074L41.1985 200.996C41.1985 200.996 39.4998 203.483 37.9689 208.309C37.5245 209.701 37.0998 211.29 36.7245 213.066C36.7245 213.066 33.6628 218.939 33.0801 219.847C32.4974 220.755 33.7418 221.229 33.7418 221.229C33.7418 221.229 40.9319 212.326 44.6553 210.017C45.2281 209.652 45.5244 209.553 45.6331 209.661C46.1862 210.234 41.0998 216.935 45.5639 221.229L45.5738 221.209Z" fill="#B4CCAB"/>
<path d="M95.3313 128.236C95.3412 128.345 95.3313 128.483 95.2819 128.641C95.272 128.7 95.2424 128.759 95.2128 128.829C95.193 128.898 95.1634 128.967 95.1239 129.036C95.0844 129.105 95.0548 129.184 95.0054 129.263C94.4523 130.329 93.2276 131.898 91.9634 133.467C91.0252 134.612 90.0474 135.757 89.2869 136.675C89.1881 136.793 89.0894 136.912 88.9906 137.03C88.8425 137.208 88.7141 137.366 88.5956 137.514C88.0425 138.195 87.5882 139.429 87.2227 140.85C86.4425 141.501 85.9487 141.896 85.9487 141.896L78.887 151.549C78.887 151.549 75.4105 148.4 72.2698 149.229C69.1192 150.048 68.7439 149.476 66.0081 152.121C63.2822 154.766 62.4526 155.102 63.2822 157.747C64.1118 160.392 64.5266 160.303 63.2822 162.454C62.0378 164.606 69.3167 161.379 69.9883 163.481C70.6402 165.593 66.4328 168.978 66.4328 168.978L64.655 171.396L61.4748 174.673C61.4353 174.614 61.2279 174.347 60.8921 173.884C60.0329 172.709 58.3143 170.281 56.3489 167.064C56.1613 166.758 55.9638 166.452 55.7563 166.156C56.3489 165.633 57.2773 164.922 58.66 163.994C61.6723 161.981 60.6452 155.161 64.1217 151.025C67.5883 146.89 71.0747 132.51 70.7389 128.977C70.4031 125.453 73.2179 121.436 73.8796 118.574C74.0377 117.893 73.9982 117.074 73.85 116.225L73.9784 115.998C73.9784 115.998 74.8772 115.031 76.8623 114.597C78.8475 114.152 76.2796 116.876 79.1339 117.498C81.9882 118.13 84.2005 114.597 84.2005 114.597C84.2005 114.597 83.3117 117.715 85.4746 118.574C87.6277 119.443 85.8005 129.579 88.7832 128.977C91.7659 128.375 94.156 128.217 94.1165 125.897C94.077 123.578 93.3165 123.42 95.3511 123.746C97.3856 124.071 97.8202 125.562 97.8202 125.562C97.8202 125.562 95.1338 126.884 95.3511 128.207L95.3313 128.236Z" fill="#ACCDB1"/>
<path d="M110.363 135.747C110.255 136.023 110.136 136.29 110.018 136.547C109.889 136.813 109.751 137.07 109.603 137.316C108.319 139.537 103.647 150.423 100.092 156.276C99.8251 156.71 99.5683 157.115 99.3214 157.49C98.1758 159.207 97.1881 160.214 96.556 159.977C95.835 159.711 94.8276 159.474 93.7314 159.276C93.5338 159.237 93.3165 159.207 93.1091 159.168C92.319 159.039 91.4993 158.921 90.7487 158.832C90.4425 158.793 90.1462 158.763 89.8598 158.733C89.7314 158.714 89.603 158.694 89.4746 158.694C89.1684 158.655 88.8919 158.625 88.6351 158.605C87.8944 158.536 87.4302 158.497 87.4302 158.497L88.161 156.306C87.7857 154.884 87.4302 154.361 87.4302 154.361L92.1314 149.594C92.8128 147.946 93.5141 145.775 94.0869 142.912C95.7857 134.602 98.0869 131.77 99.519 129.973C99.7955 129.618 100.042 129.312 100.25 128.996C100.823 128.128 102.176 127.753 103.618 127.595C105.267 127.397 107.035 127.486 107.865 127.397C108.842 127.289 109.277 126.608 109.465 126.114C109.534 125.887 109.573 125.7 109.583 125.621V125.581C109.583 125.581 110.462 125.295 111.094 127.012C111.144 127.131 111.183 127.249 111.223 127.388C111.756 129.194 111.529 132.776 110.344 135.737L110.363 135.747Z" fill="#B3CAAF"/>
<path d="M56.023 196.87L55.7465 197.255L50.8873 204.124L45.6429 209.651C45.5441 209.543 45.2478 209.651 44.6651 210.006C40.9417 212.326 33.7516 221.218 33.7516 221.218C33.7516 221.218 32.5072 220.755 33.0899 219.837C33.6726 218.919 36.7343 213.056 36.7343 213.056C38.3837 205.121 41.1985 200.986 41.1985 200.986L48.8132 192.063L50.5416 193.465C54.5218 194.116 54.186 195.36 54.7984 196.436C54.9761 196.742 55.4206 196.87 56.023 196.87Z" fill="#AA8F7B"/>
<path d="M114.778 164.014C114.739 165.435 114.097 167.419 111.529 168.574C108.961 169.728 105.484 168.574 104.655 173.37C103.835 178.108 105.978 183.832 105.198 185.55C105.198 185.559 105.188 185.589 105.178 185.599C104.339 187.257 106.314 188.905 105.988 190.642C105.652 192.369 105.158 193.041 104.99 193.87C104.823 194.689 100.507 200.68 101.504 205.042C102.502 209.404 103.479 216.333 101.504 223.617C99.9732 229.262 95.0646 227.545 92.5363 228.808C91.8054 229.173 91.2819 229.785 91.0943 230.901C90.2745 235.865 91.6474 257.193 86.324 260.993C86.324 260.993 86.403 267.112 84.2005 267.941C82.2845 268.662 80.1512 264.892 74.4327 263.668C73.5636 263.48 72.6154 263.352 71.5685 263.303C64.6155 263.026 56.9909 256.897 55.2032 255.377C54.9465 255.17 54.8181 255.042 54.8181 255.042C53.3761 254.538 52.8724 253.709 52.8724 253.709C52.8724 253.709 51.3811 259.335 46.591 260.983C46.591 260.983 44.6651 259.473 40.1614 257.894C38.996 257.48 37.6725 257.075 36.1614 256.68C35.3121 256.463 34.5417 256.285 33.8405 256.137C28.5171 255.012 27.559 255.861 27.559 255.861L25.4554 254.795C25.9294 254.923 26.4035 255.012 26.8973 255.032C30.8775 255.2 27.7269 253.384 27.7269 253.384C27.7269 253.384 16.8135 252.219 28.5566 249.742C32.596 248.893 35.7466 246.949 38.1565 244.748C39.6083 243.425 40.7836 242.024 41.712 240.721C43.7367 237.888 44.5959 235.52 44.5959 235.52C44.5959 235.52 50.8774 226.262 45.5836 221.189C41.1194 216.896 46.2058 210.204 45.6527 209.622L50.8971 204.095L55.7563 197.225L56.0329 196.84C57.5143 196.84 59.9143 196.15 61.3859 195.913C63.46 195.587 60.8921 195.172 64.6945 190.04C67.2229 186.625 67.3414 183.951 67.0649 181.71L67.7661 180.753L76.7833 168.386C76.7833 168.386 77.6919 173.015 80.3388 173.351C82.9857 173.676 85.9585 172.028 87.4499 169.709C88.9412 167.389 88.7733 167.725 90.5906 167.064C92.0918 166.511 90.2647 164.991 89.3067 162.079C89.0993 161.448 88.9313 160.757 88.8425 159.987C88.7832 159.474 88.7239 159.01 88.6548 158.576C88.9116 158.596 89.1881 158.625 89.4943 158.665C89.6227 158.665 89.7511 158.684 89.8795 158.704C90.156 158.734 90.4622 158.773 90.7684 158.803C91.519 158.892 92.3387 159.01 93.1288 159.138C93.3362 159.178 93.5437 159.207 93.7511 159.247C94.8375 159.444 95.8547 159.681 96.5757 159.948C99.2029 160.944 107.805 140.425 109.623 137.297C109.909 136.803 110.156 136.28 110.383 135.728C111.104 139.498 112.131 145.025 112.437 147.709C112.931 152.012 114.818 162.563 114.788 163.984L114.778 164.014Z" fill="#F5FAE2"/>
<path d="M76.7736 167.754V168.415L67.7564 180.782L66.9071 180.703C66.7885 179.982 66.6503 179.301 66.6009 178.66C66.3441 175.847 62.7886 173.952 62.7886 173.952L64.6453 171.415L66.4231 168.997C66.4231 168.997 70.6404 165.612 69.9786 163.5C74.0082 164.003 76.7638 167.764 76.7638 167.764L76.7736 167.754Z" fill="#AA8F7B"/>
<path d="M103.628 127.605C102.186 127.763 100.833 128.138 100.26 129.007C99.0253 130.882 96.1216 132.974 94.097 142.913C93.5241 145.766 92.8229 147.947 92.1414 149.595L89.1785 152.605L87.6871 154.115C87.4303 154.194 87.2723 154.234 87.2723 154.234L86.1069 157.254L86.1365 157.412C85.9884 157.323 85.8304 157.274 85.6723 157.254C83.5983 156.948 82.0477 155.339 82.0477 155.339L78.8872 151.549L80.9119 148.795L82.2946 146.901L83.3316 145.479L83.46 145.302L85.9489 141.906C85.9489 141.906 86.4427 141.512 87.2229 140.86C89.8106 138.728 95.4895 133.882 96.5562 131.77C97.8303 129.254 101.761 127.428 103.243 126.411L103.628 127.605Z" fill="#AA8F7B"/>
<path d="M90.6301 167.053L90.5412 167.113C90.0177 167.428 89.3955 167.596 88.9511 168.011C88.4276 168.455 87.9634 169.205 87.5387 169.797C86.8177 170.863 85.7906 171.801 84.6351 172.462C83.6079 173.044 82.4721 173.409 81.3264 173.439C78.7684 173.617 77.2672 170.725 76.8425 168.633C76.7635 168.218 76.7734 167.873 76.5364 167.527C76.0228 166.876 74.2154 164.961 71.7068 164.023C70.2056 163.471 69.1488 162.721 67.529 162.839C66.5908 162.701 62.6303 163.994 63.3118 162.296C63.697 161.319 64.0723 160.411 63.6772 159.365C63.4994 158.792 63.2525 157.993 63.0945 157.411C62.8377 156.651 62.8575 156.009 63.055 155.417C63.4007 154.391 64.3093 153.562 65.2871 152.654C66.7488 151.222 68.3389 149.811 70.4228 149.545C73.3265 148.646 76.2697 149.239 78.7289 151.321C79.5882 152.14 80.9808 153.986 81.7906 154.884C85.277 158.408 87.0252 155.674 88.8622 162.178C88.9708 162.543 89.0202 162.622 89.3165 162.642C89.4646 162.681 89.6424 162.819 89.8399 163.145C90.2548 164.231 91.8449 166.244 90.6498 167.043L90.6301 167.053Z" fill="#DAA971"/>
<path d="M158.067 57.5704C157.187 58.814 156.308 60.0674 155.429 61.3209C152.625 65.3082 149.79 69.3054 146.985 73.273C135.993 88.7783 125.454 103.533 118.383 113.383C117.859 114.104 117.356 114.805 116.882 115.476C116.22 116.403 115.598 117.262 115.025 118.071C114.679 118.555 114.343 119.009 114.027 119.453C111.232 123.352 109.613 125.592 109.613 125.592V125.632L109.494 126.105C109.306 126.618 108.872 127.299 107.894 127.408C107.055 127.497 105.287 127.408 103.647 127.605C102.205 127.763 100.852 128.138 100.279 129.007C100.082 129.313 99.8349 129.629 99.5485 129.984L98.4028 129.609C100.072 128.188 102.255 127.102 103.262 126.411C103.41 126.322 103.519 126.224 103.618 126.145C104.566 125.296 103.835 122.888 103.657 120.963C103.637 120.776 103.627 120.588 103.618 120.41C103.608 119.897 103.499 119.601 103.351 119.433L104.823 117.252L106.492 114.805L107.963 112.633L109.573 110.264L111.272 107.767L137.316 69.3943L147.252 54.7674L148.368 53.1291L184.427 0.0205078C184.427 0.0205078 188.832 5.18233 193.8 3.58345C196.111 2.84323 178.066 29.1952 158.096 57.5902L158.067 57.5704Z" fill="#AA8F7B"/>
<path d="M138.709 104.993C138.235 105.17 137.593 105.348 137.158 105.575C136.418 105.96 135.805 107.144 135.282 107.904C133.622 110.461 130.353 112.296 127.4 111.931C125.415 111.635 124.378 109.385 123.815 107.697C123.529 106.75 123.45 106.582 123.469 105.723C123.469 105.684 120.516 101.696 116.171 101.025C115.835 100.966 115.884 100.719 115.716 100.611C114.699 99.15 107.549 101.943 108.487 99.9691C109.988 97.6399 109.307 97.0379 108.536 94.6297C107.43 91.4418 109.307 90.7311 111.904 88.0959C113.633 86.2701 115.321 85.8161 117.781 85.4015C120.329 84.4837 123.144 85.7174 125.158 87.257C125.8 87.7505 125.771 87.7308 126.215 88.2736C127.331 89.5172 128.625 91.3826 129.879 92.488C130.571 93.0407 131.805 93.8796 133.336 94.1066C135.272 94.5014 136.398 98.3012 136.901 100.295C136.931 100.354 136.901 100.453 136.961 100.324C137.03 100.167 137.188 99.7421 137.346 99.5447C137.385 99.5842 137.445 99.8112 137.494 99.9395C137.83 100.857 138.294 101.756 138.738 102.575C139.213 103.532 139.904 104.519 138.798 104.983L138.699 105.022L138.709 104.993Z" fill="#E7C6A9"/>
<path d="M158.067 57.5697C155.43 54.4015 150.452 53.4047 148.338 53.1086L184.397 0C184.397 0 188.802 5.16183 193.77 3.56294C196.081 2.82272 178.037 29.1747 158.067 57.5697Z" fill="#AA8F7B"/>
<path d="M175.37 51.7765C173.355 52.5167 173.533 52.1417 171.894 54.7078C171.133 55.8724 170.047 56.889 168.802 57.6095C167.311 58.478 165.622 58.932 164.022 58.7346C161.089 58.3694 160.091 53.2471 160.091 53.2471V52.5068C160.091 52.5068 154.442 51.6877 149.978 51.1251C146.007 54.6486 143.795 49.0229 145.168 46.6443C146.353 44.5914 146.175 44.3841 145.514 42.4793C145.415 42.1832 145.286 41.8378 145.168 41.4331C144.249 38.5018 145.168 38.1367 148.18 35.2152C151.212 32.2839 151.627 32.9255 155.113 32.0175C158.58 31.0897 162.432 34.5737 162.432 34.5737L165.928 38.7584C165.928 38.7584 167.647 40.535 169.938 40.8804C170.116 40.9001 170.294 40.9594 170.452 41.0581C172.417 42.0944 173.533 47.1772 173.533 47.1772L173.948 46.2594C174.353 47.5029 174.896 48.5195 175.331 49.319C176.012 50.6217 176.387 51.3916 175.37 51.7666V51.7765Z" fill="#E7C6A9"/>
<g style="mix-blend-mode:multiply">
<path d="M19.8262 142.794C19.8262 142.794 22.2558 143.396 22.3644 146.041C22.3644 146.041 20.8237 145.508 19.8262 142.794Z" fill="#747B60"/>
</g>
<g style="mix-blend-mode:multiply">
<path d="M20.6162 140.287C20.6162 140.287 22.5026 140.494 24.1125 144.195C24.1125 144.195 22.8187 143.85 20.6162 140.287Z" fill="#747B60"/>
</g>
<g style="mix-blend-mode:multiply">
<path d="M21.6431 138.432C21.6431 138.432 23.7863 138.659 25.6035 142.814C25.6035 142.814 24.1418 142.429 21.6431 138.432Z" fill="#747B60"/>
</g>
<g style="mix-blend-mode:multiply">
<path d="M22.7295 136.478C22.7295 136.478 24.8727 136.705 26.69 140.86C26.69 140.86 25.2282 140.475 22.7295 136.478Z" fill="#747B60"/>
</g>
<g style="mix-blend-mode:multiply">
<path d="M23.7173 134.562C23.7173 134.562 26.3741 134.711 28.4185 139.369C28.4185 139.369 26.6111 139.004 23.7173 134.562Z" fill="#747B60"/>
</g>
<g style="mix-blend-mode:multiply">
<path d="M25.811 133.349C25.811 133.349 27.895 133.477 29.5345 137.208C29.5345 137.208 28.1122 136.902 25.811 133.349Z" fill="#747B60"/>
</g>
<g style="mix-blend-mode:multiply">
<path d="M27.9346 132.679C27.9346 132.679 30.0185 132.807 31.658 136.538C31.658 136.538 30.2358 136.232 27.9346 132.679Z" fill="#747B60"/>
</g>
<g style="mix-blend-mode:multiply">
<path d="M30.3345 131.898C30.3345 131.898 31.8851 132.086 33.2283 135.185C33.2283 135.185 32.1715 134.889 30.3345 131.898Z" fill="#747B60"/>
</g>
<g style="mix-blend-mode:multiply">
<path d="M32.1914 131.188C32.1914 131.188 33.2877 131.454 34.4531 134.148C34.4531 134.148 33.6828 133.823 32.1914 131.188Z" fill="#747B60"/>
</g>
<g style="mix-blend-mode:multiply">
<path d="M25.9097 153.157C25.9097 153.157 28.3393 153.759 28.4479 156.404C28.4479 156.404 26.9072 155.871 25.9097 153.157Z" fill="#747B60"/>
</g>
<g style="mix-blend-mode:multiply">
<path d="M26.7002 150.65C26.7002 150.65 28.5866 150.858 30.1965 154.559C30.1965 154.559 28.9026 154.213 26.7002 150.65Z" fill="#747B60"/>
</g>
<g style="mix-blend-mode:multiply">
<path d="M27.7271 148.795C27.7271 148.795 29.8702 149.022 31.6875 153.177C31.6875 153.177 30.2258 152.792 27.7271 148.795Z" fill="#747B60"/>
</g>
<g style="mix-blend-mode:multiply">
<path d="M28.8135 146.841C28.8135 146.841 30.9567 147.068 32.7739 151.223C32.7739 151.223 31.3122 150.838 28.8135 146.841Z" fill="#747B60"/>
</g>
<g style="mix-blend-mode:multiply">
<path d="M29.811 144.926C29.811 144.926 32.4678 145.074 34.5122 149.732C34.5122 149.732 32.7048 149.367 29.811 144.926Z" fill="#747B60"/>
</g>
<g style="mix-blend-mode:multiply">
<path d="M31.895 143.712C31.895 143.712 33.979 143.84 35.6184 147.571C35.6184 147.571 34.1962 147.265 31.895 143.712Z" fill="#747B60"/>
</g>
<g style="mix-blend-mode:multiply">
<path d="M34.0283 143.031C34.0283 143.031 36.1123 143.16 37.7517 146.89C37.7517 146.89 36.3295 146.584 34.0283 143.031Z" fill="#747B60"/>
</g>
<g style="mix-blend-mode:multiply">
<path d="M36.4185 142.252C36.4185 142.252 37.9691 142.439 39.3123 145.539C39.3123 145.539 38.2555 145.242 36.4185 142.252Z" fill="#747B60"/>
</g>
<g style="mix-blend-mode:multiply">
<path d="M38.2754 141.551C38.2754 141.551 39.3717 141.817 40.5371 144.512C40.5371 144.512 39.7667 144.186 38.2754 141.551Z" fill="#747B60"/>
</g>
<g style="mix-blend-mode:multiply">
<path d="M34.374 160.757C34.374 160.757 35.8061 161.152 35.8752 162.879C35.8752 162.879 34.9666 162.533 34.374 160.757Z" fill="#747B60"/>
</g>
<g style="mix-blend-mode:multiply">
<path d="M34.8384 159.119C34.8384 159.119 35.9544 159.257 36.9026 161.675C36.9026 161.675 36.1421 161.448 34.8384 159.119Z" fill="#747B60"/>
</g>
<g style="mix-blend-mode:multiply">
<path d="M35.4507 157.904C35.4507 157.904 36.7149 158.052 37.7815 160.767C37.7815 160.767 36.9223 160.51 35.4507 157.904Z" fill="#747B60"/>
</g>
<g style="mix-blend-mode:multiply">
<path d="M36.0923 156.621C36.0923 156.621 37.3565 156.769 38.4231 159.483C38.4231 159.483 37.5639 159.227 36.0923 156.621Z" fill="#747B60"/>
</g>
<g style="mix-blend-mode:multiply">
<path d="M36.6753 155.378C36.6753 155.378 38.2457 155.477 39.4506 158.526C39.4506 158.526 38.3839 158.289 36.6753 155.378Z" fill="#747B60"/>
</g>
<g style="mix-blend-mode:multiply">
<path d="M37.9097 154.578C37.9097 154.578 39.1442 154.667 40.1022 157.105C40.1022 157.105 39.2627 156.907 37.9097 154.578Z" fill="#747B60"/>
</g>
<g style="mix-blend-mode:multiply">
<path d="M39.1641 154.145C39.1641 154.145 40.3986 154.233 41.3566 156.671C41.3566 156.671 40.5171 156.474 39.1641 154.145Z" fill="#747B60"/>
</g>
<g style="mix-blend-mode:multiply">
<path d="M40.5762 153.631C40.5762 153.631 41.4848 153.749 42.2848 155.782C42.2848 155.782 41.6626 155.585 40.5762 153.631Z" fill="#747B60"/>
</g>
<g style="mix-blend-mode:multiply">
<path d="M41.6724 153.167C41.6724 153.167 42.3242 153.335 43.0057 155.101C43.0057 155.101 42.5514 154.884 41.6724 153.167Z" fill="#747B60"/>
</g>
<path d="M89.1782 152.605L87.6869 154.115C87.4301 154.194 87.2721 154.234 87.2721 154.234C83.6375 150.305 80.9116 148.795 80.9116 148.795L82.2943 146.9C83.7659 148.371 89.1881 152.605 89.1881 152.605H89.1782Z" fill="#7C6555"/>
<path d="M111.519 120.963H103.627C103.608 120.775 103.598 120.588 103.588 120.41C103.578 119.897 103.469 119.601 103.321 119.433L104.793 117.252C106.916 118.259 110.176 119.887 111.509 120.963H111.519Z" fill="#7C6555"/>
<path d="M115.015 118.071C114.67 118.555 114.334 119.009 114.018 119.453C111.806 117.538 108.704 115.87 106.462 114.804L107.934 112.633C111.243 114.804 114.433 117.568 115.015 118.081V118.071Z" fill="#7C6555"/>
<path d="M118.383 113.383C117.86 114.103 117.356 114.804 116.882 115.475C115.183 113.57 111.727 111.478 109.554 110.254L111.252 107.757C115.252 109.987 117.376 112.119 118.393 113.383H118.383Z" fill="#7C6555"/>
<path d="M127.973 83.1121C127.973 83.1121 133.05 81.829 137.04 87.2573L138.057 85.8361V84.0892L139.39 83.9708L140.092 82.9838C140.092 82.9838 137.761 79.0359 131.045 78.5918L130.62 81.3652L127.973 83.122V83.1121Z" fill="#7C6555"/>
<path d="M141.208 81.415C141.208 81.415 141.346 76.4012 132.674 76.194L134.037 74.1904C134.037 74.1904 141.731 76.7664 141.968 80.3491L141.208 81.415Z" fill="#7C6555"/>
<path d="M134.995 72.7684C134.995 72.7684 139.212 72.0084 143.765 77.8019L144.822 76.3116C144.822 76.3116 143.104 72.7881 136.368 70.7451L134.995 72.7585V72.7684Z" fill="#7C6555"/>
<path d="M155.43 61.3202C152.625 65.3075 149.79 69.3047 146.985 73.2723C147.232 69.9956 147.874 65.3075 149.543 63.2546C151.025 61.4485 153.494 61.182 155.42 61.3202H155.43Z" fill="#7C6555"/>
<path d="M144.822 61.9331C142.067 65.723 139.213 68.072 137.287 69.3846L147.222 54.7578C147.568 56.1494 147.351 58.4491 144.822 61.9331Z" fill="#7C6555"/>
<g style="mix-blend-mode:multiply">
<path d="M49.4653 122.048C49.4653 122.048 55.2332 125.206 59.2035 124.762C63.1739 124.318 69.238 119.452 69.238 119.452C69.238 119.452 68.6849 121.762 69.238 122.048C69.7911 122.334 64.843 127.17 61.5837 127.407C58.3245 127.644 50.8678 124.407 49.4653 122.048Z" fill="#BEBFC8"/>
</g>
<g style="mix-blend-mode:multiply">
<path d="M53.3564 129.204C53.3564 129.204 62.5119 129.845 66.0378 127.417C69.5637 124.989 69.7711 124.328 69.7711 124.328C69.7711 124.328 68.7045 126.628 69.7711 126.805C70.8378 126.983 69.9785 127.082 69.7711 128.079C69.5637 129.075 66.3637 132.816 66.0378 135.185C65.7119 137.553 60.586 139.054 57.9095 136.488C55.233 133.921 57.4354 131.878 53.3564 129.214V129.204Z" fill="#BEBFC8"/>
</g>
<g style="mix-blend-mode:multiply">
<path d="M37.2578 115.476C37.2578 115.476 41.0207 119.897 41.6726 123.431C41.6726 123.431 41.7714 124.763 43.6479 124.763C45.5244 124.763 46.2948 124.21 46.9565 124.319C47.6182 124.427 40.1319 116.877 37.2578 115.476Z" fill="#BEBFC8"/>
</g>
<g style="mix-blend-mode:multiply">
<path d="M20.6158 176.124C20.6158 176.124 26.759 175.354 31.8947 176.894C31.8947 176.894 30.1071 177.94 27.6676 177.526C25.2281 177.111 23.6084 177.002 20.606 176.124H20.6158Z" fill="#BEBFC8"/>
</g>
<g style="mix-blend-mode:multiply">
<path d="M21.6431 179.213C21.6431 179.213 28.0726 179.983 32.7738 179.933C32.7738 179.933 30.5319 181.641 28.8134 181.532C27.0949 181.424 22.2455 180.762 21.6431 179.213Z" fill="#BEBFC8"/>
</g>
<g style="mix-blend-mode:multiply">
<path d="M45.4061 185.826C45.4061 185.826 37.8901 185.826 34.3741 185.382C30.858 184.938 30.7889 185.826 30.7889 185.826V185.865C29.1494 184.967 27.9247 184.01 27.3223 183.497L27.7371 183.112C27.7371 183.112 30.4334 182.618 37.258 184.168C44.0925 185.708 45.4159 185.816 45.4159 185.816L45.4061 185.826Z" fill="#BEBFC8"/>
</g>
<g style="mix-blend-mode:multiply">
<path d="M19.8262 164.547C19.8262 164.547 24.3792 168.978 27.2138 169.738C27.2138 169.738 27.994 170.617 28.8236 171.169C29.6532 171.722 26.3051 171.387 24.1224 170.291C21.9397 169.195 23.1447 168.179 19.836 164.547H19.8262Z" fill="#BEBFC8"/>
</g>
<g style="mix-blend-mode:multiply">
<path d="M83.4598 145.301L83.3314 145.479C83.0746 141.077 82.5314 129.806 81.929 131.069C80.7142 133.626 80.0524 139.863 80.0524 139.863C80.0524 139.863 77.5241 133.142 80.0524 131.898C82.5907 130.655 82.9265 117.726 82.9265 117.726C83.2623 133.853 83.4203 141.965 83.4697 145.301H83.4598Z" fill="#BEBFC8"/>
</g>
<g style="mix-blend-mode:multiply" opacity="0.2">
<path d="M100.102 156.276C99.8353 156.71 99.5785 157.115 99.3316 157.49C98.8377 157.342 98.2056 157.016 97.3661 156.394C93.9489 153.868 93.5045 155.111 93.5045 155.111C93.5045 155.111 92.7341 152.654 94.502 153.631C95.8155 154.361 98.6995 155.654 100.102 156.276Z" fill="#C6CAD7"/>
</g>
<g style="mix-blend-mode:multiply" opacity="0.2">
<path d="M110.363 135.747C110.255 136.024 110.136 136.29 110.018 136.547C108.358 135.254 105.474 133.359 102.235 132.668C102.235 132.668 108.092 133.3 109.682 129.194C110.146 127.99 110.64 127.338 111.114 127.022C111.163 127.141 111.203 127.259 111.242 127.398C111.776 129.204 111.548 132.786 110.363 135.747Z" fill="#C6CAD7"/>
</g>
<g style="mix-blend-mode:multiply">
<path d="M59.865 239.724C55.7367 244.55 42.1467 253.246 40.1417 257.914C38.9763 257.499 37.6529 257.095 36.1418 256.7C35.2924 256.483 34.522 256.305 33.8208 256.157C38.4232 254.4 59.3021 245.389 61.0699 226.272L62.1761 220.311C62.1761 220.311 64.3884 234.424 59.8551 239.724H59.865Z" fill="#BEBFC8"/>
</g>
<g style="mix-blend-mode:multiply" opacity="0.63">
<path d="M43.3217 245.686C41.3366 244.58 38.1465 244.768 38.1465 244.768C39.5983 243.445 40.7736 242.044 41.702 240.741C42.1465 241.501 42.6897 242.33 43.3217 243.149C45.1983 245.567 45.3069 246.781 43.3217 245.686Z" fill="#BEBFC8"/>
</g>
<g style="mix-blend-mode:multiply" opacity="0.66">
<path d="M46.9565 219.097C46.9565 219.097 51.48 207.44 59.2034 198.726C59.2034 198.726 49.5145 214.823 49.6726 218.238L46.9664 219.097H46.9565Z" fill="#BEBFC8"/>
</g>
<g style="mix-blend-mode:multiply" opacity="0.47">
<path d="M74.4131 263.677C73.5439 263.49 72.5958 263.362 71.5489 263.312C64.5959 263.036 56.9712 256.907 55.1836 255.387C58.5218 251.38 63.865 244.116 63.944 238.727C64.0527 230.9 75.9044 220.458 86.9957 187.918C86.9957 187.918 73.5242 258.19 74.4131 263.677Z" fill="#BEBFC8"/>
</g>
<g style="mix-blend-mode:multiply">
<path d="M105.968 190.652C105.633 192.379 105.139 193.05 104.971 193.879C104.931 194.076 104.635 194.59 104.24 195.31C103.242 197.106 101.573 200.196 101.356 203.058C101.307 203.739 101.346 204.42 101.484 205.052C101.504 205.14 101.524 205.229 101.554 205.328C102.225 208.348 102.867 212.533 102.551 217.181C102.502 218.05 102.403 218.938 102.275 219.826C102.097 221.07 101.84 222.343 101.494 223.626C100.852 225.995 99.6178 227.061 98.2153 227.604C96.2696 228.354 93.9981 228.077 92.5265 228.818C93.6919 221.119 96.4968 197.333 92.082 167.083C92.082 167.083 98.0672 169.56 99.4894 177.525C100.279 181.937 102.956 184.306 105.198 185.549C105.198 185.559 105.188 185.589 105.178 185.598C104.339 187.257 106.314 188.905 105.988 190.642L105.968 190.652Z" fill="#8EAE9A"/>
</g>
<g style="mix-blend-mode:multiply">
<path d="M48.8133 192.054L41.1986 200.976C41.1986 200.976 39.4998 203.463 37.969 208.29C37.1295 208.892 36.3789 209.178 35.8356 208.902C33.3073 207.618 36.5961 198.272 35.8356 194.857C35.0752 191.442 34.0776 189.202 34.0776 189.202V187.297C35.5887 187.79 37.2579 188.116 39.0257 188.077C45.7417 187.909 48.8133 192.054 48.8133 192.054Z" fill="#92AF99"/>
</g>
<g style="mix-blend-mode:multiply" opacity="0.4">
<path d="M2.8877 109.208C2.8877 109.208 5.53459 108.063 8.51728 105.418C8.51728 105.418 7.02593 108.043 7.85555 109.208C8.68518 110.373 7.51975 113.521 7.51975 113.521L2.8877 109.208Z" fill="#BEBFC8"/>
</g>
<path d="M9.34717 119.107C9.34717 119.107 19.8063 117.874 30.789 100.849L34.3247 103.76C34.3247 103.76 32.5667 109.988 26.2458 115.466C19.9249 120.943 12.8928 124.309 12.8928 124.309L9.34717 119.088V119.107Z" fill="#DCAD75"/>
<path d="M11.8262 103.266C11.8262 103.266 20.5372 96.9497 21.6434 93.6631L30.1964 101.756C30.1964 101.756 24.7841 106.543 24.7051 107.757C24.6261 108.971 24.0137 103.266 19.8261 102.941C15.6385 102.605 11.8262 103.276 11.8262 103.276V103.266Z" fill="#DCAD75"/>
<g style="mix-blend-mode:multiply" opacity="0.6">
<path d="M8.51738 118.041C8.51738 118.041 9.6828 114.675 9.347 109.464C9.347 109.464 9.50503 111.309 11.826 112.573C14.147 113.836 12.0038 117.932 9.347 118.031C6.69024 118.129 8.51738 118.031 8.51738 118.031V118.041Z" fill="#BEBFC8"/>
</g>
<path d="M10.3643 99.7927C10.3643 99.7927 17.9197 93.4563 19.2234 93.1208C20.5271 92.7852 20.3296 95.3217 16.9321 98.0852C13.5346 100.849 15.2432 98.4701 10.3643 99.7927Z" fill="#DEA36D"/>
<path d="M23.0948 127.348H20.843C20.843 127.348 20.1023 126.272 21.1492 125.917L21.1294 125.364C21.1294 125.364 20.1319 124.92 19.6085 125.364C19.085 125.809 18.6899 125.256 18.6899 125.256L21.6529 122.749C21.6924 122.808 21.9393 123.104 22.285 123.006C22.364 123.183 22.4134 123.42 22.3541 123.736C22.1862 124.644 21.8307 124.644 21.8307 124.644L22.1072 125.197C22.1072 125.197 23.0751 124.585 23.4899 124.989C23.9047 125.394 23.0948 127.348 23.0948 127.348Z" fill="#77777B"/>
<path d="M22.2952 123.015C21.9495 123.104 21.7026 122.818 21.6631 122.759L21.8409 122.601C21.8902 122.62 22.147 122.729 22.2853 123.015H22.2952Z" fill="#77777B"/>
<path d="M26.058 124.851H23.8061C23.8061 124.851 23.0654 123.775 24.1123 123.42L24.0827 122.867C24.0827 122.867 23.095 122.423 22.5716 122.867C22.4827 122.946 22.3839 122.996 22.295 123.015C22.1469 122.729 21.9 122.621 21.8506 122.601C22.058 122.423 22.2555 122.255 22.4432 122.088L22.779 121.801L23.2333 121.416L24.3395 120.489C24.4876 120.617 24.7938 120.795 25.1592 120.489C25.179 120.479 25.1987 120.459 25.2185 120.449C25.3271 120.627 25.3962 120.883 25.3271 121.239C25.1592 122.147 24.8036 122.147 24.8036 122.147L25.0802 122.699C25.0802 122.699 25.9098 122.176 26.3542 122.403V122.413C26.374 122.453 26.3938 122.463 26.3938 122.463H26.453C26.8678 122.877 26.058 124.841 26.058 124.841V124.851Z" fill="#77777B"/>
<path d="M22.4331 122.088C22.2454 122.256 22.0479 122.423 21.8405 122.601C21.8899 122.621 22.1467 122.729 22.2849 123.016C21.9393 123.104 21.6923 122.818 21.6528 122.759L22.4429 122.088H22.4331Z" fill="#77777B"/>
<path d="M25.2184 120.449C25.2184 120.449 25.1789 120.469 25.1591 120.489C24.7937 120.794 24.4875 120.617 24.3394 120.489L24.8035 120.094C24.8035 120.094 25.0603 120.183 25.2184 120.459V120.449Z" fill="#77777B"/>
<path d="M26.4451 122.473H26.4047C26.4047 122.473 26.3946 122.463 26.3643 122.423C26.3946 122.423 26.4148 122.453 26.4451 122.473Z" fill="#77777B"/>
<path d="M28.6453 122.473H26.433C26.433 122.473 26.3836 122.433 26.354 122.423C26.354 122.423 26.354 122.423 26.354 122.413C26.2157 122.177 25.8009 121.357 26.6997 121.042L26.67 120.489C26.67 120.489 25.7417 120.074 25.2083 120.449C25.0503 120.173 24.7935 120.084 24.7935 120.084L24.3293 120.479C24.3293 120.479 24.3194 120.469 24.3096 120.459C24.7935 120.035 25.0602 119.798 25.0602 119.798L25.3664 119.522L26.3737 118.574H26.3836L26.7392 118.268C26.8873 118.298 27.0651 118.268 27.2626 118.11C27.3811 118.012 27.5293 117.952 27.6873 117.933C27.8453 118.11 27.9935 118.396 27.9046 118.86C27.7367 119.778 27.3811 119.778 27.3811 119.778L27.6478 120.331C27.6478 120.331 28.0527 120.074 28.4478 120.005C28.4774 120.064 28.4972 120.094 28.4972 120.094H29.0009C29.0009 120.094 29.0206 120.104 29.0305 120.114C29.4453 120.518 28.6355 122.473 28.6355 122.473H28.6453Z" fill="#77777B"/>
<path d="M25.2184 120.449C25.2184 120.449 25.1789 120.469 25.1591 120.489C24.7937 120.794 24.4875 120.617 24.3394 120.489L24.8035 120.094C24.8035 120.094 25.0603 120.183 25.2184 120.459V120.449Z" fill="#77777B"/>
<path d="M26.3643 122.413C26.3643 122.413 26.4148 122.443 26.4451 122.464H26.4047C26.4047 122.464 26.3946 122.453 26.3643 122.413Z" fill="#77777B"/>
<path d="M27.6977 117.922C27.5396 117.942 27.3915 118.001 27.273 118.1C27.0754 118.268 26.8977 118.287 26.7495 118.258L27.3915 117.705C27.3915 117.705 27.5495 117.754 27.6977 117.912V117.922Z" fill="#77777B"/>
<path d="M29.0209 120.084H28.5172C28.5172 120.084 28.4974 120.045 28.4678 119.995C28.6752 119.956 28.8826 119.966 29.0209 120.084Z" fill="#77777B"/>
<path d="M30.7592 120.084H29.0111C28.8629 119.965 28.6654 119.945 28.458 119.995C28.3 119.728 27.9543 118.949 28.8135 118.662L28.7839 118.11C28.7839 118.11 28.2012 117.853 27.6975 117.932C27.5493 117.774 27.3913 117.725 27.3913 117.725L26.7494 118.277C26.7494 118.277 26.7296 118.277 26.7197 118.277L27.2135 117.814L29.2382 115.919C29.3765 115.948 29.5444 115.919 29.732 115.761C29.7716 115.721 29.8209 115.692 29.8802 115.672C30.0086 115.85 30.0975 116.116 30.0283 116.511C29.8703 117.419 29.5049 117.419 29.5049 117.419L29.7814 117.972C29.7814 117.972 30.453 117.547 30.9172 117.636C30.9567 117.705 30.9864 117.745 30.9864 117.745H31.1543C31.1543 117.745 31.1543 117.745 31.1641 117.754C31.5789 118.159 30.7691 120.113 30.7691 120.113L30.7592 120.084Z" fill="#77777B"/>
<path d="M27.3915 117.715C27.3915 117.715 27.5495 117.764 27.6977 117.922C27.5396 117.942 27.3915 118.001 27.273 118.1C27.0754 118.268 26.8977 118.287 26.7495 118.258L27.3915 117.705V117.715Z" fill="#77777B"/>
<path d="M29.0209 120.084H28.5172C28.5172 120.084 28.4974 120.045 28.4678 119.995C28.6752 119.956 28.8826 119.966 29.0209 120.084Z" fill="#77777B"/>
<path d="M31.1448 117.716H30.9765C30.9765 117.716 30.9468 117.677 30.9072 117.607C30.9963 117.617 31.0755 117.657 31.1349 117.716H31.1448Z" fill="#77777B"/>
<g style="mix-blend-mode:multiply" opacity="0.6">
<path d="M33.2284 117.716H31.1445C31.0754 117.657 30.9963 117.627 30.9173 117.608C30.7593 117.331 30.4334 116.571 31.2828 116.285L31.263 115.732C31.263 115.732 30.4334 115.367 29.8902 115.634C29.8309 115.555 29.7717 115.496 29.7124 115.456L31.8556 113.453C32.0037 113.532 32.2013 113.571 32.4383 113.413C32.5074 113.581 32.5568 113.798 32.4976 114.094C32.3297 115.002 31.9741 115.002 31.9741 115.002L32.2507 115.555C32.2507 115.555 33.2185 114.943 33.6334 115.348C34.0482 115.742 33.2482 117.706 33.2482 117.706L33.2284 117.716Z" fill="#77777B"/>
<path d="M30.9171 117.607C31.0062 117.617 31.0854 117.657 31.1448 117.716H30.9765C30.9765 117.716 30.9468 117.677 30.9072 117.607H30.9171Z" fill="#77777B"/>
<path d="M36.0231 115.337H33.7713C33.7713 115.337 33.0207 114.261 34.0775 113.906L34.0478 113.353C34.0478 113.353 33.0503 112.909 32.5368 113.353C32.4972 113.383 32.4676 113.403 32.4479 113.422C32.3886 113.284 32.2997 113.185 32.2207 113.116L34.3738 111.103C34.5318 111.172 34.7491 111.182 34.996 110.975C35.0454 110.935 35.0948 110.906 35.1441 110.876C35.2627 111.054 35.3614 111.32 35.2923 111.735C35.1244 112.643 34.7688 112.643 34.7688 112.643L35.0454 113.195C35.0454 113.195 35.7071 112.771 36.1713 112.86C36.2108 112.929 36.2404 112.968 36.2404 112.968H36.4281C36.8429 113.383 36.033 115.337 36.033 115.337H36.0231Z" fill="#77777B"/>
<path d="M36.4091 112.969H36.2309C36.2309 112.969 36.2012 112.93 36.1616 112.86C36.2507 112.87 36.3398 112.91 36.3992 112.969H36.4091Z" fill="#77777B"/>
<path d="M38.4823 112.969H36.4083C36.3392 112.91 36.2601 112.88 36.1713 112.86C36.0132 112.584 35.6972 111.824 36.5367 111.538L36.5071 110.985C36.5071 110.985 35.6873 110.62 35.1441 110.886C35.0552 110.768 34.9466 110.689 34.8774 110.65L36.7836 108.873L37.1787 108.508C37.2873 108.577 37.4453 108.646 37.633 108.577C37.7416 108.755 37.8107 109.011 37.7515 109.376C37.5836 110.284 37.228 110.284 37.228 110.284L37.5046 110.837C37.5046 110.837 38.4725 110.225 38.8873 110.63C39.3021 111.034 38.4922 112.999 38.4922 112.999L38.4823 112.969Z" fill="#77777B"/>
<path d="M36.1715 112.86C36.2606 112.87 36.3497 112.91 36.4091 112.969H36.2309C36.2309 112.969 36.2012 112.93 36.1616 112.86H36.1715Z" fill="#77777B"/>
<path d="M40.9121 110.186H38.9171C38.9171 110.186 38.2652 109.238 39.1837 108.922L39.164 108.429C39.164 108.429 38.2949 108.044 37.8307 108.429C37.7615 108.488 37.7023 108.518 37.6331 108.547C37.564 108.429 37.4652 108.34 37.3862 108.291L38.3936 107.343L39.8257 105.991C39.9442 106.05 40.3788 106.297 40.2504 106.988C40.1023 107.787 39.7862 107.787 39.7862 107.787L40.0331 108.281C40.0331 108.281 40.8825 107.738 41.2479 108.093C41.6134 108.459 40.9022 110.176 40.9022 110.176L40.9121 110.186Z" fill="#77777B"/>
<path d="M19.0557 129.511H17.0705C17.0705 129.511 16.4186 128.563 17.3372 128.248L17.3174 127.764C17.3174 127.764 16.4384 127.379 15.9742 127.764C15.8557 127.853 15.747 127.902 15.6582 127.912C15.6483 127.863 15.6285 127.823 15.6187 127.784C16.547 127.044 17.4359 126.303 18.2853 125.603C18.4038 125.76 18.4729 125.987 18.4038 126.343C18.2557 127.142 17.9495 127.142 17.9495 127.142L18.1865 127.626C18.1865 127.626 19.0359 127.083 19.4013 127.448C19.7668 127.803 19.0458 129.521 19.0458 129.521L19.0557 129.511Z" fill="#77777B"/>
<path d="M16.3196 131.603H14.3344C14.3344 131.603 13.6727 130.655 14.601 130.339L14.5714 129.856C14.5714 129.856 13.7023 129.471 13.2381 129.856C13.1097 129.964 12.9813 130.004 12.8727 130.004C12.8727 130.004 12.8727 129.964 12.8628 129.954C13.2677 129.648 13.6727 129.323 14.0776 129.007C14.5418 128.622 15.0159 128.257 15.4801 127.882C15.5294 127.902 15.5986 127.911 15.6578 127.902C15.6973 128.04 15.7171 128.208 15.6776 128.425C15.5294 129.224 15.2134 129.224 15.2134 129.224L15.4603 129.708C15.4603 129.708 16.3097 129.165 16.6751 129.53C17.0405 129.885 16.3294 131.603 16.3294 131.603H16.3196Z" fill="#77777B"/>
<path d="M13.5442 133.695H11.5591C11.5591 133.695 10.8973 132.748 11.8257 132.432L11.7961 131.948C11.7961 131.948 10.927 131.563 10.4628 131.948C10.3048 132.086 10.1566 132.116 10.0381 132.096C10.4233 131.81 10.8084 131.524 11.2035 131.228C11.7368 130.833 12.2702 130.418 12.8035 130.004C12.8232 130.004 12.8529 130.004 12.8726 130.004C12.9121 130.132 12.922 130.31 12.8825 130.517C12.7344 131.317 12.4183 131.317 12.4183 131.317L12.6652 131.8C12.6652 131.8 13.5146 131.257 13.88 131.623C14.2455 131.978 13.5245 133.695 13.5245 133.695H13.5442Z" fill="#77777B"/>
<path d="M10.2356 136.251H8.25046C8.25046 136.251 7.59862 135.304 8.51713 134.988L8.49737 134.494C8.49737 134.494 7.61837 134.109 7.15418 134.494C6.88751 134.721 6.66035 134.652 6.51221 134.553C7.47022 133.922 8.4875 133.211 9.54428 132.451C9.61341 132.599 9.64304 132.797 9.59366 133.063C9.44552 133.863 9.12947 133.863 9.12947 133.863L9.3665 134.356C9.3665 134.356 10.2159 133.813 10.5813 134.168C10.9467 134.524 10.2258 136.251 10.2258 136.251H10.2356Z" fill="#77777B"/>
<path d="M6.78914 138.354H4.80397C4.80397 138.354 4.14225 137.406 5.07064 137.081L5.04101 136.597C5.04101 136.597 4.17188 136.212 3.70769 136.597C3.39164 136.864 3.13485 136.716 2.99658 136.597C3.90522 136.173 4.97187 135.551 6.14717 134.791C6.16692 134.89 6.15705 135.018 6.14717 135.156C5.99903 135.956 5.68298 135.956 5.68298 135.956L5.92989 136.449C5.92989 136.449 6.77927 135.906 7.14469 136.262C7.51012 136.617 6.78914 138.344 6.78914 138.344V138.354Z" fill="#77777B"/>
<path d="M2.98649 139.064H0.991441C0.991441 139.064 0.339595 138.117 1.25811 137.791L1.23835 137.308C1.23835 137.308 1.11983 137.258 0.951935 137.209C1.24823 137.209 1.60378 137.14 2.02847 136.992L2.11736 137.169C2.11736 137.169 2.97661 136.627 3.33216 136.982C3.69759 137.337 2.98649 139.064 2.98649 139.064Z" fill="#77777B"/>
<path d="M43.0751 107.511H41.0899C41.0899 107.511 40.4282 106.564 41.3566 106.248L41.327 105.755C41.327 105.755 40.685 105.478 40.2109 105.636L42.3344 103.652C42.4233 103.81 42.4726 104.027 42.4233 104.323C42.2751 105.133 41.9591 105.133 41.9591 105.133L42.206 105.616C42.206 105.616 43.0554 105.074 43.4208 105.429C43.7862 105.794 43.0751 107.511 43.0751 107.511Z" fill="#77777B"/>
<path d="M46.1368 104.481H44.1516C44.1516 104.481 43.4899 103.533 44.4183 103.218L44.3985 102.724C44.3985 102.724 43.9442 102.527 43.5195 102.556L45.4652 100.74C45.5146 100.888 45.5343 101.066 45.4948 101.293C45.3467 102.102 45.0306 102.102 45.0306 102.102L45.2775 102.586C45.2775 102.586 46.1269 102.043 46.4923 102.398C46.8578 102.764 46.1368 104.481 46.1368 104.481Z" fill="#77777B"/>
<path d="M48.7246 101.895H46.7296C46.7296 101.895 46.0778 100.948 46.9963 100.622L46.9765 100.139C46.9765 100.139 46.6407 99.9906 46.2852 99.9708L48.0827 98.293C48.1024 98.4114 48.1024 98.5496 48.0827 98.7075C47.9345 99.5069 47.6185 99.5069 47.6185 99.5069L47.8555 100C47.8555 100 48.7049 99.4477 49.0703 99.8129C49.4357 100.168 48.7246 101.895 48.7246 101.895Z" fill="#77777B"/>
</g>
<g style="mix-blend-mode:multiply" opacity="0.25">
<path d="M84.6155 172.463C83.5884 173.045 82.4526 173.411 81.3069 173.44C78.7489 173.618 77.2477 170.726 76.823 168.634C76.744 168.219 76.7539 167.874 76.5168 167.528C76.0032 166.877 74.1959 164.962 71.6872 164.025C70.186 163.472 69.1292 162.722 67.5095 162.84C66.5712 162.702 62.6108 163.995 63.2922 162.297C63.6774 161.32 64.0527 160.412 63.6577 159.366C63.4799 158.794 63.233 157.994 63.075 157.412C62.8182 156.652 62.8379 156.01 63.0355 155.418C64.428 154.402 66.7984 154.096 70.2848 158.053C76.4773 165.051 75.8452 159.149 80.902 163.482C84.1316 166.255 84.655 170.065 84.6155 172.453V172.463Z" fill="#BA0613"/>
</g>
<g style="mix-blend-mode:multiply" opacity="0.25">
<path d="M168.792 57.6087C167.301 58.4772 165.612 58.9312 164.012 58.7338C161.079 58.3686 160.081 53.2463 160.081 53.2463V52.5061C160.081 52.5061 154.432 51.6869 149.968 51.1243C145.998 54.6478 143.785 49.0221 145.158 46.6435C146.343 44.5906 146.166 44.3834 145.504 42.4785C147.489 42.893 149.879 43.7122 151.025 45.3111C153.178 48.3213 160.338 44.2846 165.662 48.4792C168.723 50.8776 169.049 54.7465 168.783 57.5988L168.792 57.6087Z" fill="#BA0613"/>
</g>
</svg>
