<svg width="536" height="239" viewBox="0 0 536 239" fill="none" xmlns="http://www.w3.org/2000/svg">
<g clip-path="url(#clip0_120_165)">
<path d="M261.22 17.6499C261.22 17.6499 253.55 7.07993 248.19 6.78993C242.83 6.49993 223.87 6.64993 221.85 7.79993C219.82 8.95993 187.26 20.8299 187.26 20.8299L261.22 17.6499Z" fill="#263238"/>
<path d="M508.83 195.78L334.77 194.8L100.13 192.9L38.86 188.22L34.37 141.11L56.04 108.48L187.26 99.9102L497.45 123.81L526.99 168.43L508.83 195.78Z" fill="#00BAFF"/>
<path opacity="0.3" d="M508.83 195.78L334.77 194.8L100.13 192.9L38.86 188.22L34.37 141.11L56.04 108.48L187.26 99.9102L497.45 123.81L526.99 168.43L508.83 195.78Z" fill="black"/>
<path d="M2.49015 164.75L0.870159 155.06C0.870159 155.06 10.5902 159.48 10.7702 159.91C10.9402 160.33 11.7202 166.95 11.3702 167.12C11.0202 167.29 9.3102 168.84 8.7902 168.32C8.2702 167.8 2.49015 164.75 2.49015 164.75Z" fill="white"/>
<path d="M278.33 35.93C278.33 35.93 278.76 20.18 275.97 17.8C273.18 15.41 203.9 16.01 176.43 21.38C148.96 26.76 113.12 39.11 113.32 40.3L177.43 49.65L278.34 35.93H278.33Z" fill="#D6D4D0"/>
<path d="M382.11 196.82L393.27 196.85C393.27 196.85 391.63 168.65 402.19 155.53C412.75 142.41 424.64 127.34 459.7 134.52C494.76 141.69 501.83 164.86 503.06 170.81C504.29 176.75 505.01 188.75 505.01 188.75L529.72 185.55C529.72 185.55 536.09 174.32 535.48 170.38C534.87 166.44 536.47 157.94 535.52 154C534.57 150.06 532.75 141.26 526.99 133.68C526.99 133.68 527.29 114.27 503.93 104.56C480.58 94.8499 445.09 90.9099 427.5 88.4799C414.06 86.6299 410.53 86.8999 402.32 83.6099C400.9 85.3899 397.98 88.6899 395.9 88.6899C393.04 88.6999 379.72 95.6899 379.72 95.6899L383.48 104.73C386.96 109.3 388.77 125.59 389.35 140.44C389.75 150.73 385.03 179.9 382.11 196.82Z" fill="#D6D4D0"/>
<path d="M9.55005 164.55C8.42005 167.83 2.07007 164.55 2.07007 164.55L6.1701 173.47L44.41 181.26C44.41 181.26 45.0201 123.14 103.76 131.75C162.51 140.36 151.54 196.13 151.54 196.13L382.11 196.82C385.03 179.9 389.75 150.73 389.35 140.44C388.77 125.59 386.96 109.3 383.48 104.73L379.72 95.6899C379.72 95.6899 393.04 88.6999 395.9 88.6899C397.98 88.6899 400.9 85.3899 402.32 83.6099C399.78 82.5999 396.79 81.2499 392.92 79.3799C376.54 71.4999 331.91 44.8599 307.78 39.4099C307.78 39.4099 282.9 34.4999 268.62 33.6499C252.69 32.6999 226.07 32.3299 214.96 32.5599C214.96 32.5599 172.66 34.4599 161.48 35.4899C150.31 36.5099 95.77 41.5299 90.85 41.7399C85.93 41.9399 72.5 42.6599 71.98 43.4799C71.47 44.2999 71.06 44.3999 71.98 45.3299C72.91 46.2499 81.5201 50.8599 81.5201 50.8599L71.98 60.2899C71.98 60.2899 28.8201 80.2799 23.0801 85.4099L17.9601 90.2299L12.8301 124.57C12.8301 124.57 5.86005 131.44 3.30005 135.34C0.740049 139.23 0.330078 138.51 0.330078 142.2V154.71C0.330078 154.71 10.68 161.27 9.55005 164.55Z" fill="#00BAFF"/>
<path d="M0.250033 150.76C0.190033 150.76 0.0400427 151.63 0.0100427 153.07C-0.0299573 154.5 0.0700646 156.49 0.470065 158.65C0.870065 160.81 1.49007 162.7 2.04007 164.02C2.59007 165.34 3.04006 166.11 3.09006 166.08C3.24006 166.02 1.75006 162.8 0.970065 158.55C0.160065 154.3 0.400023 150.77 0.240023 150.76H0.250033Z" fill="#263238"/>
<path d="M395.9 88.69C366.73 71.4 339 54.01 307.24 44.38C291.2 39.52 239.97 35.1799 209.23 38.0999C209.23 38.0999 182.37 38.71 170.63 41.57C158.89 44.43 97.8101 65.3899 97.8101 65.3899C97.8101 65.3899 78.3001 71.8699 80.6801 75.5199C83.0601 79.1699 107.65 81.55 122.72 82.5C137.79 83.45 345.78 90.48 345.78 90.48C345.78 90.48 394.33 92.81 395.6 92.33C396.87 91.85 395.89 88.68 395.89 88.68L395.9 88.69Z" fill="#263238"/>
<path d="M389.39 88.72C389.39 88.07 389.04 87.48 388.47 87.17C381.14 83.14 331.95 56.19 317.34 50.56C301.53 44.47 247.73 39.35 247.32 40.45C246.95 41.41 253.98 84.2 253.98 84.2L387.54 90.49C388.55 90.54 389.39 89.73 389.39 88.72Z" fill="#455A64"/>
<path d="M503.24 109.26C507.74 110.19 516.62 109.37 523.31 120.97C525.82 125.61 527.22 129.9 526.99 133.68C526.99 133.68 495.16 113.77 495.3 110.46C495.44 107.15 498.74 108.34 503.25 109.27L503.24 109.26Z" fill="white"/>
<path d="M486.08 146.04C486.08 146.04 486.49 145.83 487.18 145.36C487.87 144.89 488.85 144.2 490.05 143.33C492.45 141.58 495.7 139.08 499.19 136.19C500.93 134.74 502.57 133.33 504.04 132.03C505.49 130.71 506.87 129.6 507.81 128.39C508.77 127.19 509.03 125.88 508.92 125.04C508.88 124.61 508.76 124.3 508.66 124.1C508.56 123.9 508.49 123.81 508.47 123.82C508.42 123.84 508.68 124.25 508.71 125.06C508.75 125.86 508.46 127.06 507.51 128.17C506.59 129.29 505.17 130.38 503.71 131.67C502.23 132.95 500.58 134.34 498.84 135.79C495.36 138.68 492.15 141.21 489.81 143.04C488.71 143.9 487.78 144.63 487.04 145.2C486.39 145.71 486.04 146.01 486.06 146.04H486.08Z" fill="#263238"/>
<path d="M421.05 87.5098C421.05 87.5098 421.12 87.5598 421.27 87.6198C421.45 87.6898 421.66 87.7798 421.92 87.8898C422.48 88.1498 423.31 88.5298 424.32 89.1398C425.33 89.7398 426.52 90.5598 427.88 91.5298C429.25 92.4998 430.79 93.6298 432.66 94.6498C434.53 95.6698 436.77 96.4198 439.22 96.8898C441.67 97.3798 444.33 97.6098 447.1 97.8498C452.66 98.3498 458.77 98.8498 465.17 99.4798C477.98 100.7 489.51 102.54 497.68 104.63C499.73 105.11 501.56 105.66 503.18 106.09C504.78 106.59 506.17 106.98 507.29 107.35C508.38 107.71 509.24 108 509.87 108.21C510.14 108.29 510.36 108.36 510.55 108.42C510.7 108.46 510.78 108.48 510.79 108.48C510.79 108.48 505.99 106.37 497.79 104.28C489.62 102.09 478.07 100.19 465.24 98.9698C458.83 98.3398 452.72 97.8498 447.16 97.3798C444.38 97.1498 441.74 96.9398 439.32 96.4698C436.9 96.0198 434.7 95.3098 432.85 94.3298C431 93.3498 429.45 92.2398 428.06 91.2898C426.68 90.3398 425.47 89.5398 424.44 88.9598C423.41 88.3798 422.56 88.0198 421.98 87.7898C421.71 87.6998 421.49 87.6298 421.31 87.5698C421.16 87.5198 421.08 87.4998 421.08 87.5098H421.05Z" fill="#263238"/>
<path d="M383.08 192.11C383.08 192.11 383.12 192.03 383.17 191.86C383.23 191.66 383.3 191.41 383.39 191.1C383.58 190.43 383.84 189.44 384.15 188.16C384.76 185.59 385.54 181.85 386.22 177.17C386.92 172.5 387.5 166.91 388.01 160.69C388.49 154.47 389.13 147.64 389.35 140.44C389.57 133.24 389.16 126.33 387.9 120.19C386.68 114.05 384.91 108.69 383.31 104.26C381.69 99.8301 380.22 96.3001 379.2 93.8701C378.69 92.6901 378.29 91.7501 378.01 91.0801C377.88 90.7901 377.77 90.5501 377.69 90.3601C377.61 90.2001 377.57 90.1201 377.56 90.1201C377.55 90.1201 377.58 90.2101 377.64 90.3801C377.71 90.5801 377.8 90.8201 377.92 91.1201C378.19 91.8001 378.56 92.7501 379.02 93.9501C379.98 96.4101 381.39 99.9501 382.97 104.39C384.52 108.83 386.26 114.18 387.44 120.29C388.66 126.39 389.05 133.25 388.84 140.43C388.63 147.61 388 154.44 387.55 160.66C387.07 166.87 386.52 172.46 385.87 177.13C385.24 181.8 384.52 185.55 383.97 188.12C383.7 189.41 383.47 190.41 383.31 191.08C383.24 191.39 383.18 191.65 383.14 191.85C383.1 192.02 383.09 192.12 383.1 192.12L383.08 192.11Z" fill="#263238"/>
<path d="M389.15 175.24C389.15 175.24 388.96 175.21 388.57 175.18C388.17 175.15 387.61 175.1 386.88 175.04C385.37 174.93 383.18 174.77 380.37 174.57C374.69 174.18 366.51 173.63 356.4 172.94C336.16 171.6 308.2 169.79 277.31 167.95C261.86 167.04 247.14 166.2 233.74 165.55C230.39 165.38 227.12 165.25 223.95 165.13C222.36 165.06 220.8 165.02 219.25 165.01C217.71 164.98 216.17 164.94 214.68 165.19C211.69 165.59 208.92 166.49 206.32 167.45C203.72 168.43 201.29 169.53 199.02 170.65C189.93 175.21 183.11 179.83 178.43 183.02C176.1 184.64 174.32 185.93 173.12 186.82C172.54 187.26 172.09 187.6 171.77 187.85C171.47 188.09 171.32 188.22 171.32 188.22C171.32 188.22 171.49 188.12 171.8 187.89C172.13 187.66 172.59 187.33 173.18 186.9C174.4 186.03 176.2 184.77 178.54 183.18C183.25 180.04 190.1 175.48 199.18 170.98C201.46 169.87 203.88 168.79 206.46 167.82C209.04 166.87 211.8 165.99 214.73 165.61C216.19 165.37 217.7 165.41 219.24 165.45C220.78 165.47 222.34 165.51 223.93 165.59C227.1 165.71 230.37 165.85 233.72 166.03C247.11 166.7 261.83 167.55 277.28 168.47C308.16 170.36 336.12 172.07 356.38 173.31C366.49 173.93 374.68 174.43 380.36 174.77C383.18 174.93 385.37 175.06 386.88 175.15C387.61 175.19 388.17 175.22 388.58 175.24C388.96 175.26 389.16 175.25 389.16 175.25L389.15 175.24Z" fill="#263238"/>
<path d="M234.13 40.3002V84.4202C234.13 84.4202 110.29 80.0202 104.39 78.8702C95.3801 77.1102 89.8801 75.5102 91.1001 72.6402C93.3001 67.4602 163.88 46.0602 178.89 42.7402C194.59 39.2702 234.13 40.3002 234.13 40.3002Z" fill="#455A64"/>
<path d="M18.5802 89.36C18.5802 89.36 47.3002 85.7 47.0202 93.3C47.0202 93.3 46.1802 95.55 41.3902 97.24C36.6002 98.93 29.4902 101.87 26.3902 104.4C23.2902 106.93 19.2302 112.17 14.7202 111.89C14.7202 111.89 10.1302 94.14 18.5802 89.36Z" fill="white"/>
<path d="M114.21 40.3C114.21 40.3 114.36 40.3 114.64 40.28C114.95 40.25 115.36 40.21 115.9 40.17C117.03 40.06 118.65 39.89 120.72 39.68C124.93 39.23 130.98 38.58 138.44 37.77C153.4 36.16 174.06 33.87 196.97 32.51C208.43 31.86 219.36 31.59 229.3 31.61C234.27 31.69 239 31.71 243.41 31.95C245.62 32.05 247.75 32.1 249.8 32.24C251.85 32.38 253.81 32.52 255.69 32.65C259.44 32.86 262.82 33.28 265.79 33.57C267.28 33.73 268.66 33.85 269.93 34C271.2 34.17 272.35 34.33 273.4 34.47C275.46 34.74 277.08 34.95 278.2 35.1C278.73 35.16 279.15 35.21 279.45 35.25C279.73 35.28 279.88 35.29 279.88 35.28C279.88 35.28 279.74 35.24 279.46 35.19C279.16 35.14 278.74 35.07 278.22 34.99C277.1 34.82 275.49 34.57 273.43 34.26C272.39 34.11 271.23 33.93 269.97 33.75C268.7 33.58 267.32 33.45 265.83 33.28C262.86 32.97 259.48 32.52 255.72 32.29C253.84 32.15 251.88 32 249.83 31.84C247.78 31.69 245.64 31.63 243.43 31.52C239.01 31.27 234.28 31.22 229.3 31.13C219.35 31.08 208.4 31.34 196.93 31.99C174 33.36 153.33 35.71 138.39 37.41C130.94 38.28 124.9 38.99 120.69 39.48C118.62 39.73 117.01 39.93 115.88 40.07C115.35 40.14 114.94 40.2 114.63 40.24C114.35 40.28 114.21 40.31 114.21 40.31V40.3Z" fill="#263238"/>
<path d="M96.78 46.2702C96.78 46.2702 94.59 49.7702 91.82 51.5202C89.05 53.2702 71.56 60.4102 71.56 60.4102L80.01 50.9402C80.01 50.9402 71.41 46.4202 71.56 44.9602C71.71 43.5002 96.77 46.2702 96.77 46.2702H96.78Z" fill="#263238"/>
<path d="M532.44 182.99C532.44 182.99 522.64 197.35 515.58 199.63C508.52 201.91 502.36 202.82 502.36 202.82L503.96 182.99H532.44Z" fill="#263238"/>
<path d="M152.13 184.47L394.62 185.84H393.48V201.34C393.48 201.34 261.3 197.47 239.65 196.78C218 196.1 150.08 198.15 150.08 198.15L152.13 184.48V184.47Z" fill="#263238"/>
<path d="M47.0701 193.66L43.8801 180.67L5.82007 173.38C5.82007 173.38 4.45006 174.29 7.19006 177.25C9.92006 180.21 35.6801 194.57 47.0701 194.8" fill="#263238"/>
<path d="M240.96 195.78C240.96 195.78 240.97 195.71 240.98 195.58C240.98 195.43 240.99 195.23 241 194.99C241 194.44 241.02 193.67 241.04 192.68C241.05 190.63 241.08 187.66 241.1 183.86C241.85 177.04 242.84 167.37 243.8 155.83C244.28 150.06 244.75 143.82 245.08 137.22C245.21 133.92 245.38 130.54 245.32 127.07C245.21 123.61 245.02 120.09 244.86 116.51C243.83 94.6002 242.89 74.7702 242.21 60.3902C241.85 53.2302 241.55 47.4302 241.35 43.3902C241.24 41.4002 241.15 39.8502 241.09 38.7702C241.06 38.2602 241.03 37.8602 241.01 37.5702C240.99 37.3002 240.97 37.1602 240.96 37.1602C240.96 37.1602 240.95 37.3002 240.96 37.5702C240.96 37.8702 240.98 38.2602 240.99 38.7702C241.03 39.8602 241.08 41.4102 241.15 43.4002C241.32 47.4402 241.55 53.2502 241.85 60.4102C242.49 74.7902 243.37 94.6202 244.35 116.53C244.5 120.11 244.7 123.63 244.81 127.08C244.88 130.52 244.71 133.91 244.59 137.2C244.28 143.79 243.82 150.02 243.36 155.79C242.44 167.33 241.51 177 240.84 183.84V183.85C240.87 187.65 240.89 190.62 240.9 192.67C240.91 193.66 240.93 194.43 240.94 194.98C240.94 195.22 240.95 195.42 240.96 195.57C240.96 195.7 240.97 195.77 240.98 195.77L240.96 195.78Z" fill="#263238"/>
<g clip-path="url(#clip1_120_165)">
<path d="M262.487 139.723C263.189 136.219 265.567 136.898 267.594 136.847C268.54 136.825 269.492 136.876 270.438 136.817C271.082 136.781 272.013 136.934 271.892 135.832C271.806 135.058 271.061 135.131 270.495 135.124C268.719 135.095 266.935 135.212 265.173 135.051C263.182 134.876 262.251 133.584 262.444 131.577C262.631 129.723 263.168 128.569 265.56 129.036C267.587 129.431 269.772 128.92 271.884 128.927C272.522 128.927 273.639 128.131 273.775 129.35C273.897 130.467 273.188 131.365 271.87 131.372C269.729 131.372 267.594 131.372 265.445 131.905C267.2 133.336 269.184 132.81 271.039 132.839C273.417 132.876 274.907 133.978 274.964 136.314C275.022 138.584 273.589 139.752 271.297 139.73C268.461 139.701 265.625 139.73 262.495 139.73L262.487 139.723Z" fill="white"/>
<path d="M282.707 131.372C282.793 128.868 284.404 128.562 285.887 128.927C288.816 129.642 292.376 126.788 294.697 130.438C295.227 131.277 295.391 132.547 294.926 133.591C294.203 135.219 292.534 136.708 294.532 138.584C294.625 138.671 294.253 139.598 294.031 139.635C292.999 139.781 291.789 140.051 291.173 138.854C290.206 136.971 288.73 136.445 286.775 136.649C285.88 136.744 285.135 136.766 285.02 137.912C284.906 139.044 284.261 139.854 283.151 139.482C281.539 138.941 281.912 137.401 281.869 136.102C281.833 134.927 281.869 133.912 283.445 133.941C285.579 133.985 287.706 133.963 289.841 133.927C290.786 133.912 291.975 133.927 291.946 132.606C291.918 131.277 290.729 131.379 289.783 131.379C287.456 131.372 285.121 131.379 282.7 131.379L282.707 131.372Z" fill="white"/>
<path d="M242.404 135.832C241.337 134.168 238.45 136.226 238.579 134.219C238.715 132.168 241.351 133.701 242.776 132.949C244.366 132.109 245.24 132.949 244.861 134.774C244.524 136.401 245.863 139.197 244.073 139.474C240.957 139.963 237.333 140.774 234.583 138.08C232.821 136.35 232.305 134.102 233.386 131.759C234.189 130.029 235.055 128.489 237.591 129.058C239.252 129.431 241.1 128.839 242.855 128.927C243.364 128.956 244.23 127.847 244.531 129.19C244.796 130.387 244.058 131.08 243.113 131.263C241.96 131.482 240.749 131.409 239.568 131.35C237.505 131.255 235.872 131.927 235.915 134.233C235.958 136.387 237.677 136.905 239.496 136.81C240.456 136.759 241.645 137.306 242.404 135.825V135.832Z" fill="white"/>
<path d="M253.943 140C248.7 140.015 246.15 137.233 246.938 132.533C247.69 128.051 251.522 128.766 254.251 128.314C258.333 127.635 260.811 130.036 260.919 133.832C261.026 137.89 258.663 139.985 253.943 140ZM253.814 131.131C252.138 131.358 249.932 130.912 249.853 133.869C249.788 136.489 251.658 137.759 253.57 137.628C255.389 137.504 257.961 137.036 257.939 134C257.925 131.131 255.862 131.248 253.814 131.131Z" fill="white"/>
<path d="M326.348 128.365C325.839 132.168 323.218 131.211 321.133 131.387C320.396 131.445 319.164 130.92 319.078 132.095C318.977 133.452 320.267 133.306 321.169 133.336C322.516 133.379 323.869 133.343 325.402 133.343C323.984 136.438 320.775 134.401 318.469 135.949C321.205 137.635 323.862 136.299 326.29 137.036C326.104 139.956 324.056 139.752 322.036 139.752C315.862 139.737 315.862 139.766 315.855 133.628C315.855 132.781 315.962 131.92 315.833 131.102C315.475 128.839 316.363 128.153 318.548 128.321C321.098 128.518 323.669 128.365 326.34 128.365H326.348Z" fill="white"/>
<path d="M306.45 139.73C301.68 139.73 301.157 139.029 301.816 134.744C301.981 133.693 302.396 133.182 303.306 133.124C304.266 133.066 304.903 133.555 304.839 134.635C304.652 137.883 307.023 136.752 308.534 136.752C310.146 136.752 311.256 135.788 311.163 134.014C311.049 131.803 309.509 131.336 307.668 131.365C306.364 131.387 305.061 131.394 303.764 131.35C303.349 131.336 302.69 131.62 302.604 130.934C302.554 130.54 302.762 130 303.041 129.701C304.044 128.628 310.433 128.27 311.693 129.255C313.992 131.066 314.83 133.474 313.727 136.248C312.28 139.898 309.072 139.839 306.443 139.73H306.45Z" fill="white"/>
<path d="M217.722 139.424C219.627 136.241 221.332 133.227 223.201 130.321C224.577 128.183 226.482 128.154 227.843 130.146C229.834 133.051 231.445 136.227 233.308 139.424H217.722ZM225.443 132.059C224.261 135 222.192 136.723 222.063 139.518C223.137 136.818 225.644 136.869 227.964 136.453C227.169 135.066 226.532 133.956 225.443 132.059Z" fill="white"/>
<path d="M346.775 119.175C348.651 119.204 350.55 119.409 352.412 119.219C355.133 118.942 356.108 119.81 356 122.752C355.792 128.307 353.773 129.898 348.243 128.46C346.918 128.117 347.004 127.255 346.983 126.307C346.925 123.912 346.875 121.518 346.825 119.131L346.782 119.175H346.775Z" fill="#58AB5E"/>
<path d="M323.633 119.555C318.383 118.883 321.284 114.766 320.883 112.248C320.41 109.292 323.089 110.81 324.406 110.423C324.736 110.328 325.116 110.46 325.467 110.401C328.532 109.92 330.108 110.876 329.578 114.38C329.349 115.898 329.606 117.496 329.649 119.058L329.714 118.993C328.367 119.182 327.028 119.372 325.71 119.555C325.037 119.555 324.342 119.555 323.647 119.555H323.633Z" fill="#E22326"/>
<path d="M329.642 119.066C332.486 119.533 335.343 119.285 338.194 119.204L338.158 119.153C338.194 120.117 338.251 121.088 338.259 122.051C338.309 129.088 338.309 129.022 331.519 128.438C329.957 128.299 329.456 127.745 329.528 126.241C329.642 123.832 329.649 121.416 329.699 119L329.635 119.066H329.642Z" fill="#1346C2"/>
<path d="M338.194 119.204C338.201 118.241 338.216 117.27 338.216 116.306C338.216 110.168 339.312 109.328 345.421 110.387C346.71 110.613 346.954 111.226 346.932 112.299C346.875 114.591 346.825 116.876 346.775 119.168L346.818 119.124C343.931 119.124 341.045 119.139 338.158 119.146L338.194 119.197V119.204Z" fill="#FBEF05"/>
<path d="M217.357 136.708C215.874 139.307 208.733 140.854 207.458 139.358C207.136 138.978 207.15 138.234 207.143 137.657C207.107 135.241 207.079 132.825 207.165 130.409C207.186 129.818 206.398 128.533 208.046 128.708C208.991 128.81 210.022 128.767 210.065 130.161C210.065 130.285 210.051 130.409 210.065 130.526C210.445 132.569 208.912 135.35 210.911 136.533C212.407 137.416 214.814 136.708 217.342 136.708H217.357Z" fill="white"/>
<path d="M299.904 134.445C299.904 135.657 299.847 136.868 299.918 138.073C299.983 139.321 299.503 139.803 298.271 139.752C297.189 139.701 296.86 139.226 296.881 138.175C296.931 135.518 296.924 132.854 296.881 130.197C296.867 129.095 297.003 128.365 298.364 128.343C299.696 128.321 299.968 128.934 299.918 130.102C299.854 131.547 299.904 133 299.897 134.452L299.904 134.445Z" fill="white"/>
<path d="M323.633 119.555C324.328 119.555 325.023 119.555 325.696 119.555C325.775 119.606 325.904 119.715 325.975 119.686C326.161 119.613 326.849 119.467 326.14 119.285C325.288 119.059 324.335 119.197 323.425 119.183C323.318 119.183 323.125 119.197 323.11 119.248C322.838 120.124 323.397 119.54 323.626 119.548L323.633 119.555Z" fill="#1346C2"/>
</g>
<path d="M113.62 134.71C113.62 134.71 113.62 134.62 113.62 134.44C113.61 134.23 113.59 133.97 113.57 133.65C113.51 132.91 113.42 131.9 113.31 130.61C113.06 127.93 112.7 124.12 112.25 119.43C111.78 114.7 111.23 109.08 110.61 102.85C110.46 101.29 110.28 99.6802 110.15 98.0702C110.16 96.5202 111.03 95.0002 111.92 93.6002C113.8 90.7902 116.23 88.2102 118.8 85.6902C119.99 84.5402 121.19 83.4202 122.35 82.4202H122.36V82.4002C131.37 72.5602 139.4 63.8002 145.2 57.4702C148.05 54.3202 150.36 51.7802 151.98 49.9902C152.75 49.1302 153.35 48.4502 153.79 47.9502C153.98 47.7302 154.13 47.5602 154.25 47.4102C154.35 47.2902 154.4 47.2202 154.39 47.2202C154.39 47.2202 154.32 47.2702 154.21 47.3802C154.08 47.5102 153.91 47.6802 153.71 47.8802C153.25 48.3602 152.63 49.0202 151.83 49.8602C150.18 51.6202 147.84 54.1302 144.94 57.2302C139.11 63.5402 131.04 72.2502 121.98 82.0502L122 82.0302C120.82 83.0502 119.62 84.1602 118.42 85.3202C115.83 87.8602 113.39 90.4502 111.47 93.3302C110.57 94.7802 109.65 96.3102 109.63 98.0902C109.77 99.7502 109.96 101.33 110.11 102.89C110.77 109.12 111.36 114.73 111.86 119.47C112.37 124.16 112.79 127.96 113.08 130.64C113.23 131.93 113.35 132.94 113.44 133.67C113.48 133.99 113.52 134.25 113.55 134.46C113.58 134.64 113.59 134.73 113.6 134.73L113.62 134.71Z" fill="#263238"/>
<path d="M61.3102 104.46C61.3802 104.46 61.3202 103.57 61.7202 102.05C62.1102 100.56 63.1102 98.3698 65.3602 96.6898C66.4702 95.8698 67.8702 95.1698 69.4802 94.8898C71.0802 94.6198 72.8802 94.6798 74.5902 95.3298C75.4502 95.6298 76.2802 96.0898 77.0402 96.6598C77.8102 97.2198 78.5102 97.9198 79.0902 98.7198C80.2802 100.31 80.9502 102.35 80.9702 104.45C80.9502 106.55 80.2802 108.6 79.0902 110.19C78.5102 111 77.8102 111.69 77.0402 112.26C76.2802 112.83 75.4502 113.29 74.5802 113.59C72.8702 114.25 71.0702 114.3 69.4702 114.03C67.8602 113.75 66.4602 113.05 65.3502 112.23C63.1102 110.54 62.1102 108.36 61.7102 106.87C61.3102 105.35 61.3702 104.46 61.3002 104.46C61.3002 104.46 61.1702 105.35 61.5102 106.92C61.8502 108.45 62.8202 110.74 65.1202 112.53C66.2602 113.4 67.7002 114.15 69.3802 114.46C71.0402 114.76 72.9302 114.72 74.7302 114.04C75.6402 113.73 76.5102 113.26 77.3202 112.66C78.1302 112.07 78.8702 111.34 79.4802 110.5C80.7402 108.83 81.4502 106.68 81.4702 104.46C81.4502 102.24 80.7402 100.09 79.4802 98.4198C78.8702 97.5698 78.1302 96.8398 77.3202 96.2598C76.5202 95.6598 75.6402 95.1898 74.7302 94.8798C72.9302 94.2098 71.0402 94.1598 69.3802 94.4598C67.7002 94.7698 66.2602 95.5198 65.1202 96.3898C62.8202 98.1798 61.8502 100.46 61.5102 102C61.1702 103.57 61.3002 104.46 61.3002 104.46H61.3102Z" fill="#263238"/>
<path d="M13.19 124.47C13.19 124.47 13.4 124.52 13.81 124.56C14.27 124.6 14.8601 124.65 15.5901 124.71C17.2101 124.82 19.4301 124.97 22.1501 125.16C27.7501 125.52 35.3701 126.02 43.7901 126.57C45.9001 126.72 47.9601 126.87 49.9501 127.01C50.9401 127.1 51.9201 127.16 52.8701 127.26C53.8201 127.37 54.7801 127.4 55.6101 127.65C57.3001 128.18 58.81 129.13 60.19 129.96C61.57 130.82 62.8301 131.66 63.9701 132.45C66.2501 134.03 68.0501 135.37 69.3001 136.29C69.8901 136.72 70.3601 137.08 70.7401 137.35C71.0701 137.59 71.2501 137.71 71.2601 137.7C71.2701 137.69 71.1101 137.54 70.8101 137.27C70.5001 137 70.0401 136.62 69.4301 136.13C68.2201 135.16 66.45 133.77 64.19 132.15C63.06 131.34 61.8101 130.47 60.4301 129.6C59.0301 128.74 57.5601 127.78 55.7501 127.2C54.8301 126.91 53.8801 126.89 52.9301 126.77C51.9701 126.67 50.9901 126.6 50.0001 126.51C48.0101 126.36 45.9401 126.21 43.8301 126.06C35.3801 125.49 27.72 125.08 22.18 124.81C19.46 124.69 17.2301 124.59 15.6101 124.52C14.8801 124.5 14.2901 124.48 13.8201 124.47C13.4101 124.47 13.2 124.47 13.19 124.49V124.47Z" fill="#263238"/>
<path d="M178.89 20.8402C178.89 20.8402 178.97 20.8402 179.13 20.8402C179.32 20.8202 179.55 20.8002 179.83 20.7802C180.49 20.7102 181.39 20.6202 182.53 20.5002C184.92 20.2502 188.3 19.9002 192.45 19.4602C200.83 18.6202 212.43 17.6102 225.26 16.9902C231.68 16.6902 237.8 16.5202 243.37 16.4502C248.94 16.4002 253.95 16.4202 258.16 16.5302C260.27 16.5602 262.17 16.6402 263.84 16.6902C265.51 16.7402 266.95 16.8002 268.13 16.8602C269.27 16.9102 270.18 16.9402 270.84 16.9702C271.12 16.9702 271.36 16.9802 271.55 16.9802C271.71 16.9802 271.79 16.9802 271.79 16.9702C271.79 16.9702 271.71 16.9502 271.55 16.9302C271.36 16.9102 271.13 16.8902 270.85 16.8602C270.19 16.8102 269.28 16.7402 268.14 16.6502C266.96 16.5602 265.53 16.4702 263.85 16.3902C262.18 16.3102 260.27 16.2002 258.17 16.1502C253.96 15.9902 248.94 15.9402 243.36 15.9602C237.79 16.0102 231.66 16.1602 225.23 16.4602C212.38 17.0802 200.78 18.1502 192.4 19.0902C188.21 19.5602 184.83 19.9702 182.49 20.2902C181.36 20.4502 180.46 20.5702 179.8 20.6702C179.52 20.7102 179.29 20.7502 179.1 20.7802C178.94 20.8102 178.86 20.8302 178.86 20.8402H178.89Z" fill="#263238"/>
<path d="M225.56 7.2002C225.56 7.2802 226.86 7.2202 228.96 7.1602C231.06 7.0902 233.95 7.0302 237.15 7.0102C240.28 7.0002 243.1 6.9902 245.35 6.9802C247.45 6.9602 248.75 6.9202 248.75 6.8502C248.75 6.7802 247.45 6.6902 245.36 6.6102C243.26 6.5302 240.36 6.4702 237.16 6.4902C233.95 6.5102 231.05 6.6302 228.96 6.7902C227.91 6.8702 227.07 6.9502 226.48 7.0302C225.9 7.1002 225.58 7.1602 225.58 7.2002H225.56Z" fill="#263238"/>
<path d="M94.4013 237.039C65.964 235.668 44.0224 211.503 45.3933 183.066C46.7642 154.629 70.9285 132.687 99.3658 134.058C127.803 135.429 149.745 159.593 148.374 188.031C147.003 216.468 122.839 238.41 94.4013 237.039Z" fill="#263238"/>
<path d="M148.43 184.69C148.43 184.69 148.43 184.78 148.43 184.82C148.84 213.29 126.09 236.7 97.6301 237.11C69.1601 237.52 45.7501 214.77 45.3401 186.31C45.3401 186.27 45.3401 186.22 45.3401 186.18L148.42 184.69H148.43Z" fill="#263238"/>
<path d="M133.08 185.05C133.37 205.04 117.4 221.47 97.4101 221.76C77.4201 222.05 60.9901 206.08 60.7001 186.09C60.4101 166.1 76.3801 149.67 96.3701 149.38C116.36 149.09 132.79 165.06 133.08 185.05Z" fill="#FAFAFA"/>
<path d="M96.3701 149.38C116.36 149.09 132.79 165.06 133.08 185.05L60.7001 186.09C60.4101 166.1 76.3801 149.67 96.3701 149.38Z" fill="#E0E0E0"/>
<path d="M118.93 185.25C119.11 197.43 109.38 207.44 97.1999 207.61C85.0199 207.79 75.0099 198.06 74.8399 185.88C74.6599 173.7 84.3899 163.69 96.5699 163.52C108.75 163.34 118.76 173.07 118.93 185.25Z" fill="#263238"/>
<path d="M396.941 187.54C396.827 159.07 419.814 135.897 448.284 135.783C476.754 135.669 499.926 158.656 500.041 187.126C500.155 215.596 477.168 238.768 448.698 238.882C420.228 238.997 397.056 216.01 396.941 187.54Z" fill="#263238"/>
<path d="M500.03 186.47C500.03 186.47 500.03 186.56 500.03 186.6C500.44 215.07 477.69 238.48 449.23 238.89C420.76 239.3 397.35 216.55 396.94 188.09C396.94 188.05 396.94 188 396.94 187.96L500.02 186.47H500.03Z" fill="#263238"/>
<path d="M484.68 186.82C484.97 206.81 469 223.24 449.01 223.53C429.02 223.82 412.59 207.85 412.3 187.86C412.01 167.87 427.98 151.44 447.97 151.15C467.96 150.86 484.39 166.83 484.68 186.82Z" fill="#FAFAFA"/>
<path d="M447.97 151.15C467.96 150.86 484.39 166.83 484.68 186.82L412.3 187.86C412.01 167.87 427.98 151.44 447.97 151.15Z" fill="#E0E0E0"/>
<path d="M470.54 187.03C470.72 199.21 460.99 209.22 448.81 209.39C436.63 209.57 426.62 199.84 426.45 187.66C426.27 175.48 436 165.47 448.18 165.3C460.36 165.12 470.37 174.85 470.54 187.03Z" fill="#263238"/>
<path d="M280.58 109.18C280.58 109.18 280.77 109.15 281.13 109.06C281.47 108.96 282 108.74 282.47 108.17C282.94 107.62 283.34 106.67 283.23 105.57C283.13 104.49 282.41 103.28 281.24 102.95C280.68 102.78 280.01 102.89 279.33 102.87C278.65 102.87 277.94 102.88 277.21 102.89C275.74 102.89 274.18 102.91 272.53 102.92C269.23 102.92 265.61 102.93 261.81 102.94C260.93 102.94 260.09 103.49 259.64 104.33C259.18 105.16 259.13 106.26 259.46 107.13C259.79 108.02 260.49 108.66 261.27 108.86C261.65 108.96 262.07 108.92 262.5 108.93C262.92 108.93 263.34 108.93 263.75 108.93C267.03 108.95 270 108.97 272.51 108.99C274.96 109.03 276.96 109.06 278.41 109.08C279.07 109.1 279.6 109.12 280.02 109.13C280.39 109.15 280.58 109.17 280.58 109.18C280.58 109.19 280.39 109.22 280.02 109.23C279.6 109.24 279.07 109.26 278.41 109.28C276.96 109.3 274.95 109.33 272.51 109.37C270 109.39 267.03 109.41 263.75 109.43C263.34 109.43 262.92 109.43 262.5 109.43C262.09 109.42 261.65 109.47 261.18 109.36C260.26 109.14 259.44 108.38 259.04 107.34C258.64 106.31 258.7 105.02 259.25 104.03C259.78 103.03 260.77 102.38 261.81 102.38C265.61 102.38 269.23 102.39 272.53 102.4C274.18 102.4 275.74 102.42 277.21 102.43C277.94 102.43 278.65 102.44 279.33 102.45C280.01 102.49 280.66 102.38 281.32 102.58C282.63 102.98 283.4 104.34 283.48 105.53C283.58 106.75 283.12 107.76 282.59 108.32C282.06 108.9 281.5 109.09 281.14 109.16C280.77 109.22 280.57 109.17 280.57 109.17L280.58 109.18Z" fill="#263238"/>
<path d="M146.59 106.14C146.59 106.14 146.78 106.11 147.14 106.02C147.48 105.92 148.01 105.7 148.48 105.13C148.95 104.58 149.35 103.64 149.24 102.53C149.14 101.45 148.42 100.24 147.25 99.9101C146.69 99.7401 146.02 99.8501 145.34 99.8301C144.66 99.8301 143.95 99.8401 143.22 99.8501C141.75 99.8501 140.19 99.8701 138.54 99.8801C135.24 99.8801 131.62 99.8901 127.82 99.9001C126.94 99.9001 126.1 100.45 125.65 101.29C125.19 102.12 125.14 103.22 125.47 104.09C125.8 104.98 126.5 105.62 127.28 105.82C127.66 105.92 128.08 105.88 128.51 105.89C128.93 105.89 129.35 105.89 129.76 105.89C133.04 105.91 136.01 105.93 138.52 105.95C140.97 105.99 142.97 106.02 144.42 106.04C145.08 106.06 145.61 106.08 146.03 106.09C146.4 106.11 146.59 106.13 146.59 106.15C146.59 106.17 146.4 106.19 146.03 106.2C145.61 106.21 145.08 106.23 144.42 106.25C142.97 106.27 140.96 106.3 138.52 106.34C136.01 106.36 133.04 106.38 129.76 106.4C129.35 106.4 128.93 106.4 128.51 106.4C128.1 106.39 127.66 106.44 127.19 106.33C126.27 106.11 125.45 105.35 125.05 104.31C124.65 103.28 124.71 101.99 125.26 101C125.79 100 126.78 99.3501 127.82 99.3501C131.62 99.3501 135.24 99.3601 138.54 99.3701C140.19 99.3701 141.75 99.3901 143.22 99.4001C143.95 99.4001 144.66 99.4101 145.34 99.4201C146.02 99.4601 146.67 99.3501 147.33 99.5501C148.64 99.9501 149.41 101.31 149.49 102.5C149.59 103.72 149.13 104.73 148.6 105.29C148.07 105.87 147.51 106.06 147.15 106.13C146.78 106.19 146.58 106.14 146.58 106.14H146.59Z" fill="#263238"/>
<path d="M312.94 76.8798C313.01 76.7598 305.11 71.8598 295.28 65.9598C285.45 60.0498 277.43 55.3598 277.35 55.4798C277.28 55.5998 285.18 60.4898 295.01 66.4098C304.83 72.3198 312.86 77.0098 312.93 76.8898L312.94 76.8798Z" fill="#263238"/>
<path d="M307.14 79.8402C307.22 79.7202 302.41 76.5302 296.41 72.7202C290.41 68.9102 285.48 65.9102 285.4 66.0402C285.32 66.1602 290.12 69.3502 296.13 73.1602C302.13 76.9702 307.06 79.9602 307.14 79.8402Z" fill="#263238"/>
<path d="M182.93 51.2299C182.84 51.3399 190.16 57.1999 199.27 64.3099C208.38 71.4199 215.84 77.0999 215.93 76.9799C216.02 76.8699 208.7 71.0099 199.59 63.8999C190.48 56.7899 183.02 51.1099 182.93 51.2299Z" fill="#263238"/>
<path d="M185.65 61.9198C185.61 61.9798 186.52 62.7298 188.04 63.8698C189.57 65.0098 191.72 66.5198 194.17 68.0998C196.62 69.6698 198.89 71.0098 200.56 71.9198C202.23 72.8398 203.29 73.3498 203.33 73.2898C203.37 73.2198 202.37 72.5998 200.75 71.5998C199.13 70.5998 196.89 69.2298 194.45 67.6598C192.01 66.0898 189.83 64.6298 188.25 63.5698C186.67 62.5098 185.69 61.8598 185.64 61.9198H185.65Z" fill="#263238"/>
<path d="M516.22 112.64C516.17 112.7 517.16 113.66 518.69 115.26C520.21 116.87 522.28 119.16 524 122.05C525.73 124.94 526.63 127.91 526.91 130.09C527.21 132.28 527.02 133.66 527.12 133.67C527.15 133.67 527.23 133.33 527.29 132.71C527.36 132.09 527.38 131.17 527.28 130.05C527.09 127.81 526.21 124.74 524.45 121.79C522.69 118.84 520.55 116.56 518.95 115C518.15 114.22 517.47 113.62 517 113.22C516.52 112.82 516.24 112.61 516.22 112.64Z" fill="#263238"/>
<path d="M14.8501 112.66C14.8501 112.66 14.8601 112.28 14.7901 111.62C14.7201 110.95 14.6001 109.99 14.4401 108.8C14.2701 107.57 14.0701 106.17 13.8601 104.63C13.6501 103.07 13.4401 101.34 13.4601 99.5402C13.4701 97.7402 13.7301 96.0202 14.2901 94.5702C14.8401 93.1202 15.6201 91.9302 16.4301 91.0802C18.0701 89.3602 19.6301 89.0602 19.5701 88.9502C19.5701 88.9302 19.4701 88.9502 19.3001 88.9902C19.1201 89.0302 18.8701 89.1002 18.5601 89.2302C17.9401 89.4902 17.0401 89.9602 16.1701 90.8302C15.2901 91.6802 14.4401 92.9002 13.8401 94.4002C13.2301 95.9002 12.9501 97.6902 12.9401 99.5402C12.9301 101.39 13.1501 103.14 13.3901 104.71C13.6401 106.24 13.8801 107.64 14.0801 108.86C14.2901 110.04 14.4601 110.99 14.5901 111.65C14.7201 112.31 14.8101 112.67 14.8501 112.66Z" fill="#263238"/>
<path opacity="0.2" d="M379.86 87.6098C379.86 87.6098 282.1 43.5298 280.68 43.3398C279.26 43.1498 253.99 40.5498 253.99 40.5498L351.74 89.2298L379.87 87.6098H379.86Z" fill="white"/>
<path opacity="0.2" d="M234.13 84.9602C234.13 84.9602 157.48 49.1702 156.05 48.9802C154.62 48.7902 141.09 53.5202 141.09 53.5202L206 83.2902L234.13 84.9602Z" fill="white"/>
<path d="M387.07 81.2901C385.31 79.1201 382.92 77.5601 380.56 76.0401C375.68 72.8801 370.58 69.6401 364.81 68.8901L363.16 69.0501C359.34 68.8401 355.66 71.0601 353.44 74.1701C351.22 77.2801 350.33 81.1801 350.18 85.0001C350.1 87.0801 350.23 89.2001 350.95 91.1501C351.67 93.1001 353.03 94.8801 354.91 95.7601C356.55 96.5301 358.43 96.5601 360.24 96.5801C365.99 96.6501 371.75 96.7201 377.47 96.0801C379.87 95.8101 382.3 95.4101 384.46 94.3401C386.62 93.2701 388.51 91.4301 389.15 89.1001C389.89 86.4001 388.83 83.4601 387.07 81.2901Z" fill="#00BAFF"/>
<path d="M387.07 81.2902C387.07 81.2902 387.29 81.6002 387.68 82.2102C388.06 82.8202 388.59 83.7502 388.96 85.0602C389.31 86.3502 389.49 88.1002 388.73 89.8702C387.98 91.6302 386.34 93.2702 384.15 94.2802C381.95 95.3202 379.27 95.7102 376.42 95.9702C373.56 96.2402 370.48 96.3502 367.24 96.3702C365.62 96.3802 363.96 96.3702 362.26 96.3502C360.57 96.3002 358.82 96.3802 357.11 96.1302C356.26 96.0002 355.42 95.7602 354.67 95.3402C353.92 94.9202 353.24 94.3502 352.68 93.6702C351.55 92.3102 350.88 90.5702 350.61 88.7502C350.27 86.3802 350.42 83.9602 350.78 81.6702C351.17 79.3802 351.88 77.1802 353.02 75.2902C355.22 71.4802 359.31 69.0602 363.15 69.2702H363.17H363.19C363.76 69.2102 364.3 69.1602 364.84 69.1102H364.79C368.62 69.6202 371.89 71.1302 374.64 72.6202C377.39 74.1302 379.68 75.6502 381.59 76.8602C383.49 78.0702 384.89 79.1602 385.77 79.9802C386.21 80.3902 386.53 80.7202 386.74 80.9502C386.95 81.1802 387.06 81.3002 387.07 81.2902C387.07 81.2902 386.98 81.1502 386.79 80.9102C386.59 80.6702 386.29 80.3102 385.86 79.8902C385.01 79.0302 383.62 77.9002 381.73 76.6502C379.84 75.4102 377.57 73.8602 374.81 72.3102C372.06 70.7802 368.75 69.2202 364.84 68.6802H364.82H364.79C364.25 68.7302 363.71 68.7802 363.14 68.8402H363.17C359.13 68.6002 354.88 71.1202 352.58 75.0502C351.4 77.0102 350.66 79.2602 350.27 81.6002C349.9 83.9402 349.74 86.3802 350.1 88.8402C350.38 90.7202 351.08 92.5602 352.28 94.0102C352.88 94.7302 353.6 95.3502 354.42 95.8002C355.24 96.2502 356.14 96.5002 357.03 96.6402C358.82 96.9002 360.56 96.8102 362.25 96.8502C363.95 96.8602 365.61 96.8702 367.24 96.8502C370.49 96.8202 373.58 96.6902 376.45 96.4002C379.32 96.1202 382.04 95.7002 384.3 94.6102C386.55 93.5502 388.24 91.8302 388.99 89.9802C389.76 88.1102 389.53 86.3002 389.14 85.0002C388.73 83.6702 388.16 82.7502 387.75 82.1502C387.54 81.8502 387.37 81.6302 387.25 81.5002C387.13 81.3602 387.06 81.2902 387.06 81.2902H387.07Z" fill="#263238"/>
</g>
<defs>
<clipPath id="clip0_120_165">
<rect width="535.83" height="238.9" fill="white" transform="matrix(-1 0 0 1 535.83 0)"/>
</clipPath>
<clipPath id="clip1_120_165">
<rect width="149" height="30" fill="white" transform="translate(207 110)"/>
</clipPath>
</defs>
</svg>
