<svg width="395" height="201" viewBox="0 0 395 201" fill="none" xmlns="http://www.w3.org/2000/svg">
<g clip-path="url(#clip0_86_1392)">
<path d="M49.8967 11.7811H33.8635L36.406 1.77538C36.6691 0.723303 37.6116 0 38.6965 0H44.8117C45.8747 0 46.7953 0.701384 47.0802 1.72058L47.672 3.82474L49.9077 11.7811H49.8967Z" fill="#446EF1"/>
<path style="mix-blend-mode:multiply" d="M49.8967 11.7811H33.8635L36.406 1.77538C36.6691 0.723303 37.6116 0 38.6965 0H44.8117C45.8747 0 46.7953 0.701384 47.0802 1.72058L47.672 3.82474L49.9077 11.7811H49.8967Z" fill="url(#paint0_linear_86_1392)"/>
<path style="mix-blend-mode:multiply" d="M49.8967 11.781H33.8635C40.8226 10.4988 45.261 6.6412 47.6611 3.82471L49.8967 11.781Z" fill="url(#paint1_linear_86_1392)"/>
<path d="M49.8967 11.7811H33.8635L36.406 1.77538C36.6691 0.723303 37.6116 0 38.6965 0H44.8117C45.8747 0 46.7953 0.701384 47.0802 1.72058L47.672 3.82474L49.9077 11.7811H49.8967Z" fill="url(#paint2_linear_86_1392)"/>
<path d="M38.2033 0.734304C38.4444 0.800059 37.9951 3.18915 37.206 6.06044C36.4169 8.9427 35.5731 11.2112 35.332 11.1455C35.0909 11.0797 35.5402 8.69063 36.3293 5.81934C37.1183 2.93709 37.9622 0.668549 38.2033 0.734304Z" fill="url(#paint3_linear_86_1392)"/>
<path d="M246.416 11.7811H220.903L223.446 1.77538C223.709 0.723303 224.651 0 225.736 0H241.32C242.383 0 243.304 0.701384 243.589 1.72058L244.181 3.82474L246.416 11.7811Z" fill="#446EF1"/>
<path style="mix-blend-mode:multiply" d="M246.416 11.7811H220.903L223.446 1.77538C223.709 0.723303 224.651 0 225.736 0H241.32C242.383 0 243.304 0.701384 243.589 1.72058L244.181 3.82474L246.416 11.7811Z" fill="url(#paint4_linear_86_1392)"/>
<path style="mix-blend-mode:multiply" d="M246.416 11.781H220.903C227.862 10.4988 241.78 6.6412 244.181 3.82471L246.416 11.781Z" fill="url(#paint5_linear_86_1392)"/>
<path d="M246.416 11.7811H220.903L223.446 1.77538C223.709 0.723303 224.651 0 225.736 0H241.32C242.383 0 243.304 0.701384 243.589 1.72058L244.181 3.82474L246.416 11.7811Z" fill="url(#paint6_linear_86_1392)"/>
<path d="M225.254 0.734298C225.495 0.800053 225.046 3.18914 224.257 6.06044C223.468 8.94269 222.624 11.2112 222.383 11.1455C222.142 11.0797 222.591 8.69063 223.38 5.81933C224.169 2.94804 225.013 0.668543 225.254 0.734298Z" fill="url(#paint7_linear_86_1392)"/>
<path d="M107.717 131.948H34.1924V168.365H107.717V131.948Z" fill="#2A3655"/>
<g style="mix-blend-mode:multiply">
<path d="M107.717 131.948H34.1924V168.365H107.717V131.948Z" fill="#2A3655"/>
</g>
<path d="M375.8 135.082H302.275V175.401H375.8V135.082Z" fill="#2A3655"/>
<g style="mix-blend-mode:multiply">
<path d="M375.8 135.082H302.275V175.401H375.8V135.082Z" fill="#2A3655"/>
</g>
<path d="M74.1932 200.41C89.1612 200.41 101.295 188.276 101.295 173.308C101.295 158.34 89.1612 146.206 74.1932 146.206C59.2253 146.206 47.0913 158.34 47.0913 173.308C47.0913 188.276 59.2253 200.41 74.1932 200.41Z" fill="#2A3655"/>
<path style="mix-blend-mode:multiply" d="M74.1932 200.41C89.1612 200.41 101.295 188.276 101.295 173.308C101.295 158.34 89.1612 146.206 74.1932 146.206C59.2253 146.206 47.0913 158.34 47.0913 173.308C47.0913 188.276 59.2253 200.41 74.1932 200.41Z" fill="url(#paint8_linear_86_1392)"/>
<path d="M74.1934 189.122C82.9273 189.122 90.0074 182.042 90.0074 173.308C90.0074 164.574 82.9273 157.494 74.1934 157.494C65.4596 157.494 58.3794 164.574 58.3794 173.308C58.3794 182.042 65.4596 189.122 74.1934 189.122Z" fill="#BBCCE0"/>
<path style="mix-blend-mode:multiply" d="M74.1934 189.122C82.9273 189.122 90.0074 182.042 90.0074 173.308C90.0074 164.574 82.9273 157.494 74.1934 157.494C65.4596 157.494 58.3794 164.574 58.3794 173.308C58.3794 182.042 65.4596 189.122 74.1934 189.122Z" fill="url(#paint9_linear_86_1392)"/>
<path d="M74.1933 180.716C78.2848 180.716 81.6017 177.399 81.6017 173.308C81.6017 169.216 78.2848 165.899 74.1933 165.899C70.1018 165.899 66.7849 169.216 66.7849 173.308C66.7849 177.399 70.1018 180.716 74.1933 180.716Z" fill="#808080"/>
<path style="mix-blend-mode:multiply" d="M74.1933 180.716C78.2848 180.716 81.6017 177.399 81.6017 173.308C81.6017 169.216 78.2848 165.899 74.1933 165.899C70.1018 165.899 66.7849 169.216 66.7849 173.308C66.7849 177.399 70.1018 180.716 74.1933 180.716Z" fill="url(#paint10_linear_86_1392)"/>
<path d="M339.043 200.41C354.011 200.41 366.145 188.276 366.145 173.308C366.145 158.34 354.011 146.206 339.043 146.206C324.075 146.206 311.941 158.34 311.941 173.308C311.941 188.276 324.075 200.41 339.043 200.41Z" fill="#2A3655"/>
<path style="mix-blend-mode:multiply" d="M339.043 200.41C354.011 200.41 366.145 188.276 366.145 173.308C366.145 158.34 354.011 146.206 339.043 146.206C324.075 146.206 311.941 158.34 311.941 173.308C311.941 188.276 324.075 200.41 339.043 200.41Z" fill="url(#paint11_linear_86_1392)"/>
<path d="M339.043 189.122C347.777 189.122 354.857 182.042 354.857 173.308C354.857 164.574 347.777 157.494 339.043 157.494C330.309 157.494 323.229 164.574 323.229 173.308C323.229 182.042 330.309 189.122 339.043 189.122Z" fill="#BBCCE0"/>
<path style="mix-blend-mode:multiply" d="M339.043 189.122C347.777 189.122 354.857 182.042 354.857 173.308C354.857 164.574 347.777 157.494 339.043 157.494C330.309 157.494 323.229 164.574 323.229 173.308C323.229 182.042 330.309 189.122 339.043 189.122Z" fill="url(#paint12_linear_86_1392)"/>
<path d="M339.043 180.716C343.134 180.716 346.451 177.399 346.451 173.308C346.451 169.216 343.134 165.899 339.043 165.899C334.951 165.899 331.635 169.216 331.635 173.308C331.635 177.399 334.951 180.716 339.043 180.716Z" fill="#808080"/>
<path style="mix-blend-mode:multiply" d="M339.043 180.716C343.134 180.716 346.451 177.399 346.451 173.308C346.451 169.216 343.134 165.899 339.043 165.899C334.951 165.899 331.635 169.216 331.635 173.308C331.635 177.399 334.951 180.716 339.043 180.716Z" fill="url(#paint13_linear_86_1392)"/>
<path d="M395 147.828C395 158.162 392.973 164.76 391.142 168.497C389.312 172.223 385.148 173.637 382.638 174.305C380.129 174.974 372.052 176.815 369.487 175.84C366.923 174.864 368.019 170.579 368.084 166.546C368.139 162.513 368.326 156.979 364.862 150.053C363.427 147.181 361.377 144.639 358.177 142.688C353.64 139.926 346.769 138.359 336.04 138.798C317.727 139.543 314.845 147.039 313.486 150.371C312.127 153.713 307.842 169.385 306.669 173.001C305.497 176.618 303.195 176.388 303.195 176.388H107.016C105.46 176.388 104.178 175.171 104.079 173.626C103.443 163.664 101.087 157.362 96.6377 149.001C91.7938 139.883 76.3304 139.302 62.5986 141.154C60.2424 141.472 58.1492 142.447 56.3191 143.85C47.486 150.59 44.4284 167.193 44.0229 167.927C43.5407 168.815 40.9215 169.79 35.3214 169.133C29.7213 168.475 7.41941 167.543 4.25223 165.023C1.07408 162.502 0.986404 147.675 0.986404 140.299C0.986404 132.924 1.79738 131.389 1.8193 131.345C1.8193 131.345 1.8193 131.324 1.79738 131.269C1.79738 131.269 1.79738 131.247 1.79738 131.236C1.77546 131.137 1.74258 130.951 1.68779 130.688C1.68779 130.644 1.67683 130.6 1.66587 130.556C1.64395 130.436 1.62203 130.304 1.60012 130.151C1.58916 130.074 1.5782 129.998 1.56724 129.921C1.54532 129.778 1.5234 129.614 1.49052 129.439C1.49052 129.373 1.46861 129.307 1.45765 129.241C1.43573 129.066 1.40285 128.88 1.38093 128.682C1.38093 128.606 1.35901 128.529 1.34806 128.441C1.34806 128.397 1.3371 128.343 1.32614 128.299C1.32614 128.244 1.31518 128.2 1.30422 128.145C1.2275 127.565 1.15079 126.896 1.07408 126.14C1.0412 125.833 1.00832 125.515 0.975444 125.175C0.975444 125.099 0.964485 125.033 0.953526 124.956C0.887771 124.244 0.822017 123.455 0.756262 122.6C0.734344 122.326 0.712425 122.052 0.690507 121.767C0.65763 121.285 0.624752 120.792 0.591875 120.277C0.558997 119.718 0.515161 119.137 0.482283 118.534C0.482283 118.458 0.482283 118.392 0.471324 118.315C0.460365 118.096 0.449406 117.877 0.438447 117.658C0.438447 117.603 0.438447 117.537 0.438447 117.482C0.438447 117.296 0.416529 117.099 0.405569 116.901C0.39461 116.66 0.383651 116.408 0.372692 116.156C0.372692 115.992 0.361733 115.827 0.350774 115.663C0.328856 115.279 0.317896 114.896 0.295978 114.501C0.295978 114.271 0.27406 114.041 0.27406 113.8C0.27406 113.526 0.252142 113.252 0.241183 112.967C0.241183 112.704 0.219264 112.43 0.208305 112.156C0.175428 111.279 0.153509 110.37 0.131591 109.416C0.131591 109.307 0.131591 109.186 0.131591 109.077C0.131591 108.967 0.131591 108.868 0.131591 108.759C0.131591 108.342 0.109673 107.926 0.109673 107.498C0.0877546 106.512 0.0767955 105.493 0.0548773 104.43C0.0548773 103.761 0.0439181 103.093 0.032959 102.402C0.032959 102.315 0.032959 102.227 0.032959 102.139C0.032959 101.833 0.032959 101.526 0.032959 101.219C0.032959 100.254 0.032959 99.2571 0.032959 98.227C0.032959 97.0215 0.032959 95.805 0.0439181 94.5776C0.0439181 94.2707 0.0439181 93.9529 0.0439181 93.6461C0.0439181 93.4269 0.0439181 93.2077 0.0439181 92.9775C0.0439181 92.0899 0.0658364 91.1912 0.0877546 90.2926C0.0877546 89.9857 0.0877546 89.6679 0.109673 89.3501C0.109673 89.0323 0.120632 88.7145 0.131591 88.3966C0.131591 88.1007 0.14255 87.8048 0.153509 87.5089C0.153509 87.0596 0.175428 86.6103 0.186387 86.161C0.208305 85.2185 0.241183 84.265 0.263101 83.3116C0.27406 82.8403 0.295978 82.3582 0.306937 81.8759C0.328856 81.3937 0.339815 80.9225 0.361733 80.4403C0.383651 79.9581 0.39461 79.4868 0.416529 79.0046C0.438447 78.5224 0.460365 78.0402 0.482283 77.558C0.504202 77.032 0.52612 76.5169 0.558997 75.9909C0.580916 75.6512 0.591875 75.3114 0.613793 74.9717C0.624752 74.6758 0.64667 74.3799 0.65763 74.095C0.679548 73.7443 0.690507 73.3936 0.712425 73.0429C0.734343 72.7251 0.745303 72.4073 0.767221 72.0894C0.789139 71.7497 0.811057 71.4209 0.822017 71.0812C0.843935 70.6648 0.876812 70.2483 0.898731 69.8209C0.920649 69.4045 0.953526 68.988 0.975444 68.5716C0.997363 68.1551 1.03024 67.7387 1.06312 67.3222C1.09599 66.9058 1.11791 66.4893 1.15079 66.0729C1.26038 64.5276 1.38093 62.9824 1.51244 61.4591L1.61107 60.3193C1.65491 59.7823 1.70971 59.2453 1.75354 58.7193C1.78642 58.3029 1.83026 57.8864 1.87409 57.4809C1.91793 57.0316 1.96177 56.5823 2.0056 56.1329C2.04944 55.7494 2.08232 55.3768 2.12615 54.9932C2.25766 53.711 2.41109 52.4397 2.55356 51.1794C2.58644 50.8945 2.61931 50.6205 2.65219 50.3356C2.69603 49.9739 2.73986 49.6232 2.7837 49.2616C2.81658 48.9657 2.86042 48.6698 2.90425 48.3739C2.95905 47.9793 3.00288 47.5958 3.05768 47.2122C3.09056 46.9492 3.12343 46.6971 3.16727 46.4451C3.24399 45.93 3.30974 45.4259 3.38645 44.9218L3.47413 44.3628C3.72619 42.7518 3.97825 41.1956 4.25223 39.6833C4.29606 39.4312 4.3399 39.1792 4.39469 38.9381C4.49333 38.412 4.59196 37.8969 4.69059 37.3928C4.71251 37.2942 4.73443 37.1956 4.74539 37.1079C4.77826 36.9325 4.8221 36.7572 4.85498 36.5819C4.89881 36.3517 4.95361 36.1106 4.99745 35.8805C5.24951 34.7188 5.50157 33.601 5.76459 32.527C5.80842 32.3735 5.8413 32.2201 5.88514 32.0667C5.96185 31.7598 6.03856 31.4639 6.11528 31.168C6.15911 30.9927 6.21391 30.8064 6.25775 30.631C6.29062 30.5215 6.3235 30.4009 6.35638 30.2913C6.52077 29.6995 6.69611 29.1187 6.8605 28.5598C6.89338 28.4392 6.93721 28.3187 6.97009 28.1981C7.1564 27.5954 7.35366 27.0255 7.55092 26.4666C7.5838 26.3679 7.61668 26.2803 7.64956 26.1816C7.8249 25.7104 8.00025 25.2501 8.17559 24.8117C14.1593 9.96212 26.2362 11.9238 26.2362 11.9238C26.2362 11.9238 242.986 11.0142 251.951 11.9238C260.904 12.8334 276.62 23.4419 293.617 37.1408C310.615 50.8506 332.358 71.8703 344.61 84.4733C349.048 89.0432 352.38 91.6405 355.284 93.5803C360.402 96.9995 364.205 98.3475 370.386 104.759C376.402 110.994 379.394 117.011 380.786 120.682C381.641 122.918 381.904 124.277 381.904 124.277C383.899 124.178 386.266 125.417 389.871 129.208C393.477 133 394.989 137.548 394.989 147.883L395 147.828Z" fill="white"/>
<path d="M0.526121 76.1001L8.99753 82.9057L8.87698 93.9196L0.131592 87.5524L0.526121 76.1001Z" fill="#CB4738"/>
<path d="M9.73185 54.0065L9.09622 72.9549L1.13989 66.0506C1.58922 59.8587 2.17005 53.8093 2.92623 48.1763L9.74281 54.0065H9.73185Z" fill="#CB4738"/>
<path d="M155.105 152.288H144.332L70.6316 11.7045C74.2262 11.6935 77.9633 11.6716 81.8209 11.6606L155.105 152.288Z" fill="#1954D8"/>
<path d="M141.307 152.288H130.534L56.8672 11.7592C60.3851 11.7373 64.1112 11.7263 68.0565 11.7153L141.307 152.288Z" fill="#1954D8"/>
<path d="M125.833 152.288H115.06L41.4146 11.8139C44.7023 11.7919 48.4503 11.781 52.5929 11.77L125.833 152.288Z" fill="#DB2D1B"/>
<path d="M171.094 152.288H161.516L160.058 151.762L86.5991 11.6496C90.2376 11.6386 93.9746 11.6277 97.7884 11.6167L171.094 152.288Z" fill="#DB2D1B"/>
<g style="mix-blend-mode:multiply">
<path d="M389.871 129.164C386.277 125.372 383.909 124.134 381.915 124.232C381.915 124.232 381.652 122.873 380.797 120.638C379.394 116.977 376.402 110.961 370.386 104.714C367.295 101.514 364.808 99.5632 362.451 98.007C360.084 96.4399 357.849 95.2453 355.295 93.5357C352.38 91.5959 349.059 88.9986 344.621 84.4287C332.38 71.8257 310.626 50.8061 293.628 37.0962C276.63 23.3863 260.915 12.7888 251.961 11.8792C246.438 11.3093 161.812 11.4409 97.7884 11.6272C93.9746 11.6272 90.2375 11.6491 86.5991 11.66C84.9881 11.671 83.3991 11.671 81.8209 11.671C77.9633 11.682 74.2263 11.7039 70.6317 11.7148C69.7659 11.7148 68.9111 11.7148 68.0563 11.7258C64.111 11.7367 60.3849 11.7477 56.867 11.7696C55.4094 11.7696 53.9847 11.7696 52.6039 11.7806C48.4613 11.7915 44.7133 11.8025 41.4256 11.8244H41.4146C31.9021 11.8573 26.2581 11.8792 26.2581 11.8792C26.2581 11.8792 14.1921 9.91753 8.20844 24.7672C8.02214 25.2055 7.84679 25.6658 7.68241 26.137C7.64953 26.2357 7.61665 26.3234 7.57281 26.422C7.37555 26.9809 7.18924 27.5617 6.99198 28.1535C6.9591 28.2741 6.91527 28.3946 6.88239 28.5261C6.70704 29.0851 6.54266 29.6659 6.37827 30.2577C6.34539 30.3673 6.31251 30.4769 6.27964 30.5974C6.22484 30.7728 6.181 30.9481 6.13717 31.1344C6.0495 31.4303 5.97278 31.7262 5.89607 32.0331C5.86319 32.1865 5.81935 32.3399 5.78648 32.4933C5.5125 33.5673 5.26044 34.6852 5.00838 35.8468C4.96454 36.077 4.90975 36.3071 4.86591 36.5373C4.83303 36.7126 4.7892 36.888 4.75632 37.0633C4.7344 37.1619 4.72344 37.2606 4.70152 37.3482C4.59193 37.8633 4.4933 38.3784 4.39467 38.9044C4.35083 39.1455 4.30699 39.3976 4.26316 39.6497C3.98918 41.162 3.72616 42.7292 3.4741 44.3402L3.39739 44.8991C3.32067 45.4032 3.24396 45.9073 3.16724 46.4224C3.13437 46.6745 3.10149 46.9375 3.05765 47.1895C3.01382 47.5731 2.95902 47.9676 2.90422 48.3622C2.86039 48.6471 2.82751 48.943 2.78367 49.2499C2.73984 49.6006 2.696 49.9512 2.65216 50.3129C2.61929 50.5978 2.58641 50.8718 2.55353 51.1567C2.4001 52.417 2.25764 53.6883 2.11517 54.9705C2.08229 55.3431 2.03845 55.7267 1.99462 56.1103C1.95078 56.5486 1.90694 57.0089 1.86311 57.4583C1.81927 57.8637 1.78639 58.2802 1.74256 58.6966C1.69872 59.2336 1.64392 59.7597 1.60009 60.2967C1.56721 60.6802 1.53433 61.0638 1.50146 61.4474C1.36995 62.9707 1.2494 64.505 1.1398 66.0502C1.10693 66.4667 1.08501 66.8831 1.05213 67.2996C1.01925 67.716 0.997335 68.1434 0.964458 68.5599C0.94254 68.9763 0.909662 69.3927 0.887744 69.8092C0.854867 70.2256 0.832948 70.653 0.81103 71.0695C0.789112 71.3983 0.767194 71.738 0.756235 72.0777C0.734316 72.3955 0.712398 72.7134 0.701439 73.0312C0.679521 73.3819 0.657602 73.7326 0.646643 74.0833C0.624725 74.3792 0.613766 74.6641 0.591848 74.96C0.580888 75.2997 0.55897 75.6395 0.548011 75.9792C0.526093 76.5052 0.493215 77.0313 0.471297 77.5463C0.449379 78.0285 0.427461 78.5107 0.416501 78.993C0.394583 79.4642 0.372665 79.9464 0.350747 80.4286C0.339787 80.9108 0.317869 81.382 0.30691 81.8642C0.284992 82.3464 0.274033 82.8177 0.252114 83.2999C0.230196 84.2533 0.197319 85.1958 0.1754 86.1493C0.164441 86.5986 0.153482 87.0479 0.142523 87.4972C0.131564 87.7931 0.131564 88.089 0.120605 88.3849C0.109646 88.7027 0.109646 89.0205 0.0986866 89.3384C0.0986866 89.6562 0.0986866 89.963 0.0986866 90.2808C0.0767683 91.1795 0.0658092 92.0672 0.0548501 92.9549V93.6234C0.0438909 93.9412 0.0438909 94.2481 0.0438909 94.5549C0.0438909 95.7823 0.0219727 96.9988 0.0219727 98.2043C0.0219727 99.2235 0.0329318 100.232 0.0329318 101.196C0.0329318 101.503 0.0329318 101.81 0.0329318 102.117V102.38C0.0438909 103.07 0.0438909 103.75 0.0548501 104.418C0.0658092 105.47 0.0877275 106.489 0.0986866 107.476C0.109646 107.903 0.120605 108.32 0.131564 108.736C0.131564 108.846 0.131564 108.944 0.142523 109.054V109.394C0.164441 110.347 0.197319 111.257 0.230196 112.133C0.230196 112.407 0.230196 112.681 0.252114 112.944C0.263074 113.229 0.274033 113.503 0.284992 113.777C0.295951 114.018 0.30691 114.248 0.30691 114.479C0.328828 114.873 0.339787 115.257 0.361706 115.64C0.361706 115.805 0.361706 115.969 0.383624 116.133C0.394583 116.386 0.405542 116.638 0.416501 116.879C0.427461 117.076 0.43842 117.262 0.449379 117.46C0.449379 117.514 0.449379 117.58 0.460338 117.635C0.471297 117.854 0.482256 118.073 0.493215 118.292C0.493215 118.369 0.504174 118.435 0.504174 118.512C0.537052 119.114 0.569929 119.695 0.613766 120.254C0.646643 120.78 0.679521 121.273 0.712398 121.755C0.734316 122.04 0.756234 122.314 0.778153 122.588C0.843908 123.443 0.909662 124.232 0.975417 124.945C0.975417 125.021 0.975417 125.098 0.997335 125.164C1.03021 125.504 1.06309 125.821 1.09597 126.128C1.17268 126.895 1.2494 127.553 1.32611 128.134C1.32611 128.188 1.32611 128.232 1.32611 128.287C1.33707 128.331 1.33707 128.386 1.34803 128.43C1.35899 128.517 1.36995 128.594 1.38091 128.671C1.40282 128.868 1.4357 129.054 1.45762 129.23L1.4905 129.427C1.51241 129.602 1.53433 129.756 1.55625 129.909C1.56721 129.986 1.58913 130.062 1.60009 130.139C1.62201 130.293 1.64392 130.424 1.66584 130.545C1.6768 130.589 1.6768 130.632 1.68776 130.665C1.7316 130.939 1.77543 131.115 1.79735 131.224C1.79735 131.235 1.79735 131.246 1.80831 131.257C1.80831 131.301 1.81927 131.334 1.81927 131.334C1.79735 131.378 0.975417 133.032 0.975417 140.287C0.975417 147.542 1.07405 162.491 4.24124 165.011C7.41939 167.532 29.7212 168.463 35.3104 169.121C40.9105 169.767 43.5297 168.792 44.0119 167.904C44.4174 167.181 47.475 150.567 56.3081 143.838C58.1492 142.435 60.2314 141.46 62.5877 141.142C76.3195 139.29 91.7828 139.871 96.6267 148.989C101.076 157.351 103.443 163.652 104.079 173.614C104.178 175.17 105.46 176.376 107.016 176.376H303.184C303.184 176.376 305.486 176.606 306.659 173C307.831 169.384 312.127 153.712 313.475 150.37C314.834 147.027 317.716 139.531 336.029 138.786C346.758 138.359 353.629 139.915 358.166 142.676C361.377 144.627 363.427 147.181 364.852 150.052C368.315 156.978 368.139 162.512 368.073 166.545C368.019 170.578 366.912 174.863 369.487 175.839C372.052 176.825 380.129 174.984 382.638 174.315C385.137 173.636 389.301 172.233 391.131 168.507C392.973 164.77 395 158.173 395 147.838C395 137.504 393.477 132.956 389.871 129.164ZM287.085 164.781H119.816C119.816 164.781 116.605 159.74 115.06 152.288H290.965C290.965 152.288 289.891 161.899 287.085 164.781Z" fill="#F4F4F4"/>
</g>
<path d="M56.308 143.828C47.4749 150.567 44.4173 167.171 44.0119 167.905C43.5297 168.792 40.9104 169.768 35.3103 169.11C29.7102 168.453 7.40835 167.521 4.24116 165.001C1.06301 162.48 0.975342 147.652 0.975342 140.277C0.975342 132.901 1.78632 131.367 1.80824 131.323C4.43843 130.227 48.0996 132.649 48.0996 132.649L56.297 143.828H56.308Z" fill="#2A3655"/>
<path d="M56.308 143.828C47.4749 150.567 44.4173 167.171 44.0119 167.905C43.5297 168.792 40.9104 169.768 35.3103 169.11C29.7102 168.453 7.40835 167.521 4.24116 165.001C1.06301 162.48 0.975342 147.652 0.975342 140.277C0.975342 132.901 1.78632 131.367 1.80824 131.323C4.43843 130.227 48.0996 132.649 48.0996 132.649L56.297 143.828H56.308Z" fill="#181E1E"/>
<path d="M395 147.828C395 158.162 392.973 164.76 391.143 168.497C389.312 172.223 385.148 173.636 382.638 174.305C380.129 174.974 372.052 176.815 369.487 175.839C366.923 174.864 368.019 170.579 368.085 166.546C368.139 162.513 368.326 156.979 364.863 150.052C363.427 147.181 361.378 144.639 358.177 142.688C358.177 142.688 366.978 135.334 365.356 124.967C365.356 124.967 373.356 125.285 381.926 124.244C383.921 124.145 386.288 125.383 389.893 129.175C393.499 132.967 395.011 137.515 395.011 147.85L395 147.828Z" fill="#181E1E"/>
<g style="mix-blend-mode:multiply">
<path d="M395 147.828C395 158.162 392.973 164.76 391.143 168.497C389.312 172.223 385.148 173.636 382.638 174.305C380.129 174.974 372.052 176.815 369.487 175.839C366.923 174.864 368.019 170.579 368.085 166.546C368.139 162.513 368.326 156.979 364.863 150.052C363.427 147.181 361.378 144.639 358.177 142.688C358.177 142.688 366.978 135.334 365.356 124.967C365.356 124.967 373.356 125.285 381.926 124.244C383.921 124.145 386.288 125.383 389.893 129.175C393.499 132.967 395.011 137.515 395.011 147.85L395 147.828Z" fill="#181E1E"/>
</g>
<path d="M376.03 135.827C377.531 137.844 378.693 140.036 379.613 142.239C380.545 144.441 381.268 146.655 381.904 148.825C382.211 149.91 382.507 150.94 382.792 151.926L382.934 152.431C382.934 152.496 382.989 152.496 383.044 152.496L383.186 152.518L383.449 152.562C383.701 152.595 383.942 152.628 384.183 152.661C384.666 152.715 385.137 152.77 385.597 152.825C387.438 153.011 389.082 153.11 390.529 153.132C391.953 153.154 393.027 153.088 393.74 153.022C394.452 152.946 394.803 152.88 394.803 152.836C394.803 152.748 394.277 152.748 393.225 152.737C392.173 152.726 390.77 152.683 388.972 152.54C388.074 152.463 387.077 152.376 386.003 152.244C385.466 152.178 384.896 152.102 384.315 152.025C384.041 151.981 383.767 151.948 383.493 151.904C383.471 151.904 383.471 151.904 383.471 151.894L383.361 151.466C382.704 149 381.937 146.14 380.742 143.017C380.413 142.173 379.953 141.022 379.274 139.641C378.594 138.26 377.685 136.616 376.348 134.885C375.011 133.153 373.224 131.356 370.912 129.745C368.599 128.134 365.75 126.775 362.506 125.69C355.975 123.564 348.358 122.676 340.029 122.392C335.875 122.293 331.448 122.129 326.9 122.929C322.374 123.707 317.76 125.372 313.563 128.112C307.612 132.025 302.965 138.129 299.842 145.23C298.253 148.781 297.058 152.617 296.138 156.65C295.688 158.666 295.327 160.727 295.042 162.842C294.899 163.894 294.779 164.968 294.691 166.053C294.647 166.59 294.603 167.138 294.571 167.686C294.549 168.091 294.538 168.497 294.516 168.913C289.343 168.913 282.658 168.913 275.798 168.913C251.676 168.913 227.27 168.913 202.536 168.913C177.823 168.924 153.855 168.935 130.633 168.946C124.835 168.946 119.192 168.946 113.712 168.957H112.769C112.769 168.957 112.715 168.957 112.726 168.935L112.704 168.617C112.66 167.938 112.616 167.258 112.561 166.579C112.452 165.231 112.298 163.883 112.145 162.557C111.783 159.905 111.312 157.307 110.676 154.787C110.008 152.277 109.219 149.833 108.21 147.521C107.191 145.208 105.986 143.028 104.583 141.022C101.799 136.989 98.0952 133.822 94.0951 131.63C90.0841 129.416 85.8648 128.211 81.8318 127.498C77.7879 126.808 73.8974 126.622 70.259 126.644C66.6096 126.644 63.1794 127.038 60.0341 127.641C56.9108 128.375 54.0614 129.372 51.6065 130.666C49.1736 132.003 47.2338 133.471 45.7324 134.907C44.2639 136.375 43.1899 137.734 42.4337 138.896C41.6995 140.069 41.2173 140.989 40.9652 141.625C40.8228 141.943 40.746 142.184 40.6912 142.348C40.6364 142.512 40.6255 142.6 40.6255 142.6C40.6255 142.6 40.6584 142.523 40.7241 142.37C40.7899 142.217 40.8775 141.986 41.031 141.68C41.305 141.066 41.7872 140.189 42.5105 139.071C43.2666 137.975 44.2858 136.649 45.7215 135.247C47.1791 133.888 49.0202 132.419 51.3654 131.148C51.9463 130.819 52.5819 130.567 53.1956 130.26C53.5134 130.118 53.8312 129.964 54.1491 129.822C54.4778 129.701 54.8176 129.581 55.1573 129.46C55.8368 129.23 56.5162 128.945 57.2395 128.737C57.9628 128.551 58.6971 128.364 59.4533 128.167C60.1985 127.948 60.9876 127.86 61.7766 127.729C62.5657 127.619 63.3657 127.444 64.1876 127.378C65.8425 127.279 67.5411 127.082 69.3165 127.093C72.8453 127.038 76.6043 127.203 80.5277 127.783C84.4291 128.397 88.5279 129.427 92.4622 131.378C96.3856 133.307 100.09 136.112 102.972 139.817C105.876 143.499 108.024 147.926 109.46 152.715C110.205 155.105 110.709 157.603 111.158 160.146C111.542 162.699 111.871 165.307 112.013 167.96L112.079 168.979L112.112 169.395V169.603C112.167 169.636 112.254 169.603 112.32 169.614H113.022C113.69 169.614 114.369 169.614 115.049 169.614C116.408 169.614 117.767 169.614 119.137 169.614C121.887 169.614 124.671 169.614 127.499 169.614C150.107 169.636 173.33 169.658 197.155 169.669C220.969 169.68 244.334 169.702 267.26 169.713C277.661 169.713 287.611 169.713 295.403 169.724L295.425 168.694L295.447 168.091C295.469 167.686 295.502 167.28 295.524 166.886C295.579 166.086 295.655 165.297 295.743 164.518C295.908 162.951 296.138 161.428 296.401 159.948C296.927 156.979 297.617 154.162 298.45 151.488C299.283 148.814 300.28 146.304 301.409 143.926C302.56 141.559 303.886 139.356 305.343 137.318C308.028 133.658 311.196 130.578 314.713 128.408C318.22 126.205 321.957 124.813 325.618 124.046C327.437 123.619 329.256 123.455 331.021 123.257C332.796 123.203 334.517 123.093 336.204 123.148C339.58 123.17 342.747 123.301 345.706 123.531C351.624 123.959 356.194 124.803 359.405 125.646C362.627 126.49 364.501 127.301 365.191 127.586C368.994 129.186 373.038 131.707 376.052 135.806L376.03 135.827Z" fill="#1C2439"/>
<path d="M8.98649 112.32H0.219183C0.0876731 108.517 0.0109591 104.035 0 98.7744C1.7425 99.158 8.50429 101.185 8.8769 109.295C8.92073 110.271 8.95361 111.29 8.98649 112.32Z" fill="#CB4738"/>
<path style="mix-blend-mode:multiply" d="M8.98649 112.32H0.219183C0.197264 111.608 0.175346 110.862 0.153428 110.106C0.0657548 106.807 0.0109591 103.048 0 98.7744C1.12879 99.0265 4.35078 99.958 6.5974 102.785C6.65219 102.84 6.69603 102.906 6.73987 102.972C7.89058 104.495 8.75635 106.544 8.8769 109.295C8.92073 110.271 8.95361 111.29 8.98649 112.32Z" fill="url(#paint14_linear_86_1392)"/>
<path style="mix-blend-mode:multiply" d="M8.98654 112.32H0.219238C0.219238 112.32 9.31532 108.912 6.73992 102.972C7.89063 104.495 8.7564 106.544 8.87695 109.295C8.92079 110.27 8.95367 111.29 8.98654 112.32Z" fill="url(#paint15_linear_86_1392)"/>
<path style="mix-blend-mode:color-dodge" d="M8.98649 112.32H0.219183C0.197264 111.608 0.175346 110.862 0.153428 110.106C0.0657548 106.807 0.0109591 103.048 0 98.7744C1.12879 99.0265 4.35078 99.958 6.5974 102.785C6.65219 102.84 6.69603 102.906 6.73987 102.972C7.89058 104.495 8.75635 106.544 8.8769 109.295C8.92073 110.271 8.95361 111.29 8.98649 112.32Z" fill="url(#paint16_linear_86_1392)"/>
<path d="M9.0523 122.709H0.778154C0.56993 120.024 0.372666 116.605 0.219238 112.32H8.98654C9.07422 115.772 9.08518 119.476 9.0523 122.709Z" fill="#BBCCE0"/>
<path style="mix-blend-mode:multiply" opacity="0.48" d="M9.05208 122.709H0.77794C0.756022 122.479 0.745063 122.249 0.723145 122.018C2.79442 121.558 8.6466 119.596 8.98633 112.331C9.074 115.783 9.08496 119.487 9.05208 122.72V122.709Z" fill="url(#paint17_linear_86_1392)"/>
<path style="mix-blend-mode:multiply" d="M9.0523 122.709H0.778154C0.756236 122.479 0.745277 122.249 0.723358 122.018C0.537053 119.443 0.350748 116.254 0.219238 112.331H8.98654C9.07422 115.783 9.08518 119.487 9.0523 122.72V122.709Z" fill="url(#paint18_linear_86_1392)"/>
<path d="M9.0523 122.709H0.778154C0.756236 122.479 0.745277 122.249 0.723358 122.018C0.537053 119.443 0.350748 116.254 0.219238 112.331H8.98654C9.07422 115.783 9.08518 119.487 9.0523 122.72V122.709Z" fill="url(#paint19_linear_86_1392)"/>
<path d="M9.05222 122.709C9.00839 127.772 8.87688 131.674 8.87688 131.674L1.81919 131.334C1.81919 131.334 1.27124 129.054 0.778076 122.72H9.05222V122.709Z" fill="#CB4738"/>
<path style="mix-blend-mode:multiply" d="M9.05219 122.709C9.00836 127.772 8.87685 131.674 8.87685 131.674L1.81917 131.334C1.81917 131.334 1.73149 130.961 1.58902 130.106C1.3808 128.835 1.06299 126.501 0.76709 122.709H9.04123H9.05219Z" fill="url(#paint20_linear_86_1392)"/>
<path style="mix-blend-mode:multiply" d="M9.05228 122.709C9.00844 127.772 8.87694 131.674 8.87694 131.674L1.81925 131.334C1.81925 131.334 1.73158 130.961 1.58911 130.106C8.14267 129.263 9.05228 122.709 9.05228 122.709Z" fill="url(#paint21_linear_86_1392)"/>
<path style="mix-blend-mode:color-dodge" d="M9.05219 122.709C9.00836 127.772 8.87685 131.674 8.87685 131.674L1.81917 131.334C1.81917 131.334 1.73149 130.961 1.58902 130.106C1.3808 128.835 1.06299 126.501 0.76709 122.709H9.04123H9.05219Z" fill="url(#paint22_linear_86_1392)"/>
<path d="M6.33417 115.629C7.05747 123.98 6.46568 130.862 5.00812 130.983C3.55055 131.103 1.78613 124.44 1.06283 116.078C0.339527 107.728 0.93132 100.845 2.38888 100.725C3.84645 100.604 5.61087 107.267 6.33417 115.629Z" fill="url(#paint23_linear_86_1392)"/>
<path d="M8.48226 123.181C8.50418 124.529 8.54801 125.8 8.59185 126.995C8.63569 128.178 8.69048 129.154 8.75624 129.921C8.82199 130.677 8.89871 131.049 8.98638 131.049C9.06309 131.049 9.12885 130.907 9.17268 130.633C9.21652 130.348 9.2494 129.975 9.27132 129.504C9.29323 129.022 9.30419 128.452 9.30419 127.773C9.30419 127.104 9.30419 126.326 9.30419 125.449C9.30419 124.496 9.30419 122.227 9.30419 118.655C9.30419 115.071 9.31515 110.687 9.32611 105.482C9.34803 100.276 9.36995 94.5008 9.39187 88.1335C9.4357 81.7772 9.46858 75.3442 9.56721 68.8235C9.62201 65.5687 9.65489 62.3686 9.84119 59.2233C10.0494 56.0671 10.2576 52.9657 10.4659 49.919C10.8604 43.8148 11.2111 38.39 11.5179 33.6228C11.7919 28.8665 12.0221 25.0418 12.1864 22.1376C12.2632 20.691 12.307 19.6061 12.3289 18.8718C12.3508 18.1485 12.3289 17.7868 12.307 17.7759C12.2851 17.7759 12.2303 18.1266 12.1645 18.828C12.0988 19.5293 12.0111 20.5814 11.8796 21.9951C11.6604 24.8116 11.3645 28.5268 11.0029 33.1625C10.6631 37.8092 10.2686 43.0915 9.81927 49.0423C9.41379 54.9821 8.82199 61.0973 8.78912 67.3879C8.66856 73.6675 8.60281 79.8265 8.54801 85.865C8.51514 91.9034 8.48226 97.3501 8.44938 102.205C8.43842 107.049 8.42746 111.038 8.4165 114.183C8.4165 117.318 8.4165 119.093 8.4165 119.488C8.4165 120.594 8.42746 121.833 8.44938 123.181H8.48226Z" fill="#1C2439"/>
<path d="M130.732 93.9199H16.4717V99.1365H130.732V93.9199Z" fill="#808080"/>
<path style="mix-blend-mode:multiply" d="M130.732 93.9199H16.4717V99.1365H130.732V93.9199Z" fill="url(#paint24_linear_86_1392)"/>
<path d="M17.0853 49.009C17.0525 48.3624 17.0086 47.7487 16.9538 47.1788C16.899 46.6089 16.8333 46.1486 16.7675 45.787C16.7018 45.4253 16.6251 45.25 16.5374 45.25C16.4607 45.25 16.3949 45.3158 16.3511 45.4473C16.3072 45.5788 16.2744 45.7651 16.2524 45.9843C16.2305 46.2144 16.2196 46.4884 16.2305 46.8172C16.2305 47.135 16.2305 47.5076 16.2415 47.924C16.2415 48.3843 16.2634 49.4693 16.2744 51.1789C16.2853 52.8885 16.2963 54.9927 16.3182 57.4913C16.3182 59.9791 16.3292 62.7517 16.3401 65.7984C16.3401 68.845 16.3182 71.9245 16.3072 75.0479C16.2853 78.1712 16.2634 81.196 16.2415 84.122C16.2196 87.0481 16.1976 89.6564 16.1867 91.9469C16.1757 94.2264 16.1757 96.0675 16.1867 97.4593C16.1976 98.8511 16.2524 99.5415 16.3182 99.5415C16.373 99.5415 16.4278 98.873 16.5045 97.5141C16.5812 96.1661 16.647 94.3798 16.7237 92.1551C16.7894 89.9304 16.8552 87.3879 16.9429 84.5385C16.9977 81.6782 17.0525 78.7521 17.1073 75.7383C17.1401 72.7355 17.162 69.7765 17.184 66.8833C17.184 63.9901 17.184 61.3818 17.1949 59.0585C17.184 56.7352 17.173 54.8283 17.162 53.3159C17.1511 51.8145 17.1401 50.9597 17.1401 50.7734C17.1401 50.2364 17.1182 49.6556 17.0853 48.998V49.009Z" fill="#1C2439"/>
<path d="M32.1651 44.7019C29.4473 44.7458 26.8828 44.7896 24.4718 44.8334C22.0827 44.8882 20.121 44.954 18.5868 45.0307C17.0744 45.1074 16.3073 45.1951 16.3182 45.2718C16.3182 45.3485 16.5922 45.4143 17.1621 45.4472C17.721 45.491 18.4772 45.5129 19.4416 45.5348C20.4169 45.5348 21.5677 45.5348 22.9375 45.5458C24.2965 45.5458 25.8527 45.5458 27.6171 45.5348C29.5349 45.5348 34.1049 45.5348 41.316 45.5129C48.5271 45.5129 57.3711 45.5129 67.87 45.5239C78.3579 45.5348 90.0184 45.5567 102.83 45.5677C115.641 45.5896 128.616 45.6225 141.756 45.6444C154.886 45.6773 167.62 45.6992 179.96 45.7321C192.289 45.754 203.259 45.7759 212.881 45.7978C222.492 45.8088 230.219 45.8307 236.06 45.8307C238.986 45.8307 241.178 45.8307 242.635 45.8307C243.37 45.8307 243.907 45.8088 244.279 45.8088C244.641 45.7978 244.827 45.7869 244.827 45.765C244.827 45.754 244.652 45.7321 244.29 45.7211C243.939 45.7102 243.402 45.6883 242.69 45.6554C241.265 45.6115 239.139 45.5458 236.29 45.5129C230.602 45.4472 223.084 45.3595 213.714 45.2499C204.333 45.1841 193.648 45.1074 181.637 45.0197C169.626 44.965 157.286 44.8992 144.628 44.8444C131.97 44.8006 119.564 44.7567 107.378 44.7129C95.2021 44.691 84.232 44.6581 74.4564 44.6362C64.6918 44.6362 56.6478 44.6252 50.3135 44.6143C43.99 44.6143 40.4174 44.6143 39.6173 44.6143C37.3817 44.6252 34.894 44.6471 32.1651 44.6581V44.7019Z" fill="#1C2439"/>
<path d="M32.1651 98.8513C29.4473 98.8952 26.8828 98.939 24.4718 98.9829C22.0827 99.0376 20.121 99.1034 18.5868 99.1801C17.0744 99.2568 16.3073 99.3445 16.3182 99.4212C16.3182 99.4979 16.5922 99.5637 17.1621 99.5966C17.721 99.6404 18.4772 99.6623 19.4416 99.6842C20.4169 99.6842 21.5677 99.6842 22.9375 99.6952C24.2965 99.6952 25.8527 99.6952 27.6171 99.6842C29.5349 99.6842 34.1049 99.6842 41.316 99.6623C48.5271 99.6623 57.3711 99.6623 67.87 99.6733C78.3579 99.6842 90.0184 99.7062 102.83 99.7171C115.641 99.739 128.616 99.7719 141.756 99.7938C154.886 99.8267 167.62 99.8486 179.96 99.8815C192.289 99.9034 203.259 99.9253 212.881 99.9473C222.492 99.9582 230.219 99.9801 236.06 99.9801C238.986 99.9801 241.178 99.9801 242.635 99.9801C243.37 99.9801 243.907 99.9582 244.279 99.9582C244.641 99.9473 244.827 99.9363 244.827 99.9144C244.827 99.9034 244.652 99.8815 244.29 99.8705C243.939 99.8596 243.402 99.8377 242.69 99.8048C241.265 99.7609 239.139 99.6952 236.29 99.6623C230.602 99.5966 223.084 99.5089 213.714 99.3993C204.333 99.3335 193.648 99.2568 181.637 99.1692C169.626 99.1144 157.286 99.0486 144.628 98.9938C131.97 98.95 119.564 98.9061 107.378 98.8623C95.2021 98.8404 84.232 98.8075 74.4564 98.7856C64.6918 98.7856 56.6478 98.7746 50.3135 98.7637C43.99 98.7637 40.4174 98.7637 39.6173 98.7637C37.3817 98.7746 34.894 98.7966 32.1651 98.8075V98.8513Z" fill="#1C2439"/>
<path d="M24.2525 93.547C22.8936 93.5908 21.6114 93.6347 20.4059 93.6785C19.2113 93.7333 18.225 93.799 17.4579 93.8758C16.7017 93.9525 16.3181 94.0292 16.3181 94.1169C16.3181 94.1936 16.4606 94.2593 16.7455 94.3032C17.0305 94.347 17.4031 94.3799 17.8853 94.3908C18.3675 94.4128 18.9483 94.4128 19.6278 94.4128C20.3072 94.4128 21.0853 94.4128 21.973 94.4018C22.9374 94.4018 25.2279 94.3908 28.8334 94.3799C32.45 94.3799 36.8774 94.3799 42.1269 94.3799C47.3763 94.3908 53.2175 94.4128 59.6286 94.4237C66.0397 94.4456 72.5385 94.4785 79.1139 94.5114C85.6894 94.5443 92.0676 94.5771 98.2376 94.61C104.408 94.6429 109.909 94.6648 114.72 94.6867C119.531 94.6977 123.4 94.7196 126.326 94.7196C127.794 94.7196 128.89 94.7196 129.614 94.7087C130.348 94.6977 130.71 94.6648 130.71 94.6319C130.71 94.61 130.359 94.5771 129.646 94.5333C128.934 94.5004 127.871 94.4566 126.446 94.4018C123.597 94.3141 119.838 94.2265 115.137 94.1388C110.435 94.073 105.087 93.9854 99.0705 93.8977C93.054 93.8319 86.873 93.7771 80.5386 93.7114C74.2042 93.6675 67.9904 93.6237 61.8862 93.5799C55.7929 93.5579 50.2914 93.5251 45.4037 93.5031C40.5159 93.5031 36.4829 93.5031 33.3157 93.4922C30.1485 93.4922 28.3622 93.4922 27.9567 93.4922C26.8389 93.4922 25.5895 93.5141 24.2196 93.547H24.2525Z" fill="#1C2439"/>
<path d="M131.291 28.5703C131.247 26.6854 131.192 24.899 131.148 23.2333C131.093 21.5675 131.017 20.2085 130.94 19.1455C130.863 18.0934 130.786 17.5674 130.699 17.5674C130.622 17.5674 130.556 17.7646 130.523 18.1592C130.48 18.5537 130.458 19.0688 130.436 19.7373C130.425 20.4058 130.414 21.2168 130.425 22.1593C130.425 23.1017 130.425 24.1867 130.436 25.4032C130.436 26.7402 130.458 29.9074 130.469 34.9047C130.469 39.9131 130.491 46.0502 130.501 53.338C130.501 60.6149 130.501 68.7137 130.501 77.6125C130.501 86.5113 130.491 95.5197 130.48 104.638C130.469 113.756 130.458 122.6 130.447 131.159C130.436 139.718 130.425 147.334 130.414 154.009C130.414 160.683 130.414 166.042 130.403 170.108C130.403 172.135 130.403 173.658 130.414 174.677C130.425 175.697 130.447 176.201 130.491 176.201C130.501 176.201 130.512 176.08 130.534 175.828C130.545 175.576 130.567 175.214 130.589 174.721C130.622 173.735 130.688 172.256 130.721 170.283C130.808 166.338 130.885 161.11 130.962 154.611C131.017 148.102 131.082 140.682 131.148 132.342C131.192 124.002 131.236 115.432 131.28 106.643C131.301 97.854 131.334 89.2401 131.356 80.7797C131.356 72.3302 131.378 64.7136 131.378 57.9189C131.378 51.1352 131.367 45.557 131.356 41.1514C131.345 36.7568 131.334 34.2801 131.334 33.7211C131.312 32.1649 131.301 30.4444 131.28 28.5484L131.291 28.5703Z" fill="#1C2439"/>
<path d="M245.002 28.5703C244.959 26.6854 244.904 24.899 244.86 23.2333C244.805 21.5675 244.728 20.2085 244.652 19.1455C244.575 18.0934 244.498 17.5674 244.411 17.5674C244.334 17.5674 244.268 17.7646 244.235 18.1592C244.191 18.5537 244.17 19.0688 244.148 19.7373C244.137 20.4058 244.126 21.2168 244.137 22.1593C244.137 23.1017 244.137 24.1867 244.148 25.4032C244.148 26.7402 244.17 29.9074 244.18 34.9047C244.18 39.9131 244.202 46.0502 244.213 53.338C244.213 60.6149 244.213 68.7137 244.213 77.6125C244.213 86.5113 244.202 95.5197 244.191 104.638C244.181 113.756 244.17 122.6 244.159 131.159C244.148 139.718 244.137 147.334 244.126 154.009C244.126 160.683 244.126 166.042 244.115 170.108C244.115 172.135 244.115 173.658 244.126 174.677C244.137 175.697 244.159 176.201 244.202 176.201C244.213 176.201 244.224 176.08 244.246 175.828C244.257 175.576 244.279 175.214 244.301 174.721C244.334 173.735 244.4 172.256 244.433 170.283C244.52 166.338 244.597 161.11 244.674 154.611C244.728 148.102 244.794 140.682 244.86 132.342C244.904 124.002 244.948 115.432 244.991 106.643C245.013 97.854 245.046 89.2401 245.068 80.7797C245.068 72.3302 245.09 64.7136 245.09 57.9189C245.09 51.1352 245.079 45.557 245.068 41.1514C245.057 36.7568 245.046 34.2801 245.046 33.7211C245.024 32.1649 245.013 30.4444 244.991 28.5484L245.002 28.5703Z" fill="#1C2439"/>
<path d="M262.559 119.115C260.356 119.115 258.57 117.329 258.57 115.126V105.953C258.57 103.75 260.356 101.964 262.559 101.964C264.762 101.964 266.548 103.75 266.548 105.953V115.126C266.548 117.329 264.762 119.115 262.559 119.115Z" fill="#2A3655"/>
<path style="mix-blend-mode:multiply" d="M262.559 119.115C260.356 119.115 258.57 117.329 258.57 115.126V105.953C258.57 103.75 260.356 101.964 262.559 101.964C264.762 101.964 266.548 103.75 266.548 105.953V115.126C266.548 117.329 264.762 119.115 262.559 119.115Z" fill="url(#paint25_linear_86_1392)"/>
<path d="M232.914 119.115C230.712 119.115 228.925 117.329 228.925 115.126V105.953C228.925 103.75 230.712 101.964 232.914 101.964C235.117 101.964 236.904 103.75 236.904 105.953V115.126C236.904 117.329 235.117 119.115 232.914 119.115Z" fill="#2A3655"/>
<path style="mix-blend-mode:multiply" d="M232.914 119.115C230.712 119.115 228.925 117.329 228.925 115.126V105.953C228.925 103.75 230.712 101.964 232.914 101.964C235.117 101.964 236.904 103.75 236.904 105.953V115.126C236.904 117.329 235.117 119.115 232.914 119.115Z" fill="url(#paint26_linear_86_1392)"/>
<path d="M340.719 104.221C340.719 104.221 334.867 104.298 326.22 104.122C313.913 103.87 295.962 103.114 281.189 100.889C256.038 97.0974 259.83 47.0471 259.83 47.0471C278.285 44.647 291.929 49.5786 295.601 51.9787C298.275 53.7321 315.217 69.7544 326.582 81.5683C330.79 85.952 334.242 89.7548 335.919 92.0453C342.111 100.517 340.719 104.221 340.719 104.221Z" fill="#446EF1"/>
<path style="mix-blend-mode:multiply" d="M340.719 104.221C340.719 104.221 334.867 104.298 326.22 104.122C313.913 103.87 295.962 103.114 281.189 100.889C256.038 97.0974 259.83 47.0471 259.83 47.0471C278.285 44.647 291.929 49.5786 295.601 51.9787C298.275 53.7321 315.217 69.7544 326.582 81.5683C330.79 85.952 334.242 89.7548 335.919 92.0453C342.111 100.517 340.719 104.221 340.719 104.221Z" fill="url(#paint27_linear_86_1392)"/>
<path d="M340.719 104.221C340.719 104.221 334.867 104.298 326.22 104.122L326.582 81.5684C330.79 85.952 334.243 89.7548 335.919 92.0453C342.111 100.517 340.719 104.221 340.719 104.221Z" fill="#2A3655"/>
<path style="mix-blend-mode:multiply" d="M340.719 104.221C340.719 104.221 334.867 104.298 326.22 104.122L326.582 81.5684C330.79 85.952 334.243 89.7548 335.919 92.0453C342.111 100.517 340.719 104.221 340.719 104.221Z" fill="url(#paint28_linear_86_1392)"/>
<path d="M334.045 90.3359C334.933 91.3661 335.722 92.4072 336.456 93.4483C337.191 94.4894 337.859 95.5306 338.451 96.5717C339.613 98.643 340.325 100.473 340.621 101.975C340.906 103.454 340.73 104.221 340.796 104.254C340.873 104.276 341.037 104.002 341.114 103.399C341.191 102.807 341.158 102.007 340.961 101.032C340.763 100.046 340.391 98.906 339.788 97.6457C339.196 96.3963 338.429 94.9936 337.443 93.5031C336.895 92.7031 335.985 91.3113 334.484 89.5578C332.993 87.7934 331.01 85.6016 328.522 82.9714C323.525 77.711 317.256 71.4205 309.639 64.1107C305.826 60.4723 301.815 56.6256 297.354 52.7899C296.795 52.3297 296.214 51.8146 295.546 51.42C294.888 51.0146 294.209 50.6858 293.508 50.368C292.127 49.7323 290.669 49.2282 289.201 48.757C286.242 47.8364 283.14 47.1569 279.94 46.6967C273.529 45.7542 266.964 45.7542 260.466 46.5323L259.578 46.6309L259.425 46.6528C259.425 46.6528 259.414 46.7515 259.403 46.7953L259.381 47.1021L259.348 47.5624L259.282 48.7899L259.205 51.2447C259.173 52.8886 259.162 54.5215 259.205 56.1654C259.26 59.4531 259.447 62.7518 259.775 66.0505C260.455 72.626 261.649 79.1028 263.973 85.1303C265.145 88.1331 266.625 91.0154 268.575 93.5579C270.515 96.0895 272.959 98.2594 275.819 99.6402C276.51 100.035 277.266 100.276 278 100.528C278.724 100.824 279.491 100.955 280.247 101.12C281.003 101.306 281.737 101.394 282.472 101.492C283.206 101.591 283.94 101.69 284.663 101.788C287.568 102.172 290.395 102.468 293.146 102.731C298.636 103.246 303.798 103.586 308.631 103.827C318.275 104.298 326.034 104.44 331.908 104.375C334.845 104.353 337.048 104.342 338.517 104.331C339.251 104.309 339.799 104.298 340.171 104.298C340.533 104.287 340.719 104.265 340.719 104.243C340.719 104.232 340.544 104.221 340.182 104.199C339.821 104.199 339.295 104.177 338.582 104.155C337.158 104.133 335.01 104.101 332.16 104.057C326.451 104.024 318.9 103.838 309.508 103.322C304.806 103.059 299.787 102.72 294.45 102.205C291.776 101.953 289.036 101.657 286.209 101.295C283.392 100.89 280.433 100.681 277.661 99.6512C274.877 98.621 272.389 96.8347 270.384 94.5881C268.367 92.3414 266.8 89.6893 265.54 86.8948C263.041 81.2727 261.715 75.0918 260.904 68.8341C260.115 62.5545 259.885 56.264 260.082 50.0502C260.104 49.2721 260.137 48.5049 260.181 47.7268L260.203 47.42H260.225L260.389 47.398L261.54 47.2775C263.074 47.0912 264.608 47.0145 266.143 46.9158C269.211 46.7953 272.269 46.8172 275.304 47.0583C281.354 47.5624 287.075 48.7351 292.138 50.7515C293.387 51.2776 294.625 51.8255 295.655 52.5708C296.686 53.3489 297.683 54.2365 298.647 55.0914C300.587 56.8229 302.439 58.5325 304.226 60.2093C311.371 66.9163 317.103 72.5931 321.585 77.1083C326.045 81.6125 328.489 84.2317 329.037 84.8235C330.56 86.4564 332.27 88.2866 334.045 90.3578V90.3359Z" fill="#1C2439"/>
<path d="M324.204 77.6235H321.881C320.017 77.6235 318.505 79.1348 318.505 80.999V103.641C318.505 105.505 320.017 107.016 321.881 107.016H324.204C326.068 107.016 327.58 105.505 327.58 103.641V80.999C327.58 79.1348 326.068 77.6235 324.204 77.6235Z" fill="#2A3655"/>
<path style="mix-blend-mode:multiply" d="M324.204 77.6235H321.881C320.017 77.6235 318.505 79.1348 318.505 80.999V103.641C318.505 105.505 320.017 107.016 321.881 107.016H324.204C326.068 107.016 327.58 105.505 327.58 103.641V80.999C327.58 79.1348 326.068 77.6235 324.204 77.6235Z" fill="url(#paint29_linear_86_1392)"/>
<path d="M325.475 89.1528V97.9091C325.475 99.1804 324.445 100.2 323.185 100.2H318.505V86.8623H323.185C324.456 86.8623 325.475 87.8925 325.475 89.1528Z" fill="#BBCCE0"/>
<path style="mix-blend-mode:multiply" d="M325.475 89.1528V97.8982C325.475 99.1694 324.445 100.2 323.174 100.2H318.494V86.8623H323.174C324.445 86.8623 325.475 87.8925 325.475 89.1637V89.1528Z" fill="url(#paint30_linear_86_1392)"/>
<path style="mix-blend-mode:multiply" d="M325.475 89.1963V97.9088C325.475 99.1801 324.445 100.21 323.174 100.21H318.494C325.322 95.5307 325.464 89.7114 325.464 89.1963H325.475Z" fill="url(#paint31_linear_86_1392)"/>
<path d="M325.475 89.1528V97.8982C325.475 99.1694 324.445 100.2 323.174 100.2H318.494V86.8623H323.174C324.445 86.8623 325.475 87.8925 325.475 89.1637V89.1528Z" fill="url(#paint32_linear_86_1392)"/>
<path d="M320.357 93.7009C320.27 96.9119 319.93 99.5092 319.579 99.4983C319.239 99.4983 319.031 96.879 319.108 93.668C319.185 90.457 319.535 87.8597 319.886 87.8706C320.226 87.8706 320.434 90.4899 320.357 93.7009Z" fill="url(#paint33_linear_86_1392)"/>
<path d="M210.492 109.745H202.634V142.008H210.492V109.745Z" fill="#446EF1"/>
<path d="M189.416 130.789L193.187 137.683L223.723 120.979L219.952 114.085L189.416 130.789Z" fill="#446EF1"/>
<path d="M193.176 114.055L189.399 120.945L219.921 137.676L223.698 130.786L193.176 114.055Z" fill="#446EF1"/>
<g style="mix-blend-mode:multiply">
<path d="M290.965 152.288C290.965 152.288 289.891 161.899 287.085 164.781H119.816C119.816 164.781 116.605 159.74 115.06 152.288H290.965Z" fill="#181E1E"/>
</g>
<path d="M138.48 16.9098C137.121 16.9536 135.839 16.9974 134.633 17.0413C133.439 17.0961 132.452 17.1618 131.685 17.2385C130.929 17.3153 130.545 17.392 130.545 17.4797C130.545 17.5564 130.688 17.6221 130.973 17.666C131.258 17.7098 131.63 17.7427 132.113 17.7536C132.595 17.7755 133.176 17.7755 133.855 17.7755C134.535 17.7755 135.313 17.7755 136.2 17.7646C137.165 17.7646 139.455 17.7536 143.061 17.7427C146.677 17.7427 151.105 17.7427 156.354 17.7427C161.604 17.7536 167.445 17.7755 173.856 17.7865C180.267 17.8084 186.766 17.8413 193.341 17.8742C199.917 17.9071 206.295 17.9399 212.476 17.9728C218.646 18.0057 224.147 18.0276 228.958 18.0495C233.769 18.0605 237.638 18.0824 240.564 18.0824C242.033 18.0824 243.129 18.0824 243.852 18.0714C244.586 18.0605 244.948 18.0276 244.948 17.9947C244.948 17.9728 244.597 17.9399 243.885 17.8961C243.172 17.8632 242.109 17.8194 240.685 17.7646C237.835 17.6769 234.076 17.5892 229.375 17.5016C224.673 17.4358 219.325 17.3481 213.309 17.2605C207.292 17.1947 201.111 17.1399 194.777 17.0742C188.443 17.0303 182.229 16.9865 176.124 16.9427C170.031 16.9207 164.53 16.8879 159.642 16.8659C154.754 16.8659 150.721 16.8659 147.554 16.855C144.387 16.855 142.6 16.855 142.195 16.855C141.077 16.855 139.828 16.8769 138.458 16.9098H138.48Z" fill="#1C2439"/>
<path d="M380.797 120.627C380.797 120.627 360.073 124.463 355.295 93.5249C360.413 96.9442 364.216 98.2921 370.397 104.703C376.413 110.939 379.405 116.956 380.797 120.627Z" fill="#BBCCE0"/>
<path style="mix-blend-mode:multiply" d="M380.797 120.627C380.797 120.627 367.054 123.169 359.372 107.41C357.618 103.816 356.183 99.2675 355.295 93.5249C360.413 96.9442 364.216 98.2921 370.397 104.703C373.312 107.728 375.525 110.709 377.18 113.383C378.934 116.221 380.084 118.731 380.797 120.616V120.627Z" fill="url(#paint34_linear_86_1392)"/>
<path style="mix-blend-mode:multiply" d="M380.797 120.627C380.797 120.627 367.054 123.169 359.372 107.41C359.372 107.41 375.295 118.062 377.18 113.394C378.934 116.232 380.085 118.742 380.797 120.627Z" fill="url(#paint35_linear_86_1392)"/>
<path d="M380.797 120.627C380.797 120.627 367.054 123.169 359.372 107.41C357.618 103.816 356.183 99.2675 355.295 93.5249C360.413 96.9442 364.216 98.2921 370.397 104.703C373.312 107.728 375.525 110.709 377.18 113.383C378.934 116.221 380.084 118.731 380.797 120.616V120.627Z" fill="url(#paint36_linear_86_1392)"/>
<path d="M367.175 102.862C371.295 106.577 374.32 109.953 373.926 110.391C373.531 110.83 369.86 108.177 365.739 104.451C361.618 100.736 358.594 97.3607 358.988 96.9224C359.383 96.484 363.054 99.1361 367.175 102.862Z" fill="url(#paint37_linear_86_1392)"/>
<path d="M23.7375 17.6005C22.5101 17.6334 21.3593 17.6772 20.2854 17.732C19.2114 17.7868 18.3346 17.8525 17.6442 17.9293C16.9647 18.006 16.625 18.0827 16.625 18.1704C16.625 18.2471 16.7565 18.3128 17.0086 18.3567C17.2606 18.4005 17.6004 18.4334 18.0278 18.4443C18.4661 18.4662 18.9812 18.4662 19.5949 18.4662C20.2086 18.4662 20.91 18.4662 21.6991 18.4553C22.5648 18.4553 24.6142 18.4443 27.8472 18.4334C31.0911 18.4334 35.0583 18.4334 39.7816 18.4334C44.4941 18.4443 49.7325 18.4662 55.4861 18.4772C61.2396 18.5101 67.0699 18.532 72.9769 18.5649C78.8729 18.5978 84.5935 18.6306 90.1389 18.6635C95.6732 18.6964 100.605 18.7183 104.934 18.7512C109.252 18.7621 112.715 18.7731 115.345 18.7841C116.66 18.7841 117.646 18.7841 118.304 18.7621C118.961 18.7402 119.29 18.7183 119.29 18.6854C119.29 18.6635 118.972 18.6306 118.337 18.5978C117.701 18.5649 116.737 18.532 115.465 18.4772C112.912 18.3895 109.537 18.3019 105.317 18.2142C101.098 18.1484 96.2979 18.0608 90.906 17.9731C85.5032 17.9073 79.9688 17.8416 74.281 17.7758C68.5932 17.732 63.015 17.6882 57.5464 17.6443C52.0778 17.6224 47.1462 17.5895 42.7516 17.5676C38.3679 17.5676 34.7514 17.5676 31.902 17.5566C29.0636 17.5566 27.4526 17.5566 27.091 17.5676C26.0827 17.5676 24.9649 17.5895 23.7375 17.6224V17.6005Z" fill="#1C2439"/>
<path d="M267.819 134.688V137.526H259.293V134.688H262.099V129.657C261.978 129.811 261.792 129.975 261.551 130.129C261.299 130.282 261.025 130.435 260.718 130.578C260.411 130.72 260.093 130.841 259.775 130.918C259.457 130.994 259.162 131.049 258.92 131.049V128.134C259.14 128.134 259.425 128.068 259.753 127.926C260.082 127.783 260.411 127.608 260.751 127.389C261.09 127.17 261.386 126.961 261.638 126.753C261.89 126.545 262.055 126.381 262.12 126.249H265.332V134.677H267.841L267.819 134.688Z" fill="#DB2D1B"/>
<path d="M278.044 134.688V137.526H269.518V134.688H272.324V129.657C272.203 129.811 272.017 129.975 271.776 130.129C271.524 130.282 271.25 130.435 270.943 130.578C270.636 130.72 270.318 130.841 270 130.918C269.683 130.994 269.387 131.049 269.146 131.049V128.134C269.365 128.134 269.65 128.068 269.978 127.926C270.307 127.783 270.636 127.608 270.976 127.389C271.315 127.17 271.611 126.961 271.863 126.753C272.115 126.545 272.28 126.381 272.346 126.249H275.557V134.677H278.066L278.044 134.688Z" fill="#DB2D1B"/>
<path d="M279.206 137.526C279.206 136.901 279.25 136.343 279.348 135.849C279.447 135.356 279.611 134.907 279.841 134.49C280.072 134.074 280.378 133.69 280.773 133.34C281.157 132.989 281.65 132.66 282.241 132.375C282.855 132.025 283.37 131.74 283.787 131.51C284.203 131.279 284.532 131.082 284.773 130.907C285.014 130.731 285.189 130.589 285.299 130.436C285.409 130.293 285.453 130.118 285.453 129.931C285.453 129.668 285.398 129.449 285.277 129.263C285.157 129.077 284.992 128.934 284.762 128.825C284.543 128.715 284.258 128.66 283.929 128.66C283.666 128.66 283.414 128.693 283.184 128.759C282.943 128.825 282.724 128.923 282.505 129.055C282.285 129.186 282.077 129.34 281.869 129.515C281.661 129.69 281.474 129.888 281.31 130.118L279.293 127.794C279.513 127.553 279.798 127.334 280.137 127.115C280.477 126.896 280.872 126.699 281.332 126.523C281.781 126.348 282.274 126.205 282.8 126.085C283.326 125.975 283.885 125.92 284.477 125.92C285.42 125.92 286.22 126.063 286.877 126.348C287.524 126.633 288.028 127.038 288.368 127.553C288.707 128.068 288.883 128.693 288.883 129.405C288.883 129.844 288.817 130.238 288.674 130.589C288.532 130.94 288.357 131.247 288.127 131.499C287.907 131.762 287.655 132.003 287.381 132.211C287.107 132.43 286.822 132.616 286.537 132.792C286.22 132.956 285.924 133.11 285.661 133.263C285.387 133.416 285.135 133.57 284.894 133.701C284.652 133.844 284.422 133.997 284.225 134.151C284.017 134.315 283.831 134.479 283.644 134.655H289.113V137.493H279.206V137.526Z" fill="#DB2D1B"/>
</g>
<defs>
<linearGradient id="paint0_linear_86_1392" x1="41.7651" y1="0.876731" x2="41.8637" y2="10.455" gradientUnits="userSpaceOnUse">
<stop stop-color="#8073FF" stop-opacity="0"/>
<stop offset="0.07" stop-color="#8073FF" stop-opacity="0.07"/>
<stop offset="1" stop-color="#8073FF"/>
</linearGradient>
<linearGradient id="paint1_linear_86_1392" x1="40.6034" y1="7.50698" x2="43.8583" y2="13.4687" gradientUnits="userSpaceOnUse">
<stop stop-color="#8073FF" stop-opacity="0"/>
<stop offset="0.07" stop-color="#8073FF" stop-opacity="0.07"/>
<stop offset="1" stop-color="#8073FF"/>
</linearGradient>
<linearGradient id="paint2_linear_86_1392" x1="42.9486" y1="10.1482" x2="28.0442" y2="-11.0139" gradientUnits="userSpaceOnUse">
<stop stop-color="white" stop-opacity="0"/>
<stop offset="1" stop-color="white"/>
</linearGradient>
<linearGradient id="paint3_linear_86_1392" x1="36.3841" y1="7.51801" x2="39.0033" y2="-3.09043" gradientUnits="userSpaceOnUse">
<stop stop-color="white" stop-opacity="0"/>
<stop offset="1" stop-color="white"/>
</linearGradient>
<linearGradient id="paint4_linear_86_1392" x1="233.539" y1="0.832894" x2="233.649" y2="10.4879" gradientUnits="userSpaceOnUse">
<stop stop-color="#8073FF" stop-opacity="0"/>
<stop offset="0.07" stop-color="#8073FF" stop-opacity="0.07"/>
<stop offset="1" stop-color="#8073FF"/>
</linearGradient>
<linearGradient id="paint5_linear_86_1392" x1="231.413" y1="5.75351" x2="236.378" y2="14.8167" gradientUnits="userSpaceOnUse">
<stop stop-color="#8073FF" stop-opacity="0"/>
<stop offset="0.07" stop-color="#8073FF" stop-opacity="0.07"/>
<stop offset="1" stop-color="#8073FF"/>
</linearGradient>
<linearGradient id="paint6_linear_86_1392" x1="235.282" y1="10.9372" x2="215.457" y2="-17.2168" gradientUnits="userSpaceOnUse">
<stop stop-color="white" stop-opacity="0"/>
<stop offset="1" stop-color="white"/>
</linearGradient>
<linearGradient id="paint7_linear_86_1392" x1="223.424" y1="7.518" x2="226.043" y2="-3.09044" gradientUnits="userSpaceOnUse">
<stop stop-color="white" stop-opacity="0"/>
<stop offset="1" stop-color="white"/>
</linearGradient>
<linearGradient id="paint8_linear_86_1392" x1="74.1932" y1="150.36" x2="74.1932" y2="199.862" gradientUnits="userSpaceOnUse">
<stop stop-color="#2A3655" stop-opacity="0"/>
<stop offset="1" stop-color="#290D6D"/>
</linearGradient>
<linearGradient id="paint9_linear_86_1392" x1="74.1934" y1="160.507" x2="74.1934" y2="198.601" gradientUnits="userSpaceOnUse">
<stop stop-color="#8073FF" stop-opacity="0"/>
<stop offset="0.07" stop-color="#8073FF" stop-opacity="0.07"/>
<stop offset="1" stop-color="#8073FF"/>
</linearGradient>
<linearGradient id="paint10_linear_86_1392" x1="74.1933" y1="167.324" x2="74.1933" y2="184.453" gradientUnits="userSpaceOnUse">
<stop stop-color="#808080" stop-opacity="0"/>
<stop offset="1" stop-color="#808080"/>
</linearGradient>
<linearGradient id="paint11_linear_86_1392" x1="339.043" y1="0.00028915" x2="339.043" y2="0.00028915" gradientUnits="userSpaceOnUse">
<stop stop-color="#2A3655" stop-opacity="0"/>
<stop offset="1" stop-color="#290D6D"/>
</linearGradient>
<linearGradient id="paint12_linear_86_1392" x1="339.043" y1="160.507" x2="339.043" y2="198.601" gradientUnits="userSpaceOnUse">
<stop stop-color="#8073FF" stop-opacity="0"/>
<stop offset="0.07" stop-color="#8073FF" stop-opacity="0.07"/>
<stop offset="1" stop-color="#8073FF"/>
</linearGradient>
<linearGradient id="paint13_linear_86_1392" x1="339.043" y1="0.000194611" x2="339.043" y2="0.000194611" gradientUnits="userSpaceOnUse">
<stop stop-color="#808080" stop-opacity="0"/>
<stop offset="1" stop-color="#808080"/>
</linearGradient>
<linearGradient id="paint14_linear_86_1392" x1="-0.931526" y1="102.599" x2="12.7016" y2="118.139" gradientUnits="userSpaceOnUse">
<stop stop-color="#CB4738" stop-opacity="0"/>
<stop offset="1" stop-color="#CB4738"/>
</linearGradient>
<linearGradient id="paint15_linear_86_1392" x1="1.79735" y1="104.331" x2="7.255" y2="114.632" gradientUnits="userSpaceOnUse">
<stop stop-color="#CB4738" stop-opacity="0"/>
<stop offset="1" stop-color="#CB4738"/>
</linearGradient>
<linearGradient id="paint16_linear_86_1392" x1="5.18367" y1="110.424" x2="-1.34797" y2="99.5635" gradientUnits="userSpaceOnUse">
<stop stop-color="#FABE00" stop-opacity="0"/>
<stop offset="1" stop-color="#FABE00"/>
</linearGradient>
<linearGradient id="paint17_linear_86_1392" x1="4.40541" y1="115.564" x2="7.32054" y2="127.64" gradientUnits="userSpaceOnUse">
<stop stop-color="#8073FF" stop-opacity="0"/>
<stop offset="0.07" stop-color="#8073FF" stop-opacity="0.07"/>
<stop offset="1" stop-color="#8073FF"/>
</linearGradient>
<linearGradient id="paint18_linear_86_1392" x1="1.95078" y1="112.637" x2="8.72353" y2="123.903" gradientUnits="userSpaceOnUse">
<stop stop-color="#8073FF" stop-opacity="0"/>
<stop offset="0.07" stop-color="#8073FF" stop-opacity="0.07"/>
<stop offset="1" stop-color="#8073FF"/>
</linearGradient>
<linearGradient id="paint19_linear_86_1392" x1="4.06589" y1="116.736" x2="-3.25481" y2="109.733" gradientUnits="userSpaceOnUse">
<stop stop-color="white" stop-opacity="0"/>
<stop offset="1" stop-color="white"/>
</linearGradient>
<linearGradient id="paint20_linear_86_1392" x1="2.38904" y1="122.172" x2="6.96996" y2="129.449" gradientUnits="userSpaceOnUse">
<stop stop-color="#CB4738" stop-opacity="0"/>
<stop offset="1" stop-color="#CB4738"/>
</linearGradient>
<linearGradient id="paint21_linear_86_1392" x1="4.65767" y1="125.767" x2="7.53992" y2="130.358" gradientUnits="userSpaceOnUse">
<stop stop-color="#CB4738" stop-opacity="0"/>
<stop offset="1" stop-color="#CB4738"/>
</linearGradient>
<linearGradient id="paint22_linear_86_1392" x1="7.17818" y1="128.934" x2="0.394479" y2="121.438" gradientUnits="userSpaceOnUse">
<stop stop-color="#FABE00" stop-opacity="0"/>
<stop offset="1" stop-color="#FABE00"/>
</linearGradient>
<linearGradient id="paint23_linear_86_1392" x1="4.64244" y1="124.705" x2="2.05282" y2="100.344" gradientUnits="userSpaceOnUse">
<stop stop-color="white" stop-opacity="0"/>
<stop offset="1" stop-color="white"/>
</linearGradient>
<linearGradient id="paint24_linear_86_1392" x1="16.4717" y1="96.5282" x2="130.732" y2="96.5282" gradientUnits="userSpaceOnUse">
<stop stop-color="#808080" stop-opacity="0"/>
<stop offset="1" stop-color="#808080"/>
</linearGradient>
<linearGradient id="paint25_linear_86_1392" x1="262.811" y1="103.454" x2="262.143" y2="122.063" gradientUnits="userSpaceOnUse">
<stop stop-color="#2A3655" stop-opacity="0"/>
<stop offset="1" stop-color="#290D6D"/>
</linearGradient>
<linearGradient id="paint26_linear_86_1392" x1="233.166" y1="103.454" x2="232.498" y2="122.063" gradientUnits="userSpaceOnUse">
<stop stop-color="#2A3655" stop-opacity="0"/>
<stop offset="1" stop-color="#290D6D"/>
</linearGradient>
<linearGradient id="paint27_linear_86_1392" x1="300.236" y1="22.2027" x2="300.236" y2="99.5413" gradientUnits="userSpaceOnUse">
<stop stop-color="#2A3655" stop-opacity="0"/>
<stop offset="1" stop-color="#290D6D"/>
</linearGradient>
<linearGradient id="paint28_linear_86_1392" x1="333.695" y1="88.2315" x2="333.41" y2="115.816" gradientUnits="userSpaceOnUse">
<stop stop-color="#2A3655" stop-opacity="0"/>
<stop offset="1" stop-color="#290D6D"/>
</linearGradient>
<linearGradient id="paint29_linear_86_1392" x1="322.812" y1="74.818" x2="323.152" y2="100.791" gradientUnits="userSpaceOnUse">
<stop stop-color="#2A3655" stop-opacity="0"/>
<stop offset="1" stop-color="#290D6D"/>
</linearGradient>
<linearGradient id="paint30_linear_86_1392" x1="321.114" y1="87.7062" x2="322.999" y2="102.556" gradientUnits="userSpaceOnUse">
<stop stop-color="#8073FF" stop-opacity="0"/>
<stop offset="0.07" stop-color="#8073FF" stop-opacity="0.07"/>
<stop offset="1" stop-color="#8073FF"/>
</linearGradient>
<linearGradient id="paint31_linear_86_1392" x1="321.892" y1="94.5882" x2="328.127" y2="101.427" gradientUnits="userSpaceOnUse">
<stop stop-color="#8073FF" stop-opacity="0"/>
<stop offset="0.07" stop-color="#8073FF" stop-opacity="0.07"/>
<stop offset="1" stop-color="#8073FF"/>
</linearGradient>
<linearGradient id="paint32_linear_86_1392" x1="321.716" y1="93.9309" x2="310.56" y2="82.0074" gradientUnits="userSpaceOnUse">
<stop stop-color="white" stop-opacity="0"/>
<stop offset="1" stop-color="white"/>
</linearGradient>
<linearGradient id="paint33_linear_86_1392" x1="319.704" y1="96.9006" x2="319.662" y2="87.5236" gradientUnits="userSpaceOnUse">
<stop stop-color="white" stop-opacity="0"/>
<stop offset="1" stop-color="white"/>
</linearGradient>
<linearGradient id="paint34_linear_86_1392" x1="363.361" y1="97.3716" x2="382.156" y2="144.277" gradientUnits="userSpaceOnUse">
<stop stop-color="#8073FF" stop-opacity="0"/>
<stop offset="0.07" stop-color="#8073FF" stop-opacity="0.07"/>
<stop offset="1" stop-color="#8073FF"/>
</linearGradient>
<linearGradient id="paint35_linear_86_1392" x1="367.745" y1="108.188" x2="378.726" y2="135.586" gradientUnits="userSpaceOnUse">
<stop stop-color="#8073FF" stop-opacity="0"/>
<stop offset="0.07" stop-color="#8073FF" stop-opacity="0.07"/>
<stop offset="1" stop-color="#8073FF"/>
</linearGradient>
<linearGradient id="paint36_linear_86_1392" x1="368.106" y1="106.588" x2="370.44" y2="89.5796" gradientUnits="userSpaceOnUse">
<stop stop-color="white" stop-opacity="0"/>
<stop offset="1" stop-color="white"/>
</linearGradient>
<linearGradient id="paint37_linear_86_1392" x1="369.814" y1="106.625" x2="357.459" y2="96.1466" gradientUnits="userSpaceOnUse">
<stop stop-color="white" stop-opacity="0"/>
<stop offset="1" stop-color="white"/>
</linearGradient>
<clipPath id="clip0_86_1392">
<rect width="395" height="200.41" fill="white"/>
</clipPath>
</defs>
</svg>
