<svg width="1522" height="169" viewBox="0 0 1522 169" fill="none" xmlns="http://www.w3.org/2000/svg">
<rect x="337" y="87.9932" width="9" height="74" fill="#D3E0E4"/>
<rect x="494" y="87.9932" width="9" height="74" fill="#D3E0E4"/>
<rect x="651" y="87.9932" width="9" height="74" fill="#D3E0E4"/>
<rect x="331" y="87.9932" width="21" height="7" fill="#BCC9CE"/>
<rect x="488" y="87.9932" width="21" height="7" fill="#BCC9CE"/>
<rect x="645" y="87.9932" width="21" height="7" fill="#BCC9CE"/>
<rect y="79" width="1522" height="12" fill="#D3E0E4"/>
<rect x="91" y="42.9941" width="7" height="119" fill="#D3E0E4"/>
<rect x="120" y="42.9941" width="8" height="119" fill="#D3E0E4"/>
<rect x="150" y="42.9941" width="8" height="119" fill="#D3E0E4"/>
<rect y="35.1602" width="69" height="133.609" fill="#D3E0E4"/>
<rect y="14.9941" width="5" height="20" fill="#D3E0E4"/>
<rect x="17" y="14.9941" width="5" height="20" fill="#D3E0E4"/>
<rect x="34" y="14.9941" width="5" height="20" fill="#D3E0E4"/>
<rect x="51" y="14.9941" width="5" height="20" fill="#D3E0E4"/>
<rect x="68" y="14.9941" width="5" height="20" fill="#D3E0E4"/>
<rect x="85" y="14.9941" width="5" height="20" fill="#D3E0E4"/>
<rect x="102" y="14.9941" width="5" height="20" fill="#D3E0E4"/>
<rect x="119" y="14.9941" width="5" height="20" fill="#D3E0E4"/>
<rect x="136" y="14.9941" width="5" height="20" fill="#D3E0E4"/>
<rect x="153" y="14.9941" width="5" height="20" fill="#D3E0E4"/>
<rect y="35.1602" width="158" height="18.0825" fill="#D3E0E4"/>
<rect y="36.165" width="158" height="3.01375" fill="#02C27F"/>
<rect x="5" y="52.2383" width="58" height="37.1695" fill="#A6BEC5"/>
<rect x="5" y="53.2432" width="57" height="35.1604" fill="#A9CEDA"/>
<rect x="6" y="91.417" width="25" height="40.1833" fill="#A6BEC5"/>
<rect x="5" y="92.4219" width="25" height="38.1741" fill="#A9CEDA"/>
<rect x="46" y="91.417" width="27" height="40.1833" fill="#A6BEC5"/>
<rect x="47" y="92.4219" width="25" height="38.1741" fill="#A9CEDA"/>
<path d="M14.5 49.9941V84.9941M22.5 49.9941V84.9941M30.5 49.9941V84.9941M38.5 49.9941V84.9941M46.5 49.9941V84.9941M54.5 49.9941V84.9941M62 50.4941L9 50.4941M62 58.4941L9 58.4941M62 66.4941H9M62 74.4941H9M62 82.4941H9" stroke="#73B1C6"/>
<path d="M51.5 88.9941V126.994M59.5 88.9941V126.994M67.5 88.9941V126.994M47 96.4941H72M47 104.494H72M47 112.494H72M47 120.494H72" stroke="#73B1C6"/>
<path d="M9.5 88.9941V126.994M17.5 88.9941V126.994M25.5 88.9941V126.994M5 96.4941H30M5 104.494H30M5 112.494H30M5 120.494H30" stroke="#73B1C6"/>
<rect x="31" y="94.9941" width="15" height="6" fill="#517A70"/>
<rect x="31" y="110.994" width="15" height="6" fill="#517A70"/>
<rect width="161" height="18.0825" fill="#D3E0E4"/>
<path d="M44.432 11V6.53H45.248V11H44.432ZM46.7078 11V6.53H47.5238V8.858L47.3018 8.78L49.2038 6.53H50.2298L48.4478 8.642L48.4958 8.066L50.2838 11H49.3238L48.1238 9.032L47.5238 9.746V11H46.7078ZM51.38 11V6.53H54.35V7.25H52.196V8.396H54.23V9.116H52.196V10.28H54.35V11H51.38ZM55.3504 11V10.25H55.6084C55.8004 10.25 55.9524 10.196 56.0644 10.088C56.1804 9.976 56.2384 9.828 56.2384 9.644V6.53H57.0604V9.614C57.0604 9.89 57.0004 10.132 56.8804 10.34C56.7644 10.548 56.5964 10.71 56.3764 10.826C56.1604 10.942 55.9044 11 55.6084 11H55.3504ZM58.0207 11L59.5627 6.53H60.6187L62.1607 11H61.2727L60.9547 10.04H59.2267L58.9027 11H58.0207ZM59.4607 9.32H60.7207L59.9767 7.094H60.2047L59.4607 9.32ZM65.7166 11V7.25H64.5586V6.53H67.6786V7.25H66.5386V11H65.7166ZM68.7765 11V6.53H70.4385C70.7425 6.53 71.0105 6.586 71.2425 6.698C71.4785 6.806 71.6625 6.966 71.7945 7.178C71.9265 7.386 71.9925 7.64 71.9925 7.94C71.9925 8.248 71.9185 8.51 71.7705 8.726C71.6265 8.942 71.4305 9.102 71.1825 9.206L72.2085 11H71.2845L70.1865 9.038L70.7145 9.35H69.5925V11H68.7765ZM69.5925 8.63H70.4505C70.5985 8.63 70.7265 8.602 70.8345 8.546C70.9425 8.486 71.0265 8.404 71.0865 8.3C71.1465 8.196 71.1765 8.076 71.1765 7.94C71.1765 7.8 71.1465 7.68 71.0865 7.58C71.0265 7.476 70.9425 7.396 70.8345 7.34C70.7265 7.28 70.5985 7.25 70.4505 7.25H69.5925V8.63ZM72.9773 11L74.5193 6.53H75.5753L77.1173 11H76.2293L75.9113 10.04H74.1833L73.8593 11H72.9773ZM74.4173 9.32H75.6773L74.9333 7.094H75.1613L74.4173 9.32ZM78.2148 11V6.53H79.0308V11H78.2148ZM80.4906 11V6.53H81.1266L83.5866 9.842L83.2566 9.908V6.53H84.0726V11H83.4306L81.0066 7.664L81.3066 7.598V11H80.4906ZM88.8003 11.072C88.5163 11.072 88.2523 11.02 88.0083 10.916C87.7683 10.812 87.5603 10.668 87.3843 10.484C87.2123 10.296 87.0863 10.078 87.0063 9.83L87.6843 9.536C87.7923 9.792 87.9483 9.994 88.1523 10.142C88.3563 10.286 88.5863 10.358 88.8423 10.358C88.9863 10.358 89.1103 10.336 89.2143 10.292C89.3223 10.244 89.4043 10.18 89.4603 10.1C89.5203 10.02 89.5503 9.924 89.5503 9.812C89.5503 9.68 89.5103 9.572 89.4303 9.488C89.3543 9.4 89.2383 9.332 89.0823 9.284L88.2243 9.008C87.8763 8.9 87.6143 8.738 87.4383 8.522C87.2623 8.306 87.1743 8.052 87.1743 7.76C87.1743 7.504 87.2363 7.278 87.3603 7.082C87.4883 6.886 87.6643 6.734 87.8883 6.626C88.1163 6.514 88.3763 6.458 88.6683 6.458C88.9363 6.458 89.1823 6.506 89.4063 6.602C89.6303 6.694 89.8223 6.824 89.9823 6.992C90.1463 7.156 90.2683 7.35 90.3483 7.574L89.6763 7.874C89.5883 7.65 89.4563 7.478 89.2803 7.358C89.1043 7.234 88.9003 7.172 88.6683 7.172C88.5323 7.172 88.4123 7.196 88.3083 7.244C88.2043 7.288 88.1223 7.352 88.0623 7.436C88.0063 7.516 87.9783 7.612 87.9783 7.724C87.9783 7.848 88.0183 7.958 88.0983 8.054C88.1783 8.146 88.3003 8.218 88.4643 8.27L89.2863 8.528C89.6423 8.644 89.9083 8.804 90.0843 9.008C90.2643 9.212 90.3543 9.464 90.3543 9.764C90.3543 10.02 90.2883 10.246 90.1563 10.442C90.0243 10.638 89.8423 10.792 89.6103 10.904C89.3783 11.016 89.1083 11.072 88.8003 11.072ZM92.481 11V7.25H91.323V6.53H94.443V7.25H93.303V11H92.481ZM94.8762 11L96.4182 6.53H97.4742L99.0162 11H98.1282L97.8102 10.04H96.0822L95.7582 11H94.8762ZM96.3162 9.32H97.5762L96.8322 7.094H97.0602L96.3162 9.32ZM100.607 11V7.25H99.4488V6.53H102.569V7.25H101.429V11H100.607ZM103.667 11V6.53H104.483V11H103.667ZM108.145 11.072C107.817 11.072 107.511 11.014 107.227 10.898C106.943 10.782 106.695 10.62 106.483 10.412C106.271 10.204 106.105 9.96 105.985 9.68C105.869 9.396 105.811 9.09 105.811 8.762C105.811 8.43 105.869 8.124 105.985 7.844C106.101 7.564 106.265 7.32 106.477 7.112C106.689 6.904 106.937 6.744 107.221 6.632C107.505 6.516 107.813 6.458 108.145 6.458C108.477 6.458 108.785 6.516 109.069 6.632C109.353 6.748 109.601 6.91 109.813 7.118C110.025 7.322 110.189 7.564 110.305 7.844C110.425 8.124 110.485 8.43 110.485 8.762C110.485 9.09 110.425 9.396 110.305 9.68C110.185 9.96 110.019 10.204 109.807 10.412C109.595 10.62 109.347 10.782 109.063 10.898C108.783 11.014 108.477 11.072 108.145 11.072ZM108.145 10.328C108.365 10.328 108.567 10.29 108.751 10.214C108.935 10.134 109.095 10.024 109.231 9.884C109.371 9.744 109.477 9.578 109.549 9.386C109.625 9.194 109.663 8.986 109.663 8.762C109.663 8.538 109.625 8.332 109.549 8.144C109.477 7.952 109.371 7.786 109.231 7.646C109.095 7.502 108.935 7.392 108.751 7.316C108.567 7.24 108.365 7.202 108.145 7.202C107.929 7.202 107.729 7.24 107.545 7.316C107.361 7.392 107.199 7.502 107.059 7.646C106.923 7.786 106.817 7.952 106.741 8.144C106.665 8.332 106.627 8.538 106.627 8.762C106.627 8.986 106.665 9.194 106.741 9.386C106.817 9.578 106.923 9.744 107.059 9.884C107.199 10.024 107.361 10.134 107.545 10.214C107.729 10.29 107.929 10.328 108.145 10.328ZM111.81 11V6.53H112.446L114.906 9.842L114.576 9.908V6.53H115.392V11H114.75L112.326 7.664L112.626 7.598V11H111.81Z" fill="black"/>
</svg>
