<svg width="1517" height="91" viewBox="0 0 1517 91" fill="none" xmlns="http://www.w3.org/2000/svg">
<rect y="27" width="1517" height="64" fill="#99C8FF"/>
<rect width="1201" height="11" fill="#038B5C"/>
<rect x="26.6809" y="11.2339" width="10.5106" height="23.4468" fill="#02764E"/>
<rect x="22.6383" y="34.6807" width="19.4043" height="11.3191" fill="#015035"/>
<rect x="52.5532" y="11.2339" width="10.5106" height="20.2128" fill="#02764E"/>
<rect x="48.5106" y="31.4468" width="19.4043" height="11.3191" fill="#015035"/>
<rect x="153.958" y="11.2339" width="10.5106" height="23.4468" fill="#02764E"/>
<rect x="149.915" y="34.6807" width="19.4043" height="11.3191" fill="#015035"/>
<rect x="179.83" y="11.2339" width="10.5106" height="20.2128" fill="#02764E"/>
<rect x="175.787" y="31.4468" width="19.4043" height="11.3191" fill="#015035"/>
<rect x="281.234" y="11.2339" width="10.5106" height="23.4468" fill="#02764E"/>
<rect x="277.192" y="34.6807" width="19.4043" height="11.3191" fill="#015035"/>
<rect x="307.106" y="11.2339" width="10.5106" height="20.2128" fill="#02764E"/>
<rect x="303.064" y="31.4468" width="19.4043" height="11.3191" fill="#015035"/>
<rect x="408.51" y="11.2339" width="10.5106" height="23.4468" fill="#02764E"/>
<rect x="404.468" y="34.6807" width="19.4043" height="11.3191" fill="#015035"/>
<rect x="434.383" y="11.2339" width="10.5106" height="20.2128" fill="#02764E"/>
<rect x="430.34" y="31.4468" width="19.4043" height="11.3191" fill="#015035"/>
<rect x="535.787" y="11.2339" width="10.5106" height="23.4468" fill="#02764E"/>
<rect x="531.745" y="34.6807" width="19.4043" height="11.3191" fill="#015035"/>
<rect x="561.66" y="11.2339" width="10.5106" height="20.2128" fill="#02764E"/>
<rect x="557.617" y="31.4468" width="19.4043" height="11.3191" fill="#015035"/>
<rect x="663.064" y="11.2339" width="10.5106" height="23.4468" fill="#02764E"/>
<rect x="659.021" y="34.6807" width="19.4043" height="11.3191" fill="#015035"/>
<rect x="688.936" y="11.2339" width="10.5106" height="20.2128" fill="#02764E"/>
<rect x="684.894" y="31.4468" width="19.4043" height="11.3191" fill="#015035"/>
</svg>
