<svg xmlns="http://www.w3.org/2000/svg" xmlns:xlink="http://www.w3.org/1999/xlink" width="500" height="500" viewBox="0 0 500 500">
  <defs>
    <clipPath id="clip-learn">
      <rect width="500" height="500"/>
    </clipPath>
  </defs>
  <g id="learn" clip-path="url(#clip-learn)">
    <rect width="500" height="500" fill="#fff"/>
    <g id="BACKGROUND">
      <rect id="Rectangle_1" data-name="Rectangle 1" width="500" height="500" fill="#effff0"/>
    </g>
    <g id="OBJECTS">
      <circle id="Ellipse_1" data-name="Ellipse 1" cx="172.03" cy="172.03" r="172.03" transform="translate(77.97 59.646)" fill="#8ec492" opacity="0.243" style="mix-blend-mode: multiply;isolation: isolate"/>
      <g id="Group_1" data-name="Group 1">
        <rect id="Rectangle_2" data-name="Rectangle 2" width="499.193" height="119.57" transform="translate(0.404 380.258)" fill="#ffd6bb"/>
      </g>
      <g id="Group_7" data-name="Group 7">
        <path id="Path_1" data-name="Path 1" d="M281.586,250.547c-22.293,19.826-47.968,1.749-47.968,1.749,2.421-8.254,4.165-18.854,5.257-26.8.907-6.668,1.353-11.467,1.353-11.467l32.978-1.2c-.2,3.619.635,8.912,1.846,14.4C277.524,238.487,281.586,250.547,281.586,250.547Z" fill="#a05635"/>
        <path id="Path_2" data-name="Path 2" d="M275.052,227.23a67.159,67.159,0,0,1-36.177-1.733c.907-6.668,1.353-11.467,1.353-11.467l32.978-1.2C273.008,216.447,273.841,221.74,275.052,227.23Z" fill="#a05635" opacity="0.42" style="mix-blend-mode: multiply;isolation: isolate"/>
        <path id="Path_3" data-name="Path 3" d="M241.234,129.917a7.284,7.284,0,0,0,1.865-9.743c2.6-1.439,4.722-4.153,4.545-7.118s-3.406-5.621-6.16-4.507a11.744,11.744,0,0,0,.556-14.016c-1.885-2.623-5.393-4.414-8.394-3.217,1.7-.1,2.844-2.023,2.615-3.706a6.5,6.5,0,0,0-2.818-4.082,14.1,14.1,0,0,0-13.11-1.877A9.364,9.364,0,0,0,202.9,80.67c-3.669-4.243-10.647-4.207-15.4-1.223s-7.66,8.155-9.807,13.337c-5.254-2.025-11.719,2.015-12.9,7.521-.651,3.035.787,6.864,3.848,7.381a11.638,11.638,0,0,0-2.159,21.782,13.811,13.811,0,0,0-3.2,13.74,7.529,7.529,0,0,0,3.152,4.307,4.05,4.05,0,0,0,4.991-.619c-.309,3.107.012,6.423,1.773,9s5.249,4.137,8.137,2.952c.869-.357,1.836-.941,2.669-.507A2.93,2.93,0,0,1,185,159.5a10.823,10.823,0,0,0,8.619,4.756,15.956,15.956,0,0,0,9.607-2.973,2.108,2.108,0,0,1,1.145-.492c.709.007,1.173.712,1.739,1.139,1.353,1.018,3.358.375,4.625-.747s2.135-2.648,3.434-3.733a2.371,2.371,0,0,1,1.322-.637,3.6,3.6,0,0,1,1.672.544,7.177,7.177,0,0,0,9.3-3.611c1.946-4.706,8.094-8.061,11.4-11.938C240.314,138.928,240.416,133.613,241.234,129.917Z"/>
        <path id="Path_4" data-name="Path 4" d="M277.321,128.6a7.286,7.286,0,0,1-2.569-9.582c-2.7-1.246-5.012-3.8-5.051-6.768s2.988-5.854,5.815-4.943a11.745,11.745,0,0,1-1.575-13.939c1.689-2.753,5.058-4.8,8.137-3.819-1.7.025-2.983-1.812-2.877-3.507a6.5,6.5,0,0,1,2.513-4.276,14.1,14.1,0,0,1,12.939-2.827,9.364,9.364,0,0,1,17.31-2.247c3.35-4.5,10.312-4.971,15.266-2.341s8.234,7.576,10.753,12.588c5.092-2.4,11.834,1.156,13.413,6.561.87,2.98-.286,6.9-3.3,7.642a11.637,11.637,0,0,1,3.739,21.567,13.81,13.81,0,0,1,4.194,13.47,7.527,7.527,0,0,1-2.831,4.525,4.049,4.049,0,0,1-5.022-.253c.534,3.076.456,6.406-1.113,9.1s-4.934,4.509-7.9,3.537c-.893-.293-1.9-.8-2.7-.311a2.928,2.928,0,0,0-.9,1.228,10.823,10.823,0,0,1-8.25,5.371,15.95,15.95,0,0,1-9.8-2.266,2.114,2.114,0,0,0-1.178-.407c-.707.059-1.118.8-1.652,1.263-1.275,1.114-3.321.619-4.667-.409s-2.322-2.484-3.7-3.472a2.376,2.376,0,0,0-1.364-.54,3.6,3.6,0,0,0-1.628.665,7.177,7.177,0,0,1-9.534-2.924c-2.284-4.552-8.66-7.45-12.236-11.077C278.9,137.521,278.406,132.228,277.321,128.6Z"/>
        <path id="Path_5" data-name="Path 5" d="M252.4,121.647c19.929-1.686,48.572,9.25,42.839,55.587C290.473,215.773,272.958,222.273,262,223.2c-14.672,1.241-35.128-.039-41.658-41.636S231.477,123.418,252.4,121.647Z" fill="#a05635"/>
        <path id="Path_6" data-name="Path 6" d="M351.056,358.518c-5,10.239-14.961,20.018-33.611,24.761a107.13,107.13,0,0,1-25.908,3l-3.231-10.129c0-.02,0-.03-.011-.04l-5.537-17.38a.193.193,0,0,0-.023-.069l-4.756-14.916,19.841-4.726-.729-4.067-.526-2.892-90.939,3.315.332,1.159.732,2.515.081.287,3.426.656,9.674,1.868-1.285,47.079s-19.825,2.143-38.383-1.3c-7.536-1.406-14.876-3.73-20.577-7.495-6.613-4.362-11.045-10.645-11.124-19.668a83.149,83.149,0,0,1,.7-10.853,173.9,173.9,0,0,1,6.816-29.888c2.312-7.389,5.06-14.9,8.108-22.16a212.868,212.868,0,0,1,13.343-26.774,96.826,96.826,0,0,1,13.562-18.316c3.552-3.572,7.035-6.02,10.321-7.011,18.806-5.689,29.2,4.94,29.2,4.94l1.51-4.138,4.575-12.585s18.1,5.865,41.062-1.5l2.974,14.041.918,4.319s8.557-12.32,25.727-7.942c4.394,1.12,9.4,6.412,14.466,13.892a178.413,178.413,0,0,1,10.842,18.8c3.04,5.984,5.961,12.261,8.615,18.359,2.51,5.732,4.785,11.313,6.74,16.355,3,7.766,5.222,14.239,6.249,17.964.1.347.2.674.265.971A45.726,45.726,0,0,1,351.056,358.518Z" fill="#fff"/>
        <path id="Path_7" data-name="Path 7" d="M280.668,246.228c-8.73,1.819-17.854,1.872-26.811,1.558q-9.514-.343-19.007-1.2c-.923-.086-1.867-.172-2.793-.318l4.575-12.585s18.1,5.865,41.062-1.5Z" fill="#71b174"/>
        <path id="Path_8" data-name="Path 8" d="M332.621,275.294c-17.6,4.685-35.895,6.272-54.105,6.606a406.6,406.6,0,0,1-101.052-11.106,96.826,96.826,0,0,1,13.562-18.316,552.792,552.792,0,0,0,59.735,7.569c7.857.574,15.737.987,23.62.93,15.886-.129,31.67-2.216,47.4-4.48A178.413,178.413,0,0,1,332.621,275.294Z" fill="#71b174"/>
        <path id="Path_9" data-name="Path 9" d="M347.976,310.008c-7.507.214-14.81,3.012-22.11,5.069-24.218,6.8-49.846,5.4-75.012,5.707-19.354.235-38.71,1.511-58.055.925-12.061-.37-24.59-.934-36.786-1.981,2.312-7.389,5.06-14.9,8.108-22.16,33.236,7.785,68.239,5.047,102.4,2.231l74.716-6.146C343.746,299.385,346.021,304.966,347.976,310.008Z" fill="#71b174"/>
        <path id="Path_10" data-name="Path 10" d="M207.787,337.023a2.317,2.317,0,0,0,.651,1.388l-1.748.634c-10.705,3.9-21.576,8.171-29.806,16.006-4.43,4.215-7.916,9.315-11.272,14.431a65.231,65.231,0,0,0-5.986,10.655c-6.613-4.362-11.045-10.645-11.124-19.668a83.149,83.149,0,0,1,.7-10.853q3.88-2.678,8.025-4.965c14.763-8.133,32.445-12.26,48.736-8.121C206.574,336.677,207.18,336.845,207.787,337.023Z" fill="#71b174"/>
        <path id="Path_11" data-name="Path 11" d="M208.87,338.995a5.155,5.155,0,0,0-.432-.584c.02-.011.05-.012.07-.023C208.46,337.91,209.115,339.407,208.87,338.995Z" fill="#bc3500"/>
        <path id="Path_12" data-name="Path 12" d="M219.871,341.856l-1.285,47.079s-19.825,2.143-38.383-1.3c1.123-5.695,3.857-11.138,6.538-16.369,2.869-5.578,5.756-11.2,9.649-16.122,3.8-5.122,8.714-9.914,13.11-14.517a6.692,6.692,0,0,1,.7-.636Z" fill="#71b174"/>
        <path id="Path_13" data-name="Path 13" d="M317.445,383.279a107.13,107.13,0,0,1-25.908,3l-3.231-10.129c0-.02,0-.03-.011-.04a100.127,100.127,0,0,0-4.047-13.571q-.715-1.911-1.49-3.809a.193.193,0,0,0-.023-.069q-1.895-4.644-4.037-9.179c-1.433-3.07-3.648-6.481-2.546-10.014,2.392-7.672,14.8-5.532,20.546-4.581.131.025.262.04.393.065a11.787,11.787,0,0,1,4.967,1.751c1.86,1.333,2.89,3.517,3.837,5.6,3.427,7.54,6.887,15.169,8.534,23.294C315.613,371.458,315.846,377.554,317.445,383.279Z" fill="#71b174"/>
        <path id="Path_14" data-name="Path 14" d="M351.056,358.518c-.453-.344-.9-.688-1.349-1.021-6.716-5.009-13.484-10.036-20.976-13.785a92.334,92.334,0,0,0-21.379-7.266c-3.843-.841-3.612-2.741-.488-4.335a76.231,76.231,0,0,1,8.729-3.771,62.289,62.289,0,0,1,18.038-3.66,50.921,50.921,0,0,1,20.594,3.292c.1.347.2.674.265.971A45.726,45.726,0,0,1,351.056,358.518Z" fill="#71b174"/>
        <path id="Path_15" data-name="Path 15" d="M221.828,245.377l-18.092,93.065,16.135,3.414-1.285,47.079,72.951-2.66-13.558-42.534,18.841-4.69-2.149-58.961-1.34-36.743s-8,.059-11.745,7.2l-1.869,31.089-48.858,4.783-.312-36.012S226.247,243.871,221.828,245.377Z" fill="#8ec492"/>
        <g id="Group_4" data-name="Group 4">
          <path id="Path_16" data-name="Path 16" d="M274.955,316.783l2.531,69.424a4.034,4.034,0,0,1-3.881,4.184l-37.944,1.383a4.041,4.041,0,0,1-4.185-3.89l-2.531-69.424a4.042,4.042,0,0,1,3.89-4.184l37.945-1.384A4.034,4.034,0,0,1,274.955,316.783Z" fill="#a197ff"/>
          <path id="Path_17" data-name="Path 17" d="M259.756,365.419l4.507,13.845-17.317-8.375-10.665,9.395.416-16.026-6.229-3.986L230.277,355l7.057-.768-1.509-13.954,10.285,7.63,9.738-7.36-2.488,14.1,13.918-2.509Z" fill="#f07a50"/>
          <path id="Path_18" data-name="Path 18" d="M274.955,316.783l.868,23.824a75.593,75.593,0,0,1-5.717-9.158,28.992,28.992,0,0,0-4.155,10.379,113.621,113.621,0,0,1-3.053-11.837q-6.837,1.436-13.675,2.86a48.236,48.236,0,0,1,11.928-13.724c-.6-.608-1.2-1.206-1.818-1.815-1.287-1.284-2.575-2.577-3.863-3.861l15.31-.559A4.034,4.034,0,0,1,274.955,316.783Z" fill="#f07a50"/>
          <circle id="Ellipse_2" data-name="Ellipse 2" cx="2.423" cy="2.423" r="2.423" transform="translate(235.204 321.381)"/>
          <g id="Group_2" data-name="Group 2">
            <circle id="Ellipse_3" data-name="Ellipse 3" cx="2.423" cy="2.423" r="2.423" transform="translate(235.469 328.646)"/>
          </g>
          <g id="Group_3" data-name="Group 3">
            <circle id="Ellipse_4" data-name="Ellipse 4" cx="1.212" cy="1.212" r="1.212" transform="translate(236.901 335.912)"/>
          </g>
          <path id="Path_19" data-name="Path 19" d="M245.51,318q9.513-.72,19.061-.761" fill="none" stroke="#000" stroke-miterlimit="10" stroke-width="1"/>
          <path id="Path_20" data-name="Path 20" d="M269.344,319.842a6.407,6.407,0,0,1,.648,2.856" fill="none" stroke="#000" stroke-miterlimit="10" stroke-width="1"/>
          <path id="Path_21" data-name="Path 21" d="M262.983,345.869q-9.228,14.715-19.825,28.51" fill="none" stroke="#000" stroke-miterlimit="10" stroke-width="1"/>
          <path id="Path_22" data-name="Path 22" d="M258.517,363.452q-3.141,4.935-6.682,9.6" fill="none" stroke="#000" stroke-miterlimit="10" stroke-width="1"/>
          <path id="Path_23" data-name="Path 23" d="M254.1,341.283l-3.586,5.352" fill="none" stroke="#000" stroke-miterlimit="10" stroke-width="1"/>
          <path id="Path_24" data-name="Path 24" d="M277.119,376.154l.367,10.053a4.034,4.034,0,0,1-3.881,4.184l-17.618.642-.2-.1,15-5.631,2.9-15.546Z" fill="#f07a50"/>
        </g>
        <path id="Path_25" data-name="Path 25" d="M229.63,198.89a26.35,26.35,0,0,1-15.266,1.171c-7.241-1.621-13.829-6.673-16.48-13.6s-.831-15.561,4.932-20.234a16.02,16.02,0,0,1,22.657,2.507C226.251,178.706,227.077,189.214,229.63,198.89Z" fill="#a05635"/>
        <path id="Path_26" data-name="Path 26" d="M286.392,197.821a26.353,26.353,0,0,0,15.312.057c7.1-2.145,13.306-7.663,15.445-14.768s-.3-15.581-6.392-19.822a16.022,16.022,0,0,0-22.415,4.15C288.293,177.445,288.234,187.985,286.392,197.821Z" fill="#a05635"/>
        <path id="Path_27" data-name="Path 27" d="M291.626,169.128c-26.748-20.039-31.364-36.882-31.364-36.882l-1.364-9.957-1.671,9.067c-8.156,23.312-34.628,38.287-34.628,38.287l-3.723-5.245s-7.2-47.392,39.84-47.106,37.295,47.792,37.295,47.792Z"/>
        <path id="Path_28" data-name="Path 28" d="M222.638,168.3a28.833,28.833,0,0,0,.494,16.916" fill="none" stroke="#000" stroke-miterlimit="10" stroke-width="1"/>
        <path id="Path_29" data-name="Path 29" d="M222.812,168.313a47.377,47.377,0,0,0,4.409,16.566" fill="none" stroke="#000" stroke-miterlimit="10" stroke-width="1"/>
        <path id="Path_30" data-name="Path 30" d="M291.509,167.852a49.388,49.388,0,0,1-2.622,17.988" fill="none" stroke="#000" stroke-miterlimit="10" stroke-width="1"/>
        <path id="Path_31" data-name="Path 31" d="M291.676,168.161a29.47,29.47,0,0,1,1.58,13.942" fill="none" stroke="#000" stroke-miterlimit="10" stroke-width="1"/>
        <path id="Path_32" data-name="Path 32" d="M308.091,168.468c-2.42-.46-4.807.984-6.558,2.716-5.384,5.324-7.006,13.277-8.22,20.75,2.086-3.065,4.65-6.224,8.273-7.01a1.148,1.148,0,0,1,1.647,1.439,9.714,9.714,0,0,1-5.924,7.138" fill="none" stroke="#000" stroke-miterlimit="10" stroke-width="1"/>
        <path id="Path_33" data-name="Path 33" d="M207.948,169.716a2.914,2.914,0,0,1,3.313-.142,7.359,7.359,0,0,1,2.386,2.571c4.04,6.3,5.973,13.719,7.124,21.112a7.723,7.723,0,0,0-3.766-5.083,4.173,4.173,0,0,0-3.133-.537,3.239,3.239,0,0,0-2.181,3.022,4.167,4.167,0,0,0,1.822,3.372" fill="none" stroke="#000" stroke-miterlimit="10" stroke-width="1"/>
        <ellipse id="Ellipse_5" data-name="Ellipse 5" cx="2.5" cy="4.5" rx="2.5" ry="4.5" transform="translate(243.032 173.22) rotate(-17.425)"/>
        <ellipse id="Ellipse_6" data-name="Ellipse 6" cx="2.5" cy="4.5" rx="2.5" ry="4.5" transform="translate(263.032 173.22) rotate(-17.425)"/>
        <path id="Path_34" data-name="Path 34" d="M251.393,183.666a3.849,3.849,0,0,1,1.486-3.657,7.246,7.246,0,0,1,3.857-1.383,8.262,8.262,0,0,1,4.972.875,4.765,4.765,0,0,1,2.48,4.2" fill="none" stroke="#000" stroke-miterlimit="10" stroke-width="1"/>
        <path id="Path_35" data-name="Path 35" d="M276.917,188.076a37.09,37.09,0,0,1-2.644,6.8,23.3,23.3,0,0,1-5.612,7.469,15.248,15.248,0,0,1-12.39,2.683,24.39,24.39,0,0,1-8.979-3.915c-.892-.588-1.756-1.237-2.591-1.907a17.949,17.949,0,0,1-6.325-9.616A36.984,36.984,0,0,0,276.917,188.076Z"/>
        <path id="Path_36" data-name="Path 36" d="M274.273,194.877a23.3,23.3,0,0,1-5.612,7.469,15.248,15.248,0,0,1-12.39,2.683,24.39,24.39,0,0,1-8.979-3.915,30.043,30.043,0,0,1,8.008-3.764,58.1,58.1,0,0,1,12.8-2.158Q271.184,194.96,274.273,194.877Z" fill="#f27fff"/>
        <path id="Path_37" data-name="Path 37" d="M254.754,208.865c3.731.379,7.669.448,11.035-1.206" fill="none" stroke="#000" stroke-miterlimit="10" stroke-width="1"/>
        <path id="Path_38" data-name="Path 38" d="M252.3,164.649a11.867,11.867,0,0,0-19.517,2.939c-.254.111.547.25.4.017A46.339,46.339,0,0,1,252.3,164.649Z"/>
        <path id="Path_39" data-name="Path 39" d="M262.635,164.273a11.866,11.866,0,0,1,19.68,1.51c.26.092-.528.288-.4.045A46.328,46.328,0,0,0,262.635,164.273Z"/>
        <g id="Group_5" data-name="Group 5">
          <path id="Path_40" data-name="Path 40" d="M291.274,382.677a8.979,8.979,0,0,1-4.3,6.874,6.25,6.25,0,0,1-4.14,1.13,5.856,5.856,0,0,1-2.054-.766c-2.972-1.706-5.824-5.674-5.746-9.1a10.731,10.731,0,0,1-3.542,1.738,3.648,3.648,0,0,1-3.615-1.059c-.912-1.162-.712-2.852-.176-4.228a10.745,10.745,0,0,1,3.91-4.929,20.9,20.9,0,0,1-5.7,1.773,3.4,3.4,0,0,1-2.177-.173c-1.154-.637-1.28-2.262-.965-3.542a8.854,8.854,0,0,1,4.653-5.76,9.216,9.216,0,0,1-3.878.427,3.146,3.146,0,0,1-2.689-2.492,4.353,4.353,0,0,1,1.292-3.02,28.381,28.381,0,0,1,4.372-4.84,11.957,11.957,0,0,1-5.774,1.248,2.625,2.625,0,0,1-1.988-.724c-.7-.854-.231-2.138.349-3.079a23.273,23.273,0,0,1,10.677-8.718c2.959-1.3,6.472-2.1,9.39-.163a14.725,14.725,0,0,1,3.181,3.22c3.451,4.3,5.307,8.785,6.851,14.035a56.757,56.757,0,0,1,2.307,16.411A44.125,44.125,0,0,1,291.274,382.677Z" fill="#a05635"/>
          <path id="Path_41" data-name="Path 41" d="M278.865,342.582a13.387,13.387,0,0,1,4.72,12.33,5.716,5.716,0,0,0-.1,2.736c.469,1.386,2.1,2.048,2.788,3.337.731,1.358.276,3.116.985,4.485a12.537,12.537,0,0,0,1.017,1.411,5.515,5.515,0,0,1-1.008,7.215" fill="none" stroke="#000" stroke-miterlimit="10" stroke-width="1"/>
          <path id="Path_42" data-name="Path 42" d="M274.839,381.24A32.389,32.389,0,0,0,282.6,376.8" fill="none" stroke="#000" stroke-miterlimit="10" stroke-width="1"/>
          <path id="Path_43" data-name="Path 43" d="M280.551,378.353l3.229.035" fill="none" stroke="#000" stroke-miterlimit="10" stroke-width="1"/>
          <path id="Path_44" data-name="Path 44" d="M268.084,376.683a24.793,24.793,0,0,1,11.111-8.827" fill="none" stroke="#000" stroke-miterlimit="10" stroke-width="1"/>
          <path id="Path_45" data-name="Path 45" d="M264.721,366.989a59.508,59.508,0,0,1,10.859-6.634" fill="none" stroke="#000" stroke-miterlimit="10" stroke-width="1"/>
          <path id="Path_46" data-name="Path 46" d="M263.92,355.693a26.961,26.961,0,0,1,12.409-4.659" fill="none" stroke="#000" stroke-miterlimit="10" stroke-width="1"/>
        </g>
        <g id="Group_6" data-name="Group 6">
          <path id="Path_47" data-name="Path 47" d="M211.876,381.569a8.978,8.978,0,0,0,4.785,6.543,6.256,6.256,0,0,0,4.212.826,5.874,5.874,0,0,0,1.992-.914c2.841-1.918,5.4-6.083,5.068-9.495a10.723,10.723,0,0,0,3.66,1.476,3.646,3.646,0,0,0,3.527-1.319c.826-1.226.5-2.9-.132-4.23a10.749,10.749,0,0,0-4.258-4.631,20.924,20.924,0,0,0,5.816,1.353,3.4,3.4,0,0,0,2.158-.331c1.105-.719,1.112-2.35.705-3.6a8.856,8.856,0,0,0-5.06-5.406,9.216,9.216,0,0,0,3.9.144,3.145,3.145,0,0,0,2.5-2.681,4.353,4.353,0,0,0-1.508-2.918,28.348,28.348,0,0,0-4.714-4.509,11.968,11.968,0,0,0,5.851.824,2.622,2.622,0,0,0,1.929-.867c.637-.9.075-2.149-.572-3.046a23.284,23.284,0,0,0-11.284-7.917c-3.045-1.076-6.607-1.618-9.376.522a14.693,14.693,0,0,0-2.939,3.443c-3.128,4.54-4.653,9.147-5.81,14.5a56.757,56.757,0,0,0-1.106,16.535A44.175,44.175,0,0,0,211.876,381.569Z" fill="#a05635"/>
          <path id="Path_48" data-name="Path 48" d="M221.332,340.676a13.388,13.388,0,0,0-3.809,12.641,5.739,5.739,0,0,1,.294,2.723c-.367,1.416-1.941,2.195-2.538,3.53-.63,1.408-.048,3.129-.656,4.546a12.718,12.718,0,0,1-.911,1.481,5.515,5.515,0,0,0,1.53,7.122" fill="none" stroke="#000" stroke-miterlimit="10" stroke-width="1"/>
          <path id="Path_49" data-name="Path 49" d="M228.162,378.939a32.419,32.419,0,0,1-8.067-3.864" fill="none" stroke="#000" stroke-miterlimit="10" stroke-width="1"/>
          <path id="Path_50" data-name="Path 50" d="M222.256,376.475l-3.218.27" fill="none" stroke="#000" stroke-miterlimit="10" stroke-width="1"/>
          <path id="Path_51" data-name="Path 51" d="M234.568,373.9a24.8,24.8,0,0,0-11.725-7.995" fill="none" stroke="#000" stroke-miterlimit="10" stroke-width="1"/>
          <path id="Path_52" data-name="Path 52" d="M237.216,363.989a59.511,59.511,0,0,0-11.314-5.826" fill="none" stroke="#000" stroke-miterlimit="10" stroke-width="1"/>
          <path id="Path_53" data-name="Path 53" d="M237.193,352.665a26.967,26.967,0,0,0-12.716-3.744" fill="none" stroke="#000" stroke-miterlimit="10" stroke-width="1"/>
        </g>
        <path id="Path_54" data-name="Path 54" d="M239.439,234.381a64.175,64.175,0,0,0-1.809,11.625" fill="none" stroke="#000" stroke-miterlimit="10" stroke-width="1"/>
        <path id="Path_55" data-name="Path 55" d="M245,235.707a137.653,137.653,0,0,0-1.2,14.4" fill="none" stroke="#000" stroke-miterlimit="10" stroke-width="1"/>
        <path id="Path_56" data-name="Path 56" d="M249.761,235.837a105.653,105.653,0,0,0,.459,16.5" fill="none" stroke="#000" stroke-miterlimit="10" stroke-width="1"/>
        <path id="Path_57" data-name="Path 57" d="M257.372,236.025q.066,6.789.392,13.571" fill="none" stroke="#000" stroke-miterlimit="10" stroke-width="1"/>
        <path id="Path_58" data-name="Path 58" d="M264.393,235.152q.834,7.287,1.018,14.628" fill="none" stroke="#000" stroke-miterlimit="10" stroke-width="1"/>
        <path id="Path_59" data-name="Path 59" d="M270.133,234.314a64.749,64.749,0,0,1,2.384,16.133" fill="none" stroke="#000" stroke-miterlimit="10" stroke-width="1"/>
        <path id="Path_60" data-name="Path 60" d="M246.554,279.434A117.975,117.975,0,0,0,271.6,266.125" fill="none" stroke="#000" stroke-miterlimit="10" stroke-width="1"/>
        <path id="Path_61" data-name="Path 61" d="M260.248,277.6l8.07-3.073" fill="none" stroke="#000" stroke-miterlimit="10" stroke-width="1"/>
        <path id="Path_62" data-name="Path 62" d="M172.962,348.68a101.039,101.039,0,0,1,17.421-7.81,44,44,0,0,1,18.857-2.057" fill="none" stroke="#000" stroke-miterlimit="10" stroke-width="1"/>
        <path id="Path_63" data-name="Path 63" d="M212.46,340.326a33.4,33.4,0,0,0-12.7,14.661,54.61,54.61,0,0,0-4.585,19.031" fill="none" stroke="#000" stroke-miterlimit="10" stroke-width="1"/>
        <path id="Path_64" data-name="Path 64" d="M208.8,352.51a52.806,52.806,0,0,0-3.792,14.953" fill="none" stroke="#000" stroke-miterlimit="10" stroke-width="1"/>
        <path id="Path_65" data-name="Path 65" d="M179.586,334.6a46.787,46.787,0,0,1,24.867,4.287" fill="none" stroke="#000" stroke-miterlimit="10" stroke-width="1"/>
        <path id="Path_66" data-name="Path 66" d="M285.947,342.626a29.735,29.735,0,0,1,10.445-2.868,12.176,12.176,0,0,0,2.621-.376,10.547,10.547,0,0,0,2.791-1.57,68.36,68.36,0,0,1,19.414-9.9" fill="none" stroke="#000" stroke-miterlimit="10" stroke-width="1"/>
        <path id="Path_67" data-name="Path 67" d="M305.151,334.244c8.067-8.013,23.39-14.869,34.75-14.382" fill="none" stroke="#000" stroke-miterlimit="10" stroke-width="1"/>
        <path id="Path_68" data-name="Path 68" d="M329.654,326.506a49.429,49.429,0,0,1,14.663-.105" fill="none" stroke="#000" stroke-miterlimit="10" stroke-width="1"/>
        <path id="Path_69" data-name="Path 69" d="M291.921,343.011c5.129,4.989,8.557,11.514,10.806,18.306s3.386,13.894,4.482,20.964" fill="none" stroke="#000" stroke-miterlimit="10" stroke-width="1"/>
        <path id="Path_70" data-name="Path 70" d="M300.558,345.122a133.363,133.363,0,0,1,9.992,14.545,44.544,44.544,0,0,1,5.8,16.557" fill="none" stroke="#000" stroke-miterlimit="10" stroke-width="1"/>
        <path id="Path_71" data-name="Path 71" d="M212.324,280.963a44.215,44.215,0,0,0-6.487,37.254" fill="none" stroke="#000" stroke-miterlimit="10" stroke-width="1"/>
        <path id="Path_72" data-name="Path 72" d="M206.091,318.286l-3.739,19.5" fill="none" stroke="#000" stroke-miterlimit="10" stroke-width="1"/>
        <path id="Path_73" data-name="Path 73" d="M302.993,280.3c2.565,4.778,3.834,10.137,4.775,15.477a35.552,35.552,0,0,1,.66,10.6,30.026,30.026,0,0,1-2.685,8.628,40.236,40.236,0,0,1-6.57,10.334" fill="none" stroke="#000" stroke-miterlimit="10" stroke-width="1"/>
        <path id="Path_74" data-name="Path 74" d="M299.736,324.46q1.115,6.279,2.715,12.46" fill="none" stroke="#000" stroke-miterlimit="10" stroke-width="1"/>
        <path id="Path_75" data-name="Path 75" d="M306.543,278.842a27.868,27.868,0,0,1-.062,9" fill="none" stroke="#000" stroke-miterlimit="10" stroke-width="1"/>
        <path id="Path_76" data-name="Path 76" d="M208.169,279.619a76.207,76.207,0,0,0-.214,7.691" fill="none" stroke="#000" stroke-miterlimit="10" stroke-width="1"/>
        <path id="Path_77" data-name="Path 77" d="M236.817,108.779a10.291,10.291,0,0,1,6.118-2.873,6.477,6.477,0,0,1,5.924,2.806,6.8,6.8,0,0,1,.363,5.788,13.791,13.791,0,0,1-3.379,4.9" fill="none" stroke="#000" stroke-miterlimit="10" stroke-width="1"/>
        <path id="Path_78" data-name="Path 78" d="M175.153,144.488a14.594,14.594,0,0,0-5.757,8.092,4.025,4.025,0,0,0,1.89,5.4,12.982,12.982,0,0,0,9.356,1.825,9.48,9.48,0,0,0,7.049-6.1" fill="none" stroke="#000" stroke-miterlimit="10" stroke-width="1"/>
        <path id="Path_79" data-name="Path 79" d="M176.932,94.619A11.29,11.29,0,0,1,182.207,82.5a18.984,18.984,0,0,1,4.112-1.588,15.375,15.375,0,0,1,5.952-.806,6.1,6.1,0,0,1,4.883,3.114" fill="none" stroke="#000" stroke-miterlimit="10" stroke-width="1"/>
        <path id="Path_80" data-name="Path 80" d="M169.478,107.774a16.767,16.767,0,0,1-5-2.315,5.685,5.685,0,0,1-2.435-4.717" fill="none" stroke="#000" stroke-miterlimit="10" stroke-width="1"/>
        <path id="Path_81" data-name="Path 81" d="M170.068,106.15a15.869,15.869,0,0,1-5.046,2.615,7.99,7.99,0,0,1-5.579-.357" fill="none" stroke="#000" stroke-miterlimit="10" stroke-width="1"/>
        <path id="Path_82" data-name="Path 82" d="M284.466,89.752a13.564,13.564,0,0,0-11.327,1.334,4.833,4.833,0,0,0-2.367,2.787" fill="none" stroke="#000" stroke-miterlimit="10" stroke-width="1"/>
        <path id="Path_83" data-name="Path 83" d="M282.346,89.715a8.355,8.355,0,0,1-7.1-7.064" fill="none" stroke="#000" stroke-miterlimit="10" stroke-width="1"/>
        <path id="Path_84" data-name="Path 84" d="M310.958,77.643a17.722,17.722,0,0,1,12.221-6.2,14.277,14.277,0,0,1,12.234,5.693,11.985,11.985,0,0,1,.4,13.235" fill="none" stroke="#000" stroke-miterlimit="10" stroke-width="1"/>
        <path id="Path_85" data-name="Path 85" d="M315.748,154.568a15.547,15.547,0,0,0,3.8,4.769,13.45,13.45,0,0,0,5.814,2.08,11.556,11.556,0,0,0,5.841-.138,8.639,8.639,0,0,0,3.6-2.682,12.836,12.836,0,0,0,2.934-8.5" fill="none" stroke="#000" stroke-miterlimit="10" stroke-width="1"/>
        <path id="Path_86" data-name="Path 86" d="M348.926,123.724a25.507,25.507,0,0,1,7.2-.9,8.618,8.618,0,0,1,6.37,3.051" fill="none" stroke="#000" stroke-miterlimit="10" stroke-width="1"/>
        <path id="Path_87" data-name="Path 87" d="M351.633,123.767a4.264,4.264,0,0,1,3.952,1.052,12.566,12.566,0,0,1,2.505,3.437" fill="none" stroke="#000" stroke-miterlimit="10" stroke-width="1"/>
        <path id="Path_88" data-name="Path 88" d="M347.023,139.717c.733,1.831,1.929,3.754,3.859,4.159,2.225.468,4.411-1.466,4.949-3.675s-.17-4.528-1.1-6.6" fill="none" stroke="#000" stroke-miterlimit="10" stroke-width="1"/>
        <circle id="Ellipse_7" data-name="Ellipse 7" cx="2" cy="2" r="2" transform="translate(292.608 194.037)" fill="#ffd6bb"/>
        <circle id="Ellipse_8" data-name="Ellipse 8" cx="2" cy="2" r="2" transform="translate(218.585 194.734)" fill="#ffd6bb"/>
        <path id="Path_89" data-name="Path 89" d="M293.306,197.569a24.994,24.994,0,0,0-.1,7.251c.135,1.012.467,2.184,1.427,2.533a2.342,2.342,0,0,0,2.173-.576,6.589,6.589,0,0,0,2.126-3.616,17.6,17.6,0,0,0,.353-4.246" fill="none" stroke="#ffd6bb" stroke-miterlimit="10" stroke-width="1"/>
        <path id="Path_90" data-name="Path 90" d="M220.481,197.207a10.263,10.263,0,0,0-1.7,8.481c.515,2.061,1.942,4.118,4.039,4.456a3.743,3.743,0,0,0,4.322-4.05" fill="none" stroke="#ffd6bb" stroke-miterlimit="10" stroke-width="1"/>
        <path id="Path_91" data-name="Path 91" d="M197.588,171.412a3.245,3.245,0,0,1,3.059,1.005,9.567,9.567,0,0,1,1.741,2.873" fill="none" stroke="#ffd6bb" stroke-miterlimit="10" stroke-width="1"/>
        <path id="Path_92" data-name="Path 92" d="M199.5,167.153a6.009,6.009,0,0,1,4.414,4.658" fill="none" stroke="#ffd6bb" stroke-miterlimit="10" stroke-width="1"/>
      </g>
      <g id="Group_8" data-name="Group 8">
        <path id="Path_93" data-name="Path 93" d="M387.346,175.647c-10.928,2.049-20.149,5.833-25.32,11.257-6.606,6.93-10.323,17.2-7.465,26.344,2.929,9.367,11.823,15.556,20.757,19.618,1.8.821,3.643,1.565,5.5,2.269l-9.977,19.973c9.271-3.983,18.916-8.259,25.8-15.472a96.467,96.467,0,0,0,39.5-.535c12.092-2.735,24.659-8.825,29.539-20.222C481.548,181.809,424.557,168.67,387.346,175.647Z" fill="#f5fff6"/>
        <path id="Path_94" data-name="Path 94" d="M385.243,151.921c-5.708,1.071-10.526,3.047-13.227,5.881-3.451,3.62-5.393,8.988-3.9,13.762,1.531,4.893,6.177,8.127,10.844,10.249.943.429,1.9.817,2.871,1.185q-2.607,5.217-5.212,10.434c4.843-2.081,9.882-4.314,13.476-8.082a50.413,50.413,0,0,0,20.636-.28c6.317-1.429,12.882-4.61,15.432-10.564C434.455,155.14,404.682,148.277,385.243,151.921Z" fill="#71b174"/>
      </g>
      <g id="Group_9" data-name="Group 9">
        <path id="Path_95" data-name="Path 95" d="M109.144,224.47c7.434,1.394,13.708,3.969,17.226,7.658,4.494,4.715,7.023,11.706,5.079,17.923-1.993,6.372-8.044,10.583-14.122,13.347-1.228.558-2.478,1.064-3.739,1.543q3.395,6.793,6.788,13.588c-6.307-2.71-12.869-5.619-17.55-10.526a65.641,65.641,0,0,1-26.874-.364c-8.227-1.861-16.776-6-20.1-13.757C45.057,228.663,83.829,219.724,109.144,224.47Z" fill="#8ec492"/>
        <path id="Path_96" data-name="Path 96" d="M152.507,173.045c15.485,2.721,28.465,7.08,35.6,12.84,9.118,7.359,13.975,17.9,9.511,26.9-4.575,9.226-17.514,14.9-30.42,18.435-2.608.714-5.259,1.35-7.929,1.944C159,236,170,250,170,250c-14-4-18.5-5.341-28-13-18.665,1.741-43.424.511-61.739-3.214C63.145,230.3,45.5,223.427,39.03,211.688,18,173.507,99.777,163.78,152.507,173.045Z" fill="#71b174"/>
        <path id="Path_97" data-name="Path 97" d="M128.236,144.4c5.1.957,9.409,2.724,11.823,5.256,3.085,3.237,4.821,8.035,3.486,12.3-1.367,4.374-5.52,7.264-9.692,9.161-.843.383-1.7.731-2.567,1.059l4.659,9.327c-4.329-1.86-8.833-3.857-12.046-7.225a45.046,45.046,0,0,1-18.446-.25c-5.646-1.277-11.515-4.121-13.793-9.443C84.248,147.278,110.86,141.143,128.236,144.4Z" fill="#fff"/>
      </g>
      <g id="Group_18" data-name="Group 18">
        <g id="Group_15" data-name="Group 15">
          <g id="Group_11" data-name="Group 11">
            <path id="Path_98" data-name="Path 98" d="M132.5,455.5l-4,5,57,2,56,2,16-29-6-6Z" fill="#bc3500"/>
            <path id="Path_99" data-name="Path 99" d="M127,452l4,7,109,2,15-27-1-14Z" fill="#c0b79b"/>
            <path id="Path_100" data-name="Path 100" d="M146,420l-19,32s46-10,58,0c0,0,20-10,55,0l14-32s-45-9-57,3C197,423,178,411,146,420Z" fill="#fff"/>
            <path id="Path_101" data-name="Path 101" d="M197.222,422.709a133.8,133.8,0,0,0-13.929,28.845" fill="none" stroke="#000" stroke-miterlimit="10" stroke-width="1"/>
            <path id="Path_102" data-name="Path 102" d="M136.149,444.866a71.992,71.992,0,0,1,15.938-2.642c1.535-.08,3.237-.053,4.382.972.386.346.72.81,1.226.922a2.348,2.348,0,0,0,1.525-.447c3.118-1.649,6.883-1.187,10.375-.683l10.209,1.475" fill="none" stroke="#000" stroke-miterlimit="10" stroke-width="1"/>
            <path id="Path_103" data-name="Path 103" d="M142.944,438.454c2.823-1.157,6.184-2.281,8.766-.656a13.715,13.715,0,0,0,2.348,1.573c2.429.895,4.714-1.67,7.259-2.146,1.842-.343,3.7.445,5.577.464,1.545.015,3.125-.491,4.607-.057,1.674.491,3.215,2.139,4.849,1.529" fill="none" stroke="#000" stroke-miterlimit="10" stroke-width="1"/>
            <path id="Path_104" data-name="Path 104" d="M144.788,433.012a19.284,19.284,0,0,1,10.342-2.2c2.979.208,6.01,1.1,8.9.343a15.793,15.793,0,0,1,2.864-.755,12.4,12.4,0,0,1,2.675.315c4.2.633,9.083-1.007,12.388,1.662" fill="none" stroke="#000" stroke-miterlimit="10" stroke-width="1"/>
            <path id="Path_105" data-name="Path 105" d="M150.32,425.755c3.847-1.676,8.071-3.385,12.122-2.289a28,28,0,0,0,3.114.908c3.373.505,7.255-1.98,9.976.076a8.8,8.8,0,0,0,1.307,1.016c1.016.5,2.214.066,3.31-.222a12.234,12.234,0,0,1,7.6.468" fill="none" stroke="#000" stroke-miterlimit="10" stroke-width="1"/>
            <path id="Path_106" data-name="Path 106" d="M198,433s-6,13-6,12,27-4,37,0l4-11S218,428,198,433Z" fill="#a197ff"/>
            <path id="Path_107" data-name="Path 107" d="M199.293,429.488c1.687-.162,3-2.121,4.656-1.755a7.464,7.464,0,0,1,1.377.626c2.035.913,4.327-.26,6.487-.818,2.806-.725,5.763-.382,8.64-.033l15.362,1.86" fill="none" stroke="#000" stroke-miterlimit="10" stroke-width="1"/>
            <path id="Path_108" data-name="Path 108" d="M201.581,424.057c2.721-1.12,5.639-2.262,8.526-1.693a14.469,14.469,0,0,0,3.72.718,13.034,13.034,0,0,1,2.713-.337c.822.118,1.527.66,2.339.832,1.583.337,3.093-.77,4.694-1.01,1.9-.285,3.756.669,5.668.878,2.57.28,5.55-.692,7.519.983" fill="none" stroke="#000" stroke-miterlimit="10" stroke-width="1"/>
            <path id="Path_109" data-name="Path 109" d="M204.356,437.926A73.508,73.508,0,0,1,221,435.135" fill="none" stroke="#000" stroke-miterlimit="10" stroke-width="1"/>
            <path id="Path_110" data-name="Path 110" d="M213.5,439.389a73.278,73.278,0,0,1,9.131-1.8" fill="none" stroke="#000" stroke-miterlimit="10" stroke-width="1"/>
            <path id="Path_111" data-name="Path 111" d="M134.55,454.619a207.245,207.245,0,0,1,46.283-1.493" fill="none" stroke="#000" stroke-miterlimit="10" stroke-width="1"/>
            <path id="Path_112" data-name="Path 112" d="M153.033,455.371a100.449,100.449,0,0,1,25.967.056" fill="none" stroke="#000" stroke-miterlimit="10" stroke-width="1"/>
            <path id="Path_113" data-name="Path 113" d="M191.151,452.782a128.243,128.243,0,0,1,43.63,1.462" fill="none" stroke="#000" stroke-miterlimit="10" stroke-width="1"/>
            <path id="Path_114" data-name="Path 114" d="M184.038,451.141c.019,1.168-.991,2.44-.294,3.377.56.753,1.721.543,2.615.256.485.451.321,1.257.019,1.846a3.264,3.264,0,0,0-.623,1.848" fill="none" stroke="#000" stroke-miterlimit="10" stroke-width="1"/>
            <path id="Path_115" data-name="Path 115" d="M198.075,455.815a226.513,226.513,0,0,1,34.488.39" fill="none" stroke="#000" stroke-miterlimit="10" stroke-width="1"/>
            <path id="Path_116" data-name="Path 116" d="M251.57,433.053l-10.209,21.974" fill="none" stroke="#000" stroke-miterlimit="10" stroke-width="1"/>
            <g id="Group_10" data-name="Group 10">
              <path id="Path_117" data-name="Path 117" d="M235.308,407.59l5.31,1.355,3.9.987,44.411,36.544-4.873,5.922-44.411-36.544-1.773-3.378Z" fill="#f27fff"/>
              <rect id="Rectangle_3" data-name="Rectangle 3" width="6.466" height="7.676" transform="translate(284.049 452.399) rotate(-140.55)" fill="#a197ff"/>
              <rect id="Rectangle_4" data-name="Rectangle 4" width="6.466" height="7.676" transform="translate(279.277 448.472) rotate(-140.55)" fill="#f07a50"/>
              <path id="Path_118" data-name="Path 118" d="M235.308,407.59l5.31,1.355c-.032.038-.061.093-.092.131.338-.1.539.443.331.716a1.724,1.724,0,0,1-.94.448c-.329.111-.7.329-.7.678a.982.982,0,0,0,.158.463l.6,1.064a15.543,15.543,0,0,1-2.1.031Z"/>
              <path id="Path_119" data-name="Path 119" d="M269.178,434.53,250.9,419.494" fill="none" stroke="#000" stroke-miterlimit="10" stroke-width="1"/>
            </g>
          </g>
          <g id="Group_14" data-name="Group 14">
            <g id="Group_12" data-name="Group 12">
              <rect id="Rectangle_5" data-name="Rectangle 5" width="8.405" height="82.847" transform="translate(96.727 426.096) rotate(-170.484)" fill="#a197ff"/>
              <rect id="Rectangle_6" data-name="Rectangle 6" width="8.405" height="25.659" transform="translate(106.182 369.696) rotate(-170.484)" fill="#bc3500"/>
            </g>
            <g id="Group_13" data-name="Group 13">
              <rect id="Rectangle_7" data-name="Rectangle 7" width="8.405" height="82.847" transform="translate(93.257 432.405) rotate(174.883)" fill="#f27fff"/>
              <rect id="Rectangle_8" data-name="Rectangle 8" width="8.405" height="25.659" transform="translate(88.156 375.446) rotate(174.883)" fill="#c0b79b"/>
            </g>
            <path id="Path_120" data-name="Path 120" d="M74.168,448.018h37.484L121.6,390.7H65.17Z" fill="#f07a50"/>
            <path id="Path_121" data-name="Path 121" d="M75.976,391.511q17.217.105,34.419-.83" fill="none" stroke="#000" stroke-miterlimit="10" stroke-width="1"/>
            <path id="Path_122" data-name="Path 122" d="M105.391,411.688,85.377,433.734" fill="none" stroke="#000" stroke-miterlimit="10" stroke-width="1"/>
            <path id="Path_123" data-name="Path 123" d="M103.592,421.914l-8.805,9.2" fill="none" stroke="#000" stroke-miterlimit="10" stroke-width="1"/>
            <path id="Path_124" data-name="Path 124" d="M98.4,368.189a30.226,30.226,0,0,0,7.606.291" fill="none" stroke="#000" stroke-miterlimit="10" stroke-width="1"/>
            <path id="Path_125" data-name="Path 125" d="M101.583,348.306a29.149,29.149,0,0,0,8.012.769" fill="none" stroke="#000" stroke-miterlimit="10" stroke-width="1"/>
            <path id="Path_126" data-name="Path 126" d="M80.378,375.495a23.08,23.08,0,0,0,8.4-1.232" fill="none" stroke="#000" stroke-miterlimit="10" stroke-width="1"/>
          </g>
        </g>
        <g id="Group_17" data-name="Group 17">
          <g id="Group_16" data-name="Group 16">
            <path id="Path_127" data-name="Path 127" d="M297.386,413.954l-1.054,7.059,17.884,35.181,74.334-30.6-34.1-17.557Z" fill="#fff"/>
            <path id="Path_128" data-name="Path 128" d="M297.386,413.954l18.852,35.857L385.115,425.6l-25.308-31.16Z" fill="#f07a50"/>
            <path id="Path_129" data-name="Path 129" d="M305.615,415.722s12.39,28.221,13.893,27.247,21.96-6.28,21.96-6.28-10.155-27.822-11.483-27.895S305.615,415.722,305.615,415.722Z" fill="#f27fff"/>
            <path id="Path_130" data-name="Path 130" d="M301.581,422.777q7.428,13.777,14.63,27.673" fill="none" stroke="#000" stroke-miterlimit="10" stroke-width="1"/>
            <path id="Path_131" data-name="Path 131" d="M316.912,449.9l32.643-12.025" fill="none" stroke="#000" stroke-miterlimit="10" stroke-width="1"/>
            <path id="Path_132" data-name="Path 132" d="M308.232,440.2a58.163,58.163,0,0,0,3.124,7.41" fill="none" stroke="#000" stroke-miterlimit="10" stroke-width="1"/>
            <path id="Path_133" data-name="Path 133" d="M315.482,449.9c-.345.1-.356.615-.144.9s.553.464.763.754c.508.7.065,1.672-.407,2.4s-.988,1.628-.589,2.395" fill="none" stroke="#000" stroke-miterlimit="10" stroke-width="1"/>
            <path id="Path_134" data-name="Path 134" d="M298.071,421.617a146.977,146.977,0,0,1,8.366,16.113" fill="none" stroke="#000" stroke-miterlimit="10" stroke-width="1"/>
            <path id="Path_135" data-name="Path 135" d="M296.335,417.992l-.448,3.14" fill="none" stroke="#000" stroke-miterlimit="10" stroke-width="1"/>
          </g>
          <path id="Path_136" data-name="Path 136" d="M328,411.353v9.164L349.929,443.1l25.857,30.766,70.043-21.275,3.273-6.219L379.916,450.3,333.4,409.126Z" fill="#c0b79b"/>
          <path id="Path_137" data-name="Path 137" d="M328,411.353s15.711,4.909,25.53,29.457c0,0,17.424,4.582,26.386,29.457L449.1,446.374s-17.347-32.4-36.658-29.457c0,0-9.831-27.188-32.528-26.979Z" fill="#fff"/>
          <path id="Path_138" data-name="Path 138" d="M354.48,440.274q28.878-10.311,56.815-23.036" fill="none" stroke="#000" stroke-miterlimit="10" stroke-width="1"/>
          <path id="Path_139" data-name="Path 139" d="M365.5,439.469c1.483.922,2.941,1.883,4.4,2.843l1.3.859a16.457,16.457,0,0,1,5,4.371,9.963,9.963,0,0,0,.795,1.168,7.083,7.083,0,0,0,.868.781,27.145,27.145,0,0,1,5.314,5.8c1.005,1.481,1.938,3.135,3.517,3.977" fill="none" stroke="#000" stroke-miterlimit="10" stroke-width="1"/>
          <path id="Path_140" data-name="Path 140" d="M375.029,436.691a4.035,4.035,0,0,1,3.985,4.05,3.748,3.748,0,0,0,.055,1.67c.455,1.046,1.959,1,2.9,1.64,1.08.733,1.285,2.274,2.22,3.187.972.948,2.478,1.007,3.732,1.526,3.436,1.422,4.4,5.9,7.275,8.261" fill="none" stroke="#000" stroke-miterlimit="10" stroke-width="1"/>
          <path id="Path_141" data-name="Path 141" d="M382.745,432.712c1.047.09,1.756,1.11,2.128,2.093a7.889,7.889,0,0,0,1.323,2.832c1.469,1.525,4.382,1.067,5.551,2.833.569.861.552,2.063,1.286,2.789.994.983,2.99.708,3.579,1.977.181.388.171.841.325,1.241.326.846,1.267,1.242,2.075,1.656a11.125,11.125,0,0,1,4.942,5.093" fill="none" stroke="#000" stroke-miterlimit="10" stroke-width="1"/>
          <path id="Path_142" data-name="Path 142" d="M391.322,429.181c1.551,1.391,4.253,1.213,5.4,2.955.894,1.36.4,3.338,1.4,4.622a7.78,7.78,0,0,0,2.463,1.592,12.632,12.632,0,0,1,3.683,3.877l5.917,8.341" fill="none" stroke="#000" stroke-miterlimit="10" stroke-width="1"/>
          <path id="Path_143" data-name="Path 143" d="M414.762,419.619c-.995-.192-15.7,7.749-15.7,7.749l17.679,20.843L438.4,440.88S426.088,421.8,414.762,419.619Z" fill="#bc3500"/>
          <path id="Path_144" data-name="Path 144" d="M354.449,424.586s4.388,4.334,6.119,8.59l38.5-15.938s-3.561-9.343-7.742-10.138Z" fill="#a197ff"/>
          <path id="Path_145" data-name="Path 145" d="M339.469,410.54c1.381-.176,3.007-.266,3.925.781.793.9.711,2.311,1.4,3.294.707,1,2.034,1.332,2.991,2.1.763.612,1.281,1.5,2.078,2.065.938.667,2.373,1.083,2.441,2.233" fill="none" stroke="#000" stroke-miterlimit="10" stroke-width="1"/>
          <path id="Path_146" data-name="Path 146" d="M348.614,406.7c1.455.585,3.035,1.283,3.718,2.694.565,1.17.382,2.6.969,3.759a8.108,8.108,0,0,0,2.257,2.292,13.343,13.343,0,0,1,3.1,3.8" fill="none" stroke="#000" stroke-miterlimit="10" stroke-width="1"/>
          <path id="Path_147" data-name="Path 147" d="M355.114,402.177c.686,1.128,2.147,1.444,3.276,2.128a5.234,5.234,0,0,1,2.23,2.788,10.8,10.8,0,0,0,.884,2.673,5.935,5.935,0,0,0,.962,1.024,23.444,23.444,0,0,1,3.94,4.767" fill="none" stroke="#000" stroke-miterlimit="10" stroke-width="1"/>
          <path id="Path_148" data-name="Path 148" d="M364.036,398.726a1.094,1.094,0,0,0,.588,1.024,6.46,6.46,0,0,0,1.166.448,4.328,4.328,0,0,1,2.639,2.861,5.93,5.93,0,0,0,.446,1.46c.605,1.034,2.06,1.191,2.913,2.033,1.086,1.072,1,3.045,2.248,3.919" fill="none" stroke="#000" stroke-miterlimit="10" stroke-width="1"/>
          <path id="Path_149" data-name="Path 149" d="M374.724,395.644a46.022,46.022,0,0,1,8.785,8.915" fill="none" stroke="#000" stroke-miterlimit="10" stroke-width="1"/>
          <path id="Path_150" data-name="Path 150" d="M379.135,393.262a33.782,33.782,0,0,1,7.3,8.422" fill="none" stroke="#000" stroke-miterlimit="10" stroke-width="1"/>
          <path id="Path_151" data-name="Path 151" d="M396.441,406.132a47.152,47.152,0,0,0,5.244,6.9" fill="none" stroke="#000" stroke-miterlimit="10" stroke-width="1"/>
          <path id="Path_152" data-name="Path 152" d="M401.663,407.09l3.182,4.966" fill="none" stroke="#000" stroke-miterlimit="10" stroke-width="1"/>
          <path id="Path_153" data-name="Path 153" d="M329.247,416.712c8.441,6.313,17.249,13.191,21.006,23.04" fill="none" stroke="#000" stroke-miterlimit="10" stroke-width="1"/>
          <path id="Path_154" data-name="Path 154" d="M336.247,425.6a44.712,44.712,0,0,0,5.728,5.162,15.032,15.032,0,0,1,4.714,6.005" fill="none" stroke="#000" stroke-miterlimit="10" stroke-width="1"/>
          <path id="Path_155" data-name="Path 155" d="M354.1,445.123c7.269,5.33,14.728,10.863,19.4,18.574" fill="none" stroke="#000" stroke-miterlimit="10" stroke-width="1"/>
          <path id="Path_156" data-name="Path 156" d="M360.578,452.739a57.331,57.331,0,0,1,9.483,12.378" fill="none" stroke="#000" stroke-miterlimit="10" stroke-width="1"/>
          <path id="Path_157" data-name="Path 157" d="M378.992,469.661c-.43-.03-.677.522-.6.945s.345.8.41,1.224-.228.967-.653.893" fill="none" stroke="#000" stroke-miterlimit="10" stroke-width="1"/>
          <path id="Path_158" data-name="Path 158" d="M448.045,447.015a5.215,5.215,0,0,0-1.374,1.665,1.776,1.776,0,0,0,.3,2.011c.208.183.5.329.549.6.115.6-.934.739-1.146,1.313" fill="none" stroke="#000" stroke-miterlimit="10" stroke-width="1"/>
          <path id="Path_159" data-name="Path 159" d="M407,462.7q10.272-3.465,20.683-6.5" fill="none" stroke="#000" stroke-miterlimit="10" stroke-width="1"/>
          <path id="Path_160" data-name="Path 160" d="M434.623,454.549q2.834-.6,5.6-1.467" fill="none" stroke="#000" stroke-miterlimit="10" stroke-width="1"/>
          <path id="Path_161" data-name="Path 161" d="M310.039,409.543q16.785-4.293,33.188-9.927" fill="none" stroke="#000" stroke-miterlimit="10" stroke-width="1"/>
          <path id="Path_162" data-name="Path 162" d="M317.376,423.2l13.587,14.462" fill="none" stroke="#000" stroke-miterlimit="10" stroke-width="1"/>
          <path id="Path_163" data-name="Path 163" d="M325.937,425.4a38.971,38.971,0,0,1,4.068,5.362" fill="none" stroke="#000" stroke-miterlimit="10" stroke-width="1"/>
        </g>
      </g>
    </g>
    <g id="TEXTS">
      <text id="The_bin_Had_" data-name="The bin
Had…" transform="translate(382.667 209.2)" fill="#71b174" font-size="16" font-family="Montserrat-Medium, Montserrat" font-weight="500"><tspan x="0" y="0">The bin</tspan><tspan x="0" y="15.2">Had…</tspan></text>
      <text id="_20_X_2_40" data-name="20 X 2 = 40" transform="translate(56 211.433)" fill="#fff" font-size="21" font-family="Montserrat-Medium, Montserrat" font-weight="500"><tspan x="0" y="0">20 X 2 = 40</tspan></text>
    </g>
  </g>
</svg>
